<?xml version="1.0" encoding="utf-8"?>
<!-- Generator: Adobe Illustrator 23.0.0, SVG Export Plug-In . SVG Version: 6.00 Build 0)  -->
<svg version="1.1" id="Layer_1" xmlns="http://www.w3.org/2000/svg" xmlns:xlink="http://www.w3.org/1999/xlink" x="0px" y="0px"
	 viewBox="0 0 1131.1 648.3" style="enable-background:new 0 0 1131.1 648.3;" xml:space="preserve">
<style type="text/css">
	.st0{fill:#F1F1F1;}
	.st1{fill:#EDF7F4;}
	.st2{fill:#F0F9F6;}
	.st3{fill:#037474;}
	.st4{fill:#5DBEA2;}
	.st5{fill:#369D8D;}
	.st6{fill:#027373;}
	.st7{fill:#259085;}
	.st8{fill:#DEF9F0;}
	.st9{fill:#FFFFFF;}
	.st10{fill:#68677D;}
	.st11{fill:#56556C;}
	.st12{fill:url(#SVGID_1_);}
	.st13{fill:#5F5E75;}
	.st14{fill:#47475E;}
	.st15{fill:#EAECEF;}
	.st16{fill:#DADCE0;}
	.st17{fill:#C4C7CC;}
	.st18{fill:#212130;}
	.st19{fill:#37364B;}
	.st20{fill:#15827D;}
	.st21{fill:#459C97;}
	.st22{fill:#62C28C;}
	.st23{fill:#84CFA5;}
	.st24{fill:#EC6E85;}
	.st25{fill:url(#SVGID_2_);}
	.st26{fill:url(#SVGID_3_);}
	.st27{fill:url(#SVGID_4_);}
	.st28{fill:#3B9692;}
	.st29{fill:#12807B;}
	.st30{fill:url(#SVGID_5_);}
	.st31{fill:url(#SVGID_6_);}
	.st32{fill:url(#SVGID_7_);}
	.st33{fill:url(#SVGID_8_);}
	.st34{fill:url(#SVGID_9_);}
	.st35{fill:url(#SVGID_10_);}
	.st36{fill:url(#SVGID_11_);}
	.st37{fill:url(#SVGID_12_);}
	.st38{fill:url(#SVGID_13_);}
	.st39{fill:url(#SVGID_14_);}
	.st40{fill:#4EA19C;}
	.st41{fill:url(#SVGID_15_);}
	.st42{fill:url(#SVGID_16_);}
	.st43{fill:#50A29E;}
	.st44{fill:url(#SVGID_17_);}
	.st45{fill:url(#SVGID_18_);}
	.st46{fill:url(#SVGID_19_);}
	.st47{fill:url(#SVGID_20_);}
	.st48{fill:url(#SVGID_21_);}
	.st49{fill:url(#SVGID_22_);}
	.st50{fill:url(#SVGID_23_);}
	.st51{fill:url(#SVGID_24_);}
	.st52{fill:url(#SVGID_25_);}
	.st53{fill:url(#SVGID_26_);}
	.st54{fill:url(#SVGID_27_);}
	.st55{fill:url(#SVGID_28_);}
	.st56{fill:url(#SVGID_29_);}
	.st57{fill:url(#SVGID_30_);}
	.st58{fill:#67AEAA;}
	.st59{fill:#4FA29C;}
	.st60{fill:#F5BD7B;}
	.st61{fill:none;stroke:url(#SVGID_31_);stroke-width:1.05;stroke-miterlimit:10;}
	.st62{font-family:'Roboto-Bold';}
	.st63{font-size:26.6686px;}
	.st64{fill:#63C36C;}
	.st65{fill:#117F7B;}
	.st66{fill:url(#SVGID_32_);}
	.st67{fill:#4FA19D;}
	.st68{fill:#60C095;}
	.st69{fill:url(#SVGID_33_);}
	.st70{fill:#89D1A9;}
	.st71{fill:#68C96C;}
	.st72{fill:#F6A59A;}
	.st73{fill:#F8B9B0;}
	.st74{fill:#DD786D;}
	.st75{fill:url(#SVGID_34_);}
	.st76{fill:url(#SVGID_35_);}
	.st77{fill:#F7C3A7;}
	.st78{fill:#1D8A81;}
	.st79{fill:url(#SVGID_36_);}
	.st80{fill:url(#SVGID_37_);}
	.st81{fill:url(#SVGID_38_);}
	.st82{fill:#50A39F;}
	.st83{fill:#4FA39D;}
	.st84{fill:#85D0A9;}
	.st85{fill:#85CEB9;}
	.st86{fill:#29293A;}
	.st87{fill:#1B1B29;}
	.st88{fill:none;stroke:#231F20;stroke-width:0.57;stroke-miterlimit:10;}
	.st89{fill:#37374A;}
	.st90{fill:#696977;}
	.st91{fill:#80808C;}
	.st92{fill:#717181;}
	.st93{fill:#80808E;}
	.st94{fill:#6B64F5;}
	.st95{fill:#8580EE;}
	.st96{fill:url(#SVGID_39_);}
	.st97{fill:#9995E4;}
	.st98{fill:#DD776C;}
	.st99{fill:#585767;}
	.st100{fill:#49467C;}
	.st101{fill:#7A78AA;}
	.st102{fill:#8782EA;}
	.st103{fill:#302F43;}
	.st104{fill:#8783E5;}
	.st105{fill:url(#SVGID_40_);}
	.st106{fill:#9996DE;}
	.st107{fill:url(#SVGID_41_);}
	.st108{fill:url(#SVGID_42_);}
	.st109{fill:url(#SVGID_43_);}
	.st110{fill:url(#SVGID_44_);}
	.st111{fill:url(#SVGID_45_);}
	.st112{fill:#8581D9;}
	.st113{fill:url(#SVGID_46_);}
	.st114{fill:url(#SVGID_47_);}
	.st115{fill:#F5C479;}
	.st116{fill:#EE8183;}
	.st117{fill:url(#SVGID_48_);}
	.st118{fill:url(#SVGID_49_);}
	.st119{fill:url(#SVGID_50_);}
	.st120{fill:#60C096;}
	.st121{fill:#88D0AD;}
	.st122{fill:url(#SVGID_51_);}
	.st123{fill:#FAE576;}
	.st124{fill:#C6AE97;}
	.st125{fill:#C54C5D;}
	.st126{fill:url(#SVGID_52_);}
	.st127{fill:#313044;}
	.st128{fill:url(#SVGID_53_);}
	.st129{fill:#5050D8;}
	.st130{fill:#837FD3;}
	.st131{fill:url(#SVGID_54_);}
	.st132{fill:url(#SVGID_55_);}
	.st133{fill:url(#SVGID_56_);}
	.st134{fill:#62C28A;}
</style>
<path class="st0" d="M1060.1,292c-12.1,100.9-42.8,198.6-90.4,288.4l-801.5,2.3c-9.6-15.9-18.7-32.2-27.3-48.7
	c-0.6-1.2-1.3-2.4-1.9-3.7l-1.9-3.7c-16.1-31.9-30-64.9-41.7-98.6c-20.3-58.3-33.9-120.5-25.6-181.6S111.4,125,166,96.3
	c16.7-8.8,34.6-14.3,53.1-17.4c2.5-0.4,4.9-0.8,7.4-1.1c29.4-4,60-2.2,89.4,2c23.3,3.3,46.4,8,69.5,12.3c2.5,0.5,4.9,0.9,7.4,1.4
	c24.7,4.5,49.5,8.3,74.5,9.3c28.3,1.1,56.5-1.4,84.4-6.1c2.5-0.4,4.9-0.8,7.4-1.3c37.5-6.7,74.6-16.9,111.3-26.8
	c15.8-4.2,31.7-8.4,47.6-12.3l3.7-0.9l3.7-0.9c49-11.4,98.8-19.2,148.7-14.6c68.7,6.4,138.6,40.6,169.7,102.2
	C1067,187.6,1066.2,241.3,1060.1,292z"/>
<path class="st1" d="M721.9,55.5v474.8H139.1l-1.9-3.7c-0.3-0.6-0.6-1.2-0.9-1.8c-5.1-10.2-10-20.4-14.6-30.8
	c-2.7-6.1-5.4-12.2-7.9-18.3C107.2,460,101.1,444,95.5,428c-0.7-1.9-1.3-3.8-1.9-5.6c-2.4-7.2-4.7-14.4-6.9-21.7
	c-1.7-5.5-3.2-10.9-4.7-16.4c-5.3-19.4-9.2-39.1-11.8-59c-3.3-26.2-3.8-52.6-0.2-78.9c8.3-61.1,41.6-121.3,96.2-150
	c16.7-8.8,34.6-14.3,53.1-17.4c2.5-0.4,4.9-0.8,7.4-1.1c29.4-4,60-2.2,89.4,2c23.3,3.3,46.4,8,69.5,12.3c2.5,0.5,4.9,0.9,7.4,1.4
	c24.7,4.5,49.5,8.3,74.5,9.3c16.1,0.6,32.3,0.1,48.3-1.4c12.1-1.1,24.1-2.7,36.1-4.7c2.5-0.4,4.9-0.8,7.4-1.3
	c37.5-6.7,74.6-16.9,111.3-26.8c15.8-4.2,31.7-8.4,47.6-12.3L721.9,55.5z"/>
<g>
	<path class="st2" d="M721.9,55.5v24.1L136.3,524.8c-5.1-10.2-10-20.4-14.6-30.8c-2.7-6.1-5.4-12.2-7.9-18.3
		c-6.6-15.7-12.7-31.6-18.3-47.7c-0.7-1.9-1.3-3.8-1.9-5.6l422.2-321c12.1-1.1,24.1-2.7,36.1-4.7c2.5-0.4,4.9-0.8,7.4-1.3
		c37.5-6.7,74.6-16.9,111.3-26.8c15.8-4.2,31.7-8.4,47.6-12.3L721.9,55.5z"/>
	<polygon class="st2" points="722.9,129.2 722.9,188.7 721.8,189.5 273.6,530.3 195.3,530.3 721.8,130 	"/>
</g>
<path class="st3" d="M151.1,538.5h15.2c2.2,0,3.9,1.8,3.9,3.9v25.1c0,2.2-1.8,3.9-3.9,3.9h-15.2c-2.2,0-3.9-1.8-3.9-3.9v-25.1
	C147.2,540.3,149,538.5,151.1,538.5z"/>
<path class="st4" d="M152.1,538.5h15.2c2.2,0,3.9,1.8,3.9,3.9v25.1c0,2.2-1.8,3.9-3.9,3.9h-15.2c-2.2,0-3.9-1.8-3.9-3.9v-25.1
	C148.2,540.3,150,538.5,152.1,538.5z"/>
<path class="st5" d="M170.3,553.9c0,3.2-2.3,5.8-5.5,6.2c-0.3,0-0.6,0.1-0.9,0.1h-2.2c-3.5,0-6.3-2.9-6.3-6.3c0-1.7,0.7-3.2,1.8-4.4
	c1.2-1.2,2.7-1.8,4.4-1.8h2.2c0.3,0,0.6,0,0.9,0.1C167.9,548.1,170.3,550.8,170.3,553.9z"/>
<path class="st6" d="M169.4,553.9c0,2.8-2,5.1-4.8,5.5c-0.2,0-0.5,0.1-0.7,0.1h-2c-3.1,0-5.5-2.5-5.5-5.5c0-3.1,2.5-5.5,5.5-5.5h2
	c0.2,0,0.5,0,0.7,0C167.3,548.8,169.4,551.1,169.4,553.9z"/>
<path class="st7" d="M169.4,553.9c0,2.8-2,5.1-4.8,5.5c-3-0.4-5.2-3.2-4.8-6.2c0.3-2.5,2.3-4.4,4.8-4.8
	C167.3,548.8,169.4,551.2,169.4,553.9z"/>
<path class="st8" d="M721.9,253.4v276.9H139.1l-1.9-3.7c-16.1-31.9-30-64.9-41.7-98.6c-11.6-33.3-21-67.8-25.4-102.8h67.1v153.1
	h24.4V283.5h91.7v145.7H283V249.7h83.2v214.5h23V262.4h46.3v89.4H510v-96.7h103.5v96.7h67v-98.3H721.9z"/>
<path class="st9" d="M531.8,172.3h164.4c0,0-6.9-14.7-27.8-8.9c0,0-28.7-36.5-74.3-4.1C594.1,159.3,550.4,151.3,531.8,172.3z"/>
<path class="st9" d="M359.2,223.7H110.7c0,0,35.8-37.5,78.8-18.7c0,0,16.4-36.3,50.4-36.3s43,32.1,43,32.1s31.9-12.1,46.2,7.4
	C329.2,208.1,358.1,204.2,359.2,223.7z"/>
<path class="st9" d="M725.5,54.6V534h-7.4V56.4C720.6,55.8,723.1,55.2,725.5,54.6z"/>
<path class="st9" d="M226.5,77.8V534h-7.4V78.9C221.5,78.5,224,78.1,226.5,77.8z"/>
<path class="st9" d="M392.8,93.5V534h-7.4V92.1C387.9,92.6,390.4,93,392.8,93.5z"/>
<path class="st9" d="M559.2,95.4V534h-7.4V96.7C554.3,96.3,556.7,95.8,559.2,95.4z"/>
<path class="st9" d="M725.5,526.6v7.4H141c-1.3-2.5-2.5-4.9-3.8-7.4H725.5z"/>
<ellipse class="st10" cx="586.7" cy="589.2" rx="463.6" ry="20.6"/>
<ellipse class="st11" cx="907.3" cy="591.9" rx="112.7" ry="6.1"/>
<linearGradient id="SVGID_1_" gradientUnits="userSpaceOnUse" x1="729.5121" y1="103.5604" x2="740.2322" y2="32.1837" gradientTransform="matrix(1 0 0 -1 0 650)">
	<stop  offset="1.000000e-02" style="stop-color:#3D3C53"/>
	<stop  offset="1" style="stop-color:#6A697F"/>
</linearGradient>
<ellipse class="st12" cx="735.6" cy="587.2" rx="24.2" ry="2.2"/>
<ellipse class="st13" cx="424.6" cy="583.4" rx="198.5" ry="6.1"/>
<path class="st14" d="M378.8,382.5h-68.5c-1.5,0-2.7-1.2-2.7-2.6h68.6C377.6,379.9,378.8,381,378.8,382.5
	C378.8,382.5,378.8,382.5,378.8,382.5z"/>
<rect x="499.3" y="457.8" class="st15" width="10.3" height="104.2"/>
<path class="st16" d="M498.9,457.6h11c1.6,0,2.9,1.3,2.9,2.9v37.6c0,1.6-1.3,2.9-2.9,2.9h-11c-1.6,0-2.9-1.3-2.9-2.9v-37.6
	C496,458.9,497.3,457.6,498.9,457.6z"/>
<path class="st16" d="M564.5,583L564.5,583c-2.6,0-4.9-1.4-5.4-3.3c-2-7.7-11-13.5-21.8-13.5h-67.7c-10.8,0-19.7,5.8-21.8,13.5
	c-0.5,1.9-2.8,3.3-5.4,3.3l0,0c-3.5,0-6.1-2.4-5.4-5c3.1-11.5,16.5-20.2,32.5-20.2h67.7c16,0,29.5,8.7,32.5,20.2
	C570.6,580.6,568,583,564.5,583z"/>
<path class="st16" d="M536.6,583L536.6,583c-2.8,0-5.2-1.6-5.5-3.7c-1.1-8.2-5.9-13.2-9.3-13.2h-36.6c-3.4,0-8.1,5-9.3,13.2
	c-0.3,2.1-2.7,3.7-5.5,3.7l0,0c-3.2,0-5.8-2.1-5.4-4.5c1.6-12.1,9.8-20.7,20.2-20.7h36.6c10.4,0,18.5,8.6,20.2,20.7
	C542.3,581,539.8,583,536.6,583z"/>
<circle class="st17" cx="536.5" cy="577.6" r="6.8"/>
<circle class="st17" cx="564.5" cy="577.7" r="6.8"/>
<circle class="st17" cx="470.6" cy="577.6" r="6.8"/>
<circle class="st17" cx="442.7" cy="577.6" r="6.8"/>
<path class="st18" d="M582.5,220.1c2.8,0.1,53.7-2.7,57.5,12.2s6.2,20.4,13.6,45.4c7.4,25-3.3,53.3-22.4,96.2
	c-19,42.9-50.3,83.8-50.3,83.8L520,475l-72.9-7.5l-10.3-19.2c0,0,80.6-20.6,91.1-45.7c10.5-25,14.7-55.7,14.7-55.7l11.2-45.7
	l16.8-23.6L582.5,220.1z"/>
<path class="st19" d="M662.2,295.3c-3.3,16.1-3.3,53-30.1,114.5c-26.7,61.5-72.8,77.6-86.7,77.6h-73.2c-14.2,0-24-8.3-29.5-15
	c-4.8-5.7-6.1-13.4-3.5-20.4c0.3-0.8,0.6-1.5,1-2.2c27.2-4,85.6,6.4,120.5-2.8c45.6-12,19-31,34.7-61.9
	c15.7-30.9,43.9-52.2,50.9-78.7c6.9-26.5-0.3-27.1-6.9-43.6s-1.8-18.1-3-29.4c-1-8.7-38.8-7-56.2-5.9c2.5-2.5,5.6-4.4,9-5.4
	c23-7.5,64.4-4.6,58.6,20C641.8,266.8,665.5,279.3,662.2,295.3z"/>
<path class="st20" d="M520,325.3c-3.3,1.6-6.7,3-10.2,4.2c-8.8,2-17.8,3.1-26.8,3.3c-27.4,7.8-36.4-15.2-27.4-24.8
	c9-9.7,16.4-11.9,27.6-10.7c11.3,1.2,11.1,5.8,11.1,5.8c12.8-14.6,33.5-14.6,33.6-14.6C550.4,306,532.8,319,520,325.3z"/>
<path class="st21" d="M520,325.3c-3.3,1.6-6.7,3-10.2,4.2c-8.8,2-17.8,3.1-26.8,3.3c-27.4,7.8-36.4-15.2-27.4-24.8
	c9-9.7,15-10.5,26.2-9.3s12.5,4.4,12.5,4.4s-29.4,2.5-34.9,13.5c-5.4,10.8,10.5,21,24.2,10.7c0,0,11.6,5,31.3-0.8
	C516.5,325.9,518.3,325.5,520,325.3z"/>
<path class="st22" d="M531.8,258.6c0,0-17.1,15.4-25.1,27.9c-3.2,5-5.8,8.6-7.8,11.2c-1.4,1.9-2.9,3.7-4.6,5.4
	c-0.7-1.2-1.9-2-3.2-2.5c-11.4-4.5-42,11-42,11c2.2-4,4.8-7.7,7.8-11.2c21.5-25.4,66.1-51.7,66.1-51.7l6.8,7.8L531.8,258.6z"/>
<path class="st23" d="M531.8,258.6c0,0-17.1,15.4-25.1,27.9c-3.2,5-5.8,8.6-7.8,11.2c-1.4,1.9-2.9,3.7-4.6,5.4
	c-0.7-1.2-1.9-2-3.2-2.5c3.3-4.7,9.7-13.8,14.9-19.3c5.9-6.2,18.7-19.7,23.9-24.7L531.8,258.6z"/>
<path class="st24" d="M521.8,253.6c2.6,3.2,10,5,10,5l3.9-6.8l12.7-2l0.8-8.1l-5.2-1.9c0,0,11.7-10.3,13.2-13.5
	c1.5-3.2-0.5-3.3-8.3,2.5c-5.1,3.8-8.4,6.4-12.1,8.4c-1.9,1.1-3.9,1.9-6,2.6c-6.7,2.3-2.1,1.3-8.4,8
	C520.2,250,520.5,252,521.8,253.6z"/>
<linearGradient id="SVGID_2_" gradientUnits="userSpaceOnUse" x1="530.3033" y1="421.3247" x2="533.6065" y2="416.2157" gradientTransform="matrix(1 0 0 -1 0 650)">
	<stop  offset="1.000000e-02" style="stop-color:#FDFE73"/>
	<stop  offset="1" style="stop-color:#EC6E85"/>
</linearGradient>
<path class="st25" d="M545.3,247.1c0,0,4.1,3.5,3.2,6.1s-6.1-2.2-7.8-3.1C539,249.3,545.3,247.1,545.3,247.1z"/>
<linearGradient id="SVGID_3_" gradientUnits="userSpaceOnUse" x1="527.4033" y1="427.1489" x2="539.3566" y2="389.4037" gradientTransform="matrix(1 0 0 -1 0 650)">
	<stop  offset="1.000000e-02" style="stop-color:#FDFE73"/>
	<stop  offset="1" style="stop-color:#EC6E85"/>
</linearGradient>
<path class="st26" d="M521.8,253.6c2.4-1.9,3.3-4.8,5.4-7.5c2.5-3.2,5.5-2.8,6.6-1.6s1.9,7.3,1.9,7.3l12.7-2l0.8-8.1l-5.2-1.9
	c-2.5-0.6-4.8-1.5-7-2.6c-1.9,1.1-3.9,1.9-6,2.6c-6.7,2.3-2.1,1.3-8.4,8C520.2,250,520.5,252,521.8,253.6z"/>
<linearGradient id="SVGID_4_" gradientUnits="userSpaceOnUse" x1="488.5375" y1="180.6712" x2="482.8207" y2="123.4853" gradientTransform="matrix(1 0 0 -1 0 650)">
	<stop  offset="0" style="stop-color:#027373"/>
	<stop  offset="1" style="stop-color:#5DBEA2"/>
</linearGradient>
<path class="st27" d="M460,457.6c0,0,26.3,7.2,73.9,6.4c47.5-0.9-54.5-59.7-78.1-53.7c-23.6,6-21.9,45-21.9,45L460,457.6z"/>
<g>
	<path class="st28" d="M460,457.6c0,0,26.3,7.2,73.9,6.4c47.5-0.9-54.5-59.7-78.1-53.7c-23.6,6-21.9,45-21.9,45L460,457.6z"/>
</g>
<path class="st29" d="M501.6,354.1c1.6,4.4,2.3,9.1,2.2,13.8c0,0.7,0,1.4-0.1,2.1l-2.8,43.7H578c0,0,0.6-16.3,10.7-36.9
	c3.6-7.3,8-14.2,13-20.6c6.5-8.3,13.5-17.4,19.6-26.3c11.9-17.5,20.3-34,14.9-42c-0.2-0.3-0.4-0.6-0.6-0.8c-0.2-0.3-0.5-0.5-0.7-0.7
	c-0.4-0.3-0.8-0.7-1.3-0.9c-0.1-0.1-0.2-0.1-0.3-0.2c-0.4-0.3-0.8-0.5-1.3-0.7c-0.5-0.2-0.9-0.4-1.4-0.5c-1.2-0.4-2.4-0.6-3.6-0.8
	l-4.7-0.6l-1.6-0.2l-1.5-0.2l-5.5-0.7c-4.3-0.5-7.8-1-10.6-1.3c-0.7-0.1-1.3-0.1-1.9-0.2l-1.8-0.2c-0.3,0-0.7-0.1-1-0.2
	c-0.9-0.2-1.7-0.7-2.3-1.4c-1.1-1.2-1.5-2.8-1.2-4.4c0-0.3,0.1-0.6,0.2-0.9l0.1-0.4l1.9-6.9l2.4-8.8l3.5-14.6
	c0,0-33.2,15.6-37.7,16.1c-5.3,0.6-4.6-5.6-4.6-5.6l-4.7,22l-0.7,3.4c-0.3,1.2-1,2.3-1.8,3.2c-0.8,1-1.8,1.7-3,2.3l0,0
	c-0.5,0.2-0.9,0.4-1.4,0.6c-0.2,0.1-0.4,0.1-0.5,0.1l-0.6,0.2c-2.8,0.5-5.7,0.9-8.6,1.1c-1.9,0.2-3.9,0.4-5.8,0.7
	c-1.9,0.3-3.7,0.8-5.5,1.5c-0.4,0.1-0.7,0.3-1,0.4c-0.3,0.1-0.4,0.2-0.6,0.3c-1,0.6-1.9,1.3-2.7,2.2c-2.6,2.9-4.8,6-6.7,9.4l0,0
	l-0.7,1.2c-0.2,0.4-0.4,0.8-0.7,1.2s-0.4,0.8-0.7,1.2s-0.4,0.8-0.6,1.2c-0.4,0.8-0.9,1.7-1.3,2.5c-0.1,0.3-0.3,0.5-0.4,0.8
	c-0.3,0.6-0.6,1.2-0.8,1.8s-0.5,1.1-0.8,1.6l-0.6,1.3c-0.2,0.4-0.4,0.9-0.6,1.3l-1.2,2.7c-0.2,0.5-0.4,1-0.6,1.5
	c-0.6,1.4-1.1,2.7-1.7,4c-0.3,0.7-0.5,1.3-0.8,1.9c-0.1,0.2-0.2,0.5-0.3,0.7l-0.4,1.2c-1.4,3.6-2.6,6.9-3.4,9.5
	c-0.1,0.5-0.3,1-0.4,1.4c-0.1,0.4-0.3,0.9-0.4,1.3c-0.1,0.5-0.3,1-0.4,1.5C499.1,345,500.3,350.2,501.6,354.1z"/>
<linearGradient id="SVGID_5_" gradientUnits="userSpaceOnUse" x1="595.4097" y1="169.5309" x2="627.8872" y2="371.4519" gradientTransform="matrix(1 0 0 -1 0 650)">
	<stop  offset="0" style="stop-color:#FFFFFF;stop-opacity:0"/>
	<stop  offset="1" style="stop-color:#19857E"/>
</linearGradient>
<path class="st30" d="M619.2,333.2c-0.1,0.1-0.1,0.2-0.2,0.3C619,333.4,619.1,333.3,619.2,333.2z"/>
<linearGradient id="SVGID_6_" gradientUnits="userSpaceOnUse" x1="574.2366" y1="172.9364" x2="606.7141" y2="374.8574" gradientTransform="matrix(1 0 0 -1 0 650)">
	<stop  offset="0" style="stop-color:#FFFFFF;stop-opacity:0"/>
	<stop  offset="1" style="stop-color:#19857E"/>
</linearGradient>
<path class="st31" d="M591.4,371.9c-0.3,0.5-0.5,0.9-0.7,1.4C590.9,372.8,591.2,372.4,591.4,371.9z"/>
<linearGradient id="SVGID_7_" gradientUnits="userSpaceOnUse" x1="597.098" y1="169.2594" x2="629.5755" y2="371.1803" gradientTransform="matrix(1 0 0 -1 0 650)">
	<stop  offset="0" style="stop-color:#FFFFFF;stop-opacity:0"/>
	<stop  offset="1" style="stop-color:#19857E"/>
</linearGradient>
<path class="st32" d="M621.4,330C621.4,330,621.4,330,621.4,330c0,0-0.1,0.1-0.1,0.1C621.3,330.1,621.3,330.1,621.4,330z"/>
<linearGradient id="SVGID_8_" gradientUnits="userSpaceOnUse" x1="575.2768" y1="172.7691" x2="607.7543" y2="374.6901" gradientTransform="matrix(1 0 0 -1 0 650)">
	<stop  offset="0" style="stop-color:#FFFFFF;stop-opacity:0"/>
	<stop  offset="1" style="stop-color:#19857E"/>
</linearGradient>
<path class="st33" d="M592.9,369.3c-0.3,0.4-0.5,0.9-0.8,1.3C592.4,370.2,592.7,369.8,592.9,369.3z"/>
<linearGradient id="SVGID_9_" gradientUnits="userSpaceOnUse" x1="573.2908" y1="173.0886" x2="605.7683" y2="375.0096" gradientTransform="matrix(1 0 0 -1 0 650)">
	<stop  offset="0" style="stop-color:#FFFFFF;stop-opacity:0"/>
	<stop  offset="1" style="stop-color:#19857E"/>
</linearGradient>
<path class="st34" d="M590,374.6c-0.2,0.4-0.4,0.8-0.7,1.3C589.5,375.4,589.8,375,590,374.6z"/>
<linearGradient id="SVGID_10_" gradientUnits="userSpaceOnUse" x1="578.9991" y1="172.1704" x2="611.4767" y2="374.0914" gradientTransform="matrix(1 0 0 -1 0 650)">
	<stop  offset="0" style="stop-color:#FFFFFF;stop-opacity:0"/>
	<stop  offset="1" style="stop-color:#19857E"/>
</linearGradient>
<path class="st35" d="M597.9,361.6c-0.2,0.3-0.4,0.5-0.6,0.8C597.5,362.1,597.7,361.8,597.9,361.6z"/>
<linearGradient id="SVGID_11_" gradientUnits="userSpaceOnUse" x1="576.4114" y1="172.5866" x2="608.8889" y2="374.5076" gradientTransform="matrix(1 0 0 -1 0 650)">
	<stop  offset="0" style="stop-color:#FFFFFF;stop-opacity:0"/>
	<stop  offset="1" style="stop-color:#19857E"/>
</linearGradient>
<path class="st36" d="M594.5,366.7c-0.2,0.4-0.5,0.8-0.7,1.2C594,367.5,594.2,367.1,594.5,366.7z"/>
<linearGradient id="SVGID_12_" gradientUnits="userSpaceOnUse" x1="577.6488" y1="172.3876" x2="610.1263" y2="374.3086" gradientTransform="matrix(1 0 0 -1 0 650)">
	<stop  offset="0" style="stop-color:#FFFFFF;stop-opacity:0"/>
	<stop  offset="1" style="stop-color:#19857E"/>
</linearGradient>
<path class="st37" d="M596.1,364.2c-0.2,0.3-0.4,0.7-0.7,1C595.7,364.8,595.9,364.5,596.1,364.2z"/>
<linearGradient id="SVGID_13_" gradientUnits="userSpaceOnUse" x1="580.4808" y1="171.9321" x2="612.9584" y2="373.8531" gradientTransform="matrix(1 0 0 -1 0 650)">
	<stop  offset="0" style="stop-color:#FFFFFF;stop-opacity:0"/>
	<stop  offset="1" style="stop-color:#19857E"/>
</linearGradient>
<path class="st38" d="M599.8,359c-0.1,0.2-0.3,0.4-0.4,0.5C599.5,359.3,599.7,359.1,599.8,359z"/>
<linearGradient id="SVGID_14_" gradientUnits="userSpaceOnUse" x1="584.1031" y1="171.3495" x2="616.5806" y2="373.2704" gradientTransform="matrix(1 0 0 -1 0 650)">
	<stop  offset="0" style="stop-color:#FFFFFF;stop-opacity:0"/>
	<stop  offset="1" style="stop-color:#19857E"/>
</linearGradient>
<path class="st39" d="M604.2,353.3c0.1-0.1,0.2-0.2,0.3-0.4C604.3,353.1,604.2,353.2,604.2,353.3z"/>
<path class="st40" d="M599.8,326.5l9.6-11.7c-2.7-0.9-6.1-1.4-10.1-1.4c-32.7-0.2-77.6,5.6-77.6,5.6l-16.4,5.8
	c-2.2,5.6-3.9,10.6-4.8,13.7c-0.1,0.6-0.3,1-0.4,1.5c-1.1,4.9,0.1,10.2,1.5,14c1.6,4.4,2.3,9.1,2.2,13.8
	c9.1-6.4,21.7-12.8,36.1-12.8c20.2,0,33.3,2.1,45.1,16.6c5.5-9.7,11.4-17.7,15.8-24.7C610.8,331.2,599.8,326.5,599.8,326.5z"/>
<linearGradient id="SVGID_15_" gradientUnits="userSpaceOnUse" x1="586.0205" y1="171.0411" x2="618.498" y2="372.962" gradientTransform="matrix(1 0 0 -1 0 650)">
	<stop  offset="0" style="stop-color:#FFFFFF;stop-opacity:0"/>
	<stop  offset="1" style="stop-color:#19857E"/>
</linearGradient>
<path class="st41" d="M606.8,349.9C606.8,350,606.8,350,606.8,349.9C606.8,350,606.8,350,606.8,349.9z"/>
<linearGradient id="SVGID_16_" gradientUnits="userSpaceOnUse" x1="589.8704" y1="170.4218" x2="606.4189" y2="273.3077" gradientTransform="matrix(1 0 0 -1 0 650)">
	<stop  offset="0" style="stop-color:#FFFFFF;stop-opacity:0"/>
	<stop  offset="1" style="stop-color:#19857E"/>
</linearGradient>
<path class="st42" d="M611.8,343.4C611.8,343.4,611.8,343.4,611.8,343.4C611.8,343.4,611.8,343.4,611.8,343.4z"/>
<path class="st43" d="M585,371.7c-6.5,11.4-12.5,25.1-15,42h8.1c0,0,0.6-16.9,11.2-37.9c-0.2,0.3-0.4,0.7-0.5,1
	C587.5,375,586.3,373.3,585,371.7z"/>
<linearGradient id="SVGID_17_" gradientUnits="userSpaceOnUse" x1="499.2463" y1="319.0342" x2="691.0814" y2="255.4886" gradientTransform="matrix(1 0 0 -1 0 650)">
	<stop  offset="0" style="stop-color:#FFFFFF;stop-opacity:0"/>
	<stop  offset="1" style="stop-color:#19857E"/>
</linearGradient>
<path class="st44" d="M597.4,362.4c-0.4,0.6-0.8,1.2-1.2,1.8C596.5,363.6,596.9,363,597.4,362.4z"/>
<linearGradient id="SVGID_18_" gradientUnits="userSpaceOnUse" x1="502.379" y1="328.4914" x2="694.2141" y2="264.9457" gradientTransform="matrix(1 0 0 -1 0 650)">
	<stop  offset="0" style="stop-color:#FFFFFF;stop-opacity:0"/>
	<stop  offset="1" style="stop-color:#19857E"/>
</linearGradient>
<path class="st45" d="M604.2,353.3c-0.8,1-1.6,2-2.3,3C602.6,355.3,603.4,354.3,604.2,353.3z"/>
<linearGradient id="SVGID_19_" gradientUnits="userSpaceOnUse" x1="498.2694" y1="316.0851" x2="690.1044" y2="252.5394" gradientTransform="matrix(1 0 0 -1 0 650)">
	<stop  offset="0" style="stop-color:#FFFFFF;stop-opacity:0"/>
	<stop  offset="1" style="stop-color:#19857E"/>
</linearGradient>
<path class="st46" d="M595.5,365.2c-0.3,0.5-0.7,1-1,1.6C594.8,366.2,595.1,365.7,595.5,365.2z"/>
<linearGradient id="SVGID_20_" gradientUnits="userSpaceOnUse" x1="500.2484" y1="322.0594" x2="692.0834" y2="258.5138" gradientTransform="matrix(1 0 0 -1 0 650)">
	<stop  offset="0" style="stop-color:#FFFFFF;stop-opacity:0"/>
	<stop  offset="1" style="stop-color:#19857E"/>
</linearGradient>
<path class="st47" d="M599.4,359.5c-0.5,0.7-1,1.4-1.5,2.1C598.4,360.9,598.9,360.2,599.4,359.5z"/>
<linearGradient id="SVGID_21_" gradientUnits="userSpaceOnUse" x1="508.4982" y1="346.9644" x2="700.3333" y2="283.4187" gradientTransform="matrix(1 0 0 -1 0 650)">
	<stop  offset="0" style="stop-color:#FFFFFF;stop-opacity:0"/>
	<stop  offset="1" style="stop-color:#19857E"/>
</linearGradient>
<path class="st48" d="M619,333.5c-2.3,3.3-4.7,6.6-7.2,9.9C614.2,340.1,616.7,336.8,619,333.5z"/>
<linearGradient id="SVGID_22_" gradientUnits="userSpaceOnUse" x1="501.3238" y1="325.3059" x2="693.1589" y2="261.7603" gradientTransform="matrix(1 0 0 -1 0 650)">
	<stop  offset="0" style="stop-color:#FFFFFF;stop-opacity:0"/>
	<stop  offset="1" style="stop-color:#19857E"/>
</linearGradient>
<path class="st49" d="M601.8,356.3c-0.7,0.9-1.3,1.7-2,2.6C600.4,358.1,601.1,357.2,601.8,356.3z"/>
<linearGradient id="SVGID_23_" gradientUnits="userSpaceOnUse" x1="505.4392" y1="337.7296" x2="697.2742" y2="274.1839" gradientTransform="matrix(1 0 0 -1 0 650)">
	<stop  offset="0" style="stop-color:#FFFFFF;stop-opacity:0"/>
	<stop  offset="1" style="stop-color:#19857E"/>
</linearGradient>
<path class="st50" d="M611.8,343.4c-1.7,2.2-3.3,4.4-5,6.6C608.4,347.8,610.1,345.6,611.8,343.4z"/>
<linearGradient id="SVGID_24_" gradientUnits="userSpaceOnUse" x1="495.4234" y1="307.4933" x2="687.2584" y2="243.9476" gradientTransform="matrix(1 0 0 -1 0 650)">
	<stop  offset="0" style="stop-color:#FFFFFF;stop-opacity:0"/>
	<stop  offset="1" style="stop-color:#19857E"/>
</linearGradient>
<path class="st51" d="M590.7,373.3c-0.2,0.4-0.5,0.9-0.7,1.3C590.2,374.2,590.4,373.7,590.7,373.3z"/>
<linearGradient id="SVGID_25_" gradientUnits="userSpaceOnUse" x1="510.9907" y1="354.4889" x2="702.8257" y2="290.9432" gradientTransform="matrix(1 0 0 -1 0 650)">
	<stop  offset="0" style="stop-color:#FFFFFF;stop-opacity:0"/>
	<stop  offset="1" style="stop-color:#19857E"/>
</linearGradient>
<path class="st52" d="M621.3,330.2c-0.7,1-1.4,2-2.1,3C619.9,332.2,620.6,331.2,621.3,330.2z"/>
<linearGradient id="SVGID_26_" gradientUnits="userSpaceOnUse" x1="503.639" y1="332.295" x2="695.474" y2="268.7494" gradientTransform="matrix(1 0 0 -1 0 650)">
	<stop  offset="0" style="stop-color:#FFFFFF;stop-opacity:0"/>
	<stop  offset="1" style="stop-color:#19857E"/>
</linearGradient>
<path class="st53" d="M606.8,350c-0.8,1-1.6,2-2.3,3C605.2,352,606,351,606.8,350z"/>
<linearGradient id="SVGID_27_" gradientUnits="userSpaceOnUse" x1="518.8459" y1="378.2026" x2="710.681" y2="314.657" gradientTransform="matrix(1 0 0 -1 0 650)">
	<stop  offset="0" style="stop-color:#FFFFFF;stop-opacity:0"/>
	<stop  offset="1" style="stop-color:#19857E"/>
</linearGradient>
<path class="st54" d="M621.4,330c11.9-17.5,20.3-34,14.9-42c-0.4-0.6-0.8-1.1-1.4-1.6c-0.4-0.3-0.8-0.7-1.2-1l-24.2,29.3
	C618,317.6,620.9,323.8,621.4,330z"/>
<linearGradient id="SVGID_28_" gradientUnits="userSpaceOnUse" x1="496.3605" y1="310.3225" x2="688.1956" y2="246.7769" gradientTransform="matrix(1 0 0 -1 0 650)">
	<stop  offset="0" style="stop-color:#FFFFFF;stop-opacity:0"/>
	<stop  offset="1" style="stop-color:#19857E"/>
</linearGradient>
<path class="st55" d="M592.1,370.6c-0.2,0.4-0.5,0.9-0.7,1.3C591.6,371.5,591.9,371.1,592.1,370.6z"/>
<linearGradient id="SVGID_29_" gradientUnits="userSpaceOnUse" x1="497.3083" y1="313.1836" x2="689.1433" y2="249.638" gradientTransform="matrix(1 0 0 -1 0 650)">
	<stop  offset="0" style="stop-color:#FFFFFF;stop-opacity:0"/>
	<stop  offset="1" style="stop-color:#19857E"/>
</linearGradient>
<path class="st56" d="M593.8,367.9c-0.3,0.5-0.6,0.9-0.8,1.4C593.2,368.9,593.5,368.4,593.8,367.9z"/>
<linearGradient id="SVGID_30_" gradientUnits="userSpaceOnUse" x1="582.6772" y1="171.5788" x2="615.1547" y2="373.4998" gradientTransform="matrix(1 0 0 -1 0 650)">
	<stop  offset="0" style="stop-color:#FFFFFF;stop-opacity:0"/>
	<stop  offset="1" style="stop-color:#19857E"/>
</linearGradient>
<path class="st57" d="M606.8,350C606.8,350,606.8,350,606.8,350c1.7-2.2,3.4-4.4,5-6.6c0,0,0,0,0,0c2.5-3.3,4.9-6.6,7.2-9.9
	c0.1-0.1,0.1-0.2,0.2-0.3c0.7-1,1.4-2,2.1-3c0,0,0.1-0.1,0.1-0.1c-0.5-6.2-3.4-12.4-11.9-15.2l-9.6,11.7c0,0,11,4.6,1,20.5
	c-4.4,6.9-10.3,15-15.8,24.7c1.3,1.6,2.5,3.3,3.8,5.2c0.2-0.3,0.3-0.7,0.5-1c0.2-0.4,0.4-0.8,0.7-1.3c0.2-0.4,0.5-0.9,0.7-1.3
	c0.2-0.5,0.5-0.9,0.7-1.4c0.2-0.4,0.5-0.9,0.7-1.3c0.3-0.4,0.5-0.9,0.8-1.3c0.3-0.5,0.6-0.9,0.8-1.4c0.2-0.4,0.5-0.8,0.7-1.2
	c0.3-0.5,0.7-1,1-1.6c0.2-0.3,0.4-0.7,0.7-1c0.4-0.6,0.8-1.2,1.2-1.8c0.2-0.3,0.4-0.5,0.6-0.8c0.5-0.7,1-1.4,1.5-2.1
	c0.1-0.2,0.3-0.4,0.4-0.5c0.7-0.9,1.3-1.8,2-2.6c0.8-1,1.6-2,2.3-3c0.1-0.1,0.2-0.2,0.3-0.4C605.2,352,606,351,606.8,350z"/>
<path class="st58" d="M606.8,350C606.8,350,606.8,350,606.8,350c1.7-2.2,3.4-4.4,5-6.6c0,0,0,0,0,0c2.5-3.3,4.9-6.6,7.2-9.9
	c0.1-0.1,0.1-0.2,0.2-0.3c0.7-1,1.4-2,2.1-3c0,0,0.1-0.1,0.1-0.1c-0.5-6.2-3.4-12.4-11.9-15.2l-9.6,11.7c0,0,11,4.6,1,20.5
	c-4.4,6.9-10.3,15-15.8,24.7c1.3,1.6,2.5,3.3,3.8,5.2c0.2-0.3,0.3-0.7,0.5-1c0.2-0.4,0.4-0.8,0.7-1.3c0.2-0.4,0.5-0.9,0.7-1.3
	c0.2-0.5,0.5-0.9,0.7-1.4c0.2-0.4,0.5-0.9,0.7-1.3c0.3-0.4,0.5-0.9,0.8-1.3c0.3-0.5,0.6-0.9,0.8-1.4c0.2-0.4,0.5-0.8,0.7-1.2
	c0.3-0.5,0.7-1,1-1.6c0.2-0.3,0.4-0.7,0.7-1c0.4-0.6,0.8-1.2,1.2-1.8c0.2-0.3,0.4-0.5,0.6-0.8c0.5-0.7,1-1.4,1.5-2.1
	c0.1-0.2,0.3-0.4,0.4-0.5c0.7-0.9,1.3-1.8,2-2.6c0.8-1,1.6-2,2.3-3c0.1-0.1,0.2-0.2,0.3-0.4C605.2,352,606,351,606.8,350z"/>
<path class="st20" d="M636.2,288.1c-4.9,7.7-13.9,18-23.6,27.9c-11.3,11.6-23.6,22.6-31.1,27.7c-0.8,0.5-1.5,1-2.2,1.4
	c-0.7,0.4-1.3,0.7-1.9,1c-13.4,6.7-29.1,0.2-39.8,0.4c-11.1,0.2-19.9,10.2-31.5,2.3c-3.4-2.3-5-6.1-5.7-10.4l0.4-1.3l0.4-1.4
	c0.9-2.6,2-5.9,3.4-9.5l0.4-1.2c0.1-0.2,0.2-0.5,0.3-0.7l0.8-1.9c0.5-1.3,1.1-2.6,1.7-4l0.6-1.5c0.4-0.9,0.8-1.8,1.2-2.7l0.6-1.3
	l0.6-1.4c0.3-0.5,0.5-1.1,0.7-1.6s0.6-1.2,0.9-1.8c0.1-0.3,0.3-0.6,0.4-0.8c0.4-0.9,0.9-1.7,1.3-2.5l0.6-1.2
	c0.2-0.4,0.4-0.8,0.7-1.2s0.4-0.8,0.7-1.2c0.2-0.4,0.4-0.8,0.7-1.2l0,0c1.9-3.4,4.1-6.6,6.7-9.4c0.8-0.9,1.7-1.6,2.7-2.2
	c0.2-0.1,0.4-0.2,0.6-0.3c0.3-0.1,0.7-0.3,1-0.4c1.8-0.7,3.6-1.2,5.5-1.5c1.9-0.3,3.9-0.5,5.8-0.7c2.9-0.2,5.8-0.5,8.6-1.1
	c0.2,0,0.4-0.1,0.6-0.2c0.2-0.1,0.4-0.1,0.6-0.1c0.5-0.1,1-0.3,1.4-0.6l0,0c1.1-0.6,2.1-1.4,3-2.3c0.8-0.9,1.4-2,1.8-3.2l0.7-3.4
	l1.1-5.2l3.6-16.8c0,0-0.7,6.2,4.6,5.6c4.5-0.5,37.7-16.1,37.7-16.1l-3.4,14.6l-2.4,8.8l-1.9,6.9l-0.1,0.3v0.1
	c-0.1,0.3-0.1,0.6-0.2,0.9c-0.3,1.6,0.2,3.2,1.2,4.4c0.5,0.6,1.2,1,1.9,1.3c0.1,0.1,0.3,0.1,0.4,0.1c0.3,0.1,0.7,0.2,1,0.2l1.8,0.2
	c0.6,0.1,1.2,0.1,1.9,0.2c2.8,0.3,6.2,0.7,10.6,1.3l5.5,0.7l0.9,0.1l0.7,0.1l1.6,0.2l4.7,0.6c0.9,0.1,1.8,0.3,2.6,0.5l0.4,0.1
	l0.5,0.2h0.1c0.5,0.1,0.9,0.3,1.4,0.5c0.3,0.1,0.6,0.3,0.9,0.5c0.1,0.1,0.2,0.1,0.4,0.2c0.1,0,0.2,0.1,0.3,0.2
	c0.4,0.3,0.9,0.6,1.3,1c0.3,0.2,0.5,0.5,0.7,0.7C635.8,287.5,636,287.8,636.2,288.1z"/>
<path class="st59" d="M546.2,299.8c0,0-5.2,0.7-11.3-4.3c-3.3-2.6-7.2-4.2-11.3-4.6c0.8-0.8,1.7-1.6,2.6-2.2
	c0.2-0.1,0.4-0.2,0.6-0.3c0.3-0.1,0.7-0.3,1-0.4c1.8-0.7,3.6-1.2,5.5-1.5L546.2,299.8z"/>
<path class="st22" d="M545.4,299.7c-9.9-3.5-14.5-10-17.5-11.7c6.5-2.6,15.3-1.8,21.1-3.5c0.5-0.1,1-0.3,1.4-0.6l0,0l-2.1,13.9
	c-0.2,1.3-1.5,2.2-2.8,1.9C545.5,299.7,545.4,299.7,545.4,299.7z"/>
<ellipse transform="matrix(0.9451 -0.3269 0.3269 0.9451 -66.2454 194.4439)" class="st60" cx="545.4" cy="294.3" rx="2.2" ry="1.6"/>
<path class="st22" d="M506.7,413.7h-3.1c3.6-17.7,6-42,7.4-56.4c0.5-4.9,0.9-8.8,1.2-11.2c0.6-3.8,0.1-7.7-1.6-11.3
	c-1.7-3.6-2.3-7.6-2-11.5c0.4-6.2,4.5-15.6,8.3-23l0,0c3.2-5.6,6.5-10,9.4-11.6c0,0.4-0.1,0.7-0.2,1c-0.1,0.2-13.6,22.6-14.2,33.1
	c-0.3,3.6,0.4,7.1,1.9,10.4c1.8,3.9,2.4,8.3,1.8,12.6c-0.3,2.4-0.7,6.2-1.2,11.2C512.7,372.4,510.4,396.1,506.7,413.7z"/>
<linearGradient id="SVGID_31_" gradientUnits="userSpaceOnUse" x1="528.0507" y1="329.4757" x2="583.0129" y2="329.4757" gradientTransform="matrix(1 0 0 -1 0 650)">
	<stop  offset="1.000000e-02" style="stop-color:#5DBEA2"/>
	<stop  offset="1" style="stop-color:#69C86C"/>
</linearGradient>
<path class="st61" d="M574.4,297.2h-22.6c-1.1,0-2.1,0.4-2.8,1.2L529.6,319c-0.9,0.9-1.2,2.3-0.9,3.5l4.2,18.3c0.4,1.7,2,3,3.7,3
	h22.6c1.1,0,2.1-0.4,2.8-1.2l19.4-20.6c0.9-0.9,1.2-2.3,1-3.5l-4.3-18.3C577.7,298.5,576.2,297.2,574.4,297.2z"/>
<text transform="matrix(0.9601 0 -0.5101 0.8601 533.0881 327.2715)" class="st62 st63">PR</text>
<path class="st64" d="M541.9,321.5l-3.4,5.8h-3.8l9.6-16.3h7.1c1.1-0.1,2.2,0.2,3.2,0.7c0.7,0.4,1.2,1.1,1.3,1.9c0,1-0.3,2-0.8,2.8
	c-1,1.6-2.4,2.9-4.1,3.8c-1.8,0.9-3.8,1.4-5.9,1.4L541.9,321.5z M543.5,318.8h3.4c0.9,0,1.8-0.2,2.6-0.6c0.8-0.4,1.4-1,1.8-1.8
	c0.4-0.5,0.6-1.3,0.4-1.9c-0.2-0.5-0.8-0.7-1.8-0.8h-3.4L543.5,318.8z"/>
<path class="st64" d="M561.5,321.3h-3l-3.5,6h-3.8l9.6-16.3h6.8c2.1,0,3.6,0.4,4.2,1.3s0.5,2.1-0.4,3.6c-0.6,1.1-1.5,2-2.4,2.8
	c-1.1,0.8-2.3,1.4-3.5,1.8v6.7l-0.1,0.2h-4L561.5,321.3z M560.2,318.6h3c0.9,0,1.8-0.2,2.6-0.6c0.8-0.4,1.4-1,1.8-1.8
	c0.4-0.5,0.5-1.2,0.3-1.8c-0.2-0.4-0.9-0.7-1.9-0.7h-3L560.2,318.6z"/>
<path class="st65" d="M578.1,413.7c-0.2,2.6-0.5,5.3-1,7.9c-2.7,15.4-12.7,47.4-48.4,41.8c-46.8-7.3-90.2-31.9-90.2-31.9
	s-9,23.7-13,27s-27.4,13-27.4,13l-2.6-3.2l-8.8-10.7l-2.3-2.8c0,0,30-56,35.4-59.4c0,0,89.8,11.2,153.4,17.7L578.1,413.7z"/>
<linearGradient id="SVGID_32_" gradientUnits="userSpaceOnUse" x1="483.4921" y1="273.6992" x2="479.2287" y2="163.1682" gradientTransform="matrix(1 0 0 -1 0 650)">
	<stop  offset="0" style="stop-color:#FFFFFF;stop-opacity:0"/>
	<stop  offset="1" style="stop-color:#19857E"/>
</linearGradient>
<path class="st66" d="M578.1,413.7c-0.2,2.6-0.5,5.3-1,7.9C539,417,421,399.1,421,399.1l-34.3,58.6l-2.3-2.8c0,0,30-56,35.4-59.4
	c0,0,89.8,11.2,153.4,17.7L578.1,413.7z"/>
<path class="st67" d="M578.1,413.7c0,0-2.6,57-49.5,49.7c-46.8-7.3-90.1-31.9-90.1-31.9s-9,23.7-13,27s-27.4,13-27.4,13l-2.6-3.2
	c11.2-6.1,29.8-19.8,39.4-47.5c0,0,5.3,9.8,43.9,24.3c38.6,14.4,65.3,20.1,78.5,5.8c11.5-12.5,15.1-26.9,15.9-37.7L578.1,413.7z"/>
<path class="st68" d="M436.8,448.2c0,0-2.1,3-5.3,7c-5.1,6.6-12.8,16.1-18.2,20.3c-8.7,6.8-35.3,20-45,29.5
	c-9.6,9.5-37.4,33.5-39.3,35.5c-1.9,2-1.1,11.5-2.1,14.7c-0.9,3.2-48.4,7.5-57.1,8.2c-7.9,0.6-9.9-0.8-5.7-4.8
	c0.5-0.5,1.2-1.1,1.9-1.7c6.4-5.3,34.9-16.6,40.7-22.3c5.9-5.7,12.1-11.8,12.1-11.8s21.1-23,34-40.2c11.4-15.3,21.1-31.8,29.1-49.1
	c4.2-9.1,16.2-24.5,25.7-36.3c6.4-7.9,11.6-14.2,12.5-15.8c2.1-3.6,2.7,36.9,13.5,60.8C434.6,444.3,435.6,446.3,436.8,448.2z"/>
<linearGradient id="SVGID_33_" gradientUnits="userSpaceOnUse" x1="420.4174" y1="286.7973" x2="423.3066" y2="192.5094" gradientTransform="matrix(1 0 0 -1 0 650)">
	<stop  offset="1.000000e-02" style="stop-color:#FDFE73"/>
	<stop  offset="1" style="stop-color:#EC6E85"/>
</linearGradient>
<path class="st69" d="M436.8,448.2c0,0-2.1,3-5.3,7c-18.5-29.1-16.9-59.1-17.3-59.7c-0.2-0.4-3.3,0.6-6.6,1.7
	c6.4-7.9,11.6-14.2,12.5-15.8C422.5,377.5,423,425.9,436.8,448.2z"/>
<path class="st70" d="M436.8,448.2c0,0-2.1,3-5.3,7c-5.1,6.6-12.8,16.1-18.2,20.3c-8.7,6.8-35.3,20-45,29.5
	c-9.6,9.5-37.4,33.5-39.3,35.5c-1.9,2-1.1,11.5-2.1,14.7c-0.9,3.2-48.4,7.5-57.1,8.2c-7.9,0.6-9.9-0.8-5.7-4.8
	c19.1,0.1,41.4-3.3,51.5-4.9c10.5-1.6,7.2-6.5,7.2-10.5c0-3.5-7-7.5-8.6-8.4c0.8,0.3,3.4,0.9,11.2-0.1c9.8-1.3,20.3-16.7,40.2-34.3
	c19.9-17.6,33-20.3,42.1-29c7.1-6.8,19.9-22.4,25.9-29.3C434.5,444.3,435.6,446.3,436.8,448.2z"/>
<path class="st68" d="M460,457.6c0,0-0.6,4-2.2,9.8c-2.5,9.6-7.5,24.2-16.2,34.3c-12.5,14.6-33.2,48.1-38,60.5
	c-0.6,1.5-0.7,3.1-0.4,4.7c3.6,17.6,3.8,17.6-11.8,17.6h-30.8c-2,0-3.5-2.4-2.2-3.9c3.2-3.5,23.2-10.9,28.2-17
	c6.6-8.1,15.7-34.1,19.2-63.4c1.7-13.5,4.1-26.9,7.2-40.1c1.8-7.8,3.2-12.4,3.2-12.4s21.8-34.7,24.3-34.4l15.6,35.5L460,457.6z"/>
<path class="st70" d="M460,457.6c0,0-0.6,4-2.2,9.8c-2.5,9.6-7.5,24.2-16.2,34.3c-12.5,14.6-33.2,48.1-38,60.5
	c-0.6,1.5-0.7,3.1-0.4,4.7c3.6,17.6,3.8,17.6-11.8,17.6h-30.8c-2,0-3.5-2.4-2.2-3.9h41c2.9,0,2.5-13.7-7.2-17c0,0,8.3-4.6,13.2-12.7
	c4.9-8.1,16.8-28.4,28.5-46.2c9.5-14.5,17.3-37.4,22.1-55.9L460,457.6z"/>
<path class="st40" d="M602.9,242.4l-3.4,14.6l-2.4,8.8l-1.9,6.9l-0.1,0.3c-1.1-3.3-1.6-8.1-6.2-5.7c-7.8,4.2-20.8,6.5-25.3,2.4
	c-2.3-2-4.8-1.3-6.7,0l3.6-16.8c0,0-0.7,6.2,4.6,5.6C569.8,258.1,602.9,242.4,602.9,242.4z"/>
<ellipse transform="matrix(0.1659 -0.9861 0.9861 0.1659 235.1579 737.9568)" class="st20" cx="553.8" cy="230" rx="13.3" ry="8.3"/>
<path class="st71" d="M551.5,233.2c0.5,0.2,1,0.3,1.6,0.3l5.5-26.5l5.2-24.7c0.1-0.3-0.2-0.7-0.7-0.7h-0.1c-0.3,0-0.7,0.2-0.8,0.5
	l-5.1,24.5L551.5,233.2z"/>
<path class="st20" d="M549.2,224.6c0,1.2,0,2.7,0.1,4.3c0.1,7.8,0.3,18.7,0.5,21.7c0.4,4.9,11.6,14.6,15.5,16s9.7,1.8,13.7,0
	c4-1.8,18.3-10.5,20.6-13.9c2.2-3.4,8.2-26.5,7.2-39.9c-0.9-13.5-17.7-23.6-29.9-22.4c-10.7,1-22,5.3-26.3,22.2
	c-0.1,0.4-0.2,0.7-0.3,1.1C549.5,217.2,549.1,220.9,549.2,224.6z"/>
<path class="st72" d="M594.3,237.6c-0.1,0.3-0.1,0.7-0.2,1c-1.4,6-3.6,15.2-3.9,17.3c-0.3,2.1-8.1,7.4-11.1,7.7s-4.7-5.2-10.8-5.2
	c-6.1,0-5,2.1-7.1,1.9c-2.1-0.2-7.8-6.9-9.2-9.1c-1-1.6-1.6-9.8-1.7-16.4c0-2.6,0-5,0.1-6.6c0.4-5.7,12.3,8.8,42.3,3.3
	C592.8,231.5,595.2,232.5,594.3,237.6z"/>
<path class="st73" d="M594.3,237.6c-4.8-1.2-14.9,1.3-18.3,2.6c-4.4,1.7-8.7-2.2-10.8-3.4c-2.1-1.1-5.4,1.6-7.1,2
	c-1.1,0.3-5.3-2.3-7.8-4c0-2.6,0-5,0.1-6.6c0.4-5.7,12.3,8.8,42.3,3.3C592.8,231.5,595.2,232.5,594.3,237.6z"/>
<path class="st74" d="M560,241.9c0.9-3.7,2.2-7.3,3.8-10.8c0.3-0.6,1.1-0.1,0.9,0.5c-1.5,3.2-2.7,6.5-3.5,10c1.7,0.2,3.4,0.2,5,0.1
	c0.6,0,0.6,1,0,1c-1.9,0.1-3.9,0-5.8-0.2C560.1,242.5,560,242.2,560,241.9z"/>
<path class="st74" d="M560,249.6c3.4-2,7.6-1.6,10.6,0.9c-1.7-0.7-3.4-1.1-5.2-1.2C563.6,249.1,561.8,249.2,560,249.6z"/>
<linearGradient id="SVGID_34_" gradientUnits="userSpaceOnUse" x1="546.3779" y1="219.1378" x2="603.3141" y2="227.5634">
	<stop  offset="1.000000e-02" style="stop-color:#FDFE73"/>
	<stop  offset="1" style="stop-color:#EC6E85"/>
</linearGradient>
<path class="st75" d="M549.2,224.6c0,1.2,0,2.7,0.1,4.3c2.2,2.3,4.7,4.3,7.4,6.1c4,2.2,3.2-0.8,6.7-1c2.6-0.1,3.5,1.8,6.4,2.9
	c1,0.4,2.1,0.6,3.2,0.6h0.5c0.8,0,1.6,0,2.4-0.2c1.5-0.2,3.3-0.6,5.3-1.1c7.5-1.9,16.6-5.3,16.6-5.3l4-18.5l-30.3,5l-3.9,0.6
	c-0.5,0-1.1,0.1-1.6,0c-1,0-2.1-0.1-3.1-0.4l-0.5-0.1c-0.9-0.2-1.9-0.5-2.8-0.8c-3.4-1-6.8-2.4-9.1-3.3
	C549.5,217.1,549.1,220.9,549.2,224.6z"/>
<linearGradient id="SVGID_35_" gradientUnits="userSpaceOnUse" x1="538.2863" y1="433.6395" x2="710.5837" y2="415.7668" gradientTransform="matrix(1 0 0 -1 2.551041e-02 649.9924)">
	<stop  offset="0" style="stop-color:#027373"/>
	<stop  offset="1" style="stop-color:#5DBEA2"/>
</linearGradient>
<path class="st76" d="M594.2,222c0.3-1.3,1.1-2.2,1.9-2c0.7,0.2,1.1,1.3,0.8,2.6c-0.3,1.3-1.1,2.2-1.9,2
	C594.3,224.4,593.9,223.3,594.2,222z"/>
<path class="st77" d="M565.8,218.1l9.9,19.2c1.5-0.2,3.3-0.6,5.3-1.1l-9.7-18.8l-3.9,0.6C566.9,218.1,566.4,218.1,565.8,218.1z"/>
<path class="st77" d="M559.4,216.8l10.2,20c1,0.4,2.1,0.6,3.2,0.6l-10.1-19.7l-0.5-0.1C561.3,217.4,560.4,217.1,559.4,216.8z"/>
<path class="st71" d="M597.2,232.9c0.5,0.2,1,0.3,1.6,0.3l5.5-26.5l5.2-24.7c0.1-0.3-0.2-0.7-0.7-0.7h-0.1c-0.3,0-0.7,0.2-0.8,0.5
	l-5.1,24.5L597.2,232.9z"/>
<ellipse transform="matrix(0.1659 -0.9861 0.9861 0.1659 277.9272 788.5168)" class="st20" cx="605.1" cy="230" rx="13.3" ry="8.3"/>
<ellipse transform="matrix(0.1659 -0.9861 0.9861 0.1659 280.4295 791.1245)" class="st78" cx="607.9" cy="229.8" rx="7.8" ry="5.5"/>
<linearGradient id="SVGID_36_" gradientUnits="userSpaceOnUse" x1="605.126" y1="404.4281" x2="641.9023" y2="404.4281" gradientTransform="matrix(1 0 0 -1 0 650)">
	<stop  offset="1.000000e-02" style="stop-color:#FDFE73"/>
	<stop  offset="1" style="stop-color:#EC6E85"/>
</linearGradient>
<path class="st79" d="M640.9,257.8c-2.6,3.2-9.3,5-9.3,5L627,256l-12.7-2l-0.8-8.1l5.2-1.9c0,0-11.7-10.3-13.2-13.5
	c-1.5-3.2,0.5-3.3,8.3,2.5c5.1,3.8,8.4,6.4,12.1,8.4c1.9,1.1,3.9,1.9,6,2.6c6.7,2.3,2.1,1.3,8.4,8
	C642.5,254.2,642.2,256.2,640.9,257.8z"/>
<linearGradient id="SVGID_37_" gradientUnits="userSpaceOnUse" x1="568.7585" y1="405.8221" x2="616.5807" y2="395.146" gradientTransform="matrix(1 0 0 -1 0 650)">
	<stop  offset="1.000000e-02" style="stop-color:#FDFE73"/>
	<stop  offset="1" style="stop-color:#EC6E85"/>
</linearGradient>
<path class="st80" d="M617.4,251.3c0,0-4.1,3.5-3.2,6.1s6.1-2.2,7.8-3C623.6,253.5,617.4,251.3,617.4,251.3z"/>
<linearGradient id="SVGID_38_" gradientUnits="userSpaceOnUse" x1="653.8259" y1="433.5056" x2="596.7546" y2="357.619" gradientTransform="matrix(1 0 0 -1 0 650)">
	<stop  offset="1.000000e-02" style="stop-color:#FDFE73"/>
	<stop  offset="1" style="stop-color:#EC6E85"/>
</linearGradient>
<path class="st81" d="M640.9,257.8c-2.4-1.9-3.3-4.8-5.4-7.5c-2.5-3.2-5.5-2.8-6.6-1.6S627,256,627,256l-12.7-2l-0.8-8.1l5.2-1.9
	c2.5-0.6,4.8-1.5,7-2.6c1.9,1.1,3.9,1.9,6,2.6c6.7,2.3,2.1,1.3,8.4,8C642.5,254.2,642.2,256.2,640.9,257.8z"/>
<path class="st20" d="M699.3,329.1c-0.2,4-2,7.7-5,10.4c-7.7,7.4-23.8,9.3-42-4.7c-3.6-2.8-7.8-4.7-12.2-5.6
	c-6.5-1.3-16.1-3.9-22.5-8.4c-1.9-1.3-3.6-2.9-5-4.7c-0.6-0.9-1.1-1.9-1.5-3c-0.4-1.1-0.7-2.3-0.9-3.5c-1.1-7.6,1.5-15.2,6.9-20.5
	c1.4-1.3,3-2.5,4.8-3.3l0,0c2-1,4.2-1.5,6.5-1.6l0,0c0.5,0,1,0,1.5,0l0.7,0.1h0.1c1,0.1,1.9,0.2,2.9,0.4c0.6,0.1,1.3,0.3,1.9,0.5
	c2.5,0.9,4.8,2.1,7,3.5c3.5,2.2,8,5.3,14.6,10.1c3.5,2.5,7.4,4.4,11.5,5.5c8.9,2.2,24.5,7.4,29.2,18.1
	C698.9,324.4,699.3,326.8,699.3,329.1z"/>
<path class="st59" d="M635.7,285.3c-0.7,0.1-1.3,0.2-2,0.3c-0.4,0.1-0.9,0.1-1.3,0.2c-1.7,0.3-3.4,0.6-5.2,0.9
	c-3.3,0.7-6.6,1.4-10,2.3c-13.8,3.5-26.7,7.9-27.9,8.3h-0.1c5.3-5.2,19.9-11,30.8-14.8l0.7,0.1l1.6,0.2l4.7,0.6
	c0.9,0.1,1.8,0.3,2.6,0.5l0.4,0.1l0.5,0.2h0.1c1,0.1,1.9,0.2,2.9,0.4c0.6,0.1,1.3,0.3,1.9,0.5L635.7,285.3z"/>
<path class="st22" d="M633.6,284.6c-0.1,0.1-0.3,0.3-0.6,0.5c-0.3,0.3-0.4,0.3-0.6,0.6c-8,7.2-15.4,15.2-22,23.7
	c-2.5,3.3-4.8,6.7-7,10.2c-0.7,1.1-1.5,2.1-2.5,2.9L585.4,336c-1.1,0.9-1.8,2.1-2.2,3.4c0,0,0,0.1,0,0.1c0,0.1-0.6,1.6-1.6,4.3
	c-4,10.9-14,39.1-20.6,68.1l-3.2-0.2c6.2-27,15.3-52.8,19.8-65.5c1.5-4.1,2.4-6.7,2.6-7c0.6-2.1,1.9-3.9,3.5-5.3l15.4-13.4
	c0.6-0.5,1.1-1.2,1.6-1.9c2.9-4.7,6-9.2,9.5-13.4c5.3-6.5,11-12.7,17.1-18.5c1.1-1,2-1.9,2.8-2.6l0.1-0.1l0.5,0.2h0.1
	C631.7,284.3,632.7,284.4,633.6,284.6z"/>
<path class="st22" d="M629.7,283.9l-1.2,0.2l0,0c-2,0.4-4.2,0.9-6.4,1.6l0,0c-11.3,3.1-25.2,8.6-32.7,11.6h-0.1l0,0
	c-1.8,0.7-3-0.9-1.9-2.5l10.7-15.2c0.1,0.1,0.3,0.1,0.4,0.1c0.3,0.1,0.7,0.2,1,0.2l1.8,0.2c0.6,0.1,1.2,0.1,1.9,0.2
	c2.8,0.3,6.2,0.7,10.6,1.3l5.5,0.7l0.9,0.1l0.7,0.1l1.6,0.2l4.7,0.6C628,283.5,628.9,283.7,629.7,283.9z"/>
<ellipse transform="matrix(0.9451 -0.3269 0.3269 0.9451 -63.0037 210.2987)" class="st60" cx="594.2" cy="292.6" rx="2.2" ry="1.6"/>
<path class="st82" d="M699.3,329.1c-0.2,4-2,7.7-5,10.4c-11.7-6.5-18.2-5.5-26-14.3c-8-9-22.3-31.2-25.7-36.5
	c3.5,2.2,8,5.3,14.6,10.1c3.5,2.5,7.4,4.4,11.5,5.5c8.9,2.2,24.5,7.4,29.2,18.1C698.9,324.5,699.4,326.8,699.3,329.1z"/>
<path class="st83" d="M699.3,329.1c-0.7,13.9-21.6,25-46.9,5.7c-3.6-2.8-7.8-4.7-12.2-5.6c-6.5-1.3-16.1-3.9-22.5-8.4
	c6.7,0.4,17.8,1.4,24.3,3.8c9.8,3.6,23.2,17.6,37.9,17.8C690.9,342.4,696,337.1,699.3,329.1z"/>
<path class="st22" d="M700.7,338c-5.6-3.2-11.7-5.6-18-7.2l0,0c-6.2-1.7-9.8-2.8-15.8-11.9c-0.9-1.4-1.9-2.9-3.1-4.7
	c-11.1-17-32.3-51.2-32.3-51.2c-0.4-1.9-0.4-3.9,0.1-5.7c1.8-5.7,9.5-4.2,9.5-4.2s43.9,29.4,55.5,43.8c0.5,0.7,1,1.3,1.4,1.9
	C706.9,312.1,700.7,338,700.7,338z"/>
<path class="st84" d="M682.8,330.7c-6.2-1.7-9.8-2.8-15.8-11.9c-0.9-1.4-1.9-2.9-3.1-4.7c-11.1-17-32.3-51.2-32.3-51.2
	c-0.4-1.9-0.4-3.9,0.1-5.7c6.3,9.9,30.8,48.2,39.3,60.2C674.5,322.2,678.4,326.6,682.8,330.7z"/>
<path class="st4" d="M798.1,493.9c-10.1-7.6-18.5-17.2-24.7-28.3c-2.2-4-4-8.1-5.4-12.4c-2.2-6.9-3.3-14.1-3.2-21.4
	c0.1-5.6,0.9-11.1,2.3-16.5c0,0-23,33.9-16.6,115.2h-3.1c0,0-7-82.3,19.7-117.7c0,0,11.8,6,21.3,20.3c1.9,2.9,3.6,5.8,5,8.9l0,0
	c2.6,5.7,4.5,11.7,5.5,17.8c0.7,4.2,1.1,8.4,1.2,12.7C800.1,479.7,799.5,486.9,798.1,493.9z"/>
<path class="st4" d="M799.7,423.9c-3.8-1.8-7.4-4-10.8-6.5c-2.8-2-5.5-4.2-7.9-6.7c-2.9-2.8-5.5-5.9-7.7-9.2
	c-3.6-5.3-6.1-11.3-7.3-17.6c-1.3-7.2-0.9-14.6,1-21.6c0,0-38.6,47.7-22.2,168.1h-2.6c0,0-18.3-117.1,25.1-170.8
	c4.5,2.1,8.6,4.9,12.1,8.3c2.5,2.3,4.8,4.8,6.8,7.5c2.7,3.5,4.9,7.3,6.8,11.3l0,0c2,4.3,3.6,8.9,4.7,13.5
	C799.4,408,800.1,416,799.7,423.9z"/>
<path class="st4" d="M798.1,367.7c-2.6-0.5-5.2-1.3-7.7-2.2c-4.2-1.5-8.2-3.6-12-6c-3.9-2.5-7.4-5.6-10.4-9.2c-2-2.4-3.8-5-5.2-7.8
	c-2.4-4.8-4-10-4.6-15.3c-0.3-2.2-0.4-4.5-0.4-6.7c0-3.3,0.3-6.6,0.7-9.9c0,0-30.6,27.1-20.9,220h-2.6c0,0-10.5-179.3,23.5-223.3
	c0,0,8.1,3.8,17,12.6c2.1,2.1,4.1,4.3,6,6.7c4.3,5.4,7.9,11.4,10.6,17.8l0,0C795.4,351.7,797.3,359.6,798.1,367.7z"/>
<g>
	<path class="st85" d="M777.4,396.3c-0.7,2.2-2.1,4.1-4.1,5.3c-3.6-5.3-6.1-11.3-7.3-17.6c2.2,0.5,4.3,1.3,6.2,2.3
		C775.7,388.3,778.3,392.4,777.4,396.3z"/>
	<path class="st85" d="M797.6,400.3l-0.5,0.6c-1,1.3-2.4,2.2-4,2.6c-1.6,0.4-3.3,0-4.5-1.2c-1.5-1.7-1.3-4.3-0.7-6.4
		c0.8-2.8,2.4-7,4.9-9.1C795,391.1,796.6,395.6,797.6,400.3z"/>
	<path class="st85" d="M786.2,375.5l-0.2,0.4c-1.2,1.9-3.3,3.7-5.5,3.4c-5.9-0.7-4.3-7.8-1.1-11.3
		C781.8,370.3,784.1,372.8,786.2,375.5z"/>
	<path class="st85" d="M790.2,414.8c-0.4,0.9-0.8,1.8-1.3,2.7c-2.8-2-5.5-4.2-7.9-6.7c1-0.9,2.2-1.6,3.4-2.1
		c1.9-0.8,4.4-0.9,5.7,0.7C791.3,410.9,790.9,413,790.2,414.8z"/>
</g>
<g>
	<path class="st85" d="M800,472.6c-0.8,1.1-1.8,2.1-3,2.7c-1.8,0.9-4.3,0.7-5.5-0.9c-0.8-1.3-0.9-2.8-0.4-4.2
		c0.6-1.3,1.4-2.6,2.4-3.7c0.9-1.1,3-4.5,5.3-6.6C799.6,464.1,800,468.3,800,472.6z"/>
	<path class="st85" d="M781.1,463.6c-0.4,1.1-1.3,2-2.5,2.3c-1.2,0.3-2.4,0.3-3.5,0c-0.6-0.1-1.1-0.2-1.7-0.4c-2.2-4-4-8.1-5.4-12.4
		c3.4,0.9,7,3.4,9.7,5.1c1,0.6,1.9,1.3,2.6,2.2C781.1,461.3,781.4,462.4,781.1,463.6z"/>
	<path class="st85" d="M793.4,442.1L793.4,442.1c-0.1,0.3-0.2,0.5-0.2,0.7c-0.6,2.1-1.5,4.3-3.3,5.6c-1.7,1.4-4.5,1.6-6,0
		c-0.9-1.1-1.2-2.5-1-3.9c0.3-1.3,0.8-2.6,1.5-3.8c1-2,2.1-5.4,4-7.6C790.3,436,791.9,439,793.4,442.1z"/>
	<path class="st85" d="M774,440.7c-0.3,2.1-2,3.8-4.1,4c-1.4,0.1-2.9-0.2-4.1-1c-0.7-4-1-8-0.9-12c3.1,0.5,6.2,3.1,7.9,5.3
		C773.5,438.1,774,439.4,774,440.7z"/>
</g>
<path class="st4" d="M682.4,493.9c10.1-7.6,18.5-17.2,24.7-28.3c2.2-4,4-8.1,5.4-12.4c1-3.1,1.8-6.2,2.3-9.4c0.7-4,1-8,0.9-12
	c-0.1-5.6-0.9-11.1-2.3-16.5c0,0,23,33.9,16.5,115.2h3.1c0,0,7-82.3-19.7-117.7c0,0-11.8,6-21.3,20.3c-1.9,2.9-3.6,5.8-5,8.9l0,0
	c-2.6,5.7-4.5,11.7-5.5,17.8c-0.7,4.2-1.1,8.4-1.1,12.7C680.4,479.7,681,486.9,682.4,493.9z"/>
<path class="st4" d="M680.8,423.9c3.8-1.8,7.4-4,10.8-6.5c2.8-2,5.5-4.2,7.9-6.7c2.9-2.8,5.5-5.9,7.7-9.2c3.6-5.3,6.1-11.3,7.3-17.6
	c1.3-7.2,0.9-14.6-1-21.6c0,0,38.6,47.7,22.2,168.1h2.6c0,0,18.3-117.1-25.1-170.8c-4.5,2.1-8.6,4.9-12.1,8.3
	c-2.5,2.3-4.8,4.8-6.8,7.5c-2.7,3.5-4.9,7.3-6.8,11.3l0,0c-2,4.3-3.6,8.8-4.6,13.5C681.2,408,680.4,416,680.8,423.9z"/>
<g>
	<path class="st85" d="M703.1,396.3c0.7,2.2,2.1,4.1,4.1,5.3c3.6-5.3,6.1-11.3,7.3-17.6c-2.1,0.5-4.2,1.3-6.2,2.3
		C704.8,388.3,702.1,392.4,703.1,396.3z"/>
	<path class="st85" d="M682.9,400.3c0.1,0.2,0.3,0.4,0.5,0.6c1,1.3,2.4,2.2,4,2.6c1.6,0.4,3.3,0,4.5-1.2c1.5-1.7,1.3-4.3,0.7-6.4
		c-0.8-2.8-2.4-7-4.9-9.1C685.5,391.1,684,395.6,682.9,400.3z"/>
	<path class="st85" d="M694.3,375.5l0.2,0.4c1.2,1.9,3.3,3.7,5.5,3.4c5.9-0.7,4.3-7.8,1.1-11.3C698.6,370.3,696.3,372.8,694.3,375.5
		z"/>
	<path class="st85" d="M690.2,414.8c0.3,0.9,0.8,1.8,1.3,2.7c2.8-2,5.5-4.2,7.9-6.7c-1-0.9-2.2-1.6-3.4-2.1
		c-1.9-0.8-4.4-0.9-5.7,0.7C689.2,410.9,689.6,413,690.2,414.8z"/>
</g>
<g>
	<path class="st85" d="M680.5,472.6c0.8,1.1,1.8,2.1,3,2.7c1.8,0.9,4.3,0.7,5.5-0.9c0.8-1.3,0.9-2.8,0.4-4.2
		c-0.6-1.4-1.4-2.6-2.4-3.7c-0.9-1.1-3-4.5-5.3-6.6C680.9,464.1,680.5,468.3,680.5,472.6z"/>
	<path class="st85" d="M699.3,463.6c0.4,1.1,1.3,2,2.5,2.3c1.2,0.3,2.4,0.3,3.5,0c0.6-0.1,1.1-0.2,1.7-0.4c2.2-4,4-8.1,5.4-12.4
		c-3.4,0.9-7,3.4-9.7,5.1c-1,0.6-1.9,1.3-2.6,2.2C699.3,461.3,699.1,462.4,699.3,463.6z"/>
	<path class="st85" d="M687.1,442.1L687.1,442.1c0.1,0.3,0.2,0.5,0.2,0.7c0.6,2.1,1.5,4.3,3.3,5.6s4.5,1.6,6,0
		c0.9-1.1,1.2-2.5,1-3.9c-0.3-1.3-0.8-2.6-1.4-3.8c-1-2-2.1-5.4-4-7.6C690.2,436,688.5,439,687.1,442.1z"/>
	<path class="st85" d="M706.5,440.7c0.3,2.1,2,3.8,4.1,4c1.5,0.1,2.9-0.2,4.1-1c0.7-4,1-8,1-12c-3.1,0.5-6.2,3.1-7.9,5.3
		C707,438.1,706.5,439.4,706.5,440.7z"/>
</g>
<g>
	<path class="st85" d="M768.1,325.5c-0.2,0.9-0.9,1.7-1.8,2c-0.9,0.3-1.8,0.5-2.8,0.4c-1.8,0-3.6-0.3-5.3-0.9
		c-0.3-2.2-0.4-4.5-0.4-6.7c2.3,0.1,4.7,0.6,6.9,1.3c0.9,0.3,1.7,0.7,2.4,1.4C767.9,323.7,768.3,324.6,768.1,325.5z"/>
	<path class="st85" d="M776.8,346.8c-0.5,1.4-2,2-3.4,2.5c-1.7,0.5-3.5,0.9-5.3,1c-2-2.4-3.8-5-5.2-7.8c2.4-1.3,6.4-0.8,8.7-0.5
		c1.4,0.1,2.7,0.5,3.9,1.3C776.7,344,777.2,345.4,776.8,346.8z"/>
	<path class="st85" d="M781.7,326.5c0,0.2,0,0.5-0.1,0.7c-0.1,2-0.7,3.9-1.8,5.6c-1.2,1.6-3.3,2.6-5.2,1.8c-1.4-0.7-2.4-2.1-2.5-3.7
		c-0.1-1.6,0.2-3.1,0.7-4.6c0.7-2.2,1.6-4.4,2.7-6.4C777.8,321.9,779.8,324.1,781.7,326.5z"/>
	<path class="st85" d="M792.2,344.2L792.2,344.2c-0.2,0.6-0.4,1.2-0.8,1.8c-1.1,1.8-3.4,3-5.3,2.1c-1.1-0.6-2-1.7-2.2-3
		c-0.2-1.3-0.2-2.5,0-3.8c0.4-2.9,1.1-5.8,2.2-8.6C788.5,336.4,790.5,340.2,792.2,344.2z"/>
	<path class="st85" d="M792.1,363.9c-0.5,0.6-1,1.1-1.7,1.6c-4.2-1.5-8.2-3.6-12-6c2.9-0.5,5.9-0.6,7.2-0.9c1.4-0.3,2.8-0.4,4.1-0.2
		c1.4,0.2,2.6,1.2,3,2.5C793,361.9,792.7,363.1,792.1,363.9z"/>
</g>
<path class="st9" d="M764.4,532.9v0.2l-5.8,50c-0.3,2.3-2.2,4.1-4.6,4.1h-23.7c-2.3,0-4.3-1.8-4.6-4.1l-5.8-50v-0.2
	c-0.3-2.5,1.5-4.8,4.1-5.1c0.2,0,0.3,0,0.5,0h35.2c2.6,0,4.6,2,4.6,4.6C764.4,532.6,764.4,532.7,764.4,532.9z"/>
<path class="st15" d="M764.4,532.9v0.2h-44.4v-0.2c-0.3-2.5,1.5-4.8,4.1-5.1c0.2,0,0.3,0,0.5,0h35.2c2.6,0,4.6,2,4.6,4.6
	C764.4,532.6,764.4,532.7,764.4,532.9z"/>
<polygon class="st86" points="234.3,381.2 229.8,407.2 199.7,584.5 192.4,584.5 216.1,407.2 219.6,381.2 "/>
<polygon class="st86" points="288.6,381.2 284.2,407.2 254,584.5 246.7,584.5 270.5,407.2 274,381.2 "/>
<polygon class="st86" points="541.8,584.5 534.5,584.5 504.3,407.2 499.9,381.2 514.6,381.2 518,407.2 "/>
<polygon class="st87" points="219.6,381.2 234.3,381.2 229.8,407.2 216.1,407.2 "/>
<polygon class="st87" points="274,381.2 288.6,381.2 284.2,407.2 270.5,407.2 "/>
<polygon class="st87" points="518,407.2 504.3,407.2 499.9,381.2 514.6,381.2 "/>
<path class="st14" d="M378.2,350.2l-8.3-98.2c-0.1-0.8-0.8-1.4-1.6-1.4H230.3c-0.4,0-0.8,0.2-1.1,0.5l0,0l0,0l-1.5,1.5l8.6,95.5
	c0,0,0.2,3.3,1.4,4.3s92.3,0.7,92.3,0.7h46.3l1.5-1.6l0,0C378.1,351.2,378.3,350.7,378.2,350.2z"/>
<ellipse transform="matrix(0.2115 -0.9774 0.9774 0.2115 -102.1047 548.3948)" class="st88" cx="288.8" cy="337.5" rx="9.8" ry="6.4"/>
<path class="st89" d="M376.6,351.9c0.1,0.9-0.6,1.6-1.4,1.7c0,0-0.1,0-0.1,0H237c-0.8,0-1.5-0.6-1.6-1.4l-3.9-45.7l-4.5-52.6
	c-0.1-0.9,0.6-1.6,1.4-1.7c0,0,0.1,0,0.1,0h138.1c0.8,0,1.5,0.6,1.6,1.4l4.5,52.9L376.6,351.9z"/>
<path class="st90" d="M376.6,351.9c0.1,0.9-0.6,1.6-1.4,1.7c0,0-0.1,0-0.1,0H237c-0.8,0-1.5-0.6-1.6-1.4l-3.9-45.7h141.2
	L376.6,351.9z"/>
<path class="st91" d="M307.1,306.5v47.1h-23.2c-3.3-6.6-8.2-19-1.7-26.3C291.3,316.9,307.1,306.5,307.1,306.5z"/>
<path class="st14" d="M303.2,302.3c2.2,0,3.9,1.8,3.9,3.9c0,0.1,0,0.2,0,0.2l-3.5,62.5l-0.1,2.8h-30.3c-1.6,0-2.8-1.2-2.9-2.8
	c0-0.2,0-0.4,0-0.5l10.7-62.9c0.3-1.9,2-3.3,3.9-3.3L303.2,302.3z"/>
<path class="st92" d="M295.4,337.5c-0.6,4.8-3.4,8.7-6.5,9.5c-0.4,0.1-0.8,0.2-1.1,0.1c-3.6,0-6-4.3-5.4-9.6s4.1-9.6,7.7-9.6
	c0.4,0,0.7,0,1.1,0.1C294.1,328.8,295.9,332.7,295.4,337.5z"/>
<path class="st93" d="M295.4,337.5c-0.6,4.8-3.4,8.7-6.5,9.5c-3-0.8-4.8-4.7-4.3-9.5c0.6-4.8,3.4-8.7,6.5-9.5
	C294.1,328.8,295.9,332.7,295.4,337.5z"/>
<path class="st94" d="M854.7,226c0,0-32.3,63.7-47.8,79.5c-2.3,2.4-4.2,3.6-5.6,3.5c-2.2-0.2-4.2-1.4-5.6-3.1
	c-6.4-7.2-7.8-25.4-2-37.7c1.8-3.9,4.9-9.6,8.6-16l1.5-2.6l0.6-1c10.6-18.2,24.1-39.7,24.1-39.7c12.6-15.2,19.7-4.9,23.2,5.1
	C853,217.9,854,221.9,854.7,226z"/>
<path class="st94" d="M806.9,305.5c-1.2,5.8-21.9,21.7-28.3,0.9c-0.7-2.5-1.2-5-1.4-7.6c-1.8-16.9,0.9-46.9,2.8-63.5
	c0.2-2.1,0.5-4,0.6-5.4c0.2-1.8,1.7-3.1,3.4-3.3c5.5-0.4,16.6-0.8,17.4,1.4c0.2,0.5,0.5,3.3,1,7.5c0.3,3.3,0.7,7.6,1.2,12.4
	c0,0.6,0.1,1.1,0.1,1.7C805.5,271.3,807.7,301.7,806.9,305.5z"/>
<g id="XMLID_3_">
	<g>
		<path class="st95" d="M851.6,214.1c1.4,3.9,2.4,7.9,3,11.9c0,0-32.3,63.7-47.8,79.5c0.8-3.8-1.4-34.2-3.2-55.9l0.6-1
			c3.6,3.8,12.2,16.1,25.3-1.5C837.5,236.5,844.9,225.5,851.6,214.1z"/>
		<linearGradient id="SVGID_39_" gradientUnits="userSpaceOnUse" x1="707.371" y1="239.5016" x2="1001.131" y2="337.7446">
			<stop  offset="0" style="stop-color:#FFFFFF;stop-opacity:0"/>
			<stop  offset="1" style="stop-color:#3E3C76"/>
		</linearGradient>
		<path class="st96" d="M803.6,248c0,0.1,0,0.3,0,0.4C803.6,248.2,803.5,248.1,803.6,248c-0.7-0.5-1-0.4-1.2,0.7
			c-0.1,0.7-0.1,1.9-0.2,3.5c-0.4,11.3-0.8,42.5-6.5,53.7c-1.2,2.4-2.7,3.9-4.5,4.1c-6.7,0.7-11.3-5.8-14-11.2
			c-1.8-16.9,0.9-46.9,2.8-63.6c0.3-2.1,0.5-4,0.6-5.3c0.2-1.8,1.7-3.1,3.4-3.3c5.5-0.4,16.7-0.8,17.4,1.4c0.2,0.5,0.5,3.3,1,7.5
			C802.7,238.9,803.1,243.2,803.6,248z"/>
		<path class="st97" d="M802.2,252.2c0.1-1.6,0.1-2.9,0.2-3.5c0.1-1.1,0.5-1.2,1.1-0.7c0,0.1,0,0.3,0,0.4c0,0.4,0.1,0.9,0.1,1.3
			c1.8,21.6,4,52.1,3.2,55.9c-1.2,5.8-21.9,21.7-28.3,0.9c-0.7-2.5-1.2-5-1.4-7.6c2.7,5.4,7.3,11.9,14,11.2c1.8-0.2,3.3-1.7,4.5-4.1
			C801.4,294.7,801.8,263.5,802.2,252.2z"/>
	</g>
</g>
<path class="st98" d="M803.2,191.9c0,0-2.5,11.4-1.8,16s-2.1,6.6-2,12.1c0.1,2.8,0.1,5.2,0,6.8c0,1.7-1,3.3-2.5,4
	c-3.4,1.7-7.4,1.9-10.9,0.5c-4.3-1.6-1.2-11.9-1.5-15.9c-0.3-3.9-2.3-1.8-3.3-5c-1-3.1-0.4-15.2,1.7-15s13.9,4,13.9,4
	S796.7,189.9,803.2,191.9z"/>
<path class="st9" d="M802.4,235.6c-3.5,1.8-7.3,2.6-11.2,2.5c-6.6,0-9.7-1.5-11.2-2.8c0.2-2.1,0.5-4,0.6-5.4
	c0.2-1.8,1.7-3.1,3.4-3.3c5.5-0.4,16.6-0.8,17.4,1.4C801.6,228.7,802,231.4,802.4,235.6z"/>
<path class="st99" d="M842.1,572.9c0,0-19.6,9.8-26.2,12s-7.5,7.2-6.8,8.7c0.7,1.4,48.9,0,52,0c3,0-2.9-21.8-2.9-21.8L842.1,572.9z"
	/>
<path class="st100" d="M867.8,442.1c0,0,2.6,26.4,1.5,35.8c-0.9,8.1-8.3,73.7-10.3,91.7c-0.3,2.6-2.5,4.5-5,4.5h-8.7
	c-2.5,0-4.7-1.9-5-4.4c-2.6-20.6-13.3-106.8-9.9-130.1c3.9-26.4,30.4-104.2,30.4-104.2c15.5-25.4,46.2-27.6,50.6,4.1
	c0.1,0.6,0.1,1.2,0.2,1.9C913.9,373.9,867.8,442.1,867.8,442.1z"/>
<path class="st101" d="M867.8,442.1c0,0,2.6,26.4,1.5,35.8c-0.9,8.1-8.3,73.7-10.3,91.7c-0.3,2.6-2.5,4.5-5,4.5h-0.6
	c13.6-96.5,7.3-134.8,7.3-134.8c32.8-41.5,47.1-97.3,47.1-97.3l3.8-0.6C913.9,373.9,867.8,442.1,867.8,442.1z"/>
<path class="st99" d="M1014.4,555.8c0,0,1.1,10.5-4,16.9c-5.1,6.3-15.6,7.2-16.7,11.6c-0.2,0.9-0.4,1.8-0.4,2.8
	c-0.1,2.5,1.9,4.7,4.4,4.7c0.2,0,0.3,0,0.5,0c6.7-0.2,19.1-1.1,25.7-4.4c9.2-4.6,17.8-20.7,18.5-25.1c0.7-4.4-9.2-16.2-9.2-16.2
	L1014.4,555.8z"/>
<path class="st100" d="M1030.9,550.6c-3.9,4.8-11.8,9.5-15,7.2c-4.5-3.2-69.2-82.5-78.3-103.3c-9.1-20.8-34.4-116.9-34.4-116.9
	s25.9-10.5,41.7-10.3c5.3,0.1,9.4,1.3,11.2,4.5c7.1,12.8,15.2,102.8,15.2,102.8s7.5,6.4,14.9,19.7c7.5,13.3,45,85.7,46.6,90.8
	C1033.5,546.5,1032.5,548.5,1030.9,550.6z"/>
<path class="st101" d="M1030.9,550.6c-33.5-63.7-66.4-114.1-66.4-114.1c-5.6-65.1-14.2-96.7-19.4-109.2c5.3,0.1,9.4,1.3,11.2,4.5
	c7.1,12.8,15.2,102.8,15.2,102.8s7.5,6.4,14.9,19.7s45,85.7,46.6,90.8C1033.5,546.5,1032.5,548.5,1030.9,550.6z"/>
<path class="st94" d="M955.5,333.9c-2.1,2.9-12.8,5.8-23.9,8.2c-13.4,2.8-27.5,4.8-27.5,4.8l-7.2-10.6l-4.1,10.6
	c0,0-25.1-3.8-30.8-7.8s-3.7-23.2-5.7-32.9c-2-9.7-9.6-27.1-19.1-45.5c-2.5-4.9-4.8-10-6.6-15.2c-4.9-13.6-6.6-26.5-2.8-35.1
	c5.2-11.8,21-13.4,21-13.4c51-7.2,69.5-0.6,80.8,7.7c7,5.1,9.8,14.6,11.1,27.3c0.8,7.7,1,16.6,1.4,26.4c0,0.7,0.1,1.5,0.1,2.2
	C943.8,286.6,959.9,327.7,955.5,333.9z"/>
<path class="st102" d="M856.1,193.1c0,0-11.5,3.5-13.4,7.2c-1.9,3.7-2.5,13.2-1.4,27.8l8.9,2.3l-6.1,4.5c0,0,18.5,31.4,32.2,34.2
	c0,0,19.8-25.1,23.2-38l-6.6-3.5l11-2.5c0,0,5.7-25.7,3-29.3C901.6,188.5,856.1,193.1,856.1,193.1z"/>
<path class="st9" d="M891.7,207.8c-4.6,11.5-9.8,32.7-13.2,49.5c-0.9,4.3-1.6,8.3-2.2,11.7c-3.4-4-6.4-8.3-9.2-12.8
	c-9.2-14.8-20.9-40.1-11.1-63.2l36.8-2.4C892.9,190.6,897.5,193.5,891.7,207.8z"/>
<path class="st103" d="M843,146.5l-3.6-8.2c0,0-12-14.5,0.9-24.8s13.8,0.5,13.8,0.5s28.5-4.7,29.1,9.3c0,0,19.4-0.6,19.2,16.5
	s-19.3,34.3-19.3,34.3s-2.3-27.8-4.1-32.9s-19.4-6.5-22.6-5.5C853.1,136.7,844.9,134.3,843,146.5z"/>
<g id="XMLID_2_">
	<g>
		<path class="st15" d="M887,183.3c0,0,6.9,5.3,5.8,8.5c-1,3.2-18,24-18,24s-4.4-7.8-7.1-8.3c0,0-4.2,1.6-7-0.2l-5.2,7.6
			c0,0-2.8-18.4,2.6-25.6c0,1.7,0,3.4,0.2,5.1c0.4,3.7,4.4,11.2,5.3,11.3c2.5,0.4,17.9-13.2,22-18.1
			C886.5,186.4,887,184.9,887,183.3z"/>
		<path class="st72" d="M887,183.3c0,1.5-0.5,3-1.5,4.2c-4.1,4.9-19.5,18.5-22,18.1c-0.9-0.1-4.8-7.6-5.3-11.3
			c-0.1-1.7-0.2-3.4-0.2-5.1c0,0,0-0.1,0-0.1C861.8,184.2,887,183.3,887,183.3z"/>
		<path class="st72" d="M886.8,172l0.2,11.4c0,0-25.2,0.9-28.9,5.8c0,0,0,0,0,0.1c0-0.2,0-0.4,0-0.5c0-3.8,0.2-7.6,0.2-7.6
			s22.1-5.1,28.4-20.2L886.8,172z"/>
	</g>
</g>
<path class="st98" d="M886.8,172L886.8,172c-0.3,1.6-0.9,3.1-1.8,4.5c-3.8,5.8-17.7,17.1-27,12.2c0-3.8,0.2-7.6,0.2-7.6
	s22.1-5.1,28.4-20.2L886.8,172z"/>
<path class="st72" d="M842.7,138.2c0,0,0.7,27.2,1.2,32.8c0.5,5.6,9.9,13.3,13.8,14.2c3.9,0.9,7.9,0.4,10.7-1.2
	c2.7-1.6,16.3-9.7,17-12.9c0.6-3.4,0.9-6.8,1.1-10.3c0,0,5.9,1.5,7.7-5.8c1.8-7-5.9-12.3-8.8-3.4c-0.2,0.5-0.6,0.9-1.2,0.9l0,0
	c-0.6,0-1.2-0.4-1.4-1c-0.3-1.1-0.6-3.2-0.5-7.4c0.1-7.6-2.6-3.7-5.3-8.1C874.4,131.6,842.7,132.3,842.7,138.2z"/>
<path class="st98" d="M891.1,151.2c0.6,0.6,0.8,1.4,0.6,2.2c-0.2,0.8-0.5,1.5-0.9,2.2c-0.2,0.5-0.6,0.9-1,1.2
	c-0.4,0.3-1,0.2-1.4-0.1c-0.2-0.4-0.2-0.8-0.1-1.2c0.2-0.7,0.1-1.4-0.2-2.1c-0.2-0.4-0.2-0.9,0.1-1.3
	C888.7,150.9,890,150.3,891.1,151.2z"/>
<polygon class="st24" points="858.5,210.3 871.1,210.3 870.4,218.6 860.7,218.6 "/>
<path class="st24" d="M878.5,257.3c-0.9,4.3-1.6,8.3-2.2,11.7c-3.4-4-6.4-8.3-9.2-12.8c-5.9-23.4-6.5-37.6-6.5-37.6h9.7
	C872.2,229.4,875.8,245.7,878.5,257.3z"/>
<path class="st94" d="M1009.1,249.8c-0.9,13.9-33.7,65.5-33.7,65.5c-6.6,3.1-15.2-1.9-17.3-6.6c0-0.1-0.1-0.2-0.1-0.3
	c-0.3-0.6-0.4-1.3-0.4-2c0.2-5.1,19.1-48.9,19.1-48.9s-30.3-5.3-47.7-11.9c-4-1.4-7.4-4.2-9.6-7.8c-5.2-8.8-2.1-20.4-2.1-20.4
	c4.1-10.2,13.1-10.8,13.1-10.8S1010,235.9,1009.1,249.8z"/>
<g id="XMLID_1_">
	<g>
		<path class="st104" d="M984.9,255.3c-10.3,17.1-19.2,35-26.9,53.5c0-0.1-0.1-0.2-0.1-0.3c-0.3-0.6-0.4-1.3-0.4-2
			c0.2-5.1,19.1-48.9,19.1-48.9s-18.6-3.3-35-7.8c0-1.4-0.1-2.8-0.2-4.2C953.6,249.3,969.3,253.4,984.9,255.3z"/>
		<linearGradient id="SVGID_40_" gradientUnits="userSpaceOnUse" x1="880.4401" y1="321.4464" x2="1030.1345" y2="338.1124">
			<stop  offset="0" style="stop-color:#FFFFFF;stop-opacity:0"/>
			<stop  offset="1" style="stop-color:#3E3C76"/>
		</linearGradient>
		<path class="st105" d="M956.2,328.4c0.1,1.2,0.1,2.2,0,3C956.3,330.5,956.3,329.5,956.2,328.4z"/>
		<path class="st106" d="M956.2,328.4c0.1,1.2,0.1,2.2,0,3c0,0.5-0.1,1-0.2,1.4c-0.1,0.4-0.3,0.8-0.5,1c-2.1,2.9-12.8,5.8-23.9,8.2
			c11.6-16.4,9.7-27.9,3.8-59.5c-0.1-0.6-0.2-1.2-0.3-1.8c2.8-6.3,5-13.4,7-20.1c0,0.7,0.1,1.4,0.2,2.2c0,0.4,0.1,0.8,0.1,1.2
			c0.2,1.9,0.5,3.9,0.8,6c0.1,0.7,0.2,1.4,0.4,2.2c0.1,0.4,0.1,0.8,0.2,1.2c0.1,0.8,0.3,1.6,0.5,2.5c0.7,3.5,1.5,7.2,2.3,10.8
			c0,0.2,0.1,0.3,0.1,0.5c0.5,2.1,1,4.2,1.5,6.3c0.1,0.4,0.2,0.7,0.3,1c0.3,1.3,0.7,2.6,1,3.8c0,0,0,0.1,0,0.1
			c0.2,0.8,0.4,1.6,0.6,2.4c1.6,6.1,3.1,11.8,4.2,16.8c0.2,1,0.4,2,0.6,2.9c0.1,0.5,0.2,1,0.3,1.5c0.1,0.7,0.3,1.4,0.4,2
			c0.1,0.6,0.2,1.1,0.3,1.6c0.1,0.5,0.1,1,0.2,1.5C956.1,327.4,956.1,327.9,956.2,328.4C956.2,328.3,956.2,328.4,956.2,328.4z"/>
		<linearGradient id="SVGID_41_" gradientUnits="userSpaceOnUse" x1="880.6843" y1="319.2536" x2="1030.3787" y2="335.9196">
			<stop  offset="0" style="stop-color:#FFFFFF;stop-opacity:0"/>
			<stop  offset="1" style="stop-color:#3E3C76"/>
		</linearGradient>
		<path class="st107" d="M956,327c0.1,0.5,0.1,0.9,0.1,1.3C956.1,327.9,956.1,327.4,956,327z"/>
		<linearGradient id="SVGID_42_" gradientUnits="userSpaceOnUse" x1="880.1948" y1="323.6502" x2="1029.8892" y2="340.3162">
			<stop  offset="0" style="stop-color:#FFFFFF;stop-opacity:0"/>
			<stop  offset="1" style="stop-color:#3E3C76"/>
		</linearGradient>
		<path class="st108" d="M956.2,331.4c0,0.5-0.1,1-0.2,1.4C956.1,332.4,956.2,331.9,956.2,331.4z"/>
		<linearGradient id="SVGID_43_" gradientUnits="userSpaceOnUse" x1="881.0065" y1="316.359" x2="1030.7009" y2="333.025">
			<stop  offset="0" style="stop-color:#FFFFFF;stop-opacity:0"/>
			<stop  offset="1" style="stop-color:#3E3C76"/>
		</linearGradient>
		<path class="st109" d="M955.8,325.5c-0.1-0.5-0.2-1.1-0.3-1.6C955.7,324.4,955.8,325,955.8,325.5z"/>
		<linearGradient id="SVGID_44_" gradientUnits="userSpaceOnUse" x1="881.3938" y1="312.8806" x2="1031.0883" y2="329.5466">
			<stop  offset="0" style="stop-color:#FFFFFF;stop-opacity:0"/>
			<stop  offset="1" style="stop-color:#3E3C76"/>
		</linearGradient>
		<path class="st110" d="M955.2,321.8c-0.1-0.5-0.2-1-0.3-1.5C955,320.8,955.1,321.3,955.2,321.8z"/>
		<linearGradient id="SVGID_45_" gradientUnits="userSpaceOnUse" x1="881.6288" y1="310.7691" x2="1031.3234" y2="327.4351">
			<stop  offset="0" style="stop-color:#FFFFFF;stop-opacity:0"/>
			<stop  offset="1" style="stop-color:#3E3C76"/>
		</linearGradient>
		<path class="st111" d="M954.9,320.3c-0.2-0.9-0.4-1.9-0.6-2.9C954.5,318.4,954.7,319.4,954.9,320.3z"/>
		<path class="st112" d="M949.4,298.2c0.2,0.8,0.4,1.6,0.6,2.4C949.8,299.9,949.6,299,949.4,298.2z"/>
		<path class="st112" d="M949.4,298.1c-0.3-1.3-0.7-2.5-1-3.8C948.8,295.6,949.1,296.9,949.4,298.1z"/>
		<path class="st112" d="M946.6,287c0.5,2.1,1,4.2,1.5,6.3C947.6,291.2,947.1,289.1,946.6,287z"/>
		<path class="st112" d="M944.2,275.7c0.7,3.5,1.5,7.2,2.3,10.8C945.7,282.9,944.9,279.3,944.2,275.7z"/>
		<path class="st112" d="M943.7,273.3c0.2,0.8,0.3,1.6,0.5,2.5C944,274.9,943.9,274.1,943.7,273.3z"/>
		<path class="st112" d="M943.5,272.1c0.1,0.4,0.1,0.8,0.2,1.2C943.6,272.9,943.6,272.5,943.5,272.1z"/>
		<path class="st112" d="M943.5,272.1c-0.1-0.7-0.3-1.4-0.4-2.2C943.3,270.6,943.4,271.3,943.5,272.1z"/>
		<linearGradient id="SVGID_46_" gradientUnits="userSpaceOnUse" x1="887.585" y1="257.2705" x2="1037.2795" y2="273.9365">
			<stop  offset="0" style="stop-color:#FFFFFF;stop-opacity:0"/>
			<stop  offset="1" style="stop-color:#3E3C76"/>
		</linearGradient>
		<path class="st113" d="M942.2,262.8c0,0.4,0.1,0.8,0.1,1.2C942.3,263.6,942.3,263.2,942.2,262.8z"/>
		<path class="st102" d="M941.9,258.4c0,0.7,0.1,1.5,0.1,2.3c-2,6.7-4.2,13.8-7,20.1c-6-30.8-13.4-39.2-13.1-39.5h0
			c1.9,2,4.3,3.5,7,4.4c3.8,1.4,8.1,2.8,12.7,4.1C941.7,252.5,941.8,255.4,941.9,258.4z"/>
		<path class="st104" d="M941.5,245.6c0.1,1.4,0.1,2.8,0.2,4.2c-4.5-1.3-8.9-2.6-12.7-4.1c-2.7-0.9-5-2.4-7-4.4v0
			c0.6-0.6,1.3-1.1,1.9-1.6c3.6,1.3,9.2,3.3,16.1,5.5C940.4,245.3,941,245.4,941.5,245.6z"/>
		<path class="st94" d="M940.6,231.9c0.4,4.2,0.7,8.8,0.9,13.7c-0.5-0.2-1-0.3-1.5-0.5c-6.9-2.2-12.5-4.2-16.1-5.5
			C931.4,233.1,936.8,231.5,940.6,231.9z"/>
		<path class="st112" d="M935.4,282.5c5.9,31.6,7.8,43.1-3.8,59.5c-13.4,2.8-27.5,4.8-27.5,4.8l-7.2-10.6l-4.1,10.6
			c0,0-25.1-3.8-30.8-7.8c-5.7-4-3.8-23.2-5.7-32.9s-9.6-27.1-19.1-45.5c-2.5-4.9-4.8-10-6.6-15.2c3.7,5.4,15.5,23.3,24.1,43.5
			c10.3,24.1,36.7,15.8,61.7,11.4c8.5-1.5,14.3-9.6,18.7-19.6C935.2,281.3,935.3,281.9,935.4,282.5z"/>
		<linearGradient id="SVGID_47_" gradientUnits="userSpaceOnUse" x1="980.7621" y1="184.2817" x2="841.9112" y2="312.1218">
			<stop  offset="0" style="stop-color:#FFFFFF;stop-opacity:0"/>
			<stop  offset="1" style="stop-color:#3E3C76"/>
		</linearGradient>
		<path class="st114" d="M923.8,239.6c-0.6,0.5-1.2,1.1-1.9,1.6c-1-1-1.8-2.1-2.6-3.4C919.4,237.9,921,238.5,923.8,239.6z"/>
	</g>
</g>
<path class="st115" d="M798.1,167.4l-1.6,6.8c-1.5,5.4,1.8,11,7.2,12.5c0,0,0,0,0,0l11.8,2.8c5.3,1.3,10.7-2.2,12.1-7.8l1.6-6.8
	c1.4-5.4-1.8-11-7.2-12.4l-11.8-2.8C804.7,158.4,799.3,161.9,798.1,167.4z"/>
<path class="st116" d="M798.1,167.4l-1.6,6.8c-1.5,5.4,1.8,11,7.2,12.5c0,0,0,0,0,0l1.6,0.4c5.8,1.4,11.6-2.4,13.1-8.4l1.2-5.1
	c1.5-6-2-12.1-7.8-13.5l-1.6-0.4C804.7,158.4,799.3,161.9,798.1,167.4z"/>
<linearGradient id="SVGID_48_" gradientUnits="userSpaceOnUse" x1="760.4529" y1="452.0702" x2="824.7914" y2="448.2648" gradientTransform="matrix(1 0 0 -1 0 650)">
	<stop  offset="0" style="stop-color:#027373"/>
	<stop  offset="1" style="stop-color:#69C86C"/>
</linearGradient>
<path class="st117" d="M796.6,184.9l-7.8,32l-2.8-0.7c-1.2-0.3-2-1.4-1.9-2.6l3.4-31.4L796.6,184.9z"/>
<linearGradient id="SVGID_49_" gradientUnits="userSpaceOnUse" x1="787.0035" y1="449.9561" x2="799.6704" y2="449.9561" gradientTransform="matrix(1 0 0 -1 0 650)">
	<stop  offset="1.000000e-02" style="stop-color:#5DBEA2"/>
	<stop  offset="1" style="stop-color:#69C86C"/>
</linearGradient>
<path class="st118" d="M787,216.5l2.5,0.6c1.3,0.3,2.7-0.5,3-1.8c0,0,0,0,0,0l5.7-23.7l1.4-5.9l-9-2.8l-1,8.8L787,216.5z"/>
<linearGradient id="SVGID_50_" gradientUnits="userSpaceOnUse" x1="783.065" y1="435.7841" x2="799.8015" y2="475.4672" gradientTransform="matrix(1 0 0 -1 0 650)">
	<stop  offset="0" style="stop-color:#FFFFFF;stop-opacity:0"/>
	<stop  offset="1" style="stop-color:#5FBF95"/>
</linearGradient>
<path class="st119" d="M789.7,191.7c0.5-0.1,0.9-0.2,1.4-0.3c2.4-0.3,4.8-0.3,7.2,0.2l1.4-5.9l-9-2.8L789.7,191.7z"/>
<path class="st120" d="M747.9,119.5L730,193.8l14.9-1.3l4.3-0.4l55.5-5c5.4-0.5,9.9-4.4,11.2-9.7l1-4.3c0.1-0.4,0.2-0.8,0.2-1.2
	c0.7-4.9-1.6-9.8-5.8-12.4l-48.9-30.8l-4.3-2.6L747.9,119.5z"/>
<path class="st121" d="M737.2,164.2l-7.2,29.7l74.7-6.7c5.4-0.5,9.9-4.4,11.2-9.7l1-4.3c0.1-0.4,0.2-0.8,0.2-1.2
	C797.7,170.5,759.6,167.5,737.2,164.2z"/>
<path class="st9" d="M756.3,172.7c-2.8,7.1-6.6,13.8-11.4,19.8l4.3-0.4c1-1.3,1.9-2.7,2.9-4.1c6.7-10.4,10.9-22.2,12.2-34.5
	c0.7-6.2,0.5-12.4-0.4-18.5c-0.3-2.2-0.8-4.3-1.4-6.4l-4.3-2.6c1.5,3.8,2.5,7.8,2.8,11.9C762.3,149.7,760.6,161.7,756.3,172.7z"/>
<linearGradient id="SVGID_51_" gradientUnits="userSpaceOnUse" x1="790.8112" y1="482.0345" x2="874.7489" y2="463.7389" gradientTransform="matrix(1 0 0 -1 0 650)">
	<stop  offset="0" style="stop-color:#027373"/>
	<stop  offset="1" style="stop-color:#69C86C"/>
</linearGradient>
<path class="st122" d="M727.4,153.9c-5,20.5-3.8,38.4,2.6,40c4.9,1.2,11.5-7.6,16.5-21.1c3.2-8.7,5.4-17.8,6.5-27
	c1.7-14.3-0.2-25.1-5.1-26.3C741.6,118,732.4,133.4,727.4,153.9z"/>
<path class="st115" d="M737.1,144.6l-5.3,22l6.2,2.6l8.6,3.6c3.2-8.7,5.4-17.8,6.5-27l-7.2-0.5L737.1,144.6z"/>
<path class="st116" d="M737.9,169.2l8.6,3.6c3.2-8.7,5.4-17.8,6.5-27l-7.2-0.5v0.1c2.1,6.5,1,13.5-3,19
	C741.4,166.2,739.8,167.8,737.9,169.2z"/>
<ellipse transform="matrix(0.2345 -0.9721 0.9721 0.2345 411.0027 833.0662)" class="st123" cx="734.4" cy="155.6" rx="11.3" ry="3.5"/>
<ellipse transform="matrix(0.2345 -0.9721 0.9721 0.2345 410.287 831.5293)" class="st115" cx="733.1" cy="155.3" rx="6.9" ry="2.1"/>
<path class="st124" d="M792.7,198.9L792.7,198.9c0.6-0.9,0.3-2.2-0.6-2.8c-0.1-0.1-0.3-0.2-0.5-0.2l-8.8-3.4c-1.3-0.5-2.8,0-3.6,1.2
	l0,0c-0.6,0.9-0.4,2.2,0.6,2.8c0.1,0.1,0.3,0.2,0.5,0.2l8.8,3.4C790.4,200.6,791.9,200.1,792.7,198.9z"/>
<path class="st124" d="M792.6,203.9L792.6,203.9c0.6-0.9,0.4-2.2-0.6-2.8c-0.1-0.1-0.3-0.2-0.5-0.2l-8.8-3.4c-1.3-0.5-2.8,0-3.6,1.2
	l0,0c-0.6,0.9-0.4,2.2,0.6,2.8c0.1,0.1,0.3,0.2,0.5,0.2l8.8,3.4C790.3,205.5,791.8,205,792.6,203.9z"/>
<path class="st124" d="M792.5,208.8L792.5,208.8c0.6-0.9,0.4-2.2-0.6-2.8c-0.1-0.1-0.3-0.2-0.5-0.2l-8.8-3.4c-1.3-0.5-2.8,0-3.6,1.2
	l0,0c-0.6,0.9-0.4,2.2,0.6,2.8c0.1,0.1,0.3,0.2,0.5,0.2l8.8,3.4C790.2,210.5,791.7,210,792.5,208.8z"/>
<path class="st124" d="M792.3,213.8L792.3,213.8c0.6-0.9,0.4-2.2-0.6-2.8c-0.1-0.1-0.3-0.2-0.5-0.2l-8.8-3.4c-1.3-0.5-2.8,0-3.6,1.2
	l0,0c-0.6,0.9-0.3,2.2,0.6,2.8c0.1,0.1,0.3,0.2,0.5,0.2l8.8,3.4C790.1,215.5,791.6,215,792.3,213.8z"/>
<path class="st98" d="M855.9,162.5c-1,0.2-2,0.4-3.1,0.4c-0.5,0-0.7-0.2-0.6-0.7c0.1-0.4,0.3-0.9,0.5-1.3c0.7-1.9,1.2-3.9,1.3-5.9
	c0-0.6-0.9-0.6-0.9,0c-0.1,1.2-0.3,2.4-0.6,3.6c-0.1,0.6-0.3,1.1-0.5,1.6c-0.2,0.5-0.5,1-0.6,1.5c-0.3,0.7,0,1.5,0.7,1.9
	c0.2,0.1,0.3,0.1,0.5,0.1c0.6,0,1.2,0,1.8-0.1c0.6-0.1,1.2-0.2,1.9-0.3S856.5,162.4,855.9,162.5z"/>
<path class="st125" d="M871.7,171.3c0,0.2,0,0.5,0,0.7c0.1,1.2-0.3,2.4-1.2,3.3c-1,0.6-2.1,0.8-3.2,0.6c-1.1-0.2-2.2-0.3-3.3-0.1
	c-2.1,0.6-3.5,3-5.7,3.2c-0.9,0-1.7-0.2-2.4-0.7c-0.5-0.3-1-0.7-1.4-1.2c-1.3-1.4-3.1-4.1-3.2-6.4c-0.1-1.3,0.4-2.6,1.5-3.3
	c0.9-0.5,1.8-0.9,2.8-1.2c2.8-0.9,5.4-2.5,7.4-4.7c0.7-0.9,1.6-1.8,2.5-2.5c1-0.8,2.2-0.9,3.4-0.5c0.6,0.3,1,0.8,1.3,1.3
	c0.4,0.7,0.6,1.5,0.7,2.4C871.4,165.2,871.7,168.2,871.7,171.3z"/>
<linearGradient id="SVGID_52_" gradientUnits="userSpaceOnUse" x1="882.5799" y1="540.1814" x2="855.4669" y2="471.28" gradientTransform="matrix(1 0 0 -1 0 650)">
	<stop  offset="1.000000e-02" style="stop-color:#3D3C53"/>
	<stop  offset="1" style="stop-color:#2E2D40"/>
</linearGradient>
<ellipse class="st126" cx="865.5" cy="153.3" rx="1.1" ry="2.3"/>
<ellipse class="st127" cx="849.1" cy="153.3" rx="1.1" ry="2.3"/>
<path class="st127" d="M850.5,147.9c-0.7-0.2-0.7-0.5-1.4-0.8l-0.5-0.2l-0.3-0.1l-0.1-0.1l-1.1-0.5c-0.5-0.2-1,0-1.2,0.4
	c-0.2,0.4-0.1,0.9,0.3,1.2c1.5,0.7,3,1.3,4.6,1.8c0.5,0.1,1-0.2,1.1-0.6C852,148.5,851,148.1,850.5,147.9z"/>
<path class="st127" d="M868.3,143.7c-0.4-0.4-0.9-0.4-1.3,0c-0.4,0.3-0.7,0.6-1.1,0.9c-0.4,0.3-0.9,0.6-1.3,0.9
	c-0.5,0.3-1.7,0.5-2.1,0.7c-0.5,0.2-0.1,0.4-0.6,0.6c-0.5,0.1-0.8,0.6-0.6,1.1c0.1,0.5,0.6,0.8,1.1,0.6c2.2-0.8,4.2-2,6-3.5
	C868.7,144.7,868.7,144.1,868.3,143.7C868.4,143.8,868.4,143.8,868.3,143.7z"/>
<path class="st9" d="M870.2,159.9l-18.8,10.9c-0.1-1.3,0.4-2.6,1.5-3.3c0.9-0.5,1.8-0.9,2.8-1.2c2.8-0.9,5.4-2.5,7.4-4.7
	c0.7-0.9,1.6-1.8,2.5-2.5c1-0.8,2.2-0.9,3.4-0.5C869.5,158.9,869.9,159.3,870.2,159.9z"/>
<path class="st9" d="M871.7,172c0.1,1.2-0.3,2.4-1.2,3.3c-1,0.6-2.1,0.8-3.2,0.6c-1.1-0.2-2.2-0.3-3.3-0.1c-2.1,0.6-3.5,3-5.7,3.2
	c-0.9,0-1.7-0.2-2.4-0.7C859.5,176.9,867.6,173.7,871.7,172z"/>
<path class="st98" d="M869.1,156.1c0.6-0.5,1.4-0.6,2.1-0.4c0.7,0.2,1.4,0.7,1.8,1.4c0.4,0.6,0.6,1.4,0.6,2.1c0,0.7-0.1,1.4-0.4,2
	c-0.1-0.7-0.2-1.3-0.3-2c-0.1-0.6-0.3-1.2-0.6-1.7c-0.3-0.5-0.7-0.9-1.2-1.2C870.4,156,869.8,155.9,869.1,156.1z"/>
<path class="st98" d="M849.8,171.6c-1-1.1-1-2.8,0.1-3.8c0.5-0.4,1.1-0.7,1.7-0.7c-0.7,0.5-1.2,1.2-1.5,2
	C849.8,169.9,849.7,170.8,849.8,171.6z"/>
<path class="st98" d="M873.8,171.7c-0.9,1-0.8,2.3-1.2,3.5c-0.2,0.6-0.6,1.2-1.2,1.5c-0.3,0.2-0.6,0.3-1,0.4c-0.3,0.1-0.7,0.2-1,0.3
	c-0.1,0,0,0.2,0.1,0.2c0.7,0,1.4-0.1,2-0.4c0.6-0.3,1-0.8,1.3-1.4c0.5-1.2,0.3-2.8,1.2-3.9C874,171.7,873.9,171.6,873.8,171.7z"/>
<path class="st98" d="M861.1,179.6c-0.4,0.1-0.8,0.3-1.2,0.4c-0.4,0.1-0.8,0.1-1.2,0.1c-0.8,0-1.6-0.2-2.4-0.6c-0.1,0-0.1,0-0.1,0.1
	c0,0,0,0.1,0,0.1c0.7,0.5,1.6,0.7,2.5,0.7c0.4,0,0.8,0,1.3-0.1c0.4-0.1,0.8-0.3,1.2-0.5C861.3,179.6,861.2,179.6,861.1,179.6z"/>
<path class="st71" d="M724.8,124c-0.4,0-0.8-0.3-1-0.7c-2.1-5.1-8-8.8-15.7-10c-3.1-0.4-6.3-0.7-9.4-0.7c-3.7,0-7.4-0.4-11.1-1
	c-6.5-1.3-14.3-5.2-16.4-12.6c-0.5-2.1-0.8-4.3-0.8-6.5c0-1.6-0.1-3.2-0.4-4.7c-1.5-8.4-9.8-13.8-17.3-15.3
	c-8.3-1.7-17.2,0-25.1,1.6c-0.6,0.1-1.1-0.3-1.2-0.9c-0.1-0.5,0.3-1,0.8-1.2c8.1-1.6,17.2-3.4,26-1.6c8.2,1.7,17.2,7.6,18.9,17
	c0.3,1.7,0.4,3.4,0.4,5.1c0,2,0.2,4,0.7,6c1.8,6.4,8.8,9.9,14.7,11.1c3.6,0.6,7.2,0.9,10.8,1c3.2,0.1,6.4,0.3,9.6,0.7
	c4,0.6,13.8,3,17.3,11.3c0.2,0.5,0,1.2-0.6,1.4C725.1,124,725,124,724.8,124z"/>
<path class="st71" d="M704.5,149.8c-0.2,0-0.4-0.1-0.6-0.2c-6.3-4.4-14.2-4.2-22.6-4c-7.8,0.2-15.8,0.4-22.6-3.3
	c-3.2-1.8-5.9-4.4-8.5-6.9c-2.6-2.5-5.1-4.9-8.2-6.6c-10.1-5.5-22.6-1.2-33.6,3.2c-0.5,0.2-1.2,0-1.4-0.6c-0.2-0.5,0-1.2,0.6-1.4
	l0,0c11.5-4.6,24.6-9.1,35.4-3.1c3.3,1.8,6,4.4,8.6,6.9c2.6,2.5,5.1,4.9,8.1,6.5c6.3,3.5,14,3.3,21.5,3.1c8.4-0.2,17-0.5,23.9,4.4
	c0.5,0.3,0.6,1,0.3,1.5C705.2,149.6,704.9,149.8,704.5,149.8z"/>
<path class="st71" d="M642.7,182.3c-0.6,0-1.1-0.5-1.1-1.1c0-0.2,0.1-0.4,0.2-0.6c5.2-7.6,15.6-9.5,23.6-8.8
	c4.8,0.6,9.5,1.6,14.2,2.9c3.4,0.9,7,1.8,10.6,2.4c5.6,0.9,16.1,1.5,22.8-5c0.4-0.4,1.1-0.4,1.5,0s0.4,1.1,0,1.5
	c-7.4,7.1-18.6,6.5-24.7,5.5c-3.6-0.6-7.3-1.5-10.7-2.5c-4.5-1.3-9.2-2.3-13.8-2.9c-7.4-0.7-16.9,1-21.6,7.9
	C643.4,182.1,643,182.3,642.7,182.3z"/>
<path class="st72" d="M957.2,309.8c0,0-6-8.6-7-10.6c-1-1.9-3.7,1.9-1.8,4.9c1.9,3,5,9.5,5,9.5s-8.3,0.2-12.8,0.5s-8.1,5.6-10.5,8.8
	c-2.5,3.2,1,3.6,2.5,2.3c1.5-1.3,4.2-5.3,5.9-5.7c1.6-0.4,4.7-0.2,4.8,1.3c0.1,1.5-8.5,5.5-10.7,7.8s0.1,3.2,2.4,1.9l2.7-1.6
	c-1.4,1-2.7,2.2-3.8,3.5c-1,1.3,0.2,2.7,2,1.6c1.1-0.7,2.2-1.3,3.4-1.9c0,0-2.9,2.5-3.5,3.5c-0.6,1,0.8,1.1,2.1,0.9
	c1.9-0.6,3.7-1.4,5.5-2.3c0,0,6.2-3.7,10.3-3c4,0.8,6.9,0.6,9.3-3.5c2.4-4.1,5.2-8.5,5.2-8.5L957.2,309.8z"/>
<linearGradient id="SVGID_53_" gradientUnits="userSpaceOnUse" x1="956.6319" y1="338.447" x2="975.8083" y2="338.447" gradientTransform="matrix(1 0 0 -1 0 650)">
	<stop  offset="1.000000e-02" style="stop-color:#FDFE73"/>
	<stop  offset="1" style="stop-color:#EC6E85"/>
</linearGradient>
<path class="st128" d="M959.4,303.5l-2.7,7.8c0,0,5.7,8.6,15.3,8.3l3.8-7.4C975.8,312.2,965.6,312.4,959.4,303.5z"/>
<path class="st129" d="M896.9,336.5c-0.1,0-0.2-0.1-0.2-0.2c-7.6-30.4-20.4-66.8-20.6-67.1c0-0.1,0-0.3,0.2-0.3c0,0,0,0,0,0
	c0.1-0.1,0.3,0,0.3,0.1c0,0,0,0,0,0c0.1,0.4,13,36.7,20.6,67.2C897.2,336.3,897.1,336.4,896.9,336.5
	C897,336.5,897,336.5,896.9,336.5L896.9,336.5z"/>
<ellipse transform="matrix(0.9443 -0.329 0.329 0.9443 -48.9181 305.9929)" class="st130" cx="879.6" cy="297.5" rx="1.3" ry="2.7"/>
<ellipse transform="matrix(0.9443 -0.329 0.329 0.9443 -56.1093 309.5871)" class="st130" cx="886.7" cy="320.6" rx="1.3" ry="2.7"/>
<linearGradient id="SVGID_54_" gradientUnits="userSpaceOnUse" x1="426.9993" y1="264.8109" x2="442.0885" y2="147.0831" gradientTransform="matrix(1 0 0 -1 0 650)">
	<stop  offset="1.000000e-02" style="stop-color:#FDFE73"/>
	<stop  offset="1" style="stop-color:#EC6E85"/>
</linearGradient>
<path class="st131" d="M460,457.6c0,0-0.6,4-2.2,9.8c-11.5-19.1-19.6-40.7-19.6-40.7l-25.4,33.5c2-7.9,3.3-12.6,3.3-12.6
	s21.8-34.7,24.3-34.4L460,457.6z"/>
<polygon class="st86" points="487.5,584.5 480.1,584.5 450,407.2 445.6,381.2 460.2,381.2 463.7,407.2 "/>
<rect x="177.3" y="371.8" class="st89" width="362.4" height="9.4"/>
<rect x="473.6" y="371.8" class="st90" width="66.1" height="9.4"/>
<linearGradient id="SVGID_55_" gradientUnits="userSpaceOnUse" x1="454.968" y1="354.0209" x2="498.8439" y2="335.8222" gradientTransform="matrix(1 0 0 -1 0 650)">
	<stop  offset="1.000000e-02" style="stop-color:#FDFE73"/>
	<stop  offset="1" style="stop-color:#EC6E85"/>
</linearGradient>
<path class="st132" d="M498.9,297.7c-1.4,1.9-2.9,3.7-4.6,5.4c-6.9-11-45.1,8.5-45.1,8.5c2.2-4,4.8-7.7,7.8-11.2
	C466.7,296.4,491.1,287.8,498.9,297.7z"/>
<linearGradient id="SVGID_56_" gradientUnits="userSpaceOnUse" x1="714.1112" y1="297.8305" x2="661.2592" y2="370.3522" gradientTransform="matrix(1 0 0 -1 0 650)">
	<stop  offset="1.000000e-02" style="stop-color:#FDFE73"/>
	<stop  offset="1" style="stop-color:#EC6E85"/>
</linearGradient>
<path class="st133" d="M700.7,338c-20.2-11.2-23.6-3.8-33.8-19.1c-0.9-1.4-1.9-2.9-3.1-4.7c0.6-1.4,10.6,10.3,33,15.3
	c2-10.8,1.9-21.9-0.3-32.7c0.5,0.7,1,1.3,1.4,1.9C706.9,312.1,700.7,338,700.7,338z"/>
<path class="st134" d="M216.2,582.8h-42.5c-5.7,0-10.4-4.7-10.4-10.4v-20c0-0.8,0.6-1.4,1.4-1.4c0.8,0,1.4,0.6,1.4,1.4l0,0v20
	c0,4.2,3.4,7.7,7.7,7.7h42.5c4.2,0,7.7-3.4,7.7-7.7V349.7c0-5.8,4.7-10.4,10.4-10.4h18.7c0.8-0.1,1.4,0.5,1.5,1.3
	c0.1,0.8-0.5,1.4-1.3,1.5c-0.1,0-0.1,0-0.2,0h-18.7c-4.2,0-7.7,3.4-7.7,7.7v222.8C226.6,578.2,221.9,582.8,216.2,582.8z"/>
<polygon class="st87" points="460.2,381.2 463.7,407.2 450,407.2 445.6,381.2 "/>
</svg>
