<svg xmlns="http://www.w3.org/2000/svg" xmlns:xlink="http://www.w3.org/1999/xlink" viewBox="0 0 1131.14 648.33"><defs><style>.cls-1{isolation:isolate;}.cls-2{fill:#f1f1f1;}.cls-3{fill:url(#linear-gradient);}.cls-4{fill:url(#linear-gradient-2);}.cls-5{fill:url(#linear-gradient-3);}.cls-6{fill:url(#linear-gradient-4);}.cls-7{fill:url(#linear-gradient-5);}.cls-10,.cls-100,.cls-136,.cls-138,.cls-139,.cls-140,.cls-141,.cls-144,.cls-145,.cls-147,.cls-149,.cls-150,.cls-152,.cls-154,.cls-155,.cls-159,.cls-160,.cls-161,.cls-167,.cls-169,.cls-45,.cls-47,.cls-55,.cls-56,.cls-58,.cls-66,.cls-67,.cls-70,.cls-73,.cls-74,.cls-79,.cls-8,.cls-9,.cls-92,.cls-96,.cls-97{mix-blend-mode:multiply;}.cls-8{fill:url(#linear-gradient-6);}.cls-9{fill:url(#linear-gradient-7);}.cls-11{fill:url(#linear-gradient-8);}.cls-12{fill:url(#linear-gradient-9);}.cls-13{fill:url(#linear-gradient-10);}.cls-14{fill:url(#linear-gradient-13);}.cls-15{fill:url(#linear-gradient-14);}.cls-16{fill:url(#linear-gradient-15);}.cls-17{fill:url(#linear-gradient-16);}.cls-18{fill:url(#linear-gradient-29);}.cls-19{fill:url(#linear-gradient-30);}.cls-20{fill:url(#linear-gradient-31);}.cls-21{fill:url(#linear-gradient-44);}.cls-22{fill:url(#linear-gradient-45);}.cls-23{fill:url(#linear-gradient-46);}.cls-24{fill:url(#linear-gradient-56);}.cls-25{fill:url(#linear-gradient-57);}.cls-26{fill:url(#linear-gradient-58);}.cls-27{fill:url(#linear-gradient-65);}.cls-28{fill:url(#linear-gradient-66);}.cls-29{fill:url(#linear-gradient-67);}.cls-30{fill:#fff;}.cls-31{opacity:0.7;}.cls-32{fill:url(#linear-gradient-68);}.cls-33{fill:url(#linear-gradient-69);}.cls-34{fill:url(#linear-gradient-70);}.cls-35{fill:url(#linear-gradient-71);}.cls-36{fill:url(#linear-gradient-72);}.cls-37{fill:url(#linear-gradient-73);}.cls-38{fill:#47475e;}.cls-39{fill:#eaecef;}.cls-40{fill:#dadce0;}.cls-41{fill:#c4c7cc;}.cls-42{fill:url(#linear-gradient-74);}.cls-43{fill:url(#linear-gradient-75);}.cls-44{fill:url(#linear-gradient-76);}.cls-45{fill:url(#linear-gradient-77);}.cls-46{fill:url(#linear-gradient-78);}.cls-47{fill:url(#linear-gradient-79);}.cls-48{fill:url(#linear-gradient-80);}.cls-49{fill:url(#linear-gradient-81);}.cls-50{fill:url(#linear-gradient-82);}.cls-51{fill:url(#linear-gradient-83);}.cls-52{fill:url(#linear-gradient-84);}.cls-53{fill:url(#linear-gradient-85);}.cls-54{fill:url(#linear-gradient-86);}.cls-55{fill:url(#linear-gradient-87);}.cls-56{fill:url(#linear-gradient-88);}.cls-57{fill:url(#linear-gradient-89);}.cls-58{fill:url(#linear-gradient-90);}.cls-59{fill:url(#linear-gradient-91);}.cls-60{fill:url(#linear-gradient-92);}.cls-61{fill:url(#linear-gradient-93);}.cls-137,.cls-62{fill:none;stroke-miterlimit:10;}.cls-62{stroke-width:1.05px;stroke:url(#linear-gradient-94);}.cls-63{font-size:30.28px;font-family:Roboto-Bold, Roboto;font-weight:700;}.cls-64{fill:url(#linear-gradient-95);}.cls-65{fill:url(#linear-gradient-97);}.cls-66{fill:url(#linear-gradient-98);}.cls-67{fill:url(#linear-gradient-99);}.cls-68{fill:url(#linear-gradient-100);}.cls-69{fill:url(#linear-gradient-101);}.cls-70{fill:url(#linear-gradient-102);}.cls-71{fill:url(#linear-gradient-103);}.cls-72{fill:url(#linear-gradient-104);}.cls-73{fill:url(#linear-gradient-105);}.cls-74{fill:url(#linear-gradient-106);}.cls-75{fill:url(#linear-gradient-107);}.cls-76{fill:url(#linear-gradient-108);}.cls-77{fill:url(#linear-gradient-109);}.cls-78{fill:#f6a59a;}.cls-79{fill:url(#linear-gradient-110);}.cls-80{fill:#dd776c;}.cls-81{fill:url(#linear-gradient-111);}.cls-82{fill:url(#linear-gradient-112);}.cls-83{fill:url(#linear-gradient-113);}.cls-84{fill:url(#linear-gradient-114);}.cls-85{fill:url(#linear-gradient-115);}.cls-86{fill:url(#linear-gradient-116);}.cls-87{fill:url(#linear-gradient-117);}.cls-88{fill:url(#linear-gradient-118);}.cls-89{fill:url(#linear-gradient-119);}.cls-90{fill:url(#linear-gradient-120);}.cls-91{fill:url(#linear-gradient-121);}.cls-92{fill:url(#linear-gradient-122);}.cls-93{fill:url(#linear-gradient-123);}.cls-94{fill:url(#linear-gradient-124);}.cls-95{fill:url(#linear-gradient-125);}.cls-96{fill:url(#linear-gradient-126);}.cls-97{fill:url(#linear-gradient-127);}.cls-98{fill:url(#linear-gradient-128);}.cls-99{fill:url(#linear-gradient-129);}.cls-100{fill:url(#linear-gradient-130);}.cls-101{fill:url(#linear-gradient-131);}.cls-102{fill:url(#linear-gradient-132);}.cls-103{fill:url(#linear-gradient-133);}.cls-104{fill:url(#linear-gradient-134);}.cls-105{fill:url(#linear-gradient-135);}.cls-106{fill:url(#linear-gradient-136);}.cls-107{fill:url(#linear-gradient-137);}.cls-108{fill:url(#linear-gradient-138);}.cls-109{fill:url(#linear-gradient-139);}.cls-110{fill:url(#linear-gradient-140);}.cls-111{fill:url(#linear-gradient-141);}.cls-112{fill:url(#linear-gradient-142);}.cls-113{fill:url(#linear-gradient-143);}.cls-114{fill:url(#linear-gradient-144);}.cls-115{fill:url(#linear-gradient-145);}.cls-116{fill:url(#linear-gradient-146);}.cls-117{fill:url(#linear-gradient-147);}.cls-118{fill:url(#linear-gradient-148);}.cls-119{fill:url(#linear-gradient-149);}.cls-120{fill:url(#linear-gradient-150);}.cls-121{fill:url(#linear-gradient-151);}.cls-122{fill:url(#linear-gradient-152);}.cls-123{fill:url(#linear-gradient-153);}.cls-124{fill:url(#linear-gradient-154);}.cls-125{fill:url(#linear-gradient-155);}.cls-126{fill:url(#linear-gradient-156);}.cls-127{fill:url(#linear-gradient-157);}.cls-128{fill:url(#linear-gradient-158);}.cls-129{fill:url(#linear-gradient-159);}.cls-130{fill:url(#linear-gradient-160);}.cls-131{fill:url(#linear-gradient-161);}.cls-132{fill:url(#linear-gradient-162);}.cls-133{fill:url(#linear-gradient-163);}.cls-134{fill:url(#linear-gradient-164);}.cls-135{fill:#37374a;}.cls-136{fill:url(#linear-gradient-165);}.cls-137{stroke:#231f20;stroke-width:0.57px;}.cls-138{fill:url(#linear-gradient-166);}.cls-139{fill:url(#linear-gradient-167);}.cls-140{fill:url(#linear-gradient-168);}.cls-141{fill:url(#linear-gradient-169);}.cls-142{fill:url(#linear-gradient-170);}.cls-143{fill:#6b64f5;}.cls-144{fill:url(#linear-gradient-171);}.cls-145{fill:url(#linear-gradient-172);}.cls-146{fill:#2e2d40;}.cls-147{fill:url(#linear-gradient-173);}.cls-148{fill:url(#linear-gradient-174);}.cls-149{fill:url(#linear-gradient-175);}.cls-150{fill:url(#linear-gradient-176);}.cls-151{fill:url(#linear-gradient-177);}.cls-152{fill:url(#linear-gradient-178);}.cls-153{fill:#7d7dff;}.cls-154{fill:url(#linear-gradient-179);}.cls-155{fill:url(#linear-gradient-180);}.cls-156{fill:url(#linear-gradient-181);}.cls-157{fill:#ec6e85;}.cls-158{fill:#5050d8;}.cls-159{fill:url(#linear-gradient-182);}.cls-160{fill:url(#linear-gradient-183);}.cls-161{fill:url(#linear-gradient-184);}.cls-162{fill:url(#linear-gradient-185);}.cls-163{fill:url(#linear-gradient-186);}.cls-164{fill:url(#linear-gradient-187);}.cls-165{fill:url(#linear-gradient-188);}.cls-166{fill:url(#linear-gradient-189);}.cls-167{fill:url(#linear-gradient-190);}.cls-168{fill:url(#linear-gradient-191);}.cls-169{fill:url(#linear-gradient-192);}.cls-170{fill:url(#linear-gradient-193);}.cls-171{fill:url(#linear-gradient-194);}.cls-172{fill:url(#linear-gradient-195);}.cls-173{fill:url(#linear-gradient-196);}.cls-174{fill:url(#linear-gradient-197);}.cls-175{fill:#c54c5d;}.cls-176{fill:url(#linear-gradient-198);}.cls-177{fill:url(#linear-gradient-199);}.cls-178{fill:url(#linear-gradient-200);}.cls-179{fill:url(#linear-gradient-201);}.cls-180{fill:url(#linear-gradient-202);}.cls-181{fill:url(#linear-gradient-203);}.cls-182{fill:url(#linear-gradient-204);}</style><linearGradient id="linear-gradient" x1="90.61" y1="586.24" x2="116.82" y2="586.24" gradientUnits="userSpaceOnUse"><stop offset="0" stop-color="#027373"/><stop offset="1" stop-color="#5dbea2"/></linearGradient><linearGradient id="linear-gradient-2" x1="-39.08" y1="587.07" x2="55.52" y2="586.52" xlink:href="#linear-gradient"/><linearGradient id="linear-gradient-3" x1="88.96" y1="583.08" x2="114.25" y2="585.62" xlink:href="#linear-gradient"/><linearGradient id="linear-gradient-4" x1="131.28" y1="585.22" x2="178.82" y2="585.6" xlink:href="#linear-gradient"/><linearGradient id="linear-gradient-5" x1="25.87" y1="577.87" x2="235.6" y2="595.65" xlink:href="#linear-gradient"/><linearGradient id="linear-gradient-6" x1="295.91" y1="-695.63" x2="409.24" y2="582.24" gradientUnits="userSpaceOnUse"><stop offset="0" stop-color="#fff" stop-opacity="0"/><stop offset="1" stop-color="#def9f0"/></linearGradient><linearGradient id="linear-gradient-7" x1="373.02" y1="-20.01" x2="373.02" y2="186.77" xlink:href="#linear-gradient-6"/><linearGradient id="linear-gradient-8" x1="22.66" y1="-63.65" x2="22.66" y2="171.38" xlink:href="#linear-gradient-6"/><linearGradient id="linear-gradient-9" x1="57.48" y1="-63.65" x2="57.48" y2="171.38" xlink:href="#linear-gradient-6"/><linearGradient id="linear-gradient-10" x1="22.65" y1="-63.65" x2="22.65" y2="171.38" xlink:href="#linear-gradient-6"/><linearGradient id="linear-gradient-13" x1="58.13" y1="-63.65" x2="58.13" y2="171.38" xlink:href="#linear-gradient-6"/><linearGradient id="linear-gradient-14" x1="123.6" y1="-63.65" x2="123.6" y2="171.38" xlink:href="#linear-gradient-6"/><linearGradient id="linear-gradient-15" x1="158.42" y1="-63.65" x2="158.42" y2="171.38" xlink:href="#linear-gradient-6"/><linearGradient id="linear-gradient-16" x1="193.24" y1="-63.65" x2="193.24" y2="171.38" xlink:href="#linear-gradient-6"/><linearGradient id="linear-gradient-29" x1="257.6" y1="-63.65" x2="257.6" y2="171.38" xlink:href="#linear-gradient-6"/><linearGradient id="linear-gradient-30" x1="292.42" y1="-63.65" x2="292.42" y2="171.38" xlink:href="#linear-gradient-6"/><linearGradient id="linear-gradient-31" x1="327.24" y1="-63.65" x2="327.24" y2="171.38" xlink:href="#linear-gradient-6"/><linearGradient id="linear-gradient-44" x1="423.17" y1="-63.65" x2="423.17" y2="171.38" xlink:href="#linear-gradient-6"/><linearGradient id="linear-gradient-45" x1="457.99" y1="-63.65" x2="457.99" y2="171.38" xlink:href="#linear-gradient-6"/><linearGradient id="linear-gradient-46" x1="492.81" y1="-63.65" x2="492.81" y2="171.38" xlink:href="#linear-gradient-6"/><linearGradient id="linear-gradient-56" x1="621.96" y1="-63.65" x2="621.96" y2="171.38" xlink:href="#linear-gradient-6"/><linearGradient id="linear-gradient-57" x1="656.78" y1="-63.65" x2="656.78" y2="171.38" xlink:href="#linear-gradient-6"/><linearGradient id="linear-gradient-58" x1="691.6" y1="-63.65" x2="691.6" y2="171.38" xlink:href="#linear-gradient-6"/><linearGradient id="linear-gradient-65" x1="621.96" y1="-63.65" x2="621.96" y2="171.38" xlink:href="#linear-gradient-6"/><linearGradient id="linear-gradient-66" x1="656.78" y1="-63.65" x2="656.78" y2="171.38" xlink:href="#linear-gradient-6"/><linearGradient id="linear-gradient-67" x1="691.6" y1="-63.65" x2="691.6" y2="171.38" xlink:href="#linear-gradient-6"/><linearGradient id="linear-gradient-68" x1="3501.76" y1="285.5" x2="-5547.63" y2="285.5" gradientUnits="userSpaceOnUse"><stop offset="0" stop-color="#fff" stop-opacity="0"/><stop offset="1" stop-color="#fff"/></linearGradient><linearGradient id="linear-gradient-69" x1="3501.76" y1="330.52" x2="-5547.63" y2="330.52" xlink:href="#linear-gradient-68"/><linearGradient id="linear-gradient-70" x1="598.09" y1="219.45" x2="594.8" y2="375.71" gradientUnits="userSpaceOnUse"><stop offset="0.01" stop-color="#3d3c53"/><stop offset="1" stop-color="#6a697f"/></linearGradient><linearGradient id="linear-gradient-71" x1="924.2" y1="432.66" x2="975.54" y2="774.49" xlink:href="#linear-gradient-70"/><linearGradient id="linear-gradient-72" x1="751.68" y1="576.5" x2="763.85" y2="657.53" xlink:href="#linear-gradient-70"/><linearGradient id="linear-gradient-73" x1="-262.76" y1="-576.1" x2="606.6" y2="977.75" xlink:href="#linear-gradient-70"/><linearGradient id="linear-gradient-74" x1="196.3" y1="69.98" x2="692.43" y2="476.65" gradientUnits="userSpaceOnUse"><stop offset="0.01" stop-color="#3d3c53"/><stop offset="1" stop-color="#1b1b29"/></linearGradient><linearGradient id="linear-gradient-75" x1="404.18" y1="273.32" x2="956.55" y2="603.87" gradientUnits="userSpaceOnUse"><stop offset="0.01" stop-color="#3d3c53"/><stop offset="1" stop-color="#2e2d40"/></linearGradient><linearGradient id="linear-gradient-76" x1="340.9" y1="309.63" x2="1515.04" y2="309.63" xlink:href="#linear-gradient"/><linearGradient id="linear-gradient-77" x1="533.63" y1="265.12" x2="433.18" y2="354.67" gradientUnits="userSpaceOnUse"><stop offset="0" stop-color="#fff" stop-opacity="0"/><stop offset="1" stop-color="#19857e"/></linearGradient><linearGradient id="linear-gradient-78" x1="457.34" y1="263.93" x2="535.84" y2="308.29" gradientUnits="userSpaceOnUse"><stop offset="0.01" stop-color="#5dbea2"/><stop offset="1" stop-color="#69c86c"/></linearGradient><linearGradient id="linear-gradient-79" x1="461.72" y1="245.56" x2="525.89" y2="287.49" gradientUnits="userSpaceOnUse"><stop offset="0" stop-color="#fff" stop-opacity="0"/><stop offset="1" stop-color="#60c090"/></linearGradient><linearGradient id="linear-gradient-80" x1="440.01" y1="292.16" x2="489.82" y2="312.82" gradientUnits="userSpaceOnUse"><stop offset="0.01" stop-color="#fdfe73"/><stop offset="1" stop-color="#ec6e85"/></linearGradient><linearGradient id="linear-gradient-81" x1="529.21" y1="206.13" x2="538.28" y2="234.96" xlink:href="#linear-gradient-80"/><linearGradient id="linear-gradient-82" x1="525.53" y1="215.76" x2="529.28" y2="221.56" xlink:href="#linear-gradient-80"/><linearGradient id="linear-gradient-83" x1="522.23" y1="209.15" x2="535.8" y2="252" xlink:href="#linear-gradient-80"/><linearGradient id="linear-gradient-84" x1="478.12" y1="488.96" x2="471.63" y2="553.88" xlink:href="#linear-gradient"/><linearGradient id="linear-gradient-85" x1="487.38" y1="313.23" x2="477.56" y2="521.68" xlink:href="#linear-gradient-77"/><linearGradient id="linear-gradient-86" x1="340.9" y1="328.62" x2="1515.04" y2="328.62" xlink:href="#linear-gradient"/><linearGradient id="linear-gradient-87" x1="535.24" y1="491.28" x2="572.11" y2="262.05" xlink:href="#linear-gradient-77"/><linearGradient id="linear-gradient-88" x1="495.46" y1="316.23" x2="713.24" y2="388.37" xlink:href="#linear-gradient-77"/><linearGradient id="linear-gradient-89" x1="340.9" y1="293.55" x2="1515.04" y2="293.55" xlink:href="#linear-gradient"/><linearGradient id="linear-gradient-90" x1="505.89" y1="419.94" x2="554.45" y2="168.53" xlink:href="#linear-gradient-77"/><linearGradient id="linear-gradient-91" x1="545.27" y1="233.42" x2="526.81" y2="327.13" xlink:href="#linear-gradient-78"/><linearGradient id="linear-gradient-92" x1="542.64" y1="251.08" x2="542.64" y2="332.91" gradientTransform="translate(124.7 -161.43) rotate(19.08)" xlink:href="#linear-gradient-80"/><linearGradient id="linear-gradient-93" x1="429.53" y1="236" x2="642.13" y2="557.82" xlink:href="#linear-gradient-78"/><linearGradient id="linear-gradient-94" x1="523.08" y1="320.02" x2="585.28" y2="320.02" xlink:href="#linear-gradient-78"/><linearGradient id="linear-gradient-95" x1="549.84" y1="341.44" x2="552.91" y2="309.65" gradientUnits="userSpaceOnUse"><stop offset="0" stop-color="#027373"/><stop offset="1" stop-color="#69c86c"/></linearGradient><linearGradient id="linear-gradient-97" x1="340.9" y1="448.3" x2="1515.04" y2="448.3" xlink:href="#linear-gradient"/><linearGradient id="linear-gradient-98" x1="472.39" y1="383.35" x2="467.55" y2="508.83" xlink:href="#linear-gradient-77"/><linearGradient id="linear-gradient-99" x1="483.11" y1="388.89" x2="468.06" y2="535.44" xlink:href="#linear-gradient-77"/><linearGradient id="linear-gradient-100" x1="224.73" y1="431.13" x2="680.11" y2="751.47" xlink:href="#linear-gradient-78"/><linearGradient id="linear-gradient-101" x1="400.8" y1="368.48" x2="404.08" y2="475.52" xlink:href="#linear-gradient-80"/><linearGradient id="linear-gradient-102" x1="242.01" y1="437.07" x2="394.04" y2="614.69" gradientUnits="userSpaceOnUse"><stop offset="0" stop-color="#fff" stop-opacity="0"/><stop offset="1" stop-color="#5fbf95"/></linearGradient><linearGradient id="linear-gradient-103" x1="237.51" y1="443.15" x2="620.29" y2="659.55" xlink:href="#linear-gradient-78"/><linearGradient id="linear-gradient-104" x1="408.26" y1="393.44" x2="425.39" y2="527.09" xlink:href="#linear-gradient-80"/><linearGradient id="linear-gradient-105" x1="300.23" y1="476.6" x2="504.33" y2="632.68" xlink:href="#linear-gradient-102"/><linearGradient id="linear-gradient-106" x1="583.28" y1="308.41" x2="581.25" y2="217.67" xlink:href="#linear-gradient-77"/><linearGradient id="linear-gradient-107" x1="550.41" y1="293.43" x2="558.85" y2="-60.05" gradientTransform="translate(674.81 -363.39) rotate(80.45)" xlink:href="#linear-gradient"/><linearGradient id="linear-gradient-108" x1="549.57" y1="191.76" x2="563.46" y2="191.76" gradientUnits="userSpaceOnUse"><stop offset="0.01" stop-color="#69c86c"/><stop offset="1" stop-color="#69c86c"/></linearGradient><linearGradient id="linear-gradient-109" x1="340.9" y1="216.07" x2="1515.04" y2="216.07" xlink:href="#linear-gradient"/><linearGradient id="linear-gradient-110" x1="570.03" y1="289.56" x2="575.03" y2="186.92" gradientUnits="userSpaceOnUse"><stop offset="0" stop-color="#fff" stop-opacity="0"/><stop offset="1" stop-color="#f6a59a"/></linearGradient><linearGradient id="linear-gradient-111" x1="556.14" y1="180.25" x2="595.59" y2="231.09" xlink:href="#linear-gradient-80"/><linearGradient id="linear-gradient-112" x1="534.6" y1="201.76" x2="730.2" y2="222.05" gradientTransform="translate(670.75 -422.31) rotate(77.26)" xlink:href="#linear-gradient"/><linearGradient id="linear-gradient-113" x1="574.46" y1="172.12" x2="574.46" y2="306.53" xlink:href="#linear-gradient-68"/><linearGradient id="linear-gradient-114" x1="566.21" y1="172.12" x2="566.21" y2="306.53" xlink:href="#linear-gradient-68"/><linearGradient id="linear-gradient-115" x1="601.52" y1="191.49" x2="615.42" y2="191.49" xlink:href="#linear-gradient-108"/><linearGradient id="linear-gradient-116" x1="608.59" y1="294.82" x2="617.03" y2="-58.66" gradientTransform="translate(723.37 -420.8) rotate(80.45)" xlink:href="#linear-gradient"/><linearGradient id="linear-gradient-117" x1="546.96" y1="216.43" x2="758.98" y2="218.33" gradientTransform="matrix(0.17, 0.99, -0.99, 0.17, 725.82, -424.09)" xlink:href="#linear-gradient"/><linearGradient id="linear-gradient-118" x1="610.44" y1="234.94" x2="652.22" y2="234.94" xlink:href="#linear-gradient-80"/><linearGradient id="linear-gradient-119" x1="569.19" y1="233.35" x2="623.48" y2="245.47" xlink:href="#linear-gradient-80"/><linearGradient id="linear-gradient-120" x1="665.76" y1="201.93" x2="600.97" y2="288.08" xlink:href="#linear-gradient-80"/><linearGradient id="linear-gradient-121" x1="340.9" y1="313.35" x2="1515.04" y2="313.35" xlink:href="#linear-gradient"/><linearGradient id="linear-gradient-122" x1="589.99" y1="436.18" x2="638.55" y2="184.77" xlink:href="#linear-gradient-77"/><linearGradient id="linear-gradient-123" x1="495.66" y1="193.92" x2="705.69" y2="511.86" xlink:href="#linear-gradient-78"/><linearGradient id="linear-gradient-124" x1="621.13" y1="249.72" x2="603.62" y2="338.64" xlink:href="#linear-gradient-78"/><linearGradient id="linear-gradient-125" x1="598.03" y1="251.08" x2="598.03" y2="332.91" gradientTransform="translate(127.1 -179.64) rotate(19.08)" xlink:href="#linear-gradient-80"/><linearGradient id="linear-gradient-126" x1="595.99" y1="326.59" x2="727.93" y2="305.43" xlink:href="#linear-gradient-77"/><linearGradient id="linear-gradient-127" x1="688.53" y1="279.01" x2="655.97" y2="366.48" xlink:href="#linear-gradient-77"/><linearGradient id="linear-gradient-128" x1="728.97" y1="234.72" x2="583.13" y2="409.15" xlink:href="#linear-gradient-78"/><linearGradient id="linear-gradient-129" x1="734.22" y1="355.94" x2="674.22" y2="273.61" xlink:href="#linear-gradient-80"/><linearGradient id="linear-gradient-130" x1="727.28" y1="245.55" x2="632.34" y2="318.42" xlink:href="#linear-gradient-79"/><linearGradient id="linear-gradient-131" x1="801.43" y1="541.25" x2="801.43" y2="732.19" gradientUnits="userSpaceOnUse"><stop offset="0" stop-color="#5dbea2"/><stop offset="1" stop-color="#bff4bd"/></linearGradient><linearGradient id="linear-gradient-132" x1="796.53" y1="541.25" x2="796.53" y2="732.19" xlink:href="#linear-gradient-131"/><linearGradient id="linear-gradient-133" x1="792.88" y1="541.25" x2="792.88" y2="732.19" xlink:href="#linear-gradient-131"/><linearGradient id="linear-gradient-134" x1="799.65" y1="30.78" x2="799.65" y2="791.81" gradientUnits="userSpaceOnUse"><stop offset="0" stop-color="#fff" stop-opacity="0"/><stop offset="1" stop-color="#5cbda2"/></linearGradient><linearGradient id="linear-gradient-135" x1="823.27" y1="30.78" x2="823.27" y2="791.81" xlink:href="#linear-gradient-134"/><linearGradient id="linear-gradient-136" x1="810.5" y1="30.78" x2="810.5" y2="791.81" xlink:href="#linear-gradient-134"/><linearGradient id="linear-gradient-137" x1="815.74" y1="30.78" x2="815.74" y2="791.81" xlink:href="#linear-gradient-134"/><linearGradient id="linear-gradient-138" x1="826.53" y1="30.78" x2="826.53" y2="791.81" xlink:href="#linear-gradient-134"/><linearGradient id="linear-gradient-139" x1="802.93" y1="30.78" x2="802.93" y2="791.81" xlink:href="#linear-gradient-134"/><linearGradient id="linear-gradient-140" x1="818.19" y1="30.78" x2="818.19" y2="791.81" xlink:href="#linear-gradient-134"/><linearGradient id="linear-gradient-141" x1="796.97" y1="30.78" x2="796.97" y2="791.81" xlink:href="#linear-gradient-134"/><linearGradient id="linear-gradient-142" x1="726.29" y1="541.25" x2="726.29" y2="732.19" xlink:href="#linear-gradient-131"/><linearGradient id="linear-gradient-143" x1="731.18" y1="541.25" x2="731.18" y2="732.19" xlink:href="#linear-gradient-131"/><linearGradient id="linear-gradient-144" x1="728.06" y1="30.78" x2="728.06" y2="791.81" xlink:href="#linear-gradient-134"/><linearGradient id="linear-gradient-145" x1="704.45" y1="30.78" x2="704.45" y2="791.81" xlink:href="#linear-gradient-134"/><linearGradient id="linear-gradient-146" x1="717.21" y1="30.78" x2="717.21" y2="791.81" xlink:href="#linear-gradient-134"/><linearGradient id="linear-gradient-147" x1="711.97" y1="30.78" x2="711.97" y2="791.81" xlink:href="#linear-gradient-134"/><linearGradient id="linear-gradient-148" x1="701.19" y1="30.78" x2="701.19" y2="791.81" xlink:href="#linear-gradient-134"/><linearGradient id="linear-gradient-149" x1="724.79" y1="30.78" x2="724.79" y2="791.81" xlink:href="#linear-gradient-134"/><linearGradient id="linear-gradient-150" x1="709.53" y1="30.78" x2="709.53" y2="791.81" xlink:href="#linear-gradient-134"/><linearGradient id="linear-gradient-151" x1="730.75" y1="30.78" x2="730.75" y2="791.81" xlink:href="#linear-gradient-134"/><linearGradient id="linear-gradient-152" x1="789.73" y1="30.78" x2="789.73" y2="791.81" xlink:href="#linear-gradient-134"/><linearGradient id="linear-gradient-153" x1="797.55" y1="30.78" x2="797.55" y2="791.81" xlink:href="#linear-gradient-134"/><linearGradient id="linear-gradient-154" x1="805.5" y1="30.78" x2="805.5" y2="791.81" xlink:href="#linear-gradient-134"/><linearGradient id="linear-gradient-155" x1="818.11" y1="30.78" x2="818.11" y2="791.81" xlink:href="#linear-gradient-134"/><linearGradient id="linear-gradient-156" x1="815.38" y1="30.78" x2="815.38" y2="791.81" xlink:href="#linear-gradient-134"/><linearGradient id="linear-gradient-157" x1="165.68" y1="674.95" x2="165.68" y2="271.27" xlink:href="#linear-gradient-74"/><linearGradient id="linear-gradient-158" x1="227.38" y1="674.95" x2="227.38" y2="271.27" xlink:href="#linear-gradient-74"/><linearGradient id="linear-gradient-159" x1="514.81" y1="674.95" x2="514.81" y2="271.27" xlink:href="#linear-gradient-74"/><linearGradient id="linear-gradient-160" x1="453.12" y1="674.95" x2="453.12" y2="271.27" xlink:href="#linear-gradient-74"/><linearGradient id="linear-gradient-161" x1="179.17" y1="266.37" x2="179.17" y2="360.43" xlink:href="#linear-gradient-74"/><linearGradient id="linear-gradient-162" x1="240.87" y1="266.37" x2="240.87" y2="360.43" xlink:href="#linear-gradient-74"/><linearGradient id="linear-gradient-163" x1="439.62" y1="266.37" x2="439.62" y2="360.43" xlink:href="#linear-gradient-74"/><linearGradient id="linear-gradient-164" x1="501.32" y1="266.37" x2="501.32" y2="360.43" xlink:href="#linear-gradient-74"/><linearGradient id="linear-gradient-165" x1="500.88" y1="300.23" x2="496.25" y2="472.74" gradientTransform="translate(997.29 767.09) rotate(-180)" gradientUnits="userSpaceOnUse"><stop offset="0" stop-color="#fff" stop-opacity="0"/><stop offset="1" stop-color="#37374a"/></linearGradient><linearGradient id="linear-gradient-166" x1="268.72" y1="122.28" x2="268.72" y2="572.33" gradientTransform="matrix(1, 0, 0, 1, 0, 0)" xlink:href="#linear-gradient-165"/><linearGradient id="linear-gradient-167" x1="190.42" y1="327.56" x2="342.15" y2="334.74" gradientTransform="matrix(1, 0, 0, 1, 0, 0)" xlink:href="#linear-gradient-165"/><linearGradient id="linear-gradient-168" x1="197.29" y1="333.68" x2="314.22" y2="345.83" gradientTransform="matrix(1, 0, 0, 1, 0, 0)" xlink:href="#linear-gradient-165"/><linearGradient id="linear-gradient-169" x1="181.33" y1="335.4" x2="302.49" y2="342.03" gradientTransform="matrix(1, 0, 0, 1, 0, 0)" xlink:href="#linear-gradient-165"/><linearGradient id="linear-gradient-170" x1="-61.51" y1="364.15" x2="508.86" y2="655.44" xlink:href="#linear-gradient-78"/><linearGradient id="linear-gradient-171" x1="725.36" y1="231.6" x2="1058.85" y2="343.13" gradientUnits="userSpaceOnUse"><stop offset="0" stop-color="#fff" stop-opacity="0"/><stop offset="1" stop-color="#3e3c76"/></linearGradient><linearGradient id="linear-gradient-172" x1="757.55" y1="205.55" x2="1121.59" y2="402.03" xlink:href="#linear-gradient-171"/><linearGradient id="linear-gradient-173" x1="849.42" y1="348.48" x2="878.13" y2="704.6" gradientUnits="userSpaceOnUse"><stop offset="0" stop-color="#fff" stop-opacity="0"/><stop offset="1" stop-color="#343347"/></linearGradient><linearGradient id="linear-gradient-174" x1="911.86" y1="997.16" x2="911.86" y2="-1309.97" gradientUnits="userSpaceOnUse"><stop offset="0.01" stop-color="#3d3c53"/><stop offset="1" stop-color="#6b64f5"/></linearGradient><linearGradient id="linear-gradient-175" x1="555.16" y1="453.92" x2="1493.59" y2="509.3" gradientUnits="userSpaceOnUse"><stop offset="0" stop-color="#fff" stop-opacity="0"/><stop offset="1" stop-color="#5a56b9"/></linearGradient><linearGradient id="linear-gradient-176" x1="1056.68" y1="331.78" x2="1085.38" y2="687.89" xlink:href="#linear-gradient-173"/><linearGradient id="linear-gradient-177" x1="1022.68" y1="997.16" x2="1022.68" y2="-1309.97" xlink:href="#linear-gradient-174"/><linearGradient id="linear-gradient-178" x1="556.83" y1="425.6" x2="1495.26" y2="480.98" xlink:href="#linear-gradient-175"/><linearGradient id="linear-gradient-179" x1="923.43" y1="199.04" x2="967.92" y2="455.6" xlink:href="#linear-gradient-171"/><linearGradient id="linear-gradient-180" x1="928.1" y1="275.48" x2="1098.04" y2="294.4" xlink:href="#linear-gradient-171"/><linearGradient id="linear-gradient-181" x1="952.59" y1="73.06" x2="913.34" y2="108.78" xlink:href="#linear-gradient-75"/><linearGradient id="linear-gradient-182" x1="854.72" y1="281.11" x2="980.42" y2="305.17" gradientTransform="translate(148.03 -286.97) rotate(19.21)" xlink:href="#linear-gradient-171"/><linearGradient id="linear-gradient-183" x1="850.17" y1="304.88" x2="975.87" y2="328.94" gradientTransform="translate(157.08 -288.13) rotate(19.21)" xlink:href="#linear-gradient-171"/><linearGradient id="linear-gradient-184" x1="1065.39" y1="196.29" x2="907.76" y2="341.42" xlink:href="#linear-gradient-171"/><linearGradient id="linear-gradient-185" x1="1009.52" y1="309.85" x2="1031.29" y2="309.85" xlink:href="#linear-gradient-80"/><linearGradient id="linear-gradient-186" x1="820.92" y1="143.82" x2="908.09" y2="179.78" xlink:href="#linear-gradient-80"/><linearGradient id="linear-gradient-187" x1="812.88" y1="147.1" x2="872.62" y2="159.6" xlink:href="#linear-gradient-80"/><linearGradient id="linear-gradient-188" x1="786.81" y1="180.83" x2="859.85" y2="185.15" xlink:href="#linear-gradient-95"/><linearGradient id="linear-gradient-189" x1="816.95" y1="183.25" x2="831.33" y2="183.25" xlink:href="#linear-gradient-78"/><linearGradient id="linear-gradient-190" x1="812.47" y1="199.34" x2="831.47" y2="154.29" xlink:href="#linear-gradient-102"/><linearGradient id="linear-gradient-191" x1="826.1" y1="65.02" x2="759.09" y2="333.09" xlink:href="#linear-gradient-78"/><linearGradient id="linear-gradient-192" x1="813.16" y1="104.98" x2="792.99" y2="208.73" xlink:href="#linear-gradient-102"/><linearGradient id="linear-gradient-193" x1="821.27" y1="146.85" x2="916.56" y2="167.62" xlink:href="#linear-gradient-95"/><linearGradient id="linear-gradient-194" x1="746.61" y1="127.22" x2="799.77" y2="145.71" xlink:href="#linear-gradient-80"/><linearGradient id="linear-gradient-195" x1="744.25" y1="125.07" x2="778.2" y2="138.36" xlink:href="#linear-gradient-80"/><linearGradient id="linear-gradient-196" x1="746.51" y1="129.65" x2="819.71" y2="150.94" gradientTransform="translate(708.8 -634.54) rotate(76.44)" xlink:href="#linear-gradient-80"/><linearGradient id="linear-gradient-197" x1="743.9" y1="127.71" x2="777.87" y2="141.17" gradientTransform="translate(707.29 -633.35) rotate(76.44)" xlink:href="#linear-gradient-80"/><linearGradient id="linear-gradient-198" x1="925.46" y1="80.83" x2="894.68" y2="159.05" xlink:href="#linear-gradient-75"/><linearGradient id="linear-gradient-199" x1="909.31" y1="74.47" x2="878.53" y2="152.7" xlink:href="#linear-gradient-75"/><linearGradient id="linear-gradient-200" x1="907" y1="73.57" x2="876.23" y2="151.79" xlink:href="#linear-gradient-75"/><linearGradient id="linear-gradient-201" x1="922.08" y1="79.5" x2="891.3" y2="157.72" xlink:href="#linear-gradient-75"/><linearGradient id="linear-gradient-202" x1="679.49" y1="-17.74" x2="686.99" y2="36.78" xlink:href="#linear-gradient-95"/><linearGradient id="linear-gradient-203" x1="650.87" y1="-13.8" x2="658.37" y2="40.71" xlink:href="#linear-gradient-95"/><linearGradient id="linear-gradient-204" x1="669.53" y1="-16.37" x2="677.03" y2="38.15" xlink:href="#linear-gradient-95"/></defs><g class="cls-1"><g id="Layer_2" data-name="Layer 2"><g id="Layer_1-2" data-name="Layer 1"><path class="cls-2" d="M1127,287.6A937.9,937.9,0,0,1,1024.42,615l-909.94,2.66q-16.41-27.11-30.95-55.29c-.72-1.38-1.43-2.77-2.14-4.15l-2.14-4.25A924.65,924.65,0,0,1,31.89,442C8.9,375.8-6.62,305.22,2.8,235.8S50,98.08,112,65.5c18.95-10,39.26-16.24,60.23-19.79q4.19-.72,8.4-1.27c33.34-4.5,68.09-2.51,101.52,2.25,26.43,3.76,52.66,9.11,78.94,14q4.2.79,8.4,1.55c28,5.11,56.16,9.45,84.61,10.56,32.18,1.25,64.13-1.64,95.85-6.91q4.2-.69,8.4-1.45c42.53-7.6,84.65-19.17,126.4-30.38,17.91-4.81,35.95-9.57,54.07-13.94l4.19-1,4.2-1C802.85,5.13,859.35-3.71,916,1.53c77.94,7.21,157.37,46.12,192.7,116C1134.82,169.15,1133.88,230.13,1127,287.6Z"/><rect class="cls-3" x="90.61" y="567.53" width="26.21" height="37.41" rx="4.46"/><rect class="cls-4" x="91.76" y="567.53" width="26.21" height="37.41" rx="4.46"/><path class="cls-5" d="M116.81,585a7.14,7.14,0,0,1-6.2,7.09,7.57,7.57,0,0,1-1,.06h-2.55a7.15,7.15,0,0,1-5-12.21,7.07,7.07,0,0,1,5-2.09h2.55a7.57,7.57,0,0,1,1,.06A7.15,7.15,0,0,1,116.81,585Z"/><path class="cls-6" d="M115.78,585a6.27,6.27,0,0,1-5.44,6.22,5.93,5.93,0,0,1-.84.06h-2.23a6.28,6.28,0,0,1,0-12.56h2.23a7.89,7.89,0,0,1,.84,0A6.29,6.29,0,0,1,115.78,585Z"/><path class="cls-7" d="M115.78,585a6.27,6.27,0,0,1-5.44,6.22,6.28,6.28,0,0,1,0-12.45A6.29,6.29,0,0,1,115.78,585Z"/><path class="cls-8" d="M743,19.12V558.18H81.39l-2.14-4.25c-.34-.68-.69-1.36-1-2q-8.67-17.32-16.59-35-4.65-10.32-9-20.75Q41.41,469.38,31.89,442q-1.11-3.19-2.2-6.41-4.14-12.22-7.88-24.65Q19,401.64,16.5,392.27A502.07,502.07,0,0,1,3.06,325.33c-3.75-29.76-4.3-59.75-.26-89.53C12.21,166.38,50,98.08,112,65.5c18.95-10,39.26-16.24,60.23-19.79q4.19-.72,8.4-1.27c33.34-4.5,68.09-2.51,101.52,2.25,26.43,3.76,52.66,9.11,78.94,14q4.2.79,8.4,1.55c28,5.11,56.16,9.45,84.61,10.56a423.7,423.7,0,0,0,54.87-1.58c13.7-1.24,27.36-3.07,41-5.33q4.2-.69,8.4-1.45c42.53-7.6,84.65-19.17,126.4-30.38,17.91-4.81,35.95-9.57,54.07-13.94Z"/><path class="cls-9" d="M743,243.86V558.18H81.39l-2.14-4.25A924.65,924.65,0,0,1,31.89,442C18.76,404.19,8.07,365,3.06,325.33H79.25V499.09H107V278H211.09V443.37h33.66V239.65h94.4V483.16h26.11V254h52.57V355.5h84.65V245.73H620V355.5H696.1V243.86Z"/><g class="cls-10"><rect class="cls-11" x="16.5" y="337.2" width="12.31" height="20.75"/><rect class="cls-12" x="51.32" y="337.2" width="12.31" height="20.75"/><path class="cls-13" d="M28.81,390.17v20.75h-7Q19,401.64,16.5,392.27v-2.1Z"/><rect class="cls-12" x="51.32" y="390.17" width="12.31" height="20.75"/><rect class="cls-12" x="51.32" y="443.15" width="12.31" height="20.75"/><path class="cls-14" d="M63.63,496.12v20.75h-2q-4.65-10.32-9-20.75Z"/><rect class="cls-15" x="117.45" y="294.6" width="12.31" height="20.75"/><rect class="cls-16" x="152.27" y="294.6" width="12.31" height="20.75"/><rect class="cls-17" x="187.09" y="294.6" width="12.31" height="20.75"/><rect class="cls-15" x="117.45" y="347.57" width="12.31" height="20.75"/><rect class="cls-16" x="152.27" y="347.57" width="12.31" height="20.75"/><rect class="cls-17" x="187.09" y="347.57" width="12.31" height="20.75"/><rect class="cls-15" x="117.45" y="400.55" width="12.31" height="20.75"/><rect class="cls-16" x="152.27" y="400.55" width="12.31" height="20.75"/><rect class="cls-17" x="187.09" y="400.55" width="12.31" height="20.75"/><rect class="cls-15" x="117.45" y="453.52" width="12.31" height="20.75"/><rect class="cls-16" x="152.27" y="453.52" width="12.31" height="20.75"/><rect class="cls-17" x="187.09" y="453.52" width="12.31" height="20.75"/><rect class="cls-15" x="117.45" y="506.5" width="12.31" height="20.75"/><rect class="cls-16" x="152.27" y="506.5" width="12.31" height="20.75"/><rect class="cls-17" x="187.09" y="506.5" width="12.31" height="20.75"/><rect class="cls-18" x="251.44" y="279.63" width="12.31" height="20.75"/><rect class="cls-19" x="286.26" y="279.63" width="12.31" height="20.75"/><rect class="cls-20" x="321.08" y="279.63" width="12.31" height="20.75"/><rect class="cls-18" x="251.44" y="332.61" width="12.31" height="20.75"/><rect class="cls-19" x="286.26" y="332.61" width="12.31" height="20.75"/><rect class="cls-20" x="321.08" y="332.61" width="12.31" height="20.75"/><rect class="cls-18" x="251.44" y="385.59" width="12.31" height="20.75"/><rect class="cls-19" x="286.26" y="385.59" width="12.31" height="20.75"/><rect class="cls-20" x="321.08" y="385.59" width="12.31" height="20.75"/><rect class="cls-18" x="251.44" y="438.56" width="12.31" height="20.75"/><rect class="cls-19" x="286.26" y="438.56" width="12.31" height="20.75"/><rect class="cls-20" x="321.08" y="438.56" width="12.31" height="20.75"/><rect class="cls-18" x="251.44" y="491.54" width="12.31" height="20.75"/><rect class="cls-19" x="286.26" y="491.54" width="12.31" height="20.75"/><rect class="cls-20" x="321.08" y="491.54" width="12.31" height="20.75"/><rect class="cls-21" x="417.01" y="370.51" width="12.31" height="20.75"/><rect class="cls-22" x="451.83" y="370.51" width="12.31" height="20.75"/><rect class="cls-23" x="486.65" y="370.51" width="12.31" height="20.75"/><rect class="cls-21" x="417.01" y="423.48" width="12.31" height="20.75"/><rect class="cls-22" x="451.83" y="423.48" width="12.31" height="20.75"/><rect class="cls-23" x="486.65" y="423.48" width="12.31" height="20.75"/><rect class="cls-21" x="417.01" y="476.46" width="12.31" height="20.75"/><rect class="cls-22" x="451.83" y="476.46" width="12.31" height="20.75"/><rect class="cls-23" x="486.65" y="476.46" width="12.31" height="20.75"/><rect class="cls-21" x="417.01" y="529.43" width="12.31" height="20.75"/><rect class="cls-22" x="451.83" y="529.43" width="12.31" height="20.75"/><rect class="cls-23" x="486.65" y="529.43" width="12.31" height="20.75"/><rect class="cls-24" x="615.81" y="381.86" width="12.31" height="20.75"/><rect class="cls-25" x="650.63" y="381.86" width="12.31" height="20.75"/><rect class="cls-26" x="685.45" y="381.86" width="12.31" height="20.75"/><rect class="cls-24" x="615.81" y="434.83" width="12.31" height="20.75"/><rect class="cls-25" x="650.63" y="434.83" width="12.31" height="20.75"/><rect class="cls-26" x="685.45" y="434.83" width="12.31" height="20.75"/><rect class="cls-24" x="615.81" y="487.81" width="12.31" height="20.75"/><rect class="cls-25" x="650.63" y="487.81" width="12.31" height="20.75"/><rect class="cls-26" x="685.45" y="487.81" width="12.31" height="20.75"/><rect class="cls-27" x="615.81" y="540.78" width="12.31" height="17.4"/><rect class="cls-28" x="650.63" y="540.78" width="12.31" height="17.4"/><rect class="cls-29" x="685.45" y="540.78" width="12.31" height="17.4"/></g><path class="cls-30" d="M527.26,151.8H713.93s-7.81-16.67-31.61-10.14c0,0-32.6-41.44-84.32-4.65C598,137,548.31,127.93,527.26,151.8Z"/><path class="cls-30" d="M331.28,210.12H49.22s40.66-42.55,89.46-21.27c0,0,18.63-41.26,57.23-41.26S244.75,184,244.75,184s36.25-13.76,52.49,8.43C297.24,192.4,330,187.92,331.28,210.12Z"/><path class="cls-30" d="M747.18,18.14V562.33h-8.39V20.13C741.59,19.45,744.38,18.79,747.18,18.14Z"/><path class="cls-30" d="M180.6,44.44V562.33h-8.4V45.71Q176.39,45,180.6,44.44Z"/><path class="cls-30" d="M369.46,62.25V562.33h-8.4V60.7Q365.26,61.49,369.46,62.25Z"/><path class="cls-30" d="M558.32,64.45V562.33h-8.4V65.9Q554.12,65.21,558.32,64.45Z"/><path class="cls-30" d="M747.18,553.93v8.4H83.53q-2.18-4.19-4.28-8.4Z"/><g class="cls-31"><path class="cls-32" d="M743,19.12V46.5L78.23,551.88q-8.67-17.32-16.59-35-4.65-10.32-9-20.75Q41.41,469.38,31.89,442q-1.11-3.19-2.2-6.41L508.94,71.23c13.7-1.24,27.36-3.07,41-5.33q4.2-.69,8.4-1.45c42.53-7.6,84.65-19.17,126.4-30.38,17.91-4.81,35.95-9.57,54.07-13.94Z"/><polygon class="cls-33" points="744.17 102.86 744.17 170.4 742.98 171.3 234.08 558.18 145.24 558.18 742.98 103.76 744.17 102.86"/></g><ellipse class="cls-34" cx="589.55" cy="625" rx="526.33" ry="23.33"/><ellipse class="cls-35" cx="953.55" cy="628.06" rx="127.9" ry="6.93"/><ellipse class="cls-36" cx="758.64" cy="622.82" rx="27.45" ry="2.54"/><ellipse class="cls-37" cx="405.56" cy="618.43" rx="225.3" ry="6.93"/><path class="cls-38" d="M353.54,390.4H275.75a3.09,3.09,0,0,1-3.08-3h77.85A3,3,0,0,1,353.54,390.4Z"/><rect class="cls-39" x="490.32" y="475.92" width="11.7" height="118.25"/><rect class="cls-40" x="486.62" y="475.68" width="19.1" height="49.26" rx="3.29"/><path class="cls-40" d="M564.37,618h0c-3,0-5.51-1.58-6.09-3.78-2.31-8.76-12.52-15.37-24.73-15.37H456.73c-12.21,0-22.41,6.61-24.73,15.37-.58,2.2-3.13,3.78-6.08,3.78h0c-3.94,0-6.88-2.75-6.1-5.68,3.47-13.05,18.7-22.91,36.91-22.91h76.82c18.21,0,33.44,9.86,36.92,22.91C571.24,615.29,568.3,618,564.37,618Z"/><path class="cls-40" d="M532.65,618h0c-3.16,0-5.89-1.79-6.22-4.18-1.28-9.26-6.66-15-10.51-15H474.36c-3.85,0-9.22,5.71-10.51,15-.33,2.39-3.05,4.18-6.22,4.18h0c-3.62,0-6.53-2.36-6.16-5.09,1.84-13.7,11.07-23.5,22.89-23.5h41.56c11.82,0,21.05,9.8,22.89,23.5C539.18,615.68,536.27,618,532.65,618Z"/><circle class="cls-41" cx="532.55" cy="611.92" r="7.77"/><circle class="cls-41" cx="564.38" cy="611.94" r="7.77"/><circle class="cls-41" cx="457.77" cy="611.92" r="7.77"/><circle class="cls-41" cx="426.04" cy="611.92" r="7.77"/><path class="cls-42" d="M584.76,206c3.15.17,61-3.1,65.3,13.85s7.05,23.13,15.44,51.51-3.79,60.54-25.38,109.21S583,475.68,583,475.68l-69.2,19.7-82.74-8.56L419.38,465s91.45-23.41,103.41-51.84,16.7-63.18,16.7-63.18l12.74-51.83,19.07-26.8Z"/><path class="cls-43" d="M675.24,291.45c-3.78,18.27-3.78,60.19-34.14,130s-82.6,88.08-98.45,88.08H459.58c-16.13,0-27.22-9.44-33.54-17.06a23.27,23.27,0,0,1-4-23.11c.32-.86.69-1.7,1.08-2.52,30.88-4.57,97.14,7.21,136.76-3.18,51.75-13.58,21.57-35.2,39.44-70.23s49.89-59.25,57.74-89.36-.33-30.72-7.85-49.48-2-20.57-3.43-33.33c-1.11-9.82-44.1-8-63.83-6.69a24.58,24.58,0,0,1,10.2-6.11c26.1-8.53,73.15-5.21,66.53,22.7S679,273.18,675.24,291.45Z"/><path class="cls-44" d="M513.84,325.4a91.75,91.75,0,0,1-11.63,4.75,151,151,0,0,1-30.44,3.75c-31.15,8.89-41.29-17.21-31.1-28.17s18.58-13.5,31.38-12.18,12.6,6.61,12.6,6.61c14.58-16.6,38-16.62,38.14-16.62C548.34,303.58,528.35,318.31,513.84,325.4Z"/><path class="cls-45" d="M513.84,325.4a91.75,91.75,0,0,1-11.63,4.75,151,151,0,0,1-30.44,3.75c-31.15,8.89-41.29-17.21-31.1-28.17s17-11.89,29.76-10.57,14.22,5,14.22,5S451.26,303,445,315.46c-6.13,12.21,11.93,23.87,27.45,12.2,0,0,13.21,5.66,35.52-.94A40.64,40.64,0,0,1,513.84,325.4Z"/><path class="cls-46" d="M527.21,249.77s-19.43,17.47-28.5,31.63c-3.61,5.63-6.57,9.75-8.83,12.67a55,55,0,0,1-5.23,6.09,7.2,7.2,0,0,0-3.58-2.86c-12.92-5.15-47.63,12.5-47.63,12.5a74.65,74.65,0,0,1,8.89-12.68c24.42-28.85,75-58.65,75-58.65l7.76,8.87Z"/><path class="cls-47" d="M527.21,249.77s-19.43,17.47-28.5,31.63c-3.61,5.63-6.57,9.75-8.83,12.67a55,55,0,0,1-5.23,6.09,7.2,7.2,0,0,0-3.58-2.86c3.7-5.38,11-15.65,16.88-21.91,6.69-7.09,21.25-22.37,27.14-28Z"/><path class="cls-48" d="M489.88,294.07a55,55,0,0,1-5.23,6.09c-7.79-12.45-51.21,9.64-51.21,9.64a74.65,74.65,0,0,1,8.89-12.68C453.28,292.66,481,282.87,489.88,294.07Z"/><path class="cls-49" d="M515.85,244.05c3,3.65,11.36,5.72,11.36,5.72l4.4-7.76L546,239.73l.86-9.24-5.92-2.17s13.29-11.7,15-15.31-.58-3.8-9.4,2.8c-5.84,4.36-9.58,7.3-13.68,9.54a42.89,42.89,0,0,1-6.84,3c-7.64,2.61-2.34,1.46-9.56,9.12C514.06,240,514.37,242.22,515.85,244.05Z"/><path class="cls-50" d="M542.51,236.71s4.62,4,3.61,6.93-6.93-2.46-8.81-3.47S542.51,236.71,542.51,236.71Z"/><path class="cls-51" d="M515.85,244.05c2.71-2.19,3.69-5.47,6.12-8.55,2.85-3.6,6.26-3.13,7.5-1.8s2.14,8.31,2.14,8.31L546,239.73l.86-9.24-5.92-2.17a32.19,32.19,0,0,1-8-3,42.89,42.89,0,0,1-6.84,3c-7.64,2.61-2.34,1.46-9.56,9.12C514.06,240,514.37,242.22,515.85,244.05Z"/><path class="cls-52" d="M445.75,475.68s29.9,8.23,83.84,7.22-61.88-67.81-88.7-61S416,473,416,473Z"/><g class="cls-10"><path class="cls-53" d="M445.75,475.68s29.9,8.23,83.84,7.22-61.88-67.81-88.7-61S416,473,416,473Z"/></g><path class="cls-54" d="M493,358.13a44,44,0,0,1,2.48,15.69c0,.79-.05,1.57-.1,2.37l-3.17,49.66h87.51s.63-18.55,12.19-41.84a134.18,134.18,0,0,1,14.76-23.33c7.43-9.45,15.35-19.79,22.21-29.84,13.55-19.84,23-38.61,16.9-47.65a9.14,9.14,0,0,0-.71-.93,9.47,9.47,0,0,0-.83-.85,12,12,0,0,0-1.42-1.07c-.1-.06-.2-.14-.31-.2a8.89,8.89,0,0,0-1.44-.75,12.38,12.38,0,0,0-1.62-.62,21.52,21.52,0,0,0-4.09-.9l-5.29-.69-1.79-.22-1.73-.22-6.23-.79c-4.91-.61-8.86-1.08-12-1.45-.76-.09-1.47-.16-2.14-.25l-2.08-.22a6,6,0,0,1-1.16-.24,5.76,5.76,0,0,1-2.66-1.61,6,6,0,0,1-1.41-5,6.61,6.61,0,0,1,.21-1l.13-.47,2.14-7.8,2.72-10L608,231.39s-37.65,17.73-42.77,18.28c-6.06.68-5.26-6.38-5.26-6.38l-5.37,25-.82,3.87a9.74,9.74,0,0,1-2,3.64,10.83,10.83,0,0,1-3.35,2.61h0a8.93,8.93,0,0,1-1.64.66c-.2.06-.4.12-.62.17l-.73.18a76.37,76.37,0,0,1-9.79,1.23c-2.2.19-4.44.41-6.6.78a29.21,29.21,0,0,0-6.21,1.66c-.41.15-.8.32-1.18.47s-.47.23-.71.37a13.48,13.48,0,0,0-3.06,2.47,56.49,56.49,0,0,0-7.58,10.71v0l-.76,1.33c-.25.45-.5.9-.75,1.37s-.51.93-.76,1.41-.46.86-.68,1.31c-.5.94-1,1.89-1.46,2.86-.16.3-.31.62-.47.94-.31.65-.64,1.31-.94,2s-.58,1.21-.86,1.81l-.7,1.53c-.22.49-.43,1-.66,1.44l-1.34,3.06c-.24.55-.48,1.11-.71,1.66-.66,1.54-1.29,3.07-1.9,4.57-.3.74-.59,1.45-.86,2.16-.11.28-.21.55-.33.82l-.51,1.34c-1.57,4.09-2.9,7.84-3.85,10.83-.17.56-.34,1.1-.49,1.61s-.29,1-.41,1.44c-.17.61-.32,1.16-.43,1.66C490.1,347.8,491.45,353.73,493,358.13Z"/><path class="cls-55" d="M628.92,330.83c-6.87,10.06-14.78,20.39-22.22,29.85A134.18,134.18,0,0,0,591.94,384c-14.48-21.73-30.07-24.71-55.48-24.71-16.35,0-30.7,7.26-41,14.52A43.92,43.92,0,0,0,493,358.13c-1.59-4.4-2.93-10.33-1.65-15.93.1-.49.25-1,.42-1.65,1-3.6,2.92-9.24,5.42-15.6l18.65-6.59s51-6.59,88.1-6.35C622.74,312.13,628.15,321.55,628.92,330.83Z"/><path class="cls-56" d="M606.7,360.68c-25.85,32.86-26.94,65.17-26.94,65.17h-9.17c5.19-35.57,24.21-58.59,35-75.71,11.34-18-1.16-23.27-1.16-23.27l38.44-46.54a11.92,11.92,0,0,1,1.41,1.08,9.55,9.55,0,0,1,1.54,1.78C655.06,296.8,628.8,332.59,606.7,360.68Z"/><path class="cls-57" d="M645.8,283.19C640.25,291.9,630,303.68,619,314.92c-12.87,13.18-26.78,25.62-35.36,31.5-.89.61-1.71,1.14-2.46,1.6s-1.42.82-2.14,1.18c-15.24,7.59-33.07.19-45.13.44-12.62.27-22.55,11.56-35.71,2.66-3.85-2.62-5.72-6.94-6.42-11.75l.42-1.44.49-1.62c1-3,2.28-6.73,3.85-10.82l.51-1.34c.11-.27.22-.54.32-.81l.87-2.17c.62-1.5,1.24-3,1.9-4.57l.7-1.66c.44-1,.9-2,1.36-3.06l.65-1.43.7-1.54c.29-.6.58-1.21.85-1.81s.63-1.31,1-2c.16-.33.3-.63.46-.94.47-1,1-1.92,1.45-2.86l.68-1.32c.27-.47.51-.93.76-1.41s.51-.91.76-1.36.51-.89.75-1.34l0,0a56.58,56.58,0,0,1,7.58-10.7,13.21,13.21,0,0,1,3.06-2.47,4.74,4.74,0,0,1,.71-.36c.38-.16.77-.33,1.18-.48a28.06,28.06,0,0,1,6.21-1.65c2.16-.38,4.4-.59,6.6-.79a78.2,78.2,0,0,0,9.79-1.23c.25-.05.49-.12.72-.18s.44-.11.63-.17a9.37,9.37,0,0,0,1.64-.66h0a10.87,10.87,0,0,0,3.36-2.62,9.8,9.8,0,0,0,2-3.63l.83-3.87,1.26-5.88,4.11-19.08s-.8,7,5.26,6.38c5.12-.56,42.77-18.29,42.77-18.29l-3.87,16.54-2.73,10-2.13,7.8-.11.38,0,.08a8.48,8.48,0,0,0-.21,1.05,6,6,0,0,0,1.41,4.95,5.55,5.55,0,0,0,2.18,1.46,4.5,4.5,0,0,0,.48.16,5.43,5.43,0,0,0,1.16.24l2.07.22c.68.09,1.39.16,2.15.25,3.14.36,7.09.84,12,1.45l6.23.79,1,.12.76.09,1.79.23,5.29.69a22.85,22.85,0,0,1,3,.57l.48.14.61.19h.06a13,13,0,0,1,1.56.6,7.82,7.82,0,0,1,1,.53,2.73,2.73,0,0,1,.4.23,1.61,1.61,0,0,1,.31.19,10.39,10.39,0,0,1,1.42,1.08,7.3,7.3,0,0,1,.83.84C645.35,282.56,645.58,282.87,645.8,283.19Z"/><path class="cls-58" d="M543.58,296.48s-5.85.76-12.86-4.84a25.09,25.09,0,0,0-12.87-5.27,13.44,13.44,0,0,1,3-2.47,5.37,5.37,0,0,1,.72-.36c.37-.16.77-.33,1.17-.48A28.87,28.87,0,0,1,529,281.4Z"/><path class="cls-59" d="M542.68,296.39c-11.26-4-16.45-11.32-19.89-13.33,7.38-3,17.38-2.06,24-4a9.59,9.59,0,0,0,1.63-.66h0L546,294.22A2.74,2.74,0,0,1,542.68,296.39Z"/><ellipse class="cls-60" cx="542.64" cy="290.28" rx="2.54" ry="1.87" transform="translate(-65.08 193.32) rotate(-19.08)"/><path class="cls-61" d="M498.78,425.85h-3.56c4.08-20.05,6.77-47.64,8.37-64,.55-5.6,1-10,1.32-12.76a21.88,21.88,0,0,0-1.79-12.78,26.18,26.18,0,0,1-2.3-13.06c.41-7,5.12-17.68,9.43-26.16l0,0c3.68-6.39,7.4-11.38,10.63-13.18a1.94,1.94,0,0,1-.28,1.17c-.16.25-15.45,25.6-16.16,37.58a23.6,23.6,0,0,0,2.11,11.8,24.77,24.77,0,0,1,2,14.26c-.34,2.67-.77,7.08-1.31,12.67C505.51,378.93,502.89,405.88,498.78,425.85Z"/><path class="cls-62" d="M575.58,293.59H549.93a4.37,4.37,0,0,0-3.17,1.37l-22,23.36a4.35,4.35,0,0,0-1.07,4l4.82,20.78a4.35,4.35,0,0,0,4.25,3.37h25.64a4.37,4.37,0,0,0,3.18-1.37l22-23.35a4.38,4.38,0,0,0,1.08-4L579.82,297A4.35,4.35,0,0,0,575.58,293.59Z"/><text class="cls-63" transform="matrix(0.96, 0, -0.51, 0.86, 528.73, 327.68)">PR</text><path class="cls-64" d="M538.7,321.14l-3.85,6.54h-4.27l10.93-18.55h8.08a7.31,7.31,0,0,1,3.65.77,2.65,2.65,0,0,1,1.44,2.17,5.54,5.54,0,0,1-.93,3.2,11.25,11.25,0,0,1-4.62,4.3,14.22,14.22,0,0,1-6.69,1.57Zm1.82-3.09h3.81a6.11,6.11,0,0,0,3-.72,5.29,5.29,0,0,0,2.09-2,2.41,2.41,0,0,0,.41-2.21c-.27-.56-.93-.85-2-.86H544Z"/><path class="cls-64" d="M561,320.89h-3.4l-4,6.79h-4.27l10.93-18.55H568q3.66,0,4.79,1.47t-.45,4.14a10.74,10.74,0,0,1-2.78,3.16,13.12,13.12,0,0,1-4,2v7.58l-.1.18h-4.58Zm-1.58-3.1h3.45a5.89,5.89,0,0,0,2.92-.73,5.5,5.5,0,0,0,2.07-2,2.19,2.19,0,0,0,.38-2.06c-.26-.5-1-.75-2.11-.75h-3.42Z"/><path class="cls-65" d="M579.76,425.85a78.22,78.22,0,0,1-1.12,8.94c-3.07,17.45-14.41,53.85-55,47.47C470.5,473.93,421.28,446,421.28,446s-10.22,26.89-14.77,30.67-31.05,14.76-31.05,14.76l-3-3.65-10-12.13-2.58-3.14s34.08-63.62,40.14-67.4c0,0,102,12.77,174.13,20.15Z"/><path class="cls-66" d="M579.76,425.85a78.22,78.22,0,0,1-1.12,8.94c-43.22-5.18-177.21-25.58-177.21-25.58l-38.91,66.47-2.58-3.14s34.08-63.62,40.14-67.4c0,0,102,12.77,174.13,20.15Z"/><path class="cls-67" d="M579.76,425.85s-3,64.74-56.15,56.41S421.28,446,421.28,446s-10.22,26.89-14.77,30.67-31.05,14.76-31.05,14.76l-3-3.65c12.68-6.88,33.85-22.52,44.76-53.94,0,0,6,11.14,49.8,27.54s74.12,22.85,89.12,6.64c13.08-14.14,17.11-30.49,18.06-42.76Z"/><path class="cls-68" d="M419.38,465s-2.43,3.39-6,8c-5.77,7.51-14.51,18.28-20.61,23.06-9.87,7.71-40.12,22.73-51.06,33.46s-42.45,38-44.6,40.32-1.29,13.08-2.36,16.73-54.92,8.52-64.86,9.27c-9,.69-11.2-.9-6.48-5.45.59-.58,1.31-1.21,2.13-1.89,7.29-6,39.61-18.88,46.26-25.31s13.78-13.41,13.78-13.41,24-26.15,38.62-45.69a310,310,0,0,0,33-55.76c4.79-10.32,18.42-27.84,29.16-41.23,7.22-9,13.14-16.14,14.18-17.94,2.38-4.1,3.07,41.89,15.27,69A57.28,57.28,0,0,0,419.38,465Z"/><path class="cls-69" d="M419.38,465s-2.43,3.39-6,8c-21-33-19.17-67.05-19.59-67.83-.21-.41-3.77.67-7.46,1.93,7.22-9,13.14-16.14,14.18-17.94C403.13,384.66,403.72,439.68,419.38,465Z"/><path class="cls-70" d="M419.38,465s-2.43,3.39-6,8c-5.77,7.51-14.51,18.28-20.61,23.06-9.87,7.71-40.12,22.73-51.06,33.46s-42.45,38-44.6,40.32-1.29,13.08-2.36,16.73-54.92,8.52-64.86,9.27c-9,.69-11.2-.9-6.48-5.45,21.7.07,47-3.79,58.42-5.58,11.87-1.86,8.16-7.41,8.16-11.87,0-4-8-8.56-9.71-9.48.87.34,3.87,1,12.67-.15,11.13-1.48,23-18.92,45.62-38.94s37.46-23,47.76-32.88c8.09-7.76,22.63-25.39,29.45-33.31A57.28,57.28,0,0,0,419.38,465Z"/><path class="cls-71" d="M445.75,475.68s-.72,4.52-2.47,11.14c-2.88,10.89-8.54,27.46-18.38,38.94-14.22,16.57-37.68,54.62-43.19,68.66a9.42,9.42,0,0,0-.43,5.31c4.06,20,4.34,20-13.37,20h-35c-2.28,0-4-2.76-2.49-4.43,3.66-4,26.35-12.37,32-19.32,7.45-9.21,17.77-38.75,21.82-72a427.73,427.73,0,0,1,8.16-45.54c2.06-8.82,3.61-14.12,3.61-14.12s24.76-39.36,27.6-39l17.74,40.34Z"/><path class="cls-72" d="M445.75,475.68s-.72,4.52-2.47,11.14c-13-21.64-22.25-46.21-22.25-46.21l-28.81,38c2.22-9,3.77-14.33,3.77-14.33s24.76-39.36,27.6-39Z"/><path class="cls-73" d="M445.75,475.68s-.72,4.52-2.47,11.14c-2.88,10.89-8.54,27.46-18.38,38.94-14.22,16.57-37.68,54.62-43.19,68.66a9.42,9.42,0,0,0-.43,5.31c4.06,20,4.34,20-13.37,20h-35c-2.28,0-4-2.76-2.49-4.43H377c3.27,0,2.86-15.55-8.2-19.32,0,0,9.43-5.2,15-14.42s19.07-32.2,32.4-52.49c10.82-16.47,19.69-42.46,25.13-63.42Z"/><path class="cls-74" d="M608,231.39l-3.87,16.54-2.73,10-2.13,7.8-.11.38c-1.24-3.8-1.8-9.24-7-6.45-8.9,4.81-23.59,7.34-28.71,2.78-2.59-2.31-5.44-1.45-7.63,0l4.11-19.08s-.8,7,5.26,6.38C570.32,249.12,608,231.39,608,231.39Z"/><ellipse class="cls-75" cx="552.23" cy="217.23" rx="15.09" ry="9.38" transform="translate(246.39 725.76) rotate(-80.45)"/><path class="cls-76" d="M549.57,220.89a9.46,9.46,0,0,0,1.76.35l6.27-30.07,5.85-28c.08-.39-.26-.77-.76-.83h-.17a.88.88,0,0,0-.87.62l-5.79,27.81Z"/><path class="cls-77" d="M546.94,211.16c0,1.41,0,3.08.06,4.88.12,8.86.33,21.19.57,24.63.41,5.56,13.16,16.54,17.59,18.11s11,2,15.58,0S601.55,246.89,604.1,243s9.26-30.05,8.19-45.35-20.14-26.79-34-25.48c-12.1,1.14-24.92,6-29.83,25.22-.1.41-.2.81-.29,1.21A54.5,54.5,0,0,0,546.94,211.16Z"/><path class="cls-78" d="M598.24,225.89c-.06.38-.15.77-.24,1.19-1.6,6.83-4.08,17.2-4.44,19.59s-9.21,8.43-12.58,8.78-5.32-5.94-12.23-5.94-5.68,2.39-8.07,2.21-8.87-7.79-10.47-10.28c-1.14-1.78-1.78-11.1-1.89-18.62-.05-3,0-5.69.12-7.53.44-6.48,13.92,10,48.06,3.72C596.5,219,599.23,220.11,598.24,225.89Z"/><path class="cls-79" d="M598.24,225.89c-5.46-1.31-16.94,1.51-20.81,3-4.94,1.91-9.88-2.53-12.21-3.82s-6.16,1.8-8.06,2.3c-1.28.35-6-2.62-8.84-4.55-.05-3,0-5.69.12-7.53.44-6.48,13.92,10,48.06,3.72C596.5,219,599.23,220.11,598.24,225.89Z"/><path class="cls-80" d="M559.27,230.81a67.72,67.72,0,0,1,4.27-12.21c.3-.66,1.27-.09,1,.57a65.77,65.77,0,0,0-4,11.31,32.16,32.16,0,0,0,5.72.17c.72,0,.72,1.08,0,1.13a34.5,34.5,0,0,1-6.58-.28C559.35,231.46,559.21,231.07,559.27,230.81Z"/><path class="cls-80" d="M559.24,239.54a10.49,10.49,0,0,1,12.06,1,22,22,0,0,0-5.95-1.4A21.49,21.49,0,0,0,559.24,239.54Z"/><path class="cls-81" d="M546.94,211.16c0,1.41,0,3.08.06,4.88a46.72,46.72,0,0,0,8.36,6.87c4.51,2.54,3.64-.93,7.61-1.16,3-.17,4,2,7.21,3.25a12.38,12.38,0,0,0,3.67.73l.52,0a18.74,18.74,0,0,0,2.71-.18c1.72-.24,3.78-.68,6-1.22,8.52-2.14,18.88-6,18.88-6l4.5-20.95L572.08,203l-4.39.71c-.6,0-1.2.06-1.81,0a17.21,17.21,0,0,1-3.49-.4l-.59-.13c-1.06-.25-2.15-.56-3.23-.89-3.87-1.17-7.71-2.67-10.37-3.77A54.5,54.5,0,0,0,546.94,211.16Z"/><ellipse class="cls-82" cx="599.59" cy="208.5" rx="2.68" ry="1.57" transform="translate(264.02 747.36) rotate(-77.26)"/><path class="cls-83" d="M565.88,203.75l11.2,21.84c1.72-.24,3.78-.68,6-1.22l-11-21.37-4.39.71C567.09,203.75,566.49,203.77,565.88,203.75Z"/><path class="cls-84" d="M558.57,202.33,570.18,225a12.38,12.38,0,0,0,3.67.73l-11.46-22.38-.59-.13C560.74,203,559.65,202.66,558.57,202.33Z"/><path class="cls-85" d="M601.52,220.61a8.16,8.16,0,0,0,1.77.35l6.26-30.06,5.85-28.05c.09-.39-.25-.76-.75-.82h-.17a.89.89,0,0,0-.88.61l-5.79,27.82Z"/><ellipse class="cls-86" cx="610.44" cy="217.23" rx="15.09" ry="9.38" transform="translate(294.94 783.16) rotate(-80.45)"/><ellipse class="cls-87" cx="613.62" cy="217.03" rx="8.9" ry="6.22" transform="translate(297.78 786.13) rotate(-80.45)"/><path class="cls-88" d="M651.07,248.85c-3,3.64-10.6,5.71-10.6,5.71l-5.16-7.75-14.37-2.28-.86-9.25,5.92-2.16s-13.29-11.71-15-15.31.58-3.8,9.4,2.79c5.84,4.36,9.58,7.31,13.68,9.54a42.89,42.89,0,0,0,6.84,3c7.65,2.6,2.34,1.46,9.56,9.12C652.86,244.79,652.55,247,651.07,248.85Z"/><path class="cls-89" d="M624.41,241.5s-4.62,4-3.61,6.93,6.94-2.45,8.81-3.46S624.41,241.5,624.41,241.5Z"/><path class="cls-90" d="M651.07,248.85c-2.71-2.2-3.69-5.48-6.12-8.56-2.84-3.6-6.26-3.13-7.5-1.79s-2.14,8.31-2.14,8.31l-14.37-2.28-.86-9.25,5.92-2.16a32.24,32.24,0,0,0,8-3,42.89,42.89,0,0,0,6.84,3c7.65,2.6,2.34,1.46,9.56,9.12C652.86,244.79,652.55,247,651.07,248.85Z"/><path class="cls-91" d="M717.34,329.75a17.4,17.4,0,0,1-5.62,11.8c-8.78,8.37-27,10.51-47.63-5.31a34.37,34.37,0,0,0-13.87-6.41c-7.34-1.51-18.23-4.46-25.58-9.54a21.42,21.42,0,0,1-5.62-5.37,13.24,13.24,0,0,1-1.7-3.38,24.21,24.21,0,0,1-1-4,27.3,27.3,0,0,1,7.88-23.29,21,21,0,0,1,5.43-3.75h0A18.34,18.34,0,0,1,637,278.7h0c.55,0,1.11,0,1.66,0l.77.06h.06a24.21,24.21,0,0,1,3.3.51,19.49,19.49,0,0,1,2.17.6,37.52,37.52,0,0,1,8,4c4,2.45,9.11,6.06,16.57,11.41a38.12,38.12,0,0,0,13.11,6.2c10.13,2.48,27.84,8.42,33.16,20.57A17,17,0,0,1,717.34,329.75Z"/><path class="cls-92" d="M645.13,280c-.74.09-1.5.21-2.28.33-.47.07-1,.14-1.44.23-1.9.3-3.86.67-5.86,1.07-3.71.74-7.53,1.64-11.3,2.59-15.69,4-30.36,9-31.64,9.43l-.08,0c6-5.94,22.55-12.48,35-16.82l.76.09,1.79.23,5.29.69a22.85,22.85,0,0,1,3,.57l.48.14.61.19h.06a24.21,24.21,0,0,1,3.3.51,19.49,19.49,0,0,1,2.17.6Z"/><path class="cls-93" d="M642.84,279.3c-.14.11-.37.32-.7.62s-.45.39-.73.65a204.91,204.91,0,0,0-25,26.95,134.93,134.93,0,0,0-7.9,11.54,13.82,13.82,0,0,1-2.79,3.3l-17.63,15.2a8.17,8.17,0,0,0-2.55,3.85,1.56,1.56,0,0,0,0,.16c0,.09-.69,1.82-1.79,4.85-4.49,12.38-15.9,44.37-23.43,77.35l-3.67-.23c7-30.67,17.35-59.91,22.5-74.34,1.66-4.67,2.75-7.55,2.94-8a12.93,12.93,0,0,1,4-6L603.6,320a8.92,8.92,0,0,0,1.78-2.12,143.57,143.57,0,0,1,10.74-15.25,209.28,209.28,0,0,1,19.43-21c1.24-1.17,2.31-2.16,3.16-2.92l.16-.14.61.19h.06A24.21,24.21,0,0,1,642.84,279.3Z"/><path class="cls-94" d="M638.39,278.44l-1.34.26h0c-2.26.45-4.73,1.06-7.32,1.77h0c-12.8,3.53-28.65,9.74-37.07,13.18l-.08,0h0c-2,.82-3.41-1-2.16-2.8l12.14-17.26a4.5,4.5,0,0,0,.48.16,5.43,5.43,0,0,0,1.16.24l2.07.22c.68.09,1.39.16,2.15.25,3.14.36,7.09.84,12,1.45l6.23.79,1,.12.76.09,1.79.23,5.29.69A22.85,22.85,0,0,1,638.39,278.44Z"/><ellipse class="cls-95" cx="598.03" cy="288.33" rx="2.54" ry="1.87" transform="translate(-61.4 211.32) rotate(-19.08)"/><path class="cls-96" d="M717.34,329.75a17.4,17.4,0,0,1-5.62,11.8c-13.29-7.33-20.71-6.25-29.53-16.18-9.06-10.2-25.29-35.42-29.14-41.45,4,2.45,9.11,6.06,16.57,11.41a38.12,38.12,0,0,0,13.11,6.2c10.13,2.48,27.84,8.42,33.16,20.57A17,17,0,0,1,717.34,329.75Z"/><path class="cls-97" d="M717.34,329.75c-.75,15.83-24.57,28.42-53.25,6.49a34.37,34.37,0,0,0-13.87-6.41c-7.34-1.51-18.23-4.46-25.58-9.54,7.63.44,20.23,1.56,27.58,4.29,11.08,4.12,26.37,20,43,20.19C707.82,344.92,713.69,338.86,717.34,329.75Z"/><path class="cls-98" d="M719,339.83a82.1,82.1,0,0,0-20.39-8.23h0c-7-1.95-11.09-3.23-17.92-13.49-1-1.54-2.21-3.34-3.52-5.37-12.56-19.34-36.72-58.17-36.72-58.17a13.33,13.33,0,0,1,.1-6.51c2.08-6.52,10.74-4.75,10.74-4.75s49.84,33.4,63,49.75c.6.74,1.12,1.45,1.56,2.11C726,310.52,719,339.83,719,339.83Z"/><path class="cls-99" d="M719,339.83c-22.94-12.73-26.75-4.35-38.32-21.73-1-1.54-2.21-3.34-3.52-5.37.72-1.59,12,11.65,37.45,17.42a96.69,96.69,0,0,0-.29-37.1c.6.74,1.12,1.45,1.56,2.11C726,310.52,719,339.83,719,339.83Z"/><path class="cls-100" d="M698.63,331.59c-7-1.95-11.09-3.23-17.92-13.49-1-1.54-2.21-3.34-3.52-5.37-12.56-19.34-36.72-58.17-36.72-58.17a13.33,13.33,0,0,1,.1-6.51c7.15,11.22,35,54.77,44.64,68.39A109.85,109.85,0,0,0,698.63,331.59Z"/><path class="cls-101" d="M829.5,516.83a101.66,101.66,0,0,1-28-32.16,82.52,82.52,0,0,1-6.09-14.12,75.25,75.25,0,0,1-3.68-24.25,78.46,78.46,0,0,1,2.6-18.77S768.2,466,775.54,558.35H772s-8-93.4,22.32-133.61c0,0,13.39,6.8,24.16,23.1A76.34,76.34,0,0,1,824.16,458h0a81.09,81.09,0,0,1,6.26,20.23,93,93,0,0,1,1.33,14.37A115.91,115.91,0,0,1,829.5,516.83Z"/><path class="cls-102" d="M831.36,437.43a74,74,0,0,1-12.23-7.34,80.78,80.78,0,0,1-9-7.55,66.13,66.13,0,0,1-8.75-10.46,52.92,52.92,0,0,1-8.33-20,56.08,56.08,0,0,1,1.12-24.52S750.31,421.68,769,558.35h-3s-20.83-132.9,28.48-193.85a51.3,51.3,0,0,1,13.77,9.42,64.15,64.15,0,0,1,7.76,8.53,68.73,68.73,0,0,1,7.7,12.79h0A77.83,77.83,0,0,1,829,410.57,102.1,102.1,0,0,1,831.36,437.43Z"/><path class="cls-103" d="M829.5,373.57a55.94,55.94,0,0,1-8.71-2.53,66.63,66.63,0,0,1-13.6-6.86,54.2,54.2,0,0,1-11.75-10.42,47.84,47.84,0,0,1-5.9-8.91,51.2,51.2,0,0,1-5.19-17.36,61.78,61.78,0,0,1-.47-7.63,78.16,78.16,0,0,1,.85-11.25S749.94,339.35,761,558.35h-3S746.07,354.8,784.73,304.87c0,0,9.23,4.29,19.35,14.32a87.57,87.57,0,0,1,6.81,7.57,85.58,85.58,0,0,1,12,20.16h0A90.36,90.36,0,0,1,829.5,373.57Z"/><g class="cls-10"><path class="cls-104" d="M806,406.06a10.64,10.64,0,0,1-4.62,6,52.92,52.92,0,0,1-8.33-20,28.72,28.72,0,0,1,7.06,2.59C804.1,396.93,807.12,401.6,806,406.06Z"/><path class="cls-105" d="M829,410.57l-.52.66a8.76,8.76,0,0,1-4.49,3,5.28,5.28,0,0,1-5.07-1.32c-1.73-1.89-1.46-4.84-.75-7.3.92-3.18,2.73-8,5.58-10.37A77.83,77.83,0,0,1,829,410.57Z"/><path class="cls-106" d="M816,382.45l-.28.47c-1.39,2.18-3.69,4.16-6.26,3.84-6.67-.85-4.83-8.81-1.22-12.84A64.15,64.15,0,0,1,816,382.45Z"/><path class="cls-107" d="M820.61,427a18.75,18.75,0,0,1-1.48,3.06,80.78,80.78,0,0,1-9-7.55,15.59,15.59,0,0,1,3.91-2.4c2.16-.86,5-1,6.46.84C821.83,422.63,821.37,425.06,820.61,427Z"/></g><g class="cls-10"><path class="cls-108" d="M831.75,492.62a9.63,9.63,0,0,1-3.44,3.1c-2,1-4.85.79-6.2-1.05a5.17,5.17,0,0,1-.41-4.78,15.2,15.2,0,0,1,2.7-4.18c1.05-1.29,3.45-5.11,6-7.46A93,93,0,0,1,831.75,492.62Z"/><path class="cls-109" d="M810.3,482.44a4.13,4.13,0,0,1-2.85,2.64,8.76,8.76,0,0,1-4,0,19,19,0,0,1-1.92-.44,82.52,82.52,0,0,1-6.09-14.12c3.81,1,8,3.82,11,5.78a10.59,10.59,0,0,1,3,2.47A4.22,4.22,0,0,1,810.3,482.44Z"/><path class="cls-110" d="M824.16,458h0c-.09.31-.18.59-.25.81-.71,2.4-1.73,4.85-3.69,6.4s-5.13,1.81-6.82,0a5.27,5.27,0,0,1-1.1-4.4,15.55,15.55,0,0,1,1.65-4.37c1.1-2.23,2.41-6.13,4.56-8.6A76.34,76.34,0,0,1,824.16,458Z"/><path class="cls-111" d="M802.19,456.43a5.22,5.22,0,0,1-4.68,4.58,7.6,7.6,0,0,1-4.7-1.1,73.27,73.27,0,0,1-1.06-13.61c3.55.58,7.08,3.5,8.93,6.06A6.72,6.72,0,0,1,802.19,456.43Z"/></g><path class="cls-112" d="M698.22,516.83a101.56,101.56,0,0,0,28-32.16,83.33,83.33,0,0,0,6.1-14.12,74.86,74.86,0,0,0,2.62-10.64A73.27,73.27,0,0,0,736,446.3a79.48,79.48,0,0,0-2.6-18.77S759.51,466,752.18,558.35h3.5s8-93.4-22.31-133.61c0,0-13.4,6.8-24.16,23.1A76.36,76.36,0,0,0,703.55,458h0a80.68,80.68,0,0,0-6.25,20.23A93,93,0,0,0,696,492.62,116.65,116.65,0,0,0,698.22,516.83Z"/><path class="cls-113" d="M696.36,437.43a74,74,0,0,0,12.23-7.34,79.83,79.83,0,0,0,9-7.55,66.71,66.71,0,0,0,8.76-10.46,52.9,52.9,0,0,0,8.32-20,56.08,56.08,0,0,0-1.12-24.52s43.87,54.15,25.23,190.82h3s20.83-132.9-28.49-193.85a51.35,51.35,0,0,0-13.76,9.42,64.15,64.15,0,0,0-7.76,8.53,68.73,68.73,0,0,0-7.7,12.79h0a77.83,77.83,0,0,0-5.25,15.32A101.68,101.68,0,0,0,696.36,437.43Z"/><g class="cls-10"><path class="cls-114" d="M721.71,406.06a10.64,10.64,0,0,0,4.62,6,52.9,52.9,0,0,0,8.32-20,28.61,28.61,0,0,0-7,2.59C723.61,396.93,720.59,401.6,721.71,406.06Z"/><path class="cls-115" d="M698.76,410.57c.16.22.34.44.52.66a8.76,8.76,0,0,0,4.49,3,5.28,5.28,0,0,0,5.07-1.32c1.73-1.89,1.46-4.84.75-7.3-.92-3.18-2.73-8-5.58-10.37A77.83,77.83,0,0,0,698.76,410.57Z"/><path class="cls-116" d="M711.71,382.45l.28.47c1.38,2.18,3.69,4.16,6.25,3.84,6.68-.85,4.84-8.81,1.23-12.84A64.15,64.15,0,0,0,711.71,382.45Z"/><path class="cls-117" d="M707.11,427a17.24,17.24,0,0,0,1.48,3.06,79.83,79.83,0,0,0,9-7.55,15.37,15.37,0,0,0-3.9-2.4c-2.16-.86-5-1-6.46.84C705.89,422.63,706.35,425.06,707.11,427Z"/></g><g class="cls-10"><path class="cls-118" d="M696,492.62a9.58,9.58,0,0,0,3.45,3.1c2,1,4.85.79,6.2-1.05a5.17,5.17,0,0,0,.41-4.78,15.23,15.23,0,0,0-2.71-4.18c-1-1.29-3.45-5.11-6-7.46A93,93,0,0,0,696,492.62Z"/><path class="cls-119" d="M717.42,482.44a4.11,4.11,0,0,0,2.85,2.64,8.76,8.76,0,0,0,4,0,18.19,18.19,0,0,0,1.91-.44,83.33,83.33,0,0,0,6.1-14.12c-3.82,1-8,3.82-11,5.78a10.88,10.88,0,0,0-3,2.47A4.22,4.22,0,0,0,717.42,482.44Z"/><path class="cls-120" d="M703.55,458h0c.1.31.19.59.25.81.72,2.4,1.73,4.85,3.7,6.4s5.12,1.81,6.82,0a5.23,5.23,0,0,0,1.09-4.4,15.52,15.52,0,0,0-1.64-4.37c-1.1-2.23-2.41-6.13-4.56-8.6A76.36,76.36,0,0,0,703.55,458Z"/><path class="cls-121" d="M725.52,456.43A5.24,5.24,0,0,0,730.2,461a7.63,7.63,0,0,0,4.71-1.1A73.27,73.27,0,0,0,736,446.3c-3.55.58-7.08,3.5-8.93,6.06A6.73,6.73,0,0,0,725.52,456.43Z"/></g><g class="cls-10"><path class="cls-122" d="M795.54,325.73a3.29,3.29,0,0,1-2,2.31,7.45,7.45,0,0,1-3.15.44,21.85,21.85,0,0,1-6-1,61.78,61.78,0,0,1-.47-7.63,32.18,32.18,0,0,1,7.82,1.46,7.76,7.76,0,0,1,2.76,1.55A3.32,3.32,0,0,1,795.54,325.73Z"/><path class="cls-123" d="M805.4,349.85c-.56,1.57-2.31,2.31-3.9,2.79a28.08,28.08,0,0,1-6.06,1.12,47.84,47.84,0,0,1-5.9-8.91c2.69-1.42,7.3-.86,9.89-.56a9,9,0,0,1,4.44,1.44A3.79,3.79,0,0,1,805.4,349.85Z"/><path class="cls-124" d="M810.89,326.76c0,.27,0,.54-.07.8a12.58,12.58,0,0,1-2,6.33c-1.32,1.79-3.8,2.91-5.87,2.05a5.15,5.15,0,0,1-2.84-4.24,12.3,12.3,0,0,1,.85-5.24,43.87,43.87,0,0,1,3.08-7.27A87.57,87.57,0,0,1,810.89,326.76Z"/><path class="cls-125" d="M822.89,346.92h0a8.79,8.79,0,0,1-.88,2c-1.23,2-3.84,3.36-6,2.39a4.79,4.79,0,0,1-2.5-3.35,11.57,11.57,0,0,1,0-4.31A40.49,40.49,0,0,1,816,333.9,84.74,84.74,0,0,1,822.89,346.92Z"/><path class="cls-126" d="M822.7,369.28a7.29,7.29,0,0,1-1.91,1.76,66.63,66.63,0,0,1-13.6-6.86c3.26-.57,6.72-.73,8.12-1A12.79,12.79,0,0,1,820,363a4.39,4.39,0,0,1,3.46,2.85A4.09,4.09,0,0,1,822.7,369.28Z"/></g><path class="cls-30" d="M791.24,561.15l0,.25-6.56,56.78a5.25,5.25,0,0,1-5.21,4.64H752.56a5.25,5.25,0,0,1-5.21-4.64L740.8,561.4l0-.25A5.25,5.25,0,0,1,746,555.3h40A5.25,5.25,0,0,1,791.24,561.15Z"/><path class="cls-39" d="M791.24,561.15l0,.25H740.8l0-.25A5.25,5.25,0,0,1,746,555.3h40A5.25,5.25,0,0,1,791.24,561.15Z"/><polygon class="cls-127" points="189.46 388.87 184.43 418.43 150.2 619.71 141.9 619.71 168.88 418.43 172.84 388.87 189.46 388.87"/><polygon class="cls-128" points="251.15 388.87 246.13 418.43 211.91 619.71 203.6 619.71 230.59 418.43 234.55 388.87 251.15 388.87"/><polygon class="cls-129" points="538.59 619.71 530.29 619.71 496.06 418.43 491.04 388.87 507.65 388.87 511.61 418.43 538.59 619.71"/><polygon class="cls-130" points="476.89 619.71 468.58 619.71 434.36 418.43 429.34 388.87 445.94 388.87 449.9 418.43 476.89 619.71"/><polygon class="cls-131" points="172.84 388.87 189.46 388.87 184.43 418.43 168.88 418.43 172.84 388.87"/><polygon class="cls-132" points="234.55 388.87 251.15 388.87 246.13 418.43 230.59 418.43 234.55 388.87"/><polygon class="cls-133" points="445.94 388.87 449.9 418.43 434.36 418.43 429.34 388.87 445.94 388.87"/><polygon class="cls-134" points="511.61 418.43 496.06 418.43 491.04 388.87 507.65 388.87 511.61 418.43"/><rect class="cls-135" x="124.82" y="378.21" width="411.37" height="10.66"/><rect class="cls-136" x="461.1" y="378.21" width="75.08" height="10.66" transform="translate(997.29 767.09) rotate(180)"/><path class="cls-38" d="M352.9,353.77l-9.45-111.53a1.8,1.8,0,0,0-1.79-1.64H184.9a1.81,1.81,0,0,0-1.28.54h0l0,0-1.74,1.75,9.76,108.45s.24,3.75,1.61,4.88,104.77.78,104.77.78h52.54l1.75-1.77h0A1.77,1.77,0,0,0,352.9,353.77Z"/><ellipse class="cls-137" cx="251.4" cy="339.3" rx="11.09" ry="7.32" transform="translate(-133.4 513.23) rotate(-77.79)"/><path class="cls-135" d="M351.07,355.6a1.78,1.78,0,0,1-1.78,1.94H192.53a1.78,1.78,0,0,1-1.78-1.64l-4.39-51.83-5.07-59.7a1.79,1.79,0,0,1,1.79-1.94H339.83a1.81,1.81,0,0,1,1.8,1.64l5.08,60Z"/><path class="cls-138" d="M351.07,355.6a1.78,1.78,0,0,1-1.78,1.94H192.53a1.78,1.78,0,0,1-1.78-1.64l-4.39-51.83H346.71Z"/><path class="cls-139" d="M272.16,304.07v53.47H245.79C242,350,236.53,336,243.86,327.66,254.24,315.92,272.16,304.07,272.16,304.07Z"/><path class="cls-38" d="M267.68,299.34a4.47,4.47,0,0,1,4.47,4.73l-4,71-.17,3.17H233.62a3.24,3.24,0,0,1-3.24-3.17,3.28,3.28,0,0,1,0-.62l12.17-71.36a4.49,4.49,0,0,1,4.42-3.73Z"/><path class="cls-140" d="M258.81,339.3c-.64,5.4-3.82,9.89-7.42,10.78a4.79,4.79,0,0,1-1.3.17c-4.1,0-6.84-4.91-6.11-10.95s4.63-10.95,8.73-10.95a4.36,4.36,0,0,1,1.26.17C257.35,329.41,259.46,333.9,258.81,339.3Z"/><path class="cls-141" d="M258.81,339.3c-.64,5.4-3.82,9.89-7.42,10.78-3.38-.88-5.5-5.38-4.85-10.78s3.84-9.89,7.43-10.78C257.35,329.41,259.46,333.9,258.81,339.3Z"/><path class="cls-142" d="M168.9,617.8H120.68A11.87,11.87,0,0,1,108.83,606V583.3a1.58,1.58,0,0,1,3.16,0V606a8.7,8.7,0,0,0,8.69,8.7H168.9a8.7,8.7,0,0,0,8.69-8.7V353.12a11.87,11.87,0,0,1,11.85-11.85h21.19a1.58,1.58,0,1,1,0,3.15H189.44a8.7,8.7,0,0,0-8.69,8.7V606A11.87,11.87,0,0,1,168.9,617.8Z"/><path class="cls-143" d="M893.78,212.72S857.16,285,839.57,303c-2.6,2.67-4.8,4.14-6.38,4a9.55,9.55,0,0,1-6.38-3.51c-7.23-8.18-8.81-28.83-2.31-42.84,2-4.43,5.59-10.92,9.73-18.16l1.68-2.91.65-1.12c12-20.64,27.41-45.08,27.41-45.08,14.31-17.25,22.35-5.54,26.39,5.78A80.35,80.35,0,0,1,893.78,212.72Z"/><path class="cls-143" d="M839.57,303c-1.36,6.59-24.88,24.68-32.13,1a47.12,47.12,0,0,1-1.57-8.59c-2.07-19.24,1-53.27,3.13-72.14.28-2.44.52-4.51.71-6.08a4.19,4.19,0,0,1,3.9-3.69c6.28-.42,18.9-.93,19.74,1.59.2.62.59,3.75,1.08,8.49.38,3.8.84,8.66,1.31,14.07,0,.63.11,1.26.17,1.9C838,264.1,840.47,298.7,839.57,303Z"/><path class="cls-144" d="M839.57,303c-1.36,6.59-24.88,24.68-32.13,1a47.12,47.12,0,0,1-1.57-8.59c-2.07-19.24,1-53.27,3.13-72.14.28-2.44.52-4.51.71-6.08a4.19,4.19,0,0,1,3.9-3.69c6.28-.42,18.9-.93,19.74,1.59.2.62.59,3.75,1.08,8.49.38,3.8.84,8.66,1.31,14.07,0,.63.11,1.26.17,1.9C838,264.1,840.47,298.7,839.57,303Z"/><path class="cls-145" d="M893.78,212.72S857.16,285,839.57,303c-1.36,6.59-24.88,24.68-32.13,1a47.12,47.12,0,0,1-1.57-8.59c3,6.1,8.23,13.52,15.84,12.72,2-.21,3.69-1.91,5.1-4.67,6.49-12.78,7-48.15,7.42-61,.06-1.86.12-3.26.2-4,.12-1.3.56-1.38,1.31-.78,0,.63.11,1.26.17,1.9l.65-1.12c4.09,4.27,13.9,18.22,28.77-1.69a422,422,0,0,0,25-37.61A80.35,80.35,0,0,1,893.78,212.72Z"/><path class="cls-80" d="M835.3,174.05s-2.83,12.91-2,18.11-2.39,7.5-2.28,13.77c.06,3.2.06,5.87,0,7.72a5.08,5.08,0,0,1-2.89,4.53,15.64,15.64,0,0,1-12.41.61c-4.85-1.85-1.34-13.54-1.67-18s-2.59-2.1-3.72-5.65-.46-17.27,1.91-17S828,182.7,828,182.7,828,171.69,835.3,174.05Z"/><path class="cls-30" d="M834.43,223.62a26,26,0,0,1-12.68,2.84c-7.44,0-11-1.67-12.75-3.15.28-2.44.52-4.51.71-6.08a4.19,4.19,0,0,1,3.9-3.69c6.28-.42,18.9-.93,19.74,1.59C833.55,215.75,833.94,218.88,834.43,223.62Z"/><path class="cls-146" d="M879.46,606.59s-22.3,11.11-29.71,13.58-8.5,8.23-7.68,9.87,55.56,0,59,0-3.27-24.8-3.27-24.8Z"/><path class="cls-147" d="M879.46,606.59s-22.3,11.11-29.71,13.58-8.5,8.23-7.68,9.87,55.56,0,59,0-3.27-24.8-3.27-24.8Z"/><path class="cls-148" d="M908.62,458s2.92,30,1.7,40.68c-1.05,9.17-9.37,83.69-11.65,104.07a5.76,5.76,0,0,1-5.73,5.13h-9.88a5.76,5.76,0,0,1-5.72-5c-3-23.37-15.12-121.28-11.27-147.67,4.38-30,34.51-118.29,34.51-118.29,17.61-28.79,52.48-31.29,57.49,4.68.1.69.17,1.4.22,2.12C961,380.58,908.62,458,908.62,458Z"/><path class="cls-149" d="M908.62,458s2.92,30,1.7,40.68c-1.05,9.17-9.37,83.69-11.65,104.07a5.76,5.76,0,0,1-5.73,5.13h-.66c15.42-109.6,8.3-153.06,8.3-153.06C937.83,407.66,954,344.32,954,344.32l4.32-.65C961,380.58,908.62,458,908.62,458Z"/><path class="cls-146" d="M1075.1,587.1s1.25,11.95-4.5,19.15-17.73,8.15-19,13.13a17.86,17.86,0,0,0-.51,3.15,5.21,5.21,0,0,0,5.57,5.38c7.56-.26,21.7-1.26,29.16-5,10.49-5.22,20.23-23.48,21-28.47S1096.34,576,1096.34,576Z"/><path class="cls-150" d="M1075.1,587.1s1.25,11.95-4.5,19.15-17.73,8.15-19,13.13a17.86,17.86,0,0,0-.51,3.15,5.21,5.21,0,0,0,5.57,5.38c7.56-.26,21.7-1.26,29.16-5,10.49-5.22,20.23-23.48,21-28.47S1096.34,576,1096.34,576Z"/><path class="cls-151" d="M1093.83,581.18c-4.4,5.4-13.36,10.74-17,8.2-5.14-3.63-78.59-93.7-88.87-117.27s-39-132.69-39-132.69,29.36-11.95,47.38-11.73c6,.06,10.7,1.46,12.71,5.08,8.1,14.51,17.3,116.66,17.3,116.66s8.46,7.25,16.92,22.37,51.08,97.33,52.9,103.07C1096.75,576.58,1095.7,578.89,1093.83,581.18Z"/><path class="cls-152" d="M1093.83,581.18c-38-72.36-75.37-129.55-75.37-129.55-6.37-73.86-16.09-109.77-22.08-123.94,6,.06,10.7,1.46,12.71,5.08,8.1,14.51,17.3,116.66,17.3,116.66s8.46,7.25,16.92,22.37,51.08,97.33,52.9,103.07C1096.75,576.58,1095.7,578.89,1093.83,581.18Z"/><path class="cls-143" d="M1008.24,335.16c-2.33,3.29-14.48,6.62-27.09,9.3-15.25,3.22-31.18,5.48-31.18,5.48l-8.22-12.09-4.62,12.09s-28.49-4.3-35-8.86-4.25-26.33-6.5-37.35-10.9-30.73-21.68-51.68a145.59,145.59,0,0,1-7.53-17.2c-5.56-15.39-7.5-30.12-3.2-39.9,5.91-13.41,23.8-15.22,23.8-15.22,57.94-8.2,78.89-.66,91.72,8.74,8,5.83,11.08,16.63,12.55,31,.91,8.77,1.18,18.89,1.57,30,0,.83.07,1.68.13,2.54C995,281.51,1013.22,328.12,1008.24,335.16Z"/><path class="cls-153" d="M895.4,175.35s-13,4-15.19,8.17-2.79,14.93-1.64,31.57l10.13,2.58-6.89,5.07s21,35.69,36.6,38.88c0,0,22.51-28.45,26.34-43.13l-7.52-4,12.49-2.87s6.47-29.23,3.45-33.28C947.05,170.13,895.4,175.35,895.4,175.35Z"/><path class="cls-30" d="M935.81,192.07c-5.23,13-11.15,37.17-14.94,56.23-1,4.86-1.82,9.4-2.46,13.32A126.82,126.82,0,0,1,908,247.1c-10.48-16.81-23.67-45.56-12.59-71.75l41.79-2.78S942.35,175.77,935.81,192.07Z"/><path class="cls-39" d="M930.47,164.26s7.83,6,6.64,9.62-20.49,27.27-20.49,27.27-5-8.84-8.1-9.43c0,0-4.78,1.81-8-.27l-5.89,8.63s-3.2-21,3-29.19C901.86,165.27,930.47,164.26,930.47,164.26Z"/><path class="cls-154" d="M1008.24,335.16c-2.33,3.29-14.48,6.62-27.09,9.3-15.25,3.22-31.18,5.48-31.18,5.48l-8.22-12.09-4.62,12.09s-28.49-4.3-35-8.86-4.25-26.33-6.5-37.35-10.9-30.73-21.68-51.68a145.59,145.59,0,0,1-7.53-17.2c4.18,6.12,17.64,26.51,27.38,49.34,11.66,27.35,41.67,17.94,70,12.95,15.66-2.77,23.4-25.37,29.16-45.13C995,281.51,1013.22,328.12,1008.24,335.16Z"/><path class="cls-155" d="M1008.24,335.16c-2.33,3.29-14.48,6.62-27.09,9.3,13.12-18.6,11-31.67,4.3-67.55-6.83-36.67-15.6-46.58-15.28-46.87,9.77-9,16.54-11.15,21.1-10.59.91,8.77,1.18,18.89,1.57,30C993.86,278.75,1013.37,327.91,1008.24,335.16Z"/><path class="cls-78" d="M1010.11,307.89s-6.77-9.81-7.89-12-4.25,2.17-2.09,5.61,5.7,10.8,5.7,10.8-9.38.26-14.51.58-9.14,6.34-11.94,9.94,1.12,4.09,2.8,2.65,4.81-6.05,6.65-6.51,5.31-.23,5.42,1.46-9.67,6.2-12.19,8.83.12,3.67,2.69,2.15l3.12-1.85a29.44,29.44,0,0,0-4.33,3.93c-1.12,1.52.24,3.05,2.25,1.77a39,39,0,0,1,3.84-2.17s-3.32,2.83-4,4,.91,1.29,2.35,1a58.29,58.29,0,0,0,6.22-2.56s7.09-4.25,11.66-3.37,7.82.64,10.56-4,5.86-9.61,5.86-9.61Z"/><path class="cls-156" d="M880.48,122.43l-4.11-9.31S862.71,96.64,877.43,85s15.66.59,15.66.59,32.38-5.3,33.09,10.6c0,0,22-.71,21.78,18.72s-21.9,38.89-21.9,38.89-2.65-31.52-4.71-37.36-22-7.42-25.67-6.24S882.7,108.66,880.48,122.43Z"/><path class="cls-78" d="M930.47,164.27a7.3,7.3,0,0,1-1.68,4.79c-4.64,5.55-22.1,21-25,20.58-1-.14-5.5-8.63-6-12.82a62.05,62.05,0,0,1-.21-6.44c0-4.28.21-8.66.21-8.66s25.06-5.8,32.19-22.9l.23,12.56h0Z"/><path class="cls-80" d="M930.23,151.38h0a15.29,15.29,0,0,1-2,5.12c-4.26,6.56-20.08,19.38-30.6,13.87,0-4.28.21-8.66.21-8.66s25.06-5.8,32.19-22.9Z"/><path class="cls-78" d="M880.21,113.09S881,144,881.6,150.36s11.26,15.15,15.71,16.13,9,.41,12.1-1.39,18.49-11,19.33-14.65A98.41,98.41,0,0,0,930,138.81s6.68,1.67,8.76-6.53c2-8-6.69-14-10-3.88a1.42,1.42,0,0,1-1.34,1h0a1.6,1.6,0,0,1-1.54-1.15c-.33-1.21-.68-3.64-.61-8.45.14-8.62-2.92-4.17-6-9.18S880.21,106.31,880.21,113.09Z"/><path class="cls-80" d="M935.08,127.86a2.68,2.68,0,0,1,.66,2.48,7.85,7.85,0,0,1-1.07,2.45,3.57,3.57,0,0,1-1.11,1.35A1.25,1.25,0,0,1,932,134a1.64,1.64,0,0,1-.11-1.39,3.38,3.38,0,0,0-.22-2.36,1.72,1.72,0,0,1,.07-1.5C932.37,127.52,933.92,126.79,935.08,127.86Z"/><polygon class="cls-157" points="898.11 194.95 912.41 194.95 911.63 204.36 900.57 204.36 898.11 194.95"/><path class="cls-157" d="M920.87,248.3c-1,4.86-1.82,9.4-2.46,13.32A126.82,126.82,0,0,1,908,247.1c-6.71-26.59-7.41-42.74-7.41-42.74h11C913.67,216.54,917.81,235.11,920.87,248.3Z"/><path class="cls-158" d="M941.75,338.14a.29.29,0,0,1-.28-.22c-8.59-34.53-23.19-75.79-23.34-76.2a.29.29,0,0,1,.18-.37.28.28,0,0,1,.37.17c.15.42,14.76,41.71,23.36,76.26a.29.29,0,0,1-.22.35Z"/><ellipse class="cls-159" cx="922.11" cy="294.01" rx="1.48" ry="3.06" transform="translate(-45.4 319.69) rotate(-19.21)"/><ellipse class="cls-160" cx="930.08" cy="320.17" rx="1.48" ry="3.06" transform="translate(-53.56 323.77) rotate(-19.21)"/><path class="cls-143" d="M1069.12,239.77c-1,15.82-38.26,74.41-38.26,74.41-7.53,3.51-17.2-2.18-19.69-7.54,0-.1-.09-.21-.13-.31a5.53,5.53,0,0,1-.49-2.31c.19-5.81,21.65-55.46,21.65-55.46s-34.37-6.05-54.1-13.48a20.53,20.53,0,0,1-10.85-8.86c-5.89-10-2.43-23.16-2.43-23.16,4.69-11.53,14.84-12.31,14.84-12.31S1070.1,224,1069.12,239.77Z"/><path class="cls-161" d="M1041.67,245.93a464.09,464.09,0,0,0-30.5,60.71c0-.1-.09-.21-.13-.31a5.53,5.53,0,0,1-.49-2.31c.19-5.81,21.65-55.46,21.65-55.46s-34.37-6.05-54.1-13.48a20.53,20.53,0,0,1-10.85-8.86h0S1004.62,241.5,1041.67,245.93Z"/><path class="cls-162" d="M1012.61,300.69l-3.09,8.89s6.48,9.79,17.4,9.41l4.37-8.36S1019.69,310.86,1012.61,300.69Z"/><path class="cls-163" d="M829.52,146.15l-1.86,7.7A11.55,11.55,0,0,0,835.84,168l13.35,3.22c6,1.46,12.18-2.5,13.71-8.84l1.86-7.7a11.54,11.54,0,0,0-8.17-14.12l-13.35-3.23A11.55,11.55,0,0,0,829.52,146.15Z"/><path class="cls-164" d="M829.52,146.15l-1.86,7.7A11.55,11.55,0,0,0,835.84,168l1.78.43c6.53,1.57,13.17-2.71,14.82-9.56l1.41-5.84c1.65-6.85-2.3-13.69-8.84-15.27l-1.77-.43A11.55,11.55,0,0,0,829.52,146.15Z"/><path class="cls-165" d="M827.81,166.09,819,202.44l-3.2-.77a2.84,2.84,0,0,1-2.15-3l3.86-35.68Z"/><path class="cls-166" d="M817,201.93l2.87.7a2.81,2.81,0,0,0,3.4-2.09l6.51-26.95,1.6-6.65-10.27-3.14L820,173.75Z"/><path class="cls-167" d="M820,173.75a14.63,14.63,0,0,1,1.62-.37,23.84,23.84,0,0,1,8.12.21l1.6-6.65-10.27-3.14Z"/><path class="cls-168" d="M772.61,91.82l-20.37,84.4,16.93-1.51,4.87-.43,63-5.63a14.4,14.4,0,0,0,12.69-11l1.18-4.9a14,14,0,0,0,.27-1.41,14.4,14.4,0,0,0-6.57-14.13l-55.53-35-4.83-3Z"/><path class="cls-169" d="M760.38,142.52l-8.14,33.7,84.8-7.57a14.4,14.4,0,0,0,12.69-11l1.18-4.9a14,14,0,0,0,.27-1.41C829.07,149.77,785.85,146.31,760.38,142.52Z"/><path class="cls-30" d="M782.07,152.25a86.27,86.27,0,0,1-12.9,22.46l4.87-.43c1.13-1.53,2.21-3.1,3.25-4.69a89.07,89.07,0,0,0,13.82-39.15,82.31,82.31,0,0,0-.41-21,56.19,56.19,0,0,0-1.62-7.26l-4.83-3a49.2,49.2,0,0,1,3.22,13.51A84.45,84.45,0,0,1,782.07,152.25Z"/><path class="cls-170" d="M749.28,130.85c-5.62,23.31-4.29,43.62,3,45.37,5.57,1.35,13-8.64,18.71-23.91a134.59,134.59,0,0,0,7.4-30.67c1.89-16.18-.18-28.48-5.74-29.82C765.35,90.07,754.91,107.55,749.28,130.85Z"/><path class="cls-171" d="M760.31,120.3l-6,25,7,2.93,9.72,4.11a134.59,134.59,0,0,0,7.4-30.67l-8.18-.62Z"/><path class="cls-172" d="M761.23,148.2l9.72,4.11a134.59,134.59,0,0,0,7.4-30.67l-8.18-.62,0,.07a24,24,0,0,1-3.39,21.61A26.69,26.69,0,0,1,761.23,148.2Z"/><ellipse class="cls-173" cx="757.3" cy="132.78" rx="12.84" ry="4" transform="translate(450.64 837.83) rotate(-76.44)"/><ellipse class="cls-174" cx="755.79" cy="132.42" rx="7.85" ry="2.44" transform="translate(449.83 836.09) rotate(-76.44)"/><path class="cls-78" d="M823.39,181.94h0a2.28,2.28,0,0,0-1.18-3.41l-10-3.87a3.45,3.45,0,0,0-4.07,1.37h0a2.27,2.27,0,0,0,1.18,3.41l10,3.88A3.47,3.47,0,0,0,823.39,181.94Z"/><path class="cls-78" d="M823.27,187.58h0a2.27,2.27,0,0,0-1.18-3.41l-10-3.87a3.44,3.44,0,0,0-4.06,1.37h0a2.28,2.28,0,0,0,1.17,3.41l10,3.88A3.47,3.47,0,0,0,823.27,187.58Z"/><path class="cls-78" d="M823.15,193.22h0a2.28,2.28,0,0,0-1.17-3.41l-10-3.87a3.46,3.46,0,0,0-4.07,1.37h0a2.27,2.27,0,0,0,1.18,3.41l10,3.88A3.45,3.45,0,0,0,823.15,193.22Z"/><path class="cls-78" d="M823,198.86h0a2.27,2.27,0,0,0-1.18-3.41l-10-3.87a3.46,3.46,0,0,0-4.07,1.37h0a2.28,2.28,0,0,0,1.18,3.41l10,3.88A3.47,3.47,0,0,0,823,198.86Z"/><path class="cls-80" d="M895.15,140.63a19.57,19.57,0,0,1-3.49.5c-.54,0-.76-.2-.64-.74a10,10,0,0,1,.56-1.46,21.79,21.79,0,0,0,1.5-6.7c0-.68-1-.68-1.05,0a20.83,20.83,0,0,1-.67,4.07c-.17.63-.37,1.26-.6,1.87s-.52,1.15-.7,1.75a1.58,1.58,0,0,0,1.31,2.26,9.82,9.82,0,0,0,2-.17c.71-.1,1.41-.22,2.11-.36S895.82,140.5,895.15,140.63Z"/><path class="cls-175" d="M913.15,150.57c0,.28,0,.55,0,.82a4.74,4.74,0,0,1-1.38,3.76,5,5,0,0,1-3.66.67,10.25,10.25,0,0,0-3.78-.1c-2.41.64-3.94,3.41-6.42,3.64a4.36,4.36,0,0,1-2.74-.78,8.77,8.77,0,0,1-1.57-1.33c-1.52-1.61-3.49-4.61-3.65-7.25a4,4,0,0,1,1.71-3.74,11,11,0,0,1,3.23-1.31,19.68,19.68,0,0,0,8.37-5.36,18.81,18.81,0,0,1,2.84-2.87,3.91,3.91,0,0,1,3.83-.57,3.29,3.29,0,0,1,1.45,1.52,8.92,8.92,0,0,1,.8,2.68A70,70,0,0,1,913.15,150.57Z"/><ellipse class="cls-176" cx="906.04" cy="130.16" rx="1.28" ry="2.65"/><ellipse class="cls-177" cx="887.4" cy="130.16" rx="1.28" ry="2.65"/><path class="cls-178" d="M889,124.08c-.84-.28-.81-.58-1.63-.91l-.58-.23-.3-.13-.15-.06-1.22-.55a1.06,1.06,0,0,0-1.07,1.82,49.23,49.23,0,0,0,5.24,2.08,1.05,1.05,0,0,0,1.29-.73C890.75,124.79,889.59,124.26,889,124.08Z"/><path class="cls-179" d="M909.29,119.34a1.07,1.07,0,0,0-1.49,0,15.66,15.66,0,0,1-1.27,1c-.5.36-1,.69-1.53,1s-1.88.58-2.41.84-.09.43-.69.66a1.07,1.07,0,0,0-.73,1.29,1.06,1.06,0,0,0,1.29.73,22.89,22.89,0,0,0,6.83-4A1.05,1.05,0,0,0,909.29,119.34Z"/><path class="cls-30" d="M911.38,137.67,890,150a4,4,0,0,1,1.71-3.74,11,11,0,0,1,3.23-1.31,19.68,19.68,0,0,0,8.37-5.36,18.81,18.81,0,0,1,2.84-2.87,3.91,3.91,0,0,1,3.83-.57A3.29,3.29,0,0,1,911.38,137.67Z"/><path class="cls-30" d="M913.15,151.39a4.74,4.74,0,0,1-1.38,3.76,5,5,0,0,1-3.66.67,10.25,10.25,0,0,0-3.78-.1c-2.41.64-3.94,3.41-6.42,3.64a4.36,4.36,0,0,1-2.74-.78C899.23,157,908.47,153.31,913.15,151.39Z"/><path class="cls-80" d="M910.19,133.34a2.44,2.44,0,0,1,2.36-.46,3.47,3.47,0,0,1,2,1.61,4.78,4.78,0,0,1,.63,2.39,6.08,6.08,0,0,1-.47,2.32c-.13-.78-.2-1.53-.35-2.24a6.25,6.25,0,0,0-.71-1.94,3.47,3.47,0,0,0-1.37-1.37A3,3,0,0,0,910.19,133.34Z"/><path class="cls-80" d="M888.27,151a3.07,3.07,0,0,1,2.1-5.18,6.27,6.27,0,0,0-1.75,2.31A6.13,6.13,0,0,0,888.27,151Z"/><path class="cls-80" d="M915.47,151.06c-1,1.1-.93,2.61-1.36,3.92a3,3,0,0,1-1.37,1.73,5.36,5.36,0,0,1-1.12.45,7.27,7.27,0,0,0-1.12.35c-.1,0,0,.19.06.19a4.57,4.57,0,0,0,2.29-.5,3.06,3.06,0,0,0,1.45-1.62c.57-1.41.32-3.14,1.31-4.38C915.68,151.11,915.55,151,915.47,151.06Z"/><path class="cls-80" d="M901.1,160c-.45.09-.87.3-1.31.41a5,5,0,0,1-1.33.15,5.64,5.64,0,0,1-2.67-.66.12.12,0,0,0-.12.2,5.51,5.51,0,0,0,2.79.83,6.25,6.25,0,0,0,1.43-.14,3,3,0,0,0,1.33-.6C901.31,160.09,901.21,160,901.1,160Z"/><path class="cls-180" d="M746.38,96.93a1.21,1.21,0,0,1-1.12-.75c-2.41-5.78-9.06-10-17.79-11.37A93.09,93.09,0,0,0,716.8,84a83.1,83.1,0,0,1-12.61-1.13C696.79,81.44,688,77,685.62,68.61a29.35,29.35,0,0,1-.86-7.41,36.09,36.09,0,0,0-.43-5.39c-1.75-9.57-11.1-15.61-19.59-17.35-9.45-1.94-19.57,0-28.5,1.8a1.22,1.22,0,0,1-.47-2.39c9.15-1.79,19.53-3.83,29.46-1.8,9.29,1.9,19.54,8.61,21.5,19.3a37.67,37.67,0,0,1,.46,5.76,27.32,27.32,0,0,0,.77,6.8c2.1,7.29,10,11.26,16.69,12.55a81,81,0,0,0,12.25,1.08,96.79,96.79,0,0,1,10.94.84c4.59.7,15.72,3.37,19.67,12.85a1.23,1.23,0,0,1-.66,1.59A1.27,1.27,0,0,1,746.38,96.93Z"/><path class="cls-181" d="M723.32,126.18a1.21,1.21,0,0,1-.7-.22c-7.18-5-16.15-4.76-25.65-4.5-8.8.24-17.91.48-25.61-3.79-3.67-2-6.72-5-9.66-7.79s-5.81-5.6-9.26-7.48c-11.42-6.25-25.68-1.38-38.15,3.67a1.22,1.22,0,1,1-.92-2.26c13-5.26,27.88-10.3,40.24-3.55,3.73,2,6.81,5,9.78,7.86s5.75,5.53,9.15,7.42c7.12,3.95,15.88,3.71,24.36,3.48,9.48-.25,19.27-.52,27.11,4.94a1.22,1.22,0,0,1-.69,2.22Z"/><path class="cls-182" d="M653.09,163.11a1.21,1.21,0,0,1-1-1.9c5.93-8.67,17.71-10.83,26.75-10a103.85,103.85,0,0,1,16.11,3.3c3.91,1,7.95,2.09,12,2.75,6.41,1.05,18.3,1.73,25.94-5.64a1.22,1.22,0,0,1,1.69,1.76c-8.4,8.1-21.16,7.41-28,6.28-4.14-.68-8.24-1.75-12.2-2.79a101.27,101.27,0,0,0-15.72-3.24c-8.36-.79-19.18,1.13-24.51,8.92A1.21,1.21,0,0,1,653.09,163.11Z"/></g></g></g></svg>