<?xml version="1.0" encoding="utf-8"?>
<!-- Generator: Adobe Illustrator 23.0.0, SVG Export Plug-In . SVG Version: 6.00 Build 0)  -->
<svg version="1.1" id="Layer_1" xmlns="http://www.w3.org/2000/svg" xmlns:xlink="http://www.w3.org/1999/xlink" x="0px" y="0px"
	 viewBox="0 0 1131.1 770" style="enable-background:new 0 0 1131.1 770;" xml:space="preserve">
<style type="text/css">
	.st0{fill:#F1F1F1;}
	.st1{fill:#EDF7F4;}
	.st2{fill:#F0F9F6;}
	.st3{fill:#037474;}
	.st4{fill:#5DBEA2;}
	.st5{fill:#369D8D;}
	.st6{fill:#027373;}
	.st7{fill:#259085;}
	.st8{fill:#DEF9F0;}
	.st9{fill:#FFFFFF;}
	.st10{fill:#68677D;}
	.st11{fill:#56556C;}
	.st12{fill:url(#SVGID_1_);}
	.st13{fill:#5F5E75;}
	.st14{fill:#47475E;}
	.st15{fill:#EAECEF;}
	.st16{fill:#DADCE0;}
	.st17{fill:#C4C7CC;}
	.st18{fill:#212130;}
	.st19{fill:#37364B;}
	.st20{fill:#15827D;}
	.st21{fill:#459C97;}
	.st22{fill:#62C28C;}
	.st23{fill:#84CFA5;}
	.st24{fill:#EC6E85;}
	.st25{fill:url(#SVGID_2_);}
	.st26{fill:url(#SVGID_3_);}
	.st27{fill:url(#SVGID_4_);}
	.st28{fill:#3B9692;}
	.st29{fill:#12807B;}
	.st30{fill:url(#SVGID_5_);}
	.st31{fill:url(#SVGID_6_);}
	.st32{fill:url(#SVGID_7_);}
	.st33{fill:url(#SVGID_8_);}
	.st34{fill:url(#SVGID_9_);}
	.st35{fill:url(#SVGID_10_);}
	.st36{fill:url(#SVGID_11_);}
	.st37{fill:url(#SVGID_12_);}
	.st38{fill:url(#SVGID_13_);}
	.st39{fill:url(#SVGID_14_);}
	.st40{fill:#4EA19C;}
	.st41{fill:url(#SVGID_15_);}
	.st42{fill:url(#SVGID_16_);}
	.st43{fill:#50A29E;}
	.st44{fill:url(#SVGID_17_);}
	.st45{fill:url(#SVGID_18_);}
	.st46{fill:url(#SVGID_19_);}
	.st47{fill:url(#SVGID_20_);}
	.st48{fill:url(#SVGID_21_);}
	.st49{fill:url(#SVGID_22_);}
	.st50{fill:url(#SVGID_23_);}
	.st51{fill:url(#SVGID_24_);}
	.st52{fill:url(#SVGID_25_);}
	.st53{fill:url(#SVGID_26_);}
	.st54{fill:url(#SVGID_27_);}
	.st55{fill:url(#SVGID_28_);}
	.st56{fill:url(#SVGID_29_);}
	.st57{fill:url(#SVGID_30_);}
	.st58{fill:#67AEAA;}
	.st59{fill:#4FA29C;}
	.st60{fill:#F5BD7B;}
	.st61{fill:none;stroke:url(#SVGID_31_);stroke-width:1.05;stroke-miterlimit:10;}
	.st62{font-family:'Roboto-Bold';}
	.st63{font-size:31.153px;}
	.st64{fill:#63C36C;}
	.st65{fill:#117F7B;}
	.st66{fill:#459B99;}
	.st67{fill:#4FA19D;}
	.st68{fill:#60C095;}
	.st69{fill:url(#SVGID_32_);}
	.st70{fill:#89D1A9;}
	.st71{fill:#68C96C;}
	.st72{fill:#F6A59A;}
	.st73{fill:#F8B9B0;}
	.st74{fill:#DD786D;}
	.st75{fill:url(#SVGID_33_);}
	.st76{fill:url(#SVGID_34_);}
	.st77{fill:#F7C3A7;}
	.st78{fill:#1D8A81;}
	.st79{fill:url(#SVGID_35_);}
	.st80{fill:url(#SVGID_36_);}
	.st81{fill:url(#SVGID_37_);}
	.st82{fill:#50A39F;}
	.st83{fill:#4FA39D;}
	.st84{fill:#85D0A9;}
	.st85{fill:#85CEB9;}
	.st86{fill:#29293A;}
	.st87{fill:#1B1B29;}
	.st88{fill:none;stroke:#231F20;stroke-width:0.57;stroke-miterlimit:10;}
	.st89{fill:#37374A;}
	.st90{fill:#696977;}
	.st91{fill:#80808C;}
	.st92{fill:#717181;}
	.st93{fill:#80808E;}
	.st94{fill:#6B64F5;}
	.st95{fill:#8580EE;}
	.st96{fill:#9995E4;}
	.st97{fill:url(#SVGID_38_);}
	.st98{fill:#DD776C;}
	.st99{fill:#585767;}
	.st100{fill:#49467C;}
	.st101{fill:#7A78AA;}
	.st102{fill:#8782EA;}
	.st103{fill:#302F43;}
	.st104{fill:#8783E5;}
	.st105{fill:url(#SVGID_39_);}
	.st106{fill:#9996DE;}
	.st107{fill:url(#SVGID_40_);}
	.st108{fill:url(#SVGID_41_);}
	.st109{fill:url(#SVGID_42_);}
	.st110{fill:url(#SVGID_43_);}
	.st111{fill:url(#SVGID_44_);}
	.st112{fill:#8581D9;}
	.st113{fill:url(#SVGID_45_);}
	.st114{fill:url(#SVGID_46_);}
	.st115{fill:#F5C479;}
	.st116{fill:#EE8183;}
	.st117{fill:url(#SVGID_47_);}
	.st118{fill:url(#SVGID_48_);}
	.st119{fill:url(#SVGID_49_);}
	.st120{fill:#60C096;}
	.st121{fill:#88D0AD;}
	.st122{fill:url(#SVGID_50_);}
	.st123{fill:#FAE576;}
	.st124{fill:#C6AE97;}
	.st125{fill:#C54C5D;}
	.st126{fill:url(#SVGID_51_);}
	.st127{fill:#313044;}
	.st128{fill:url(#SVGID_52_);}
	.st129{fill:#5050D8;}
	.st130{fill:#837FD3;}
	.st131{fill:url(#SVGID_53_);}
	.st132{fill:url(#SVGID_54_);}
	.st133{fill:url(#SVGID_55_);}
	.st134{fill:#62C28A;}
</style>
<path class="st0" d="M1125.8,358.4c-13.7,119.2-48.3,234.7-102.1,340.7l-905.5,2.8c-10.9-18.8-21.2-38-30.8-57.5
	c-0.7-1.4-1.4-2.9-2.1-4.3l-2.1-4.4C65,597.9,49.2,559,36,519.1C13.1,450.2-2.3,376.8,7,304.5s47-143.3,108.7-177.2
	c18.9-10.4,39.1-16.9,59.9-20.6c2.8-0.5,5.6-0.9,8.4-1.3c33.2-4.7,67.8-2.6,101,2.3c26.3,3.9,52.4,9.5,78.6,14.6
	c2.8,0.5,5.6,1.1,8.4,1.6c27.9,5.3,55.9,9.8,84.2,11c32,1.3,63.8-1.7,95.4-7.2c2.8-0.5,5.6-1,8.4-1.5c42.3-7.9,84.2-19.9,125.8-31.6
	c17.8-5,35.8-10,53.8-14.5l4.2-1l4.2-1c55.4-13.5,111.6-22.7,168-17.3c77.6,7.5,156.6,48,191.8,120.7
	C1133.6,235.2,1132.6,298.6,1125.8,358.4z"/>
<path class="st1" d="M743.6,79v561H85.3l-2.1-4.4c-0.3-0.7-0.7-1.4-1-2.1c-5.8-12-11.3-24.2-16.5-36.4c-3.1-7.2-6.1-14.4-9-21.6
	c-7.5-18.6-14.4-37.4-20.7-56.4c-0.7-2.2-1.5-4.4-2.2-6.7c-2.7-8.5-5.4-17-7.8-25.7c-1.9-6.5-3.6-12.9-5.3-19.4
	c-6-22.9-10.4-46.1-13.4-69.7c-3.7-31-4.3-62.2-0.3-93.2c9.4-72.2,47-143.3,108.7-177.2c18.9-10.4,39.1-16.9,59.9-20.6
	c2.8-0.5,5.6-0.9,8.4-1.3c33.2-4.7,67.8-2.6,101,2.3c26.3,3.9,52.4,9.5,78.6,14.6c2.8,0.5,5.6,1.1,8.4,1.6
	c27.9,5.3,55.9,9.8,84.2,11c18.2,0.7,36.5,0.1,54.6-1.6c13.6-1.3,27.2-3.2,40.8-5.5c2.8-0.5,5.6-1,8.4-1.5
	c42.3-7.9,84.2-19.9,125.8-31.6c17.8-5,35.8-10,53.8-14.5L743.6,79z"/>
<g>
	<path class="st2" d="M743.6,79v28.5L82.1,633.4c-5.8-12-11.3-24.2-16.5-36.4c-3.1-7.2-6.1-14.4-9-21.6
		c-7.5-18.6-14.3-37.3-20.6-56.3c-0.7-2.2-1.5-4.4-2.2-6.7l476.9-379.2c13.6-1.3,27.2-3.2,40.8-5.5c2.8-0.5,5.6-1,8.4-1.5
		c42.3-7.9,84.2-19.9,125.8-31.6c17.8-5,35.8-10,53.8-14.5L743.6,79z"/>
	<polygon class="st2" points="744.8,166.2 744.8,236.5 743.6,237.4 237.2,640 148.8,640 743.6,167.1 	"/>
</g>
<path class="st3" d="M98.9,649.7h17.2c2.5,0,4.4,2.1,4.4,4.6V684c0,2.6-2,4.6-4.4,4.6H98.9c-2.5,0-4.4-2.1-4.4-4.6v-29.6
	C94.4,651.8,96.4,649.7,98.9,649.7z"/>
<path class="st4" d="M100,649.7h17.2c2.5,0,4.4,2.1,4.4,4.6V684c0,2.6-2,4.6-4.4,4.6H100c-2.5,0-4.4-2.1-4.4-4.6v-29.6
	C95.6,651.8,97.6,649.7,100,649.7z"/>
<path class="st5" d="M120.5,667.9c0,3.7-2.6,6.9-6.2,7.4c-0.3,0-0.7,0.1-1,0.1h-2.5c-3.9,0-7.1-3.4-7.1-7.5c0-2,0.8-3.8,2.1-5.2
	c1.3-1.4,3.1-2.2,5-2.2h2.5c0.3,0,0.7,0,1,0.1C117.9,661,120.5,664.2,120.5,667.9z"/>
<path class="st6" d="M119.5,667.9c0,3.3-2.3,6-5.4,6.5c-0.3,0-0.6,0.1-0.8,0.1H111c-3.5,0-6.2-2.9-6.2-6.5c0-3.6,2.8-6.5,6.2-6.5
	h2.2c0.3,0,0.6,0,0.8,0C117.2,661.8,119.5,664.6,119.5,667.9z"/>
<path class="st7" d="M119.5,667.9c0,3.3-2.3,6-5.4,6.5c-3.4-0.5-5.8-3.8-5.4-7.3c0.4-2.9,2.6-5.2,5.4-5.6
	C117.2,661.9,119.5,664.6,119.5,667.9z"/>
<path class="st8" d="M743.6,312.9V640H85.3l-2.1-4.4C65,597.9,49.2,559,36,519.1C22.9,479.7,12.3,439,7.3,397.7h75.8v180.8h27.6
	V348.4h103.6v172.1h33.5v-212h93.9v253.4h26V323.4h52.3v105.6h84.2V314.8h116.9v114.2H697V312.9H743.6z"/>
<path class="st9" d="M529,217.1h185.8c0,0-7.8-17.3-31.5-10.6c0,0-32.4-43.1-83.9-4.8C599.3,201.7,549.9,192.3,529,217.1z"/>
<path class="st9" d="M333.9,277.8H53.2c0,0,40.5-44.3,89-22.1c0,0,18.5-42.9,57-42.9s48.6,37.9,48.6,37.9s36.1-14.3,52.2,8.8
	C300.1,259.3,332.7,254.7,333.9,277.8z"/>
<path class="st9" d="M747.8,78v566.3h-8.3V80.1C742.2,79.4,745,78.7,747.8,78z"/>
<path class="st9" d="M184,105.4v538.9h-8.4V106.7C178.4,106.2,181.2,105.8,184,105.4z"/>
<path class="st9" d="M371.9,123.9v520.4h-8.4v-522C366.3,122.8,369.1,123.4,371.9,123.9z"/>
<path class="st9" d="M559.9,126.2v518.1h-8.4V127.7C554.3,127.2,557.1,126.7,559.9,126.2z"/>
<path class="st9" d="M747.8,635.6v8.7H87.4c-1.4-2.9-2.9-5.8-4.3-8.7H747.8z"/>
<ellipse class="st10" cx="590.9" cy="709.5" rx="523.8" ry="24.3"/>
<ellipse class="st11" cx="953.2" cy="712.7" rx="127.3" ry="7.2"/>
<linearGradient id="SVGID_1_" gradientUnits="userSpaceOnUse" x1="752.1973" y1="-10.5681" x2="764.4626" y2="-92.2331" gradientTransform="matrix(1 0 0 -1 0 650)">
	<stop  offset="1.000000e-02" style="stop-color:#3D3C53"/>
	<stop  offset="1" style="stop-color:#6A697F"/>
</linearGradient>
<ellipse class="st12" cx="759.2" cy="707.3" rx="27.3" ry="2.6"/>
<ellipse class="st13" cx="407.8" cy="702.7" rx="224.2" ry="7.2"/>
<path class="st14" d="M356.1,465.4h-77.4c-1.7,0-3-1.4-3.1-3.1h77.5C354.7,462.3,356.1,463.6,356.1,465.4
	C356.1,465.4,356.1,465.4,356.1,465.4z"/>
<rect x="492.2" y="554.4" class="st15" width="11.6" height="123.1"/>
<path class="st16" d="M491.8,554.1h12.5c1.8,0,3.3,1.5,3.3,3.4V602c0,1.9-1.5,3.4-3.3,3.4h-12.5c-1.8,0-3.3-1.5-3.3-3.4v-44.4
	C488.5,555.7,490,554.1,491.8,554.1z"/>
<path class="st16" d="M565.9,702.2L565.9,702.2c-3,0-5.5-1.6-6.1-3.9c-2.3-9.1-12.5-16-24.6-16h-76.4c-12.2,0-22.3,6.9-24.6,16
	c-0.6,2.3-3.1,3.9-6.1,3.9l0,0c-3.9,0-6.8-2.9-6.1-5.9c3.5-13.6,18.6-23.8,36.7-23.8h76.4c18.1,0,33.3,10.3,36.7,23.8
	C572.7,699.4,569.8,702.2,565.9,702.2z"/>
<path class="st16" d="M534.3,702.2L534.3,702.2c-3.1,0-5.9-1.9-6.2-4.3c-1.3-9.6-6.6-15.6-10.5-15.6h-41.4c-3.8,0-9.2,5.9-10.5,15.6
	c-0.3,2.5-3,4.3-6.2,4.3l0,0c-3.6,0-6.5-2.5-6.1-5.3c1.8-14.3,11-24.5,22.8-24.5h41.4c11.8,0,20.9,10.2,22.8,24.5
	C540.8,699.8,537.9,702.2,534.3,702.2z"/>
<ellipse class="st17" cx="534.2" cy="695.9" rx="7.7" ry="8.1"/>
<ellipse class="st17" cx="565.9" cy="695.9" rx="7.7" ry="8.1"/>
<ellipse class="st17" cx="459.8" cy="695.9" rx="7.7" ry="8.1"/>
<ellipse class="st17" cx="428.2" cy="695.9" rx="7.7" ry="8.1"/>
<path class="st18" d="M586.2,273.5c3.1,0.2,60.7-3.2,65,14.4c4.3,17.6,7,24.1,15.4,53.6c8.3,29.5-3.8,63-25.3,113.6
	s-56.8,99-56.8,99l-68.9,20.5l-82.3-8.9L421.6,543c0,0,91-24.4,102.9-53.9c11.9-29.6,16.6-65.7,16.6-65.7l12.7-53.9l19-27.9
	L586.2,273.5z"/>
<path class="st19" d="M676.2,362.4c-3.8,19-3.8,62.6-34,135.3s-82.2,91.7-98,91.7h-82.7c-16.1,0-27.1-9.8-33.4-17.8
	c-5.4-6.7-6.9-15.9-4-24c0.3-0.9,0.7-1.8,1.1-2.6c30.7-4.8,96.7,7.5,136.1-3.3c51.5-14.1,21.5-36.6,39.2-73.1s49.6-61.7,57.5-93
	c7.8-31.3-0.3-32-7.8-51.5c-7.5-19.5-2-21.4-3.4-34.7c-1.1-10.2-43.9-8.3-63.5-7c2.8-3,6.3-5.1,10.2-6.4c26-8.9,72.8-5.4,66.2,23.6
	C653.1,328.7,680,343.4,676.2,362.4z"/>
<path class="st20" d="M515.6,397.7c-3.7,1.9-7.6,3.6-11.6,4.9c-9.9,2.4-20.1,3.7-30.3,3.9c-31,9.3-41.1-17.9-30.9-29.3
	c10.1-11.4,18.5-14,31.2-12.7s12.5,6.9,12.5,6.9c14.5-17.3,37.8-17.3,38-17.3C549.9,375,530,390.4,515.6,397.7z"/>
<path class="st21" d="M515.6,397.7c-3.7,1.9-7.6,3.6-11.6,4.9c-9.9,2.4-20.1,3.7-30.3,3.9c-31,9.3-41.1-17.9-30.9-29.3
	c10.1-11.4,16.9-12.4,29.6-11c12.7,1.4,14.2,5.2,14.2,5.2s-33.2,3-39.5,15.9c-6.1,12.7,11.9,24.8,27.3,12.7c0,0,13.1,5.9,35.3-1
	C511.7,398.5,513.6,398.1,515.6,397.7z"/>
<path class="st22" d="M528.9,319c0,0-19.3,18.2-28.4,32.9c-3.6,5.9-6.5,10.1-8.8,13.2c-1.6,2.2-3.3,4.4-5.2,6.3
	c-0.8-1.4-2.1-2.4-3.6-3c-12.9-5.4-47.4,13-47.4,13c2.5-4.7,5.5-9.1,8.8-13.2c24.3-30,74.6-61,74.6-61l7.7,9.2L528.9,319z"/>
<path class="st23" d="M528.9,319c0,0-19.3,18.2-28.4,32.9c-3.6,5.9-6.5,10.1-8.8,13.2c-1.6,2.2-3.3,4.4-5.2,6.3
	c-0.8-1.4-2.1-2.4-3.6-3c3.7-5.6,10.9-16.3,16.8-22.8c6.7-7.4,21.1-23.3,27-29.1L528.9,319z"/>
<path class="st24" d="M517.6,313.1c3,3.8,11.3,6,11.3,6l4.4-8.1l14.3-2.4l0.9-9.6l-5.9-2.3c0,0,13.2-12.2,14.9-15.9
	c1.7-3.8-0.6-4-9.4,2.9c-5.8,4.5-9.5,7.6-13.6,9.9c-2.2,1.2-4.5,2.3-6.8,3.1c-7.6,2.7-2.3,1.5-9.5,9.5
	C515.8,308.9,516.1,311.2,517.6,313.1z"/>
<linearGradient id="SVGID_2_" gradientUnits="userSpaceOnUse" x1="526.8712" y1="365.8123" x2="530.6933" y2="359.9008" gradientTransform="matrix(1 0 0 -1 0 650)">
	<stop  offset="1.000000e-02" style="stop-color:#FDFE73"/>
	<stop  offset="1" style="stop-color:#EC6E85"/>
</linearGradient>
<path class="st25" d="M544.1,305.5c0,0,4.6,4.2,3.6,7.2c-1,3-6.9-2.6-8.8-3.6S544.1,305.5,544.1,305.5z"/>
<linearGradient id="SVGID_3_" gradientUnits="userSpaceOnUse" x1="523.6138" y1="373.0722" x2="537.5974" y2="328.9163" gradientTransform="matrix(1 0 0 -1 0 650)">
	<stop  offset="1.000000e-02" style="stop-color:#FDFE73"/>
	<stop  offset="1" style="stop-color:#EC6E85"/>
</linearGradient>
<path class="st26" d="M517.6,313.1c2.7-2.3,3.7-5.7,6.1-8.9c2.8-3.7,6.2-3.3,7.5-1.9c1.2,1.4,2.1,8.6,2.1,8.6l14.3-2.4l0.9-9.6
	l-5.9-2.3c-2.8-0.7-5.5-1.7-8-3.1c-2.2,1.2-4.5,2.3-6.8,3.1c-7.6,2.7-2.3,1.5-9.5,9.5C515.8,308.9,516.1,311.2,517.6,313.1z"/>
<linearGradient id="SVGID_4_" gradientUnits="userSpaceOnUse" x1="479.9588" y1="82.0283" x2="473.189" y2="14.3088" gradientTransform="matrix(1 0 0 -1 0 650)">
	<stop  offset="0" style="stop-color:#027373"/>
	<stop  offset="1" style="stop-color:#5DBEA2"/>
</linearGradient>
<path class="st27" d="M447.8,554.1c0,0,29.8,8.6,83.4,7.5s-61.6-70.6-88.3-63.5c-26.7,7.1-24.8,53.2-24.8,53.2L447.8,554.1z"/>
<g>
	<path class="st28" d="M447.8,554.1c0,0,29.8,8.6,83.4,7.5s-61.6-70.6-88.3-63.5c-26.7,7.1-24.8,53.2-24.8,53.2L447.8,554.1z"/>
</g>
<path class="st29" d="M494.9,431.8c1.8,5.2,2.6,10.8,2.5,16.3c0,0.8,0,1.6-0.1,2.5l-3.2,51.7h87.1c0,0,0.6-19.3,12.1-43.5
	c4.1-8.6,9-16.7,14.7-24.3c7.4-9.8,15.3-20.6,22.1-31.1c13.5-20.6,22.9-40.2,16.8-49.6c-0.2-0.3-0.5-0.7-0.7-1
	c-0.3-0.3-0.5-0.6-0.8-0.9c-0.4-0.4-0.9-0.8-1.4-1.1c-0.1-0.1-0.2-0.1-0.3-0.2c-0.5-0.3-0.9-0.6-1.4-0.8c-0.5-0.3-1.1-0.5-1.6-0.6
	c-1.3-0.4-2.7-0.8-4.1-0.9l-5.3-0.7l-1.8-0.2l-1.7-0.2l-6.2-0.8c-4.9-0.6-8.8-1.1-11.9-1.5c-0.8-0.1-1.5-0.2-2.1-0.3l-2.1-0.2
	c-0.4,0-0.8-0.1-1.2-0.2c-1-0.3-1.9-0.9-2.6-1.7c-1.2-1.4-1.7-3.3-1.4-5.2c0-0.4,0.1-0.7,0.2-1l0.1-0.5l2.1-8.1l2.7-10.4l3.9-17.2
	c0,0-37.5,18.5-42.6,19c-6,0.7-5.2-6.6-5.2-6.6l-5.3,26l-0.8,4c-0.4,1.4-1.1,2.7-2,3.8c-0.9,1.1-2.1,2-3.3,2.7l0,0
	c-0.5,0.3-1.1,0.5-1.6,0.7c-0.2,0.1-0.4,0.1-0.6,0.2l-0.7,0.2c-3.2,0.6-6.5,1.1-9.7,1.3c-2.2,0.2-4.4,0.4-6.6,0.8
	c-2.1,0.3-4.2,0.9-6.2,1.7c-0.4,0.2-0.8,0.3-1.2,0.5c-0.4,0.2-0.5,0.2-0.7,0.4c-1.1,0.7-2.2,1.6-3,2.6c-2.9,3.4-5.5,7.1-7.5,11.1
	l0,0l-0.8,1.4c-0.2,0.5-0.5,0.9-0.7,1.4c-0.2,0.5-0.5,1-0.8,1.5c-0.2,0.5-0.5,0.9-0.7,1.4c-0.5,1-1,2-1.5,3c-0.2,0.3-0.3,0.6-0.5,1
	c-0.3,0.7-0.6,1.4-0.9,2.1c-0.3,0.7-0.6,1.3-0.9,1.9l-0.7,1.6c-0.2,0.5-0.4,1-0.7,1.5l-1.3,3.2c-0.2,0.6-0.5,1.2-0.7,1.7
	c-0.7,1.6-1.3,3.2-1.9,4.8c-0.3,0.8-0.6,1.5-0.9,2.2c-0.1,0.3-0.2,0.6-0.3,0.9l-0.5,1.4c-1.6,4.3-2.9,8.2-3.8,11.3
	c-0.2,0.6-0.3,1.1-0.5,1.7s-0.3,1-0.4,1.5c-0.2,0.6-0.3,1.2-0.4,1.7C492,421.1,493.3,427.2,494.9,431.8z"/>
<linearGradient id="SVGID_5_" gradientUnits="userSpaceOnUse" x1="599.6888" y1="69.6561" x2="637.8864" y2="307.1402" gradientTransform="matrix(1 0 0 -1 0 650)">
	<stop  offset="0" style="stop-color:#FFFFFF;stop-opacity:0"/>
	<stop  offset="1" style="stop-color:#19857E"/>
</linearGradient>
<path class="st30" d="M627.6,407.2c-0.1,0.1-0.2,0.2-0.2,0.3C627.5,407.4,627.6,407.3,627.6,407.2z"/>
<linearGradient id="SVGID_6_" gradientUnits="userSpaceOnUse" x1="576.0695" y1="73.3443" x2="614.3018" y2="311.044" gradientTransform="matrix(1 0 0 -1 0 650)">
	<stop  offset="0" style="stop-color:#FFFFFF;stop-opacity:0"/>
	<stop  offset="1" style="stop-color:#19857E"/>
</linearGradient>
<path class="st31" d="M596.3,452.9c-0.3,0.5-0.6,1.1-0.8,1.6C595.7,454,596,453.4,596.3,452.9z"/>
<linearGradient id="SVGID_7_" gradientUnits="userSpaceOnUse" x1="601.5674" y1="69.3386" x2="639.7683" y2="306.843" gradientTransform="matrix(1 0 0 -1 0 650)">
	<stop  offset="0" style="stop-color:#FFFFFF;stop-opacity:0"/>
	<stop  offset="1" style="stop-color:#19857E"/>
</linearGradient>
<path class="st32" d="M630.1,403.4C630.1,403.4,630.1,403.4,630.1,403.4c0,0.1-0.1,0.1-0.1,0.2C630,403.5,630.1,403.5,630.1,403.4z"
	/>
<linearGradient id="SVGID_8_" gradientUnits="userSpaceOnUse" x1="577.2274" y1="73.1838" x2="615.4519" y2="310.8356" gradientTransform="matrix(1 0 0 -1 0 650)">
	<stop  offset="0" style="stop-color:#FFFFFF;stop-opacity:0"/>
	<stop  offset="1" style="stop-color:#19857E"/>
</linearGradient>
<path class="st33" d="M598,449.8c-0.3,0.5-0.6,1-0.9,1.6C597.4,450.8,597.7,450.3,598,449.8z"/>
<linearGradient id="SVGID_9_" gradientUnits="userSpaceOnUse" x1="575.0182" y1="73.4889" x2="613.2581" y2="311.2355" gradientTransform="matrix(1 0 0 -1 0 650)">
	<stop  offset="0" style="stop-color:#FFFFFF;stop-opacity:0"/>
	<stop  offset="1" style="stop-color:#19857E"/>
</linearGradient>
<path class="st34" d="M594.6,456c-0.3,0.5-0.5,1-0.7,1.5C594.2,457,594.4,456.5,594.6,456z"/>
<linearGradient id="SVGID_10_" gradientUnits="userSpaceOnUse" x1="581.381" y1="72.6003" x2="619.5815" y2="310.1025" gradientTransform="matrix(1 0 0 -1 0 650)">
	<stop  offset="0" style="stop-color:#FFFFFF;stop-opacity:0"/>
	<stop  offset="1" style="stop-color:#19857E"/>
</linearGradient>
<path class="st35" d="M603.6,440.6c-0.2,0.3-0.4,0.6-0.6,1C603.2,441.3,603.4,441,603.6,440.6z"/>
<linearGradient id="SVGID_11_" gradientUnits="userSpaceOnUse" x1="578.4918" y1="73.0073" x2="616.7086" y2="310.6103" gradientTransform="matrix(1 0 0 -1 0 650)">
	<stop  offset="0" style="stop-color:#FFFFFF;stop-opacity:0"/>
	<stop  offset="1" style="stop-color:#19857E"/>
</linearGradient>
<path class="st36" d="M599.7,446.8c-0.3,0.5-0.6,0.9-0.8,1.4C599.2,447.7,599.5,447.2,599.7,446.8z"/>
<linearGradient id="SVGID_12_" gradientUnits="userSpaceOnUse" x1="579.8726" y1="72.8133" x2="618.0814" y2="310.3666" gradientTransform="matrix(1 0 0 -1 0 650)">
	<stop  offset="0" style="stop-color:#FFFFFF;stop-opacity:0"/>
	<stop  offset="1" style="stop-color:#19857E"/>
</linearGradient>
<path class="st37" d="M601.6,443.7c-0.3,0.4-0.5,0.8-0.7,1.2C601.1,444.5,601.4,444.1,601.6,443.7z"/>
<linearGradient id="SVGID_13_" gradientUnits="userSpaceOnUse" x1="583.0376" y1="72.3648" x2="621.2297" y2="309.8148" gradientTransform="matrix(1 0 0 -1 0 650)">
	<stop  offset="0" style="stop-color:#FFFFFF;stop-opacity:0"/>
	<stop  offset="1" style="stop-color:#19857E"/>
</linearGradient>
<path class="st38" d="M605.7,437.6c-0.2,0.2-0.3,0.4-0.5,0.6C605.4,438,605.6,437.8,605.7,437.6z"/>
<linearGradient id="SVGID_14_" gradientUnits="userSpaceOnUse" x1="587.0872" y1="71.7558" x2="625.2681" y2="309.1361" gradientTransform="matrix(1 0 0 -1 0 650)">
	<stop  offset="0" style="stop-color:#FFFFFF;stop-opacity:0"/>
	<stop  offset="1" style="stop-color:#19857E"/>
</linearGradient>
<path class="st39" d="M610.7,430.9c0.1-0.1,0.2-0.3,0.3-0.4C610.9,430.6,610.8,430.8,610.7,430.9z"/>
<path class="st40" d="M605.7,399.3l10.9-13.8c-3.1-1-6.8-1.6-11.4-1.7c-36.9-0.2-87.7,6.6-87.7,6.6l-18.6,6.9
	c-2.5,6.6-4.4,12.5-5.4,16.2c-0.2,0.7-0.3,1.2-0.4,1.7c-1.3,5.8,0.1,12,1.6,16.6c1.8,5.2,2.6,10.8,2.4,16.3
	c10.2-7.6,24.5-15.1,40.8-15.1c22.8,0,37.7,2.5,50.9,19.6c6.3-11.5,12.9-20.9,17.9-29.1C618.2,404.8,605.7,399.3,605.7,399.3z"/>
<linearGradient id="SVGID_15_" gradientUnits="userSpaceOnUse" x1="589.2264" y1="71.4048" x2="627.409" y2="308.7958" gradientTransform="matrix(1 0 0 -1 0 650)">
	<stop  offset="0" style="stop-color:#FFFFFF;stop-opacity:0"/>
	<stop  offset="1" style="stop-color:#19857E"/>
</linearGradient>
<path class="st41" d="M613.6,426.9C613.6,426.9,613.6,426.9,613.6,426.9C613.6,426.9,613.6,426.9,613.6,426.9z"/>
<linearGradient id="SVGID_16_" gradientUnits="userSpaceOnUse" x1="593.5189" y1="70.6917" x2="612.9771" y2="191.6678" gradientTransform="matrix(1 0 0 -1 0 650)">
	<stop  offset="0" style="stop-color:#FFFFFF;stop-opacity:0"/>
	<stop  offset="1" style="stop-color:#19857E"/>
</linearGradient>
<path class="st42" d="M619.3,419.2C619.3,419.2,619.3,419.2,619.3,419.2C619.3,419.2,619.3,419.2,619.3,419.2z"/>
<path class="st43" d="M589,452.6c-7.4,13.5-14.2,29.6-17,49.6h9.1c0,0,0.7-20,12.7-44.7c-0.2,0.4-0.4,0.8-0.6,1.2
	C591.9,456.5,590.5,454.5,589,452.6z"/>
<linearGradient id="SVGID_17_" gradientUnits="userSpaceOnUse" x1="496.9415" y1="242.2477" x2="704.2325" y2="173.5822" gradientTransform="matrix(1 0 0 -1 0 650)">
	<stop  offset="0" style="stop-color:#FFFFFF;stop-opacity:0"/>
	<stop  offset="1" style="stop-color:#19857E"/>
</linearGradient>
<path class="st44" d="M603,441.6c-0.5,0.7-0.9,1.4-1.4,2.1C602.1,443,602.5,442.3,603,441.6z"/>
<linearGradient id="SVGID_18_" gradientUnits="userSpaceOnUse" x1="499.494" y1="253.6938" x2="708.9562" y2="184.3092" gradientTransform="matrix(1 0 0 -1 0 650)">
	<stop  offset="0" style="stop-color:#FFFFFF;stop-opacity:0"/>
	<stop  offset="1" style="stop-color:#19857E"/>
</linearGradient>
<path class="st45" d="M610.7,430.9c-0.9,1.2-1.8,2.4-2.7,3.5C608.9,433.3,609.8,432.1,610.7,430.9z"/>
<linearGradient id="SVGID_19_" gradientUnits="userSpaceOnUse" x1="496.3982" y1="238.5915" x2="702.5007" y2="170.3197" gradientTransform="matrix(1 0 0 -1 0 650)">
	<stop  offset="0" style="stop-color:#FFFFFF;stop-opacity:0"/>
	<stop  offset="1" style="stop-color:#19857E"/>
</linearGradient>
<path class="st46" d="M600.9,444.9c-0.4,0.6-0.8,1.2-1.1,1.9C600.1,446.1,600.5,445.5,600.9,444.9z"/>
<linearGradient id="SVGID_20_" gradientUnits="userSpaceOnUse" x1="497.6063" y1="245.9609" x2="705.8945" y2="176.9651" gradientTransform="matrix(1 0 0 -1 0 650)">
	<stop  offset="0" style="stop-color:#FFFFFF;stop-opacity:0"/>
	<stop  offset="1" style="stop-color:#19857E"/>
</linearGradient>
<path class="st47" d="M605.3,438.2c-0.6,0.8-1.1,1.6-1.7,2.4C604.2,439.8,604.7,439,605.3,438.2z"/>
<linearGradient id="SVGID_21_" gradientUnits="userSpaceOnUse" x1="507.207" y1="275.1447" x2="715.6599" y2="206.0944" gradientTransform="matrix(1 0 0 -1 0 650)">
	<stop  offset="0" style="stop-color:#FFFFFF;stop-opacity:0"/>
	<stop  offset="1" style="stop-color:#19857E"/>
</linearGradient>
<path class="st48" d="M627.4,407.5c-2.6,3.9-5.4,7.8-8.1,11.7C622.1,415.3,624.8,411.4,627.4,407.5z"/>
<linearGradient id="SVGID_22_" gradientUnits="userSpaceOnUse" x1="498.4274" y1="249.9084" x2="707.5657" y2="180.631" gradientTransform="matrix(1 0 0 -1 0 650)">
	<stop  offset="0" style="stop-color:#FFFFFF;stop-opacity:0"/>
	<stop  offset="1" style="stop-color:#19857E"/>
</linearGradient>
<path class="st49" d="M608,434.5c-0.8,1-1.5,2.1-2.3,3.1C606.5,436.5,607.2,435.5,608,434.5z"/>
<linearGradient id="SVGID_23_" gradientUnits="userSpaceOnUse" x1="503.2745" y1="264.445" x2="712.3658" y2="195.1831" gradientTransform="matrix(1 0 0 -1 0 650)">
	<stop  offset="0" style="stop-color:#FFFFFF;stop-opacity:0"/>
	<stop  offset="1" style="stop-color:#19857E"/>
</linearGradient>
<path class="st50" d="M619.3,419.2c-1.9,2.6-3.8,5.2-5.6,7.7C615.5,424.4,617.4,421.8,619.3,419.2z"/>
<linearGradient id="SVGID_24_" gradientUnits="userSpaceOnUse" x1="495.7821" y1="227.6117" x2="696.4268" y2="161.1478" gradientTransform="matrix(1 0 0 -1 0 650)">
	<stop  offset="0" style="stop-color:#FFFFFF;stop-opacity:0"/>
	<stop  offset="1" style="stop-color:#19857E"/>
</linearGradient>
<path class="st51" d="M595.4,454.5c-0.3,0.5-0.5,1-0.8,1.5C594.9,455.5,595.2,455,595.4,454.5z"/>
<linearGradient id="SVGID_25_" gradientUnits="userSpaceOnUse" x1="510.5799" y1="283.8091" x2="718.2329" y2="215.0237" gradientTransform="matrix(1 0 0 -1 0 650)">
	<stop  offset="0" style="stop-color:#FFFFFF;stop-opacity:0"/>
	<stop  offset="1" style="stop-color:#19857E"/>
</linearGradient>
<path class="st52" d="M630,403.6c-0.8,1.2-1.6,2.4-2.4,3.6C628.4,406,629.2,404.8,630,403.6z"/>
<linearGradient id="SVGID_26_" gradientUnits="userSpaceOnUse" x1="501.0325" y1="258.1261" x2="710.3747" y2="188.7811" gradientTransform="matrix(1 0 0 -1 0 650)">
	<stop  offset="0" style="stop-color:#FFFFFF;stop-opacity:0"/>
	<stop  offset="1" style="stop-color:#19857E"/>
</linearGradient>
<path class="st53" d="M613.6,427c-0.9,1.2-1.8,2.4-2.6,3.6C611.8,429.3,612.7,428.1,613.6,427z"/>
<linearGradient id="SVGID_27_" gradientUnits="userSpaceOnUse" x1="515.2423" y1="313.2284" x2="730.2528" y2="242.0058" gradientTransform="matrix(1 0 0 -1 0 650)">
	<stop  offset="0" style="stop-color:#FFFFFF;stop-opacity:0"/>
	<stop  offset="1" style="stop-color:#19857E"/>
</linearGradient>
<path class="st54" d="M630.1,403.4c13.5-20.6,22.9-40.2,16.8-49.6c-0.4-0.7-1-1.3-1.5-1.9c-0.4-0.4-0.9-0.8-1.4-1.1l-27.4,34.6
	C626.3,388.7,629.5,396.1,630.1,403.4z"/>
<linearGradient id="SVGID_28_" gradientUnits="userSpaceOnUse" x1="495.7659" y1="231.3012" x2="698.6595" y2="164.0923" gradientTransform="matrix(1 0 0 -1 0 650)">
	<stop  offset="0" style="stop-color:#FFFFFF;stop-opacity:0"/>
	<stop  offset="1" style="stop-color:#19857E"/>
</linearGradient>
<path class="st55" d="M597.1,451.4c-0.3,0.5-0.6,1-0.8,1.5C596.5,452.4,596.8,451.9,597.1,451.4z"/>
<linearGradient id="SVGID_29_" gradientUnits="userSpaceOnUse" x1="495.9934" y1="234.9501" x2="700.6588" y2="167.1544" gradientTransform="matrix(1 0 0 -1 0 650)">
	<stop  offset="0" style="stop-color:#FFFFFF;stop-opacity:0"/>
	<stop  offset="1" style="stop-color:#19857E"/>
</linearGradient>
<path class="st56" d="M598.9,448.2c-0.3,0.5-0.6,1.1-1,1.7C598.3,449.3,598.6,448.7,598.9,448.2z"/>
<linearGradient id="SVGID_30_" gradientUnits="userSpaceOnUse" x1="585.4041" y1="71.6839" x2="623.6865" y2="309.6955" gradientTransform="matrix(1 0 0 -1 0 650)">
	<stop  offset="0" style="stop-color:#FFFFFF;stop-opacity:0"/>
	<stop  offset="1" style="stop-color:#19857E"/>
</linearGradient>
<path class="st57" d="M613.6,427C613.6,426.9,613.6,426.9,613.6,427c1.9-2.6,3.8-5.2,5.7-7.8c0,0,0,0,0,0c2.8-3.9,5.5-7.8,8.1-11.7
	c0.1-0.1,0.2-0.2,0.2-0.3c0.8-1.2,1.6-2.4,2.4-3.6c0-0.1,0.1-0.1,0.1-0.2c-0.6-7.3-3.8-14.7-13.5-17.9l-10.9,13.8
	c0,0,12.4,5.5,1.2,24.2c-4.9,8.2-11.6,17.7-17.9,29.1c1.4,1.9,2.9,3.9,4.3,6.1c0.2-0.4,0.4-0.8,0.6-1.2c0.2-0.5,0.5-1,0.7-1.5
	c0.3-0.5,0.5-1,0.8-1.5c0.3-0.5,0.6-1.1,0.8-1.6c0.3-0.5,0.6-1,0.8-1.5c0.3-0.5,0.6-1,0.9-1.6c0.3-0.6,0.6-1.1,1-1.7
	c0.3-0.5,0.5-0.9,0.8-1.4c0.4-0.6,0.8-1.2,1.1-1.9c0.2-0.4,0.5-0.8,0.7-1.2c0.4-0.7,0.9-1.4,1.4-2.1c0.2-0.3,0.4-0.6,0.6-1
	c0.5-0.8,1.1-1.6,1.7-2.4c0.2-0.2,0.3-0.4,0.5-0.6c0.7-1,1.5-2.1,2.3-3.1c0.9-1.2,1.8-2.4,2.7-3.5c0.1-0.1,0.2-0.3,0.3-0.4
	C611.8,429.3,612.7,428.1,613.6,427z"/>
<path class="st58" d="M613.6,427C613.6,426.9,613.6,426.9,613.6,427c1.9-2.6,3.8-5.2,5.7-7.8c0,0,0,0,0,0c2.8-3.9,5.5-7.8,8.1-11.7
	c0.1-0.1,0.2-0.2,0.2-0.3c0.8-1.2,1.6-2.4,2.4-3.6c0-0.1,0.1-0.1,0.1-0.2c-0.6-7.3-3.8-14.7-13.5-17.9l-10.9,13.8
	c0,0,12.4,5.5,1.2,24.2c-4.9,8.2-11.6,17.7-17.9,29.1c1.4,1.9,2.9,3.9,4.3,6.1c0.2-0.4,0.4-0.8,0.6-1.2c0.2-0.5,0.5-1,0.7-1.5
	c0.3-0.5,0.5-1,0.8-1.5c0.3-0.5,0.6-1.1,0.8-1.6c0.3-0.5,0.6-1,0.8-1.5c0.3-0.5,0.6-1,0.9-1.6c0.3-0.6,0.6-1.1,1-1.7
	c0.3-0.5,0.5-0.9,0.8-1.4c0.4-0.6,0.8-1.2,1.1-1.9c0.2-0.4,0.5-0.8,0.7-1.2c0.4-0.7,0.9-1.4,1.4-2.1c0.2-0.3,0.4-0.6,0.6-1
	c0.5-0.8,1.1-1.6,1.7-2.4c0.2-0.2,0.3-0.4,0.5-0.6c0.7-1,1.5-2.1,2.3-3.1c0.9-1.2,1.8-2.4,2.7-3.5c0.1-0.1,0.2-0.3,0.3-0.4
	C611.8,429.3,612.7,428.1,613.6,427z"/>
<path class="st20" d="M646.9,353.8c-5.5,9.1-15.7,21.3-26.7,33c-12.8,13.7-26.6,26.7-35.2,32.8c-0.9,0.6-1.7,1.2-2.4,1.7
	c-0.7,0.5-1.4,0.9-2.1,1.2c-15.2,7.9-32.9,0.2-44.9,0.5c-12.6,0.3-22.4,12-35.5,2.8c-3.8-2.7-5.7-7.2-6.4-12.2l0.4-1.5l0.5-1.7
	c1-3.1,2.3-7,3.8-11.3l0.5-1.4c0.1-0.3,0.2-0.6,0.3-0.8l0.9-2.3c0.6-1.6,1.2-3.1,1.9-4.8l0.7-1.7c0.4-1,0.9-2.1,1.4-3.2l0.6-1.5
	l0.7-1.6c0.3-0.6,0.6-1.3,0.8-1.9c0.3-0.6,0.6-1.4,1-2.1c0.2-0.3,0.3-0.7,0.5-1c0.5-1,1-2,1.4-3l0.7-1.4c0.3-0.5,0.5-1,0.8-1.5
	s0.5-0.9,0.8-1.4s0.5-0.9,0.7-1.4l0,0c2.1-4,4.6-7.7,7.5-11.1c0.9-1,1.9-1.9,3-2.6c0.2-0.1,0.5-0.3,0.7-0.4c0.4-0.2,0.8-0.3,1.2-0.5
	c2-0.8,4.1-1.4,6.2-1.7c2.1-0.4,4.4-0.6,6.6-0.8c3.3-0.2,6.5-0.6,9.7-1.3c0.2-0.1,0.5-0.1,0.7-0.2c0.2-0.1,0.4-0.1,0.6-0.2
	c0.6-0.2,1.1-0.4,1.6-0.7l0,0c1.3-0.7,2.4-1.6,3.3-2.7c0.9-1.1,1.6-2.4,2-3.8l0.8-4l1.3-6.1l4.1-19.9c0,0-0.8,7.3,5.2,6.6
	c5.1-0.6,42.6-19,42.6-19l-3.9,17.2l-2.7,10.4l-2.1,8.1l-0.1,0.4v0.1c-0.1,0.4-0.2,0.7-0.2,1.1c-0.3,1.9,0.2,3.7,1.4,5.2
	c0.6,0.7,1.3,1.2,2.2,1.5c0.2,0.1,0.3,0.1,0.5,0.2c0.4,0.1,0.8,0.2,1.2,0.2l2.1,0.2c0.7,0.1,1.4,0.2,2.1,0.3
	c3.1,0.4,7.1,0.9,11.9,1.5l6.2,0.8l1,0.1l0.8,0.1l1.8,0.2l5.3,0.7c1,0.1,2,0.3,3,0.6l0.5,0.1l0.6,0.2h0.1c0.5,0.2,1,0.4,1.6,0.6
	c0.3,0.2,0.7,0.3,1,0.6c0.1,0.1,0.3,0.1,0.4,0.2c0.1,0.1,0.2,0.1,0.3,0.2c0.5,0.3,1,0.7,1.4,1.1c0.3,0.3,0.6,0.6,0.8,0.9
	C646.5,353.2,646.7,353.5,646.9,353.8z"/>
<path class="st59" d="M545.2,367.7c0,0-5.8,0.8-12.8-5c-3.7-3.1-8.1-5-12.8-5.5c0.9-1,1.9-1.9,3-2.6c0.2-0.1,0.5-0.3,0.7-0.4
	c0.4-0.2,0.8-0.3,1.2-0.5c2-0.8,4.1-1.4,6.2-1.7L545.2,367.7z"/>
<path class="st22" d="M544.3,367.6c-11.2-4.2-16.4-11.8-19.8-13.9c7.3-3.1,17.3-2.1,23.9-4.2c0.6-0.2,1.1-0.4,1.6-0.7l0,0l-2.4,16.5
	c-0.3,1.5-1.7,2.6-3.2,2.3C544.4,367.6,544.3,367.6,544.3,367.6z"/>
<ellipse transform="matrix(0.9267 -0.3758 0.3758 0.9267 -95.8421 231.0035)" class="st60" cx="544.3" cy="361.2" rx="2.5" ry="1.9"/>
<path class="st22" d="M500.6,502.3h-3.5c4.1-20.9,6.7-49.6,8.3-66.6c0.5-5.8,1-10.4,1.3-13.3c0.7-4.5,0.1-9.2-1.8-13.3
	c-1.9-4.2-2.7-8.9-2.3-13.6c0.4-7.3,5.1-18.4,9.4-27.2l0,0c3.7-6.6,7.4-11.8,10.6-13.7c0,0.4-0.1,0.9-0.3,1.2
	c-0.2,0.3-15.4,26.6-16.1,39.1c-0.3,4.2,0.4,8.4,2.1,12.3c2.1,4.6,2.7,9.8,2,14.8c-0.3,2.8-0.8,7.4-1.3,13.2
	C507.3,453.5,504.7,481.5,500.6,502.3z"/>
<linearGradient id="SVGID_31_" gradientUnits="userSpaceOnUse" x1="524.7576" y1="257.8383" x2="586.7136" y2="257.8383" gradientTransform="matrix(1 0 0 -1 0 650)">
	<stop  offset="1.000000e-02" style="stop-color:#5DBEA2"/>
	<stop  offset="1" style="stop-color:#69C86C"/>
</linearGradient>
<path class="st61" d="M577,364.6h-25.5c-1.2,0-2.3,0.5-3.2,1.4l-21.9,24.3c-1,1.1-1.4,2.7-1.1,4.2l4.8,21.6c0.5,2.1,2.2,3.5,4.2,3.5
	h25.5c1.2,0,2.3-0.5,3.2-1.4L585,394c1-1.1,1.4-2.7,1.1-4.2l-4.8-21.6C580.8,366.1,579.1,364.7,577,364.6z"/>
<text transform="matrix(0.9286 0 -0.4933 0.8699 530.3806 400.1332)" class="st62 st63">PR</text>
<path class="st64" d="M540.3,393.3l-3.8,6.8h-4.2l10.9-19.3h8c1.3-0.1,2.5,0.2,3.6,0.8c0.8,0.4,1.4,1.3,1.4,2.3
	c0,1.2-0.3,2.3-0.9,3.3c-1.1,1.9-2.7,3.5-4.6,4.5c-2.1,1.1-4.3,1.7-6.7,1.6L540.3,393.3z M542.1,390.1h3.8c1,0,2.1-0.2,3-0.7
	c0.9-0.5,1.6-1.2,2.1-2.1c0.5-0.6,0.6-1.5,0.4-2.3c-0.3-0.6-0.9-0.9-2-0.9h-3.8L542.1,390.1z"/>
<path class="st64" d="M562.5,393.1h-3.4l-4,7.1h-4.2l10.9-19.3h7.7c2.4,0,4,0.5,4.8,1.5c0.7,1,0.6,2.5-0.4,4.3
	c-0.7,1.3-1.6,2.4-2.8,3.3c-1.2,0.9-2.5,1.6-4,2.1v7.9l-0.1,0.2h-4.6L562.5,393.1z M561,389.8h3.4c1,0,2-0.2,2.9-0.8
	c0.9-0.5,1.6-1.2,2.1-2.1c0.5-0.6,0.6-1.4,0.4-2.1c-0.3-0.5-1-0.8-2.1-0.8h-3.4L561,389.8z"/>
<path class="st65" d="M581.2,502.3c-0.2,3.1-0.6,6.2-1.1,9.3c-3.1,18.2-14.3,56-54.7,49.4c-52.9-8.7-101.9-37.7-101.9-37.7
	s-10.2,28-14.7,31.9c-4.5,3.9-30.9,15.4-30.9,15.4l-3-3.8l-10-12.6l-2.6-3.3c0,0,33.9-66.2,39.9-70.1c0,0,101.5,13.3,173.3,21
	L581.2,502.3z"/>
<path class="st66" d="M581.2,502.3c-0.2,3.1-0.6,6.2-1.1,9.3c-43-5.4-176.3-26.6-176.3-26.6L365,554.1l-2.6-3.3
	c0,0,33.9-66.2,39.9-70.1c0,0,101.5,13.3,173.3,21L581.2,502.3z"/>
<path class="st67" d="M581.2,502.3c0,0-3,67.4-55.9,58.7c-52.9-8.7-101.8-37.7-101.8-37.7s-10.2,28-14.7,31.9
	c-4.5,3.9-30.9,15.4-30.9,15.4l-3-3.8c12.6-7.2,33.7-23.4,44.5-56.1c0,0,6,11.6,49.6,28.7c43.6,17.1,73.8,23.8,88.7,6.9
	c13-14.7,17-31.7,18-44.5L581.2,502.3z"/>
<path class="st68" d="M421.6,543c0,0-2.4,3.5-6,8.3c-5.7,7.8-14.4,19-20.5,24c-9.8,8-39.9,23.7-50.8,34.8
	c-10.9,11.2-42.2,39.5-44.4,42c-2.1,2.4-1.3,13.6-2.3,17.4c-1.1,3.8-54.7,8.9-64.5,9.6c-9,0.7-11.1-0.9-6.4-5.7
	c0.6-0.6,1.3-1.3,2.1-2c7.3-6.2,39.4-19.6,46-26.3c6.6-6.7,13.7-14,13.7-14s23.9-27.2,38.4-47.5c12.9-18.1,23.9-37.5,32.8-58
	c4.8-10.7,18.3-29,29-42.9c7.2-9.4,13.1-16.8,14.1-18.7c2.4-4.3,3.1,43.6,15.2,71.8C419.1,538.4,420.3,540.7,421.6,543z"/>
<linearGradient id="SVGID_32_" gradientUnits="userSpaceOnUse" x1="402.9996" y1="207.4126" x2="406.4121" y2="96.0467" gradientTransform="matrix(1 0 0 -1 0 650)">
	<stop  offset="1.000000e-02" style="stop-color:#FDFE73"/>
	<stop  offset="1" style="stop-color:#EC6E85"/>
</linearGradient>
<path class="st69" d="M421.6,543c0,0-2.4,3.5-6,8.3c-20.9-34.3-19.1-69.8-19.5-70.6c-0.2-0.4-3.8,0.7-7.4,2
	c7.2-9.4,13.1-16.8,14.1-18.7C405.4,459.4,406,516.7,421.6,543z"/>
<path class="st70" d="M421.6,543c0,0-2.4,3.5-6,8.3c-5.7,7.8-14.4,19-20.5,24c-9.8,8-39.9,23.7-50.8,34.8
	c-10.9,11.2-42.2,39.5-44.4,42c-2.1,2.4-1.3,13.6-2.3,17.4c-1.1,3.8-54.7,8.9-64.5,9.6c-9,0.7-11.1-0.9-6.4-5.7
	c21.6,0.1,46.8-3.9,58.1-5.8c11.8-1.9,8.1-7.7,8.1-12.4c0-4.2-8-8.9-9.7-9.9c0.9,0.4,3.9,1,12.6-0.2c11.1-1.5,22.9-19.7,45.4-40.5
	c22.5-20.8,37.3-23.9,47.5-34.2c8.1-8.1,22.5-26.4,29.3-34.7C419.1,538.4,420.3,540.7,421.6,543z"/>
<path class="st68" d="M447.8,554.1c0,0-0.7,4.7-2.5,11.6c-2.9,11.3-8.5,28.6-18.3,40.5c-14.2,17.2-37.5,56.8-43,71.4
	c-0.6,1.8-0.8,3.7-0.4,5.5c4,20.8,4.3,20.8-13.3,20.8h-34.8c-2.3,0-4-2.9-2.5-4.6c3.6-4.2,26.2-12.9,31.8-20.1
	c7.4-9.6,17.7-40.3,21.7-74.9c1.9-15.9,4.6-31.8,8.1-47.4c2-9.2,3.6-14.7,3.6-14.7s24.6-41,27.5-40.6l17.7,42L447.8,554.1z"/>
<path class="st70" d="M447.8,554.1c0,0-0.7,4.7-2.5,11.6c-2.9,11.3-8.5,28.6-18.3,40.5c-14.2,17.2-37.5,56.8-43,71.4
	c-0.6,1.8-0.8,3.7-0.4,5.5c4,20.8,4.3,20.8-13.3,20.8h-34.8c-2.3,0-4-2.9-2.5-4.6h46.4c3.3,0,2.8-16.2-8.2-20.1c0,0,9.4-5.4,14.9-15
	c5.5-9.6,19-33.5,32.2-54.6c10.8-17.1,19.6-44.2,25-66L447.8,554.1z"/>
<path class="st40" d="M609.3,299.9l-3.9,17.2l-2.7,10.4l-2.1,8.1l-0.1,0.4c-1.2-4-1.8-9.6-7-6.7c-8.9,5-23.5,7.6-28.6,2.9
	c-2.6-2.4-5.4-1.5-7.6,0l4.1-19.9c0,0-0.8,7.3,5.2,6.6C571.8,318.4,609.3,299.9,609.3,299.9z"/>
<ellipse transform="matrix(0.1509 -0.9886 0.9886 0.1509 188.3245 789.6093)" class="st20" cx="553.8" cy="285.2" rx="15.7" ry="9.3"/>
<path class="st71" d="M551.2,289c0.6,0.2,1.2,0.3,1.8,0.4l6.2-31.3l5.8-29.1c0.1-0.4-0.3-0.8-0.8-0.9H564c-0.4,0-0.7,0.3-0.9,0.6
	l-5.8,28.9L551.2,289z"/>
<path class="st20" d="M548.5,278.9c0,1.5,0,3.2,0.1,5.1c0.1,9.2,0.3,22.1,0.6,25.6c0.4,5.8,13.1,17.2,17.5,18.8s10.9,2.1,15.5,0
	s20.7-12.4,23.2-16.4c2.5-4,9.2-31.3,8.2-47.2c-1.1-15.9-20-27.9-33.8-26.5c-12,1.2-24.8,6.2-29.7,26.2c-0.1,0.4-0.2,0.8-0.3,1.3
	C548.9,270.1,548.5,274.5,548.5,278.9z"/>
<path class="st72" d="M599.6,294.2c-0.1,0.4-0.1,0.8-0.2,1.2c-1.6,7.1-4.1,17.9-4.4,20.4s-9.2,8.8-12.5,9.1
	c-3.4,0.4-5.3-6.2-12.2-6.2c-6.9,0-5.7,2.5-8,2.3c-2.4-0.2-8.8-8.1-10.4-10.7c-1.1-1.9-1.8-11.6-1.9-19.4c0-3.1,0-5.9,0.1-7.8
	c0.4-6.7,13.9,10.4,47.8,3.9C597.9,287,600.6,288.2,599.6,294.2z"/>
<path class="st73" d="M599.6,294.2c-5.4-1.4-16.9,1.6-20.7,3.1c-4.9,2-9.8-2.6-12.2-4s-6.1,1.9-8,2.4c-1.3,0.4-6-2.7-8.8-4.7
	c0-3.1,0-5.9,0.1-7.8c0.4-6.7,13.9,10.4,47.8,3.9C597.9,287,600.6,288.2,599.6,294.2z"/>
<path class="st74" d="M560.8,299.3c1-4.4,2.4-8.6,4.2-12.7c0.3-0.7,1.3-0.1,1,0.6c-1.7,3.8-3,7.7-4,11.8c1.9,0.2,3.8,0.3,5.7,0.2
	c0.7,0,0.7,1.1,0,1.2c-2.2,0.1-4.4,0-6.5-0.3C560.9,300,560.7,299.6,560.8,299.3z"/>
<path class="st74" d="M560.8,308.4c3.8-2.3,8.6-1.9,12,1c-1.9-0.8-3.9-1.3-5.9-1.5C564.8,307.8,562.8,308,560.8,308.4z"/>
<linearGradient id="SVGID_33_" gradientUnits="userSpaceOnUse" x1="545.3398" y1="272.6371" x2="609.6271" y2="282.1505">
	<stop  offset="1.000000e-02" style="stop-color:#FDFE73"/>
	<stop  offset="1" style="stop-color:#EC6E85"/>
</linearGradient>
<path class="st75" d="M548.5,278.9c0,1.5,0,3.2,0.1,5.1c2.5,2.7,5.3,5.1,8.3,7.1c4.5,2.6,3.6-1,7.6-1.2c3-0.2,4,2.1,7.2,3.4
	c1.2,0.4,2.4,0.7,3.7,0.8h0.5c0.9,0,1.8-0.1,2.7-0.2c1.7-0.2,3.8-0.7,6-1.3c8.5-2.2,18.8-6.2,18.8-6.2l4.5-21.8l-34.2,5.8l-4.4,0.7
	c-0.6,0-1.2,0.1-1.8,0c-1.2,0-2.3-0.2-3.5-0.4l-0.6-0.1c-1.1-0.3-2.1-0.6-3.2-0.9c-3.9-1.2-7.7-2.8-10.3-3.9
	C548.9,270,548.5,274.4,548.5,278.9z"/>
<linearGradient id="SVGID_34_" gradientUnits="userSpaceOnUse" x1="536.29" y1="380.5847" x2="730.8373" y2="360.4039" gradientTransform="matrix(1 0 0 -1 2.551041e-02 649.9924)">
	<stop  offset="0" style="stop-color:#027373"/>
	<stop  offset="1" style="stop-color:#5DBEA2"/>
</linearGradient>
<path class="st76" d="M599.4,275.8c0.3-1.5,1.3-2.6,2.1-2.4c0.8,0.2,1.3,1.6,0.9,3.1s-1.3,2.6-2.1,2.4
	C599.5,278.6,599.1,277.3,599.4,275.8z"/>
<path class="st77" d="M567.4,271.2l11.1,22.7c1.7-0.2,3.8-0.7,6-1.3l-10.9-22.2l-4.4,0.7C568.6,271.2,568,271.2,567.4,271.2z"/>
<path class="st77" d="M560.1,269.7l11.6,23.6c1.2,0.4,2.4,0.7,3.7,0.8l-11.4-23.3l-0.6-0.1C562.3,270.4,561.2,270,560.1,269.7z"/>
<path class="st71" d="M602.9,288.7c0.6,0.2,1.2,0.3,1.8,0.4l6.2-31.3l5.8-29.2c0.1-0.4-0.2-0.8-0.7-0.9h-0.2c-0.4,0-0.8,0.2-0.9,0.6
	l-5.8,29L602.9,288.7z"/>
<ellipse transform="matrix(0.1509 -0.9886 0.9886 0.1509 237.5121 846.8676)" class="st20" cx="611.7" cy="285.2" rx="15.7" ry="9.3"/>
<ellipse transform="matrix(0.1471 -0.9891 0.9891 0.1471 242.576 851.2499)" class="st78" cx="614.9" cy="285" rx="9.3" ry="6.2"/>
<linearGradient id="SVGID_35_" gradientUnits="userSpaceOnUse" x1="611.7635" y1="346.3841" x2="653.3106" y2="346.3841" gradientTransform="matrix(1 0 0 -1 0 650)">
	<stop  offset="1.000000e-02" style="stop-color:#FDFE73"/>
	<stop  offset="1" style="stop-color:#EC6E85"/>
</linearGradient>
<path class="st79" d="M652.2,318.1c-3,3.8-10.5,5.9-10.5,5.9l-5.1-8.1l-14.3-2.4l-0.9-9.6l5.9-2.2c0,0-13.2-12.2-14.9-15.9
	c-1.7-3.7,0.6-4,9.4,2.9c5.8,4.5,9.5,7.6,13.6,9.9c2.2,1.2,4.5,2.3,6.8,3.1c7.6,2.7,2.3,1.5,9.5,9.5
	C653.9,313.9,653.6,316.2,652.2,318.1z"/>
<linearGradient id="SVGID_36_" gradientUnits="userSpaceOnUse" x1="570.8181" y1="347.4529" x2="624.7115" y2="335.4214" gradientTransform="matrix(1 0 0 -1 0 650)">
	<stop  offset="1.000000e-02" style="stop-color:#FDFE73"/>
	<stop  offset="1" style="stop-color:#EC6E85"/>
</linearGradient>
<path class="st80" d="M625.6,310.4c0,0-4.6,4.2-3.6,7.2c1,3,6.9-2.5,8.8-3.6C632.7,313,625.6,310.4,625.6,310.4z"/>
<linearGradient id="SVGID_37_" gradientUnits="userSpaceOnUse" x1="667.3069" y1="379.6114" x2="601.8051" y2="292.515" gradientTransform="matrix(1 0 0 -1 0 650)">
	<stop  offset="1.000000e-02" style="stop-color:#FDFE73"/>
	<stop  offset="1" style="stop-color:#EC6E85"/>
</linearGradient>
<path class="st81" d="M652.2,318.1c-2.7-2.3-3.7-5.7-6.1-8.9c-2.8-3.7-6.2-3.3-7.5-1.9c-1.2,1.4-2.1,8.6-2.1,8.6l-14.3-2.4l-0.9-9.6
	l5.9-2.2c2.8-0.7,5.5-1.7,8-3.1c2.2,1.2,4.5,2.3,6.8,3.1c7.6,2.7,2.3,1.5,9.5,9.5C653.9,313.9,653.6,316.2,652.2,318.1z"/>
<path class="st20" d="M718.1,402.3c-0.3,4.7-2.3,9.1-5.6,12.3c-8.7,8.7-26.9,10.9-47.4-5.5c-4.1-3.3-8.8-5.6-13.8-6.7
	c-7.3-1.6-18.1-4.6-25.5-9.9c-2.2-1.5-4.1-3.4-5.6-5.6c-0.7-1.1-1.3-2.3-1.7-3.5c-0.4-1.4-0.8-2.7-1-4.2c-1.2-8.9,1.7-17.9,7.8-24.2
	c1.6-1.6,3.4-2.9,5.4-3.9l0,0c2.3-1.2,4.8-1.8,7.3-1.9l0,0c0.5,0,1.1,0,1.7,0l0.8,0.1h0.1c1.1,0.1,2.2,0.3,3.3,0.5
	c0.7,0.2,1.5,0.4,2.2,0.6c2.8,1.1,5.5,2.4,8,4.2c4,2.5,9.1,6.3,16.5,11.9c3.9,3,8.3,5.2,13,6.5c10.1,2.6,27.7,8.8,33,21.4
	C717.7,396.8,718.2,399.5,718.1,402.3z"/>
<path class="st59" d="M646.3,350.5c-0.7,0.1-1.5,0.2-2.3,0.3c-0.5,0.1-1,0.1-1.4,0.2c-1.9,0.3-3.8,0.7-5.8,1.1
	c-3.7,0.8-7.5,1.7-11.2,2.7c-15.6,4.2-30.2,9.4-31.5,9.8h-0.1c6-6.2,22.4-13,34.8-17.5l0.8,0.1l1.8,0.2l5.3,0.7c1,0.1,2,0.3,3,0.6
	l0.5,0.1l0.6,0.2h0.1c1.1,0.1,2.2,0.3,3.3,0.5c0.7,0.2,1.5,0.4,2.2,0.6L646.3,350.5z"/>
<path class="st22" d="M644,349.8c-0.1,0.1-0.4,0.3-0.7,0.6c-0.3,0.3-0.4,0.4-0.7,0.7c-9.1,8.5-17.4,17.9-24.9,28
	c-2.8,3.9-5.4,7.9-7.9,12c-0.7,1.3-1.7,2.4-2.8,3.4l-17.5,15.8c-1.2,1.1-2.1,2.4-2.5,4c0,0.1,0,0.1,0,0.2c0,0.1-0.7,1.9-1.8,5
	c-4.5,12.9-15.8,46.2-23.3,80.5l-3.7-0.2c7-31.9,17.3-62.3,22.4-77.4c1.7-4.9,2.7-7.9,2.9-8.3c0.7-2.4,2.1-4.6,4-6.2l17.4-15.8
	c0.7-0.6,1.3-1.4,1.8-2.2c3.2-5.5,6.8-10.8,10.7-15.9c6-7.7,12.4-15,19.3-21.9c1.2-1.2,2.3-2.2,3.1-3l0.2-0.1l0.6,0.2h0.1
	C641.8,349.3,642.9,349.5,644,349.8z"/>
<path class="st22" d="M639.5,348.9l-1.3,0.3l0,0c-2.2,0.5-4.7,1.1-7.3,1.8l0,0c-12.7,3.7-28.5,10.1-36.9,13.7H594l0,0
	c-2,0.9-3.4-1-2.1-2.9l12.1-18c0.2,0.1,0.3,0.1,0.5,0.2c0.4,0.1,0.8,0.2,1.2,0.2l2.1,0.2c0.7,0.1,1.4,0.2,2.1,0.3
	c3.1,0.4,7.1,0.9,11.9,1.5l6.2,0.8l1,0.1l0.8,0.1l1.8,0.2l5.3,0.7C637.6,348.4,638.6,348.6,639.5,348.9z"/>
<ellipse transform="matrix(0.9267 -0.3758 0.3758 0.9267 -91.0397 251.5688)" class="st60" cx="599.4" cy="359.2" rx="2.5" ry="1.9"/>
<path class="st82" d="M718.1,402.3c-0.3,4.7-2.3,9.1-5.6,12.3c-13.2-7.6-20.6-6.5-29.4-16.8c-9-10.6-25.2-36.9-29-43.1
	c4,2.5,9.1,6.3,16.5,11.9c3.9,3,8.3,5.2,13,6.5c10.1,2.6,27.7,8.8,33,21.4C717.7,396.8,718.2,399.5,718.1,402.3z"/>
<path class="st83" d="M718.1,402.3c-0.7,16.5-24.5,29.6-53,6.8c-4.1-3.3-8.8-5.6-13.8-6.7c-7.3-1.6-18.1-4.6-25.5-9.9
	c7.6,0.5,20.1,1.6,27.4,4.5c11,4.3,26.2,20.8,42.8,21C708.6,418.1,714.5,411.8,718.1,402.3z"/>
<path class="st22" d="M719.8,412.8c-6.4-3.8-13.2-6.7-20.3-8.6l0,0c-7-2-11-3.4-17.8-14c-1-1.6-2.2-3.5-3.5-5.6
	c-12.5-20.1-36.5-60.5-36.5-60.5c-0.5-2.2-0.5-4.6,0.1-6.8c2.1-6.8,10.7-4.9,10.7-4.9s49.6,34.8,62.7,51.8c0.6,0.8,1.1,1.5,1.6,2.2
	C726.7,382.3,719.8,412.8,719.8,412.8z"/>
<path class="st84" d="M699.5,404.2c-7-2-11-3.4-17.8-14c-1-1.6-2.2-3.5-3.5-5.6c-12.5-20.1-36.5-60.5-36.5-60.5
	c-0.5-2.2-0.5-4.6,0.1-6.8c7.1,11.7,34.8,57,44.4,71.2C690.1,394.1,694.6,399.4,699.5,404.2z"/>
<path class="st4" d="M829.7,597c-11.4-9-20.9-20.4-27.9-33.5c-2.5-4.7-4.5-9.6-6.1-14.7c-2.5-8.1-3.8-16.7-3.7-25.2
	c0.1-6.6,1-13.2,2.6-19.5c0,0-26,40-18.7,136.1h-3.5c0,0-8-97.2,22.2-139c0,0,13.3,7.1,24,24c2.1,3.4,4,6.9,5.7,10.6l0,0
	c2.9,6.7,5,13.8,6.2,21.1c0.8,4.9,1.3,9.9,1.3,15C832.1,580.2,831.3,588.7,829.7,597z"/>
<path class="st4" d="M831.6,514.3c-4.3-2.1-8.4-4.7-12.2-7.6c-3.2-2.4-6.2-5-9-7.9c-3.3-3.3-6.2-7-8.7-10.9
	c-4.1-6.3-6.9-13.4-8.3-20.8c-1.4-8.5-1.1-17.2,1.1-25.5c0,0-43.6,56.3-25,198.5h-3c0,0-20.7-138.3,28.3-201.7
	c5,2.5,9.7,5.8,13.7,9.8c2.8,2.7,5.4,5.7,7.7,8.9c3,4.1,5.6,8.6,7.7,13.3l0,0c2.3,5.1,4,10.5,5.3,16
	C831.2,495.5,832,504.9,831.6,514.3z"/>
<path class="st4" d="M829.7,447.9c-3-0.6-5.9-1.5-8.7-2.6c-4.8-1.8-9.3-4.2-13.5-7.1c-4.4-3-8.3-6.7-11.7-10.8
	c-2.3-2.9-4.3-6-5.9-9.3c-2.7-5.7-4.5-11.8-5.2-18.1c-0.3-2.6-0.5-5.3-0.5-7.9c0-3.9,0.3-7.8,0.8-11.7c0,0-34.6,32-23.6,259.9h-3
	c0,0-11.9-211.8,26.6-263.8c0,0,9.2,4.5,19.3,14.9c2.4,2.5,4.7,5.1,6.8,7.9c4.9,6.4,8.9,13.4,11.9,21l0,0
	C826.7,429,828.9,438.3,829.7,447.9z"/>
<g>
	<path class="st85" d="M806.3,481.7c-0.7,2.6-2.4,4.8-4.6,6.2c-4.1-6.3-6.9-13.4-8.3-20.8c2.4,0.6,4.8,1.5,7,2.7
		C804.4,472.2,807.5,477,806.3,481.7z"/>
	<path class="st85" d="M829.2,486.4l-0.5,0.7c-1.1,1.5-2.7,2.6-4.5,3.1c-1.8,0.5-3.7,0-5-1.4c-1.7-2-1.5-5-0.7-7.6
		c0.9-3.3,2.7-8.3,5.6-10.8C826.3,475.5,828,480.9,829.2,486.4z"/>
	<path class="st85" d="M816.3,457.1l-0.3,0.5c-1.4,2.3-3.7,4.3-6.2,4c-6.6-0.9-4.8-9.2-1.2-13.4C811.4,451,814,453.9,816.3,457.1z"
		/>
	<path class="st85" d="M820.9,503.5c-0.4,1.1-0.9,2.2-1.5,3.2c-3.2-2.4-6.2-5-9-7.9c1.2-1,2.5-1.9,3.9-2.5c2.1-0.9,5-1,6.4,0.9
		C822.1,498.9,821.6,501.5,820.9,503.5z"/>
</g>
<g>
	<path class="st85" d="M832,571.8c-0.9,1.4-2,2.5-3.4,3.2c-2,1-4.8,0.8-6.2-1.1c-0.9-1.5-1.1-3.3-0.4-5c0.7-1.6,1.6-3.1,2.7-4.3
		c1-1.3,3.4-5.3,6-7.8C831.4,561.7,831.9,566.7,832,571.8z"/>
	<path class="st85" d="M810.6,561.2c-0.4,1.4-1.5,2.4-2.8,2.7c-1.3,0.3-2.7,0.3-4,0c-0.6-0.1-1.3-0.3-1.9-0.5
		c-2.5-4.7-4.5-9.6-6.1-14.7c3.8,1,8,4,10.9,6c1.1,0.7,2.2,1.5,3,2.6C810.6,558.4,810.9,559.8,810.6,561.2z"/>
	<path class="st85" d="M824.4,535.7L824.4,535.7c-0.1,0.3-0.2,0.6-0.2,0.8c-0.7,2.5-1.7,5-3.7,6.7c-2,1.6-5.1,1.9-6.8,0
		c-1-1.3-1.4-3-1.1-4.6c0.3-1.6,0.9-3.1,1.6-4.5c1.1-2.3,2.4-6.4,4.5-8.9C820.9,528.5,822.8,532.1,824.4,535.7z"/>
	<path class="st85" d="M802.5,534.1c-0.3,2.5-2.2,4.5-4.7,4.8c-1.6,0.2-3.3-0.2-4.7-1.1c-0.8-4.7-1.1-9.4-1.1-14.2
		c3.5,0.6,7,3.6,8.9,6.3C802,531.1,802.5,532.6,802.5,534.1z"/>
</g>
<path class="st4" d="M699.1,597c11.4-9,20.9-20.4,27.9-33.5c2.5-4.7,4.5-9.6,6.1-14.7c1.1-3.6,2-7.3,2.6-11.1
	c0.8-4.7,1.1-9.4,1.1-14.2c-0.1-6.6-1-13.2-2.6-19.5c0,0,26,40,18.7,136.1h3.5c0,0,8-97.2-22.2-139c0,0-13.3,7.1-24,24
	c-2.1,3.4-4,6.9-5.6,10.6l0,0c-2.9,6.7-5,13.8-6.2,21.1c-0.8,4.9-1.2,10-1.3,15C696.8,580.2,697.5,588.7,699.1,597z"/>
<path class="st4" d="M697.2,514.3c4.3-2.1,8.4-4.7,12.2-7.6c3.2-2.4,6.2-5,9-7.9c3.3-3.3,6.2-7,8.7-10.9c4.1-6.3,6.9-13.4,8.3-20.8
	c1.4-8.5,1.1-17.2-1.1-25.5c0,0,43.7,56.3,25.1,198.6h3c0,0,20.7-138.3-28.4-201.7c-5,2.5-9.7,5.8-13.7,9.8
	c-2.8,2.7-5.4,5.7-7.7,8.9c-3,4.1-5.6,8.6-7.7,13.3l0,0c-2.3,5.1-4,10.5-5.2,15.9C697.7,495.6,696.9,504.9,697.2,514.3z"/>
<g>
	<path class="st85" d="M722.5,481.7c0.7,2.6,2.4,4.8,4.6,6.2c4.1-6.3,6.9-13.4,8.3-20.8c-2.4,0.6-4.8,1.5-7,2.7
		C724.3,472.2,721.3,477,722.5,481.7z"/>
	<path class="st85" d="M699.6,486.4c0.2,0.2,0.3,0.5,0.5,0.7c1.1,1.5,2.7,2.6,4.5,3.1c1.8,0.5,3.7,0,5-1.4c1.7-2,1.5-5,0.7-7.6
		c-0.9-3.3-2.7-8.3-5.6-10.8C702.6,475.5,700.8,480.9,699.6,486.4z"/>
	<path class="st85" d="M712.5,457.1l0.3,0.5c1.4,2.3,3.7,4.3,6.2,4c6.6-0.9,4.8-9.2,1.2-13.4C717.4,451,714.8,453.9,712.5,457.1z"/>
	<path class="st85" d="M707.9,503.5c0.4,1.1,0.9,2.2,1.5,3.2c3.2-2.4,6.2-5,9-7.9c-1.2-1-2.5-1.9-3.9-2.5c-2.1-0.9-5-1-6.4,0.9
		C706.7,498.9,707.2,501.5,707.9,503.5z"/>
</g>
<g>
	<path class="st85" d="M696.9,571.8c0.9,1.4,2.1,2.5,3.4,3.2c2,1,4.8,0.8,6.2-1.1c0.9-1.5,1.1-3.3,0.4-5c-0.7-1.6-1.6-3.1-2.7-4.3
		c-1-1.3-3.4-5.3-6-7.8C697.4,561.7,697,566.7,696.9,571.8z"/>
	<path class="st85" d="M718.2,561.2c0.4,1.4,1.5,2.4,2.8,2.7c1.3,0.3,2.7,0.3,4,0c0.6-0.1,1.3-0.3,1.9-0.5c2.5-4.7,4.5-9.6,6.1-14.7
		c-3.8,1-8,4-10.9,6c-1.1,0.7-2.1,1.5-3,2.6C718.2,558.4,717.9,559.8,718.2,561.2z"/>
	<path class="st85" d="M704.4,535.7L704.4,535.7c0.1,0.3,0.2,0.6,0.2,0.8c0.7,2.5,1.7,5,3.7,6.7c2,1.6,5.1,1.9,6.8,0
		c1-1.3,1.4-3,1.1-4.6c-0.3-1.6-0.9-3.1-1.6-4.5c-1.1-2.3-2.4-6.4-4.5-8.9C707.9,528.5,706,532.1,704.4,535.7z"/>
	<path class="st85" d="M726.2,534.1c0.3,2.5,2.2,4.5,4.7,4.8c1.6,0.2,3.3-0.2,4.7-1.1c0.8-4.7,1.1-9.4,1.1-14.2
		c-3.5,0.6-7,3.6-8.9,6.3C726.8,531.1,726.3,532.6,726.2,534.1z"/>
</g>
<g>
	<path class="st85" d="M795.9,398.1c-0.2,1.1-1,2-2,2.4c-1,0.4-2.1,0.5-3.1,0.5c-2-0.1-4-0.4-6-1c-0.3-2.6-0.5-5.3-0.5-7.9
		c2.6,0.2,5.3,0.7,7.8,1.5c1,0.3,1.9,0.9,2.7,1.6C795.7,395.9,796.1,397,795.9,398.1z"/>
	<path class="st85" d="M805.7,423.2c-0.6,1.6-2.3,2.4-3.9,2.9c-2,0.6-4,1-6,1.2c-2.3-2.9-4.3-6-5.9-9.3c2.7-1.5,7.3-0.9,9.8-0.6
		c1.6,0.1,3.1,0.6,4.4,1.5C805.5,419.8,806.2,421.6,805.7,423.2z"/>
	<path class="st85" d="M811.2,399.2c0,0.3,0,0.6-0.1,0.8c-0.1,2.3-0.8,4.6-2,6.6c-1.3,1.9-3.8,3-5.8,2.1c-1.6-0.8-2.7-2.5-2.8-4.4
		c-0.1-1.9,0.2-3.7,0.8-5.5c0.8-2.6,1.8-5.1,3.1-7.6C806.8,393.8,809.1,396.4,811.2,399.2z"/>
	<path class="st85" d="M823.1,420.1L823.1,420.1c-0.2,0.7-0.5,1.4-0.9,2.1c-1.2,2.1-3.8,3.5-6,2.5c-1.3-0.7-2.2-2-2.5-3.5
		c-0.3-1.5-0.3-3,0-4.5c0.4-3.5,1.3-6.9,2.5-10.1C818.9,410.9,821.2,415.4,823.1,420.1z"/>
	<path class="st85" d="M823,443.4c-0.5,0.7-1.2,1.3-1.9,1.8c-4.8-1.8-9.3-4.2-13.5-7.1c3.2-0.6,6.7-0.8,8.1-1
		c1.5-0.4,3.1-0.4,4.7-0.2c1.6,0.3,2.9,1.4,3.4,3C824,441.1,823.7,442.4,823,443.4z"/>
</g>
<path class="st9" d="M791.7,643.1v0.3l-6.5,59.1c-0.3,2.8-2.5,4.8-5.2,4.8h-26.8c-2.6,0-4.9-2.1-5.2-4.8l-6.5-59.1v-0.3
	c-0.3-3,1.7-5.7,4.6-6.1c0.2,0,0.4,0,0.6,0h39.8c2.9,0,5.2,2.4,5.2,5.4C791.7,642.6,791.7,642.9,791.7,643.1z"/>
<path class="st15" d="M791.7,643.1v0.3h-50.2v-0.3c-0.3-3,1.7-5.7,4.6-6.1c0.2,0,0.4,0,0.6,0h39.8c2.9,0,5.2,2.4,5.2,5.4
	C791.7,642.6,791.7,642.9,791.7,643.1z"/>
<polygon class="st86" points="192.8,463.8 187.8,494.6 153.7,704 145.5,704 172.3,494.6 176.3,463.8 "/>
<polygon class="st86" points="254.2,463.8 249.2,494.6 215.1,704 206.9,704 233.7,494.6 237.7,463.8 "/>
<polygon class="st86" points="540.2,704 532,704 497.9,494.6 492.9,463.8 509.4,463.8 513.4,494.6 "/>
<polygon class="st87" points="176.3,463.8 192.8,463.8 187.8,494.6 172.3,494.6 "/>
<polygon class="st87" points="237.7,463.8 254.2,463.8 249.2,494.6 233.7,494.6 "/>
<polygon class="st87" points="513.4,494.6 497.9,494.6 492.9,463.8 509.4,463.8 "/>
<path class="st14" d="M355.4,427.3L346,311.2c-0.1-1-0.9-1.7-1.8-1.7h-156c-0.5,0-0.9,0.2-1.3,0.6l0,0l0,0l-1.7,1.8l9.7,112.9
	c0,0,0.2,3.9,1.6,5.1c1.4,1.2,104.3,0.8,104.3,0.8h52.3l1.7-1.8l0,0C355.3,428.4,355.5,427.8,355.4,427.3z"/>
<ellipse transform="matrix(0.1905 -0.9817 0.9817 0.1905 -198.6791 583.4451)" class="st88" cx="254.4" cy="412.2" rx="11.5" ry="7.3"/>
<path class="st89" d="M353.6,429.2c0.1,1-0.6,1.9-1.6,2c-0.1,0-0.1,0-0.2,0h-156c-0.9,0-1.7-0.7-1.8-1.7l-4.4-53.9l-5-62.1
	c-0.1-1,0.6-1.9,1.6-2c0.1,0,0.1,0,0.2,0h156c0.9,0,1.7,0.7,1.8,1.7l5.1,62.4L353.6,429.2z"/>
<path class="st90" d="M353.6,429.2c0.1,1-0.6,1.9-1.6,2c-0.1,0-0.1,0-0.2,0h-156c-0.9,0-1.7-0.7-1.8-1.7l-4.4-53.9h159.6
	L353.6,429.2z"/>
<path class="st91" d="M275.1,375.6v55.6h-26.2c-3.8-7.8-9.2-22.4-1.9-31.1C257.3,387.9,275.1,375.6,275.1,375.6z"/>
<path class="st14" d="M270.6,370.6c2.5,0,4.5,2.1,4.5,4.6c0,0.1,0,0.2,0,0.3l-4,73.9l-0.2,3.3h-34.2c-1.8,0-3.2-1.5-3.2-3.3
	c0-0.2,0-0.4,0-0.6l12.1-74.3c0.4-2.2,2.2-3.9,4.4-3.9L270.6,370.6z"/>
<path class="st92" d="M261.8,412.2c-0.6,5.6-3.8,10.3-7.4,11.2c-0.4,0.1-0.9,0.2-1.3,0.2c-4.1,0-6.8-5.1-6.1-11.4
	c0.7-6.3,4.6-11.4,8.7-11.4c0.4,0,0.8,0.1,1.3,0.2C260.4,401.9,262.5,406.6,261.8,412.2z"/>
<path class="st93" d="M261.8,412.2c-0.6,5.6-3.8,10.3-7.4,11.2c-3.4-0.9-5.5-5.6-4.8-11.2c0.6-5.6,3.8-10.3,7.4-11.2
	C260.4,401.9,262.5,406.6,261.8,412.2z"/>
<path class="st94" d="M893.7,280.5c0,0-36.4,75.2-53.9,93.9c-2.6,2.8-4.8,4.3-6.3,4.2c-2.5-0.3-4.8-1.6-6.3-3.7
	c-7.2-8.5-8.8-30-2.3-44.6c2-4.6,5.6-11.4,9.7-18.9l1.7-3l0.6-1.2c11.9-21.5,27.3-46.9,27.3-46.9c14.2-18,22.2-5.8,26.3,6
	C891.8,271,893,275.7,893.7,280.5z"/>
<path class="st94" d="M839.7,374.4c-1.4,6.9-24.8,25.7-32,1c-0.8-2.9-1.3-5.9-1.6-8.9c-2.1-20,1-55.4,3.1-75.1
	c0.3-2.5,0.5-4.7,0.7-6.3c0.2-2.1,1.9-3.7,3.9-3.8c6.2-0.4,18.8-1,19.6,1.7c0.2,0.6,0.6,3.9,1.1,8.8c0.4,4,0.8,9,1.3,14.6
	c0,0.7,0.1,1.3,0.2,2C838.2,334,840.6,370,839.7,374.4z"/>
<g id="XMLID_3_">
	<g>
		<path class="st95" d="M890.3,266.4c1.5,4.6,2.7,9.3,3.4,14.1c0,0-36.4,75.2-53.9,93.9c0.9-4.5-1.6-40.4-3.6-66l0.7-1.2
			c4.1,4.4,13.8,19,28.6-1.8C874.3,292.9,882.6,279.9,890.3,266.4z"/>
		<path class="st96" d="M836.1,308.4c2.1,25.6,4.5,61.5,3.6,66c-1.4,6.9-24.8,25.7-32,1c-0.8-2.9-1.3-5.9-1.6-8.9
			c3,6.3,8.2,14.1,15.8,13.2c2-0.2,3.7-2,5.1-4.9c6.5-13.3,7-50.1,7.4-63.5c0.1-1.9,0.1-3.4,0.2-4.2c0.1-1.3,0.6-1.4,1.3-0.8
			c0,0.2,0,0.3,0,0.5C836,307.4,836.1,307.9,836.1,308.4z"/>
		<linearGradient id="SVGID_38_" gradientUnits="userSpaceOnUse" x1="724.7034" y1="297.0764" x2="1065.719" y2="411.1231">
			<stop  offset="0" style="stop-color:#FFFFFF;stop-opacity:0"/>
			<stop  offset="1" style="stop-color:#3E3C76"/>
		</linearGradient>
		<path class="st97" d="M835.9,306.4c0,0.2,0,0.3,0,0.5C835.9,306.8,835.9,306.6,835.9,306.4c-0.8-0.6-1.2-0.5-1.3,0.8
			c-0.1,0.8-0.1,2.2-0.2,4.2c-0.4,13.4-0.9,50.2-7.4,63.5c-1.4,2.9-3.1,4.6-5.1,4.9c-7.6,0.8-12.8-6.9-15.8-13.2
			c-2.1-20,1-55.4,3.1-75.1c0.3-2.5,0.5-4.7,0.7-6.3c0.2-2.1,1.9-3.7,3.9-3.8c6.2-0.4,18.8-1,19.6,1.7c0.2,0.6,0.6,3.9,1.1,8.8
			C835,295.7,835.5,300.8,835.9,306.4z"/>
	</g>
</g>
<path class="st98" d="M835.5,240.3c0,0-2.8,13.4-2,18.8s-2.4,7.8-2.3,14.3c0.1,3.3,0.1,6.1,0,8c0,2-1.1,3.8-2.9,4.7
	c-3.9,2-8.3,2.2-12.3,0.6c-4.8-1.9-1.3-14.1-1.7-18.7c-0.3-4.6-2.6-2.2-3.7-5.9s-0.5-18,1.9-17.7s15.7,4.7,15.7,4.7
	S828.2,237.8,835.5,240.3z"/>
<path class="st9" d="M834.6,291.8c-3.9,2.1-8.2,3.1-12.6,3c-7.4,0-10.9-1.7-12.7-3.3c0.3-2.5,0.5-4.7,0.7-6.3
	c0.2-2.1,1.9-3.7,3.9-3.8c6.2-0.4,18.8-1,19.6,1.7C833.8,283.6,834.1,286.9,834.6,291.8z"/>
<path class="st99" d="M879.4,690.4c0,0-22.2,11.6-29.6,14.1c-7.4,2.6-8.5,8.6-7.6,10.3c0.8,1.7,55.3,0,58.7,0s-3.3-25.8-3.3-25.8
	L879.4,690.4z"/>
<path class="st100" d="M908.5,535.7c0,0,2.9,31.2,1.7,42.3c-1,9.5-9.3,87.1-11.6,108.3c-0.3,3-2.8,5.3-5.7,5.3H883
	c-2.9,0-5.3-2.2-5.7-5.2c-3-24.3-15-126.2-11.2-153.7c4.4-31.2,34.3-123.1,34.3-123.1c17.5-30,52.2-32.6,57.2,4.9
	c0.1,0.7,0.2,1.5,0.2,2.2C960.6,455.2,908.5,535.7,908.5,535.7z"/>
<path class="st101" d="M908.5,535.7c0,0,2.9,31.2,1.7,42.3c-1,9.5-9.3,87.1-11.6,108.3c-0.3,3-2.8,5.3-5.7,5.3h-0.7
	c15.3-114.1,8.3-159.3,8.3-159.3c37.1-49.1,53.2-115,53.2-115l4.3-0.7C960.6,455.2,908.5,535.7,908.5,535.7z"/>
<path class="st99" d="M1074.1,670.1c0,0,1.2,12.4-4.5,19.9s-17.6,8.5-18.9,13.7c-0.3,1.1-0.4,2.2-0.5,3.3c-0.1,3,2.1,5.5,5,5.6
	c0.2,0,0.4,0,0.5,0c7.5-0.3,21.6-1.3,29-5.2c10.4-5.4,20.1-24.4,20.9-29.6c0.8-5.2-10.4-19.2-10.4-19.2L1074.1,670.1z"/>
<path class="st100" d="M1092.8,663.9c-4.4,5.6-13.3,11.2-16.9,8.5c-5.1-3.8-78.2-97.5-88.4-122c-10.2-24.5-38.8-138.1-38.8-138.1
	s29.2-12.4,47.1-12.2c6,0.1,10.6,1.5,12.6,5.3c8.1,15.1,17.2,121.4,17.2,121.4s8.4,7.5,16.8,23.3s50.8,101.3,52.6,107.3
	C1095.7,659.1,1094.6,661.5,1092.8,663.9z"/>
<path class="st101" d="M1092.8,663.9c-37.8-75.3-75-134.8-75-134.8c-6.3-76.9-16-114.2-22-129c6,0.1,10.6,1.5,12.6,5.3
	c8.1,15.1,17.2,121.4,17.2,121.4s8.4,7.5,16.8,23.3s50.8,101.3,52.6,107.3C1095.7,659.1,1094.6,661.5,1092.8,663.9z"/>
<path class="st94" d="M1007.6,407.9c-2.3,3.4-14.4,6.9-27,9.7c-15.2,3.4-31,5.7-31,5.7l-8.2-12.6l-4.6,12.6c0,0-28.4-4.5-34.8-9.2
	c-6.5-4.7-4.2-27.4-6.5-38.9c-2.2-11.5-10.8-32-21.6-53.8c-2.9-5.8-5.4-11.8-7.5-17.9c-5.5-16-7.5-31.3-3.2-41.5
	c5.9-14,23.7-15.8,23.7-15.8c57.7-8.5,78.5-0.7,91.3,9.1c8,6.1,11,17.3,12.5,32.3c0.9,9.1,1.2,19.7,1.6,31.2c0,0.9,0.1,1.7,0.1,2.6
	C994.4,352.1,1012.6,400.6,1007.6,407.9z"/>
<path class="st102" d="M895.3,241.6c0,0-12.9,4.2-15.1,8.5c-2.2,4.3-2.8,15.5-1.6,32.9l10.1,2.7l-6.9,5.3c0,0,20.9,37.1,36.4,40.5
	c0,0,22.4-29.6,26.2-44.9l-7.5-4.2l12.4-3c0,0,6.4-30.4,3.4-34.6C946.7,236.2,895.3,241.6,895.3,241.6z"/>
<path class="st9" d="M935.5,259c-5.2,13.5-11.1,38.7-14.9,58.5c-1,5.1-1.8,9.8-2.4,13.9c-3.8-4.8-7.3-9.8-10.4-15.1
	c-10.4-17.5-23.6-47.4-12.5-74.7l41.6-2.9C936.9,238.7,942,242,935.5,259z"/>
<path class="st103" d="M880.5,186.5l-4.1-9.7c0,0-13.6-17.1,1.1-29.3c14.6-12.1,15.6,0.6,15.6,0.6s32.2-5.5,32.9,11
	c0,0,21.9-0.7,21.7,19.5c-0.2,20.2-21.8,40.5-21.8,40.5s-2.6-32.8-4.7-38.9s-21.9-7.7-25.5-6.5C891.9,175,882.7,172.2,880.5,186.5z"
	/>
<g id="XMLID_2_">
	<g>
		<path class="st15" d="M930.2,230.1c0,0,7.8,6.2,6.6,10c-1.2,3.8-20.4,28.4-20.4,28.4s-5-9.2-8.1-9.8c0,0-4.8,1.9-8-0.3l-5.9,9
			c0,0-3.2-21.7,2.9-30.3c0,2,0,4.1,0.2,6.1c0.5,4.4,5,13.2,6,13.3c2.9,0.4,20.3-15.6,24.9-21.4
			C929.6,233.7,930.2,231.9,930.2,230.1z"/>
		<path class="st72" d="M930.2,230.1c0,1.8-0.6,3.6-1.7,5c-4.6,5.8-22,21.9-24.9,21.4c-1-0.1-5.5-9-6-13.3c-0.2-2-0.2-4.1-0.2-6.1
			c0,0,0-0.1,0-0.1C901.7,231.1,930.2,230.1,930.2,230.1z"/>
		<path class="st72" d="M929.9,216.7l0.3,13.4c0,0-28.5,1.1-32.7,6.9c0,0,0,0,0,0.1c0-0.2,0-0.4,0-0.6c0-4.5,0.2-9,0.2-9
			s24.9-6,32-23.8L929.9,216.7z"/>
	</g>
</g>
<path class="st98" d="M930,216.7L930,216.7c-0.4,1.9-1,3.7-2,5.3c-4.2,6.8-20,20.2-30.5,14.4c0-4.5,0.2-9,0.2-9s24.9-6,32-23.8
	L930,216.7z"/>
<path class="st72" d="M880.2,176.8c0,0,0.8,32.2,1.4,38.8c0.6,6.6,11.2,15.8,15.6,16.8c4.4,1,9,0.4,12-1.4s18.4-11.4,19.2-15.2
	c0.6-4,1.1-8.1,1.3-12.1c0,0,6.6,1.7,8.7-6.8c2-8.3-6.7-14.6-10-4c-0.2,0.6-0.7,1-1.3,1l0,0c-0.7,0-1.3-0.5-1.5-1.2
	c-0.3-1.3-0.7-3.8-0.6-8.8c0.1-9-2.9-4.3-6-9.6C916,169,880.2,169.8,880.2,176.8z"/>
<path class="st98" d="M934.8,192.2c0.6,0.7,0.9,1.7,0.7,2.6c-0.2,0.9-0.6,1.8-1.1,2.5c-0.3,0.6-0.6,1-1.1,1.4
	c-0.5,0.3-1.1,0.3-1.6-0.1c-0.2-0.4-0.3-1-0.1-1.4c0.2-0.8,0.1-1.7-0.2-2.5c-0.2-0.5-0.2-1.1,0.1-1.6
	C932.1,191.8,933.6,191.1,934.8,192.2z"/>
<polygon class="st24" points="898,262 912.2,262 911.5,271.8 900.4,271.8 "/>
<path class="st24" d="M920.6,317.5c-1,5.1-1.8,9.8-2.4,13.9c-3.8-4.8-7.3-9.8-10.4-15.1c-6.7-27.7-7.4-44.5-7.4-44.5h10.9
	C913.5,284.5,917.6,303.8,920.6,317.5z"/>
<path class="st94" d="M1068.2,308.6c-1,16.5-38.1,77.4-38.1,77.4c-7.5,3.7-17.1-2.3-19.6-7.8c0-0.1-0.1-0.2-0.1-0.3
	c-0.3-0.8-0.5-1.6-0.5-2.4c0.2-6,21.5-57.7,21.5-57.7s-34.2-6.3-53.8-14c-4.5-1.7-8.3-4.9-10.8-9.2c-5.9-10.4-2.4-24.1-2.4-24.1
	c4.7-12,14.8-12.8,14.8-12.8S1069.2,292.2,1068.2,308.6z"/>
<g id="XMLID_1_">
	<g>
		<path class="st104" d="M1040.9,315.1c-11.6,20.2-21.7,41.4-30.3,63.2c0-0.1-0.1-0.2-0.1-0.3c-0.3-0.8-0.5-1.6-0.5-2.4
			c0.2-6,21.5-57.7,21.5-57.7s-21-3.9-39.5-9.2c-0.1-1.7-0.1-3.3-0.2-4.9C1005.4,308,1023.2,312.8,1040.9,315.1z"/>
		<linearGradient id="SVGID_39_" gradientUnits="userSpaceOnUse" x1="919.298" y1="393.2975" x2="1095.317" y2="412.8943">
			<stop  offset="0" style="stop-color:#FFFFFF;stop-opacity:0"/>
			<stop  offset="1" style="stop-color:#3E3C76"/>
		</linearGradient>
		<path class="st105" d="M1008.4,401.4c0.1,1.4,0.1,2.6,0,3.6C1008.5,404,1008.5,402.8,1008.4,401.4z"/>
		<path class="st106" d="M1008.4,401.4c0.1,1.4,0.1,2.6,0,3.6c-0.1,0.6-0.1,1.2-0.3,1.7c-0.1,0.5-0.3,0.9-0.5,1.2
			c-2.3,3.4-14.4,6.9-27,9.7c13.1-19.4,10.9-33,4.3-70.3c-0.1-0.7-0.3-1.4-0.4-2.1c3.1-7.5,5.6-15.9,7.9-23.8
			c0.1,0.8,0.1,1.7,0.2,2.6c0,0.4,0.1,0.9,0.1,1.4c0.2,2.3,0.5,4.6,0.9,7.1c0.1,0.9,0.3,1.7,0.4,2.6c0.1,0.5,0.1,0.9,0.2,1.4
			c0.2,1,0.3,1.9,0.5,2.9c0.8,4.2,1.7,8.5,2.6,12.7c0,0.2,0.1,0.4,0.1,0.5c0.6,2.5,1.1,5,1.7,7.4c0.1,0.4,0.2,0.8,0.3,1.2
			c0.4,1.5,0.7,3,1.1,4.5c0,0,0,0.1,0,0.1c0.2,1,0.5,1.9,0.7,2.9c1.8,7.2,3.5,14,4.7,19.8c0.3,1.2,0.5,2.3,0.7,3.4
			c0.1,0.6,0.2,1.2,0.3,1.8c0.2,0.8,0.3,1.6,0.4,2.4c0.1,0.7,0.2,1.3,0.3,1.9c0.1,0.6,0.2,1.2,0.2,1.8
			C1008.3,400.3,1008.3,400.9,1008.4,401.4C1008.4,401.4,1008.4,401.4,1008.4,401.4z"/>
		<linearGradient id="SVGID_40_" gradientUnits="userSpaceOnUse" x1="921.0667" y1="390.8713" x2="1094.1534" y2="410.1416">
			<stop  offset="0" style="stop-color:#FFFFFF;stop-opacity:0"/>
			<stop  offset="1" style="stop-color:#3E3C76"/>
		</linearGradient>
		<path class="st107" d="M1008.2,399.8c0.1,0.5,0.1,1.1,0.2,1.6C1008.3,400.9,1008.3,400.3,1008.2,399.8z"/>
		<linearGradient id="SVGID_41_" gradientUnits="userSpaceOnUse" x1="927.8602" y1="396.886" x2="1086.4357" y2="414.5407">
			<stop  offset="0" style="stop-color:#FFFFFF;stop-opacity:0"/>
			<stop  offset="1" style="stop-color:#3E3C76"/>
		</linearGradient>
		<path class="st108" d="M1008.4,405c0,0.6-0.1,1.2-0.3,1.7C1008.3,406.2,1008.3,405.6,1008.4,405z"/>
		<linearGradient id="SVGID_42_" gradientUnits="userSpaceOnUse" x1="921.8528" y1="387.4946" x2="1094.1322" y2="406.675">
			<stop  offset="0" style="stop-color:#FFFFFF;stop-opacity:0"/>
			<stop  offset="1" style="stop-color:#3E3C76"/>
		</linearGradient>
		<path class="st109" d="M1008,398c-0.1-0.6-0.2-1.3-0.3-1.9C1007.8,396.8,1007.9,397.4,1008,398z"/>
		<linearGradient id="SVGID_43_" gradientUnits="userSpaceOnUse" x1="922.5159" y1="383.4044" x2="1094.3818" y2="402.5388">
			<stop  offset="0" style="stop-color:#FFFFFF;stop-opacity:0"/>
			<stop  offset="1" style="stop-color:#3E3C76"/>
		</linearGradient>
		<path class="st110" d="M1007.2,393.7c-0.1-0.6-0.2-1.2-0.3-1.8C1007,392.5,1007.1,393.1,1007.2,393.7z"/>
		<linearGradient id="SVGID_44_" gradientUnits="userSpaceOnUse" x1="922.8755" y1="380.9164" x2="1094.5751" y2="400.0323">
			<stop  offset="0" style="stop-color:#FFFFFF;stop-opacity:0"/>
			<stop  offset="1" style="stop-color:#3E3C76"/>
		</linearGradient>
		<path class="st111" d="M1006.9,391.9c-0.2-1.1-0.5-2.2-0.7-3.4C1006.4,389.7,1006.7,390.8,1006.9,391.9z"/>
		<path class="st112" d="M1000.7,365.8c0.2,1,0.5,1.9,0.7,2.9C1001.2,367.7,1001,366.8,1000.7,365.8z"/>
		<path class="st112" d="M1000.7,365.7c-0.4-1.5-0.7-3-1.1-4.5C1000,362.7,1000.3,364.2,1000.7,365.7z"/>
		<path class="st112" d="M997.6,352.5c0.6,2.5,1.2,5,1.7,7.4C998.7,357.5,998.1,355,997.6,352.5z"/>
		<path class="st112" d="M994.8,339.2c0.8,4.2,1.7,8.5,2.6,12.7C996.5,347.7,995.6,343.4,994.8,339.2z"/>
		<path class="st112" d="M994.3,336.3c0.2,1,0.3,1.9,0.5,2.9C994.6,338.3,994.4,337.3,994.3,336.3z"/>
		<path class="st112" d="M994,334.9c0.1,0.5,0.2,0.9,0.2,1.4C994.2,335.9,994.1,335.4,994,334.9z"/>
		<path class="st112" d="M994,334.9c-0.1-0.9-0.3-1.7-0.4-2.6C993.8,333.2,993.9,334.1,994,334.9z"/>
		<linearGradient id="SVGID_45_" gradientUnits="userSpaceOnUse" x1="929.4065" y1="317.5883" x2="1102.5101" y2="336.8605">
			<stop  offset="0" style="stop-color:#FFFFFF;stop-opacity:0"/>
			<stop  offset="1" style="stop-color:#3E3C76"/>
		</linearGradient>
		<path class="st113" d="M992.6,324c0,0.4,0.1,0.9,0.1,1.4C992.7,324.9,992.6,324.4,992.6,324z"/>
		<path class="st102" d="M992.3,318.7c0,0.9,0.1,1.8,0.1,2.7c-2.2,7.9-4.7,16.3-7.9,23.8c-6.7-36.4-15.1-46.4-14.8-46.7h0
			c2.2,2.4,4.9,4.1,7.9,5.2c4.3,1.7,9.2,3.3,14.3,4.8C992.1,311.8,992.2,315.2,992.3,318.7z"/>
		<path class="st104" d="M991.7,303.6c0.1,1.6,0.1,3.2,0.2,4.9c-5.1-1.5-10.1-3.1-14.3-4.8c-3-1.1-5.7-2.9-7.9-5.2v0
			c0.7-0.7,1.4-1.3,2.1-1.9c4.1,1.6,10.4,4,18.2,6.5C990.6,303.3,991.2,303.4,991.7,303.6z"/>
		<path class="st94" d="M990.7,287.5c0.5,5,0.8,10.4,1,16.1c-0.6-0.2-1.2-0.4-1.7-0.6c-7.8-2.6-14.1-4.9-18.2-6.5
			C980.4,288.8,986.5,287,990.7,287.5z"/>
		<path class="st112" d="M984.9,347.3c6.7,37.3,8.8,50.9-4.3,70.3c-15.2,3.3-31,5.7-31,5.7l-8.2-12.6l-4.6,12.6
			c0,0-28.4-4.5-34.8-9.2c-6.5-4.7-4.2-27.4-6.5-38.9c-2.2-11.5-10.8-32-21.6-53.8c-2.9-5.8-5.4-11.8-7.5-17.9
			c4.2,6.4,17.6,27.6,27.2,51.3c11.6,28.5,41.5,18.7,69.7,13.5c9.6-1.8,16.2-11.3,21.2-23.2C984.7,345.9,984.8,346.6,984.9,347.3z"
			/>
		<linearGradient id="SVGID_46_" gradientUnits="userSpaceOnUse" x1="1037.3062" y1="232.9507" x2="877.6054" y2="379.9873">
			<stop  offset="0" style="stop-color:#FFFFFF;stop-opacity:0"/>
			<stop  offset="1" style="stop-color:#3E3C76"/>
		</linearGradient>
		<path class="st114" d="M971.8,296.6c-0.7,0.6-1.4,1.3-2.1,1.9c-1.1-1.2-2.1-2.5-2.9-4C966.8,294.5,968.6,295.3,971.8,296.6z"/>
	</g>
</g>
<path class="st115" d="M829.7,211.2l-1.9,8c-1.6,6.4,2,13,8.1,14.7c0,0,0,0,0,0l13.3,3.4c6,1.5,12.1-2.6,13.6-9.2l1.9-8
	c1.6-6.4-2-13-8.1-14.7l-13.3-3.4C837.2,200.6,831.1,204.7,829.7,211.2z"/>
<path class="st116" d="M829.7,211.2l-1.9,8c-1.6,6.4,2,13,8.1,14.7c0,0,0,0,0,0l1.8,0.4c6.5,1.6,13.1-2.8,14.7-9.9l1.4-6.1
	c1.6-7.1-2.3-14.2-8.8-15.9l-1.8-0.4C837.2,200.6,831.1,204.7,829.7,211.2z"/>
<linearGradient id="SVGID_47_" gradientUnits="userSpaceOnUse" x1="787.4827" y1="402.5677" x2="859.6431" y2="398.2997" gradientTransform="matrix(1 0 0 -1 0 650)">
	<stop  offset="0" style="stop-color:#027373"/>
	<stop  offset="1" style="stop-color:#69C86C"/>
</linearGradient>
<path class="st117" d="M828,232l-8.8,37.8l-3.2-0.8c-1.4-0.3-2.3-1.7-2.1-3.1l3.8-37.1L828,232z"/>
<linearGradient id="SVGID_48_" gradientUnits="userSpaceOnUse" x1="817.2351" y1="400.1691" x2="831.5452" y2="400.1691" gradientTransform="matrix(1 0 0 -1 0 650)">
	<stop  offset="1.000000e-02" style="stop-color:#5DBEA2"/>
	<stop  offset="1" style="stop-color:#69C86C"/>
</linearGradient>
<path class="st118" d="M817.3,269.3l2.9,0.7c1.5,0.4,3-0.6,3.4-2.2c0,0,0,0,0,0l6.5-28l1.6-6.9l-10.2-3.3l-1.1,10.4L817.3,269.3z"/>
<linearGradient id="SVGID_49_" gradientUnits="userSpaceOnUse" x1="812.428" y1="383.9733" x2="831.8433" y2="430.0079" gradientTransform="matrix(1 0 0 -1 0 650)">
	<stop  offset="0" style="stop-color:#FFFFFF;stop-opacity:0"/>
	<stop  offset="1" style="stop-color:#5FBF95"/>
</linearGradient>
<path class="st119" d="M820.3,239.9c0.5-0.2,1.1-0.3,1.6-0.4c2.7-0.4,5.4-0.3,8.1,0.2l1.6-6.9l-10.2-3.3L820.3,239.9z"/>
<path class="st120" d="M773.1,154.7l-20.3,87.8l16.8-1.6l4.8-0.4l62.7-5.9c6.1-0.6,11.2-5.2,12.6-11.4l1.2-5.1
	c0.1-0.5,0.2-1,0.3-1.5c0.8-5.8-1.8-11.6-6.5-14.7l-55.3-36.4l-4.8-3.1L773.1,154.7z"/>
<path class="st121" d="M760.9,207.4l-8.1,35.1l84.4-7.9c6.1-0.6,11.2-5.2,12.6-11.4l1.2-5.1c0.1-0.5,0.2-1,0.3-1.5
	C829.3,215,786.3,211.4,760.9,207.4z"/>
<path class="st9" d="M782.5,217.6c-3.1,8.4-7.5,16.3-12.8,23.4l4.8-0.4c1.1-1.6,2.2-3.2,3.2-4.9c7.6-12.3,12.3-26.2,13.8-40.7
	c0.8-7.3,0.6-14.6-0.4-21.9c-0.4-2.6-0.9-5.1-1.6-7.6l-4.8-3.1c1.7,4.5,2.8,9.2,3.2,14.1C789.3,190.4,787.4,204.5,782.5,217.6z"/>
<linearGradient id="SVGID_50_" gradientUnits="userSpaceOnUse" x1="821.5726" y1="438.6405" x2="916.4566" y2="417.959" gradientTransform="matrix(1 0 0 -1 0 650)">
	<stop  offset="0" style="stop-color:#027373"/>
	<stop  offset="1" style="stop-color:#69C86C"/>
</linearGradient>
<path class="st122" d="M749.9,195.3c-5.6,24.3-4.3,45.4,3,47.2c5.5,1.4,12.9-9,18.6-24.9c3.6-10.3,6.1-21,7.4-31.9
	c1.9-16.8-0.2-29.6-5.7-31C765.9,152.9,755.5,171.1,749.9,195.3z"/>
<path class="st115" d="M760.9,184.3l-6,26l7,3l9.7,4.3c3.6-10.3,6.1-21,7.4-31.9l-8.1-0.6L760.9,184.3z"/>
<path class="st116" d="M761.8,213.4l9.7,4.3c3.6-10.3,6.1-21,7.4-31.9l-8.1-0.6v0.1c2.4,7.6,1.1,16-3.4,22.5
	C765.7,209.8,763.9,211.7,761.8,213.4z"/>
<ellipse transform="matrix(0.2228 -0.9749 0.9749 0.2228 396.6734 892.147)" class="st123" cx="757.9" cy="197.3" rx="13.3" ry="4"/>
<ellipse transform="matrix(0.2228 -0.9749 0.9749 0.2228 395.8572 890.3864)" class="st115" cx="756.3" cy="196.9" rx="8.1" ry="2.4"/>
<path class="st124" d="M823.6,248.5L823.6,248.5c0.7-1.1,0.4-2.6-0.7-3.3c-0.2-0.1-0.3-0.2-0.5-0.3l-10-4c-1.5-0.6-3.2,0-4.1,1.4
	l0,0c-0.7,1.1-0.4,2.6,0.6,3.3c0.2,0.1,0.3,0.2,0.5,0.3l10,4C821.1,250.5,822.8,249.9,823.6,248.5z"/>
<path class="st124" d="M823.5,254.3L823.5,254.3c0.7-1.1,0.4-2.6-0.6-3.3c-0.2-0.1-0.3-0.2-0.5-0.3l-10-4c-1.5-0.6-3.2,0-4,1.4l0,0
	c-0.7,1.1-0.4,2.6,0.7,3.3c0.2,0.1,0.3,0.2,0.5,0.3l10,4C821,256.3,822.7,255.7,823.5,254.3z"/>
<path class="st124" d="M823.4,260.2L823.4,260.2c0.7-1.1,0.4-2.6-0.7-3.3c-0.2-0.1-0.3-0.2-0.5-0.3l-10-4c-1.5-0.6-3.2,0-4.1,1.4
	l0,0c-0.7,1.1-0.4,2.6,0.6,3.3c0.2,0.1,0.3,0.2,0.5,0.3l10,4C820.9,262.2,822.5,261.6,823.4,260.2z"/>
<path class="st124" d="M823.3,266.1L823.3,266.1c0.7-1.1,0.4-2.6-0.6-3.3c-0.2-0.1-0.3-0.2-0.5-0.3l-10-4c-1.5-0.6-3.2,0-4.1,1.4
	l0,0c-0.7,1.1-0.4,2.6,0.7,3.3c0.2,0.1,0.3,0.2,0.5,0.3l10,4C820.7,268.1,822.4,267.5,823.3,266.1z"/>
<path class="st98" d="M895.1,205.5c-1.1,0.3-2.3,0.5-3.5,0.5c-0.5,0-0.8-0.2-0.6-0.8c0.1-0.5,0.3-1,0.6-1.5c0.8-2.2,1.4-4.6,1.5-7
	c0-0.7-1-0.7-1,0c-0.1,1.4-0.3,2.9-0.7,4.2c-0.2,0.7-0.4,1.3-0.6,1.9c-0.2,0.6-0.5,1.2-0.7,1.8c-0.4,0.8,0,1.8,0.7,2.2
	c0.2,0.1,0.4,0.1,0.6,0.2c0.7,0,1.3,0,2-0.2c0.7-0.1,1.4-0.2,2.1-0.4C896.1,206.4,895.7,205.3,895.1,205.5z"/>
<path class="st125" d="M913,215.8c0,0.3,0,0.6,0,0.9c0.1,1.5-0.4,2.9-1.4,3.9c-1.1,0.7-2.4,1-3.6,0.7c-1.2-0.3-2.5-0.3-3.8-0.1
	c-2.4,0.7-3.9,3.5-6.4,3.8c-1,0.1-1.9-0.2-2.7-0.8c-0.6-0.4-1.1-0.9-1.6-1.4c-1.5-1.7-3.5-4.8-3.6-7.5c-0.2-1.5,0.5-3,1.7-3.9
	c1-0.6,2.1-1.1,3.2-1.4c3.2-1.1,6.1-3,8.3-5.6c0.8-1.1,1.8-2.1,2.8-3c1.1-0.9,2.5-1.1,3.8-0.6c0.6,0.3,1.1,0.9,1.4,1.6
	c0.4,0.9,0.7,1.8,0.8,2.8C912.6,208.7,912.9,212.3,913,215.8z"/>
<linearGradient id="SVGID_51_" gradientUnits="userSpaceOnUse" x1="926.0628" y1="506.6808" x2="894.0805" y2="425.4056" gradientTransform="matrix(1 0 0 -1 0 650)">
	<stop  offset="1.000000e-02" style="stop-color:#3D3C53"/>
	<stop  offset="1" style="stop-color:#2E2D40"/>
</linearGradient>
<ellipse class="st126" cx="905.9" cy="194.6" rx="1.3" ry="2.8"/>
<ellipse class="st127" cx="887.3" cy="194.6" rx="1.3" ry="2.8"/>
<path class="st127" d="M888.9,188.3c-0.8-0.3-0.8-0.6-1.6-0.9l-0.6-0.2l-0.3-0.1l-0.1-0.1l-1.2-0.6c-0.5-0.3-1.2,0-1.4,0.5
	c-0.2,0.5-0.1,1.1,0.3,1.4c1.7,0.8,3.4,1.5,5.2,2.2c0.6,0.2,1.1-0.2,1.3-0.8C890.7,189,889.5,188.4,888.9,188.3z"/>
<path class="st127" d="M909.1,183.3c-0.4-0.4-1.1-0.4-1.5,0c-0.4,0.4-0.8,0.7-1.3,1c-0.5,0.4-1,0.7-1.5,1s-1.9,0.6-2.4,0.9
	s-0.1,0.4-0.7,0.7c-0.5,0.2-0.9,0.8-0.7,1.3c0.2,0.6,0.7,0.9,1.3,0.8c2.5-1,4.8-2.4,6.8-4.2C909.5,184.5,909.6,183.8,909.1,183.3
	C909.1,183.3,909.1,183.3,909.1,183.3z"/>
<path class="st9" d="M911.2,202.4l-21.3,12.8c-0.2-1.5,0.5-3,1.7-3.9c1-0.6,2.1-1.1,3.2-1.4c3.2-1.1,6.1-3,8.3-5.6
	c0.8-1.1,1.8-2.1,2.8-3c1.1-0.9,2.5-1.1,3.8-0.6C910.4,201.2,910.9,201.7,911.2,202.4z"/>
<path class="st9" d="M913,216.7c0.1,1.5-0.4,2.9-1.4,3.9c-1.1,0.7-2.4,1-3.6,0.7c-1.2-0.3-2.5-0.3-3.8-0.1c-2.4,0.7-3.9,3.5-6.4,3.8
	c-1,0.1-1.9-0.2-2.7-0.8C899.1,222.5,908.3,218.7,913,216.7z"/>
<path class="st98" d="M910,197.9c0.6-0.6,1.5-0.8,2.3-0.5c0.8,0.3,1.6,0.9,2,1.7c0.4,0.8,0.6,1.6,0.6,2.5c0,0.8-0.2,1.6-0.5,2.4
	c-0.1-0.8-0.2-1.6-0.3-2.3c-0.1-0.7-0.4-1.4-0.7-2c-0.3-0.6-0.8-1.1-1.4-1.4C911.5,197.8,910.7,197.7,910,197.9z"/>
<path class="st98" d="M888.2,216.3c-1.2-1.3-1.1-3.3,0.1-4.5c0.5-0.5,1.2-0.8,2-0.9c-0.8,0.6-1.3,1.5-1.7,2.4
	C888.2,214.2,888.1,215.3,888.2,216.3z"/>
<path class="st98" d="M915.3,216.3c-1,1.1-0.9,2.7-1.4,4.1c-0.2,0.8-0.7,1.4-1.4,1.8c-0.4,0.2-0.7,0.4-1.1,0.5
	c-0.4,0.1-0.8,0.2-1.1,0.4c-0.1,0,0,0.2,0.1,0.2c0.8,0,1.6-0.1,2.3-0.5c0.7-0.4,1.2-1,1.4-1.7c0.6-1.5,0.3-3.3,1.3-4.6
	C915.5,216.4,915.4,216.3,915.3,216.3z"/>
<path class="st98" d="M901,225.6c-0.4,0.1-0.9,0.3-1.3,0.4c-0.4,0.1-0.9,0.2-1.3,0.2c-0.9,0-1.8-0.2-2.7-0.7c-0.1,0-0.1,0-0.1,0.1
	c0,0,0,0.1,0,0.1c0.8,0.5,1.8,0.8,2.8,0.9c0.5,0,1,0,1.4-0.1c0.5-0.1,0.9-0.3,1.3-0.6C901.2,225.7,901.1,225.6,901,225.6z"/>
<path class="st71" d="M747,160c-0.5,0-0.9-0.3-1.1-0.8c-2.4-6-9-10.4-17.7-11.8c-3.5-0.5-7.1-0.8-10.6-0.8
	c-4.2-0.1-8.4-0.5-12.5-1.2c-7.4-1.5-16.1-6.1-18.5-14.8c-0.6-2.5-0.9-5.1-0.9-7.7c0-1.9-0.2-3.8-0.4-5.6c-1.7-10-11-16.2-19.5-18.1
	c-9.4-2-19.5,0-28.4,1.9c-0.7,0.1-1.3-0.4-1.4-1.1c-0.1-0.6,0.3-1.2,0.9-1.4c9.1-1.9,19.4-4,29.3-1.9c9.2,2,19.4,9,21.4,20.1
	c0.3,2,0.5,4,0.5,6c0,2.4,0.2,4.8,0.8,7.1c2.1,7.6,10,11.7,16.6,13.1c4,0.7,8.1,1.1,12.2,1.1c3.6,0.1,7.3,0.4,10.9,0.9
	c4.6,0.7,15.6,3.5,19.6,13.4c0.2,0.6,0,1.4-0.7,1.7C747.3,160,747.2,160,747,160z"/>
<path class="st71" d="M724.1,190.4c-0.2,0-0.5-0.1-0.7-0.2c-7.1-5.2-16.1-5-25.5-4.7c-8.8,0.2-17.8,0.5-25.5-3.9
	c-3.7-2.1-6.7-5.2-9.6-8.1c-2.9-2.9-5.8-5.8-9.2-7.8c-11.4-6.5-25.6-1.4-38,3.8c-0.6,0.3-1.3,0-1.6-0.7c-0.3-0.6,0-1.4,0.7-1.7l0,0
	c12.9-5.5,27.7-10.7,40-3.7c3.7,2.1,6.8,5.2,9.7,8.2c3,3,5.7,5.8,9.1,7.7c7.1,4.1,15.8,3.9,24.2,3.6c9.4-0.3,19.2-0.5,27,5.1
	c0.5,0.4,0.7,1.2,0.3,1.8C724.8,190.2,724.5,190.4,724.1,190.4z"/>
<path class="st71" d="M654.2,228.9c-0.7,0-1.2-0.6-1.2-1.3c0-0.3,0.1-0.5,0.2-0.7c5.9-9,17.6-11.3,26.6-10.4
	c5.4,0.7,10.8,1.8,16,3.4c3.9,1,7.9,2.2,11.9,2.9c6.4,1.1,18.2,1.8,25.8-5.9c0.5-0.5,1.3-0.5,1.7,0c0.5,0.5,0.4,1.3,0,1.8
	c-8.4,8.4-21.1,7.7-27.9,6.5c-4.1-0.7-8.2-1.8-12.1-2.9c-5.1-1.6-10.4-2.7-15.6-3.4c-8.3-0.8-19.1,1.2-24.4,9.3
	C655,228.7,654.6,228.9,654.2,228.9z"/>
<path class="st72" d="M1009.5,379.5c0,0-6.7-10.2-7.9-12.5c-1.1-2.3-4.2,2.3-2.1,5.8s5.7,11.2,5.7,11.2s-9.3,0.3-14.4,0.6
	s-9.1,6.6-11.9,10.3s1.1,4.3,2.8,2.8s4.8-6.3,6.6-6.8c1.8-0.5,5.3-0.2,5.4,1.5c0.1,1.8-9.6,6.5-12.1,9.2c-2.5,2.7,0.1,3.8,2.7,2.2
	l3.1-1.9c-1.6,1.2-3,2.6-4.3,4.1c-1.1,1.6,0.2,3.2,2.2,1.8c1.2-0.8,2.5-1.6,3.8-2.3c0,0-3.3,2.9-4,4.2s0.9,1.3,2.3,1
	c2.1-0.8,4.2-1.7,6.2-2.7c0,0,7.1-4.4,11.6-3.5c4.5,0.9,7.8,0.7,10.5-4.2c2.7-4.8,5.8-10,5.8-10L1009.5,379.5z"/>
<linearGradient id="SVGID_52_" gradientUnits="userSpaceOnUse" x1="1008.8685" y1="268.4366" x2="1030.5326" y2="268.4366" gradientTransform="matrix(1 0 0 -1 0 650)">
	<stop  offset="1.000000e-02" style="stop-color:#FDFE73"/>
	<stop  offset="1" style="stop-color:#EC6E85"/>
</linearGradient>
<path class="st128" d="M1011.9,372l-3.1,9.3c0,0,6.4,10.2,17.3,9.8l4.3-8.7C1030.5,382.4,1019,382.6,1011.9,372z"/>
<path class="st129" d="M941.4,411c-0.1,0-0.2-0.1-0.3-0.2c-8.5-35.9-23.1-78.9-23.2-79.3c-0.1-0.2,0-0.3,0.2-0.4c0,0,0,0,0,0
	c0.1-0.1,0.3,0,0.4,0.2c0,0,0,0,0,0c0.1,0.4,14.7,43.4,23.2,79.4C941.8,410.8,941.7,411,941.4,411C941.5,411,941.5,411,941.4,411
	L941.4,411z"/>
<ellipse transform="matrix(0.9511 -0.3088 0.3088 0.9511 -67.6539 302.477)" class="st130" cx="921.9" cy="365" rx="1.5" ry="3.2"/>
<ellipse transform="matrix(0.9511 -0.3088 0.3088 0.9511 -75.6719 306.2572)" class="st130" cx="929.8" cy="392.2" rx="1.5" ry="3.2"/>
<linearGradient id="SVGID_53_" gradientUnits="userSpaceOnUse" x1="410.0456" y1="181.4118" x2="427.8406" y2="42.5733" gradientTransform="matrix(1 0 0 -1 0 650)">
	<stop  offset="1.000000e-02" style="stop-color:#FDFE73"/>
	<stop  offset="1" style="stop-color:#EC6E85"/>
</linearGradient>
<path class="st131" d="M447.8,554.1c0,0-0.7,4.7-2.5,11.6c-12.9-22.5-22.1-48.1-22.1-48.1l-28.7,39.5c2.2-9.4,3.8-14.9,3.8-14.9
	s24.6-41,27.5-40.6L447.8,554.1z"/>
<polygon class="st86" points="478.8,704 470.6,704 436.5,494.6 431.5,463.8 448,463.8 452,494.6 "/>
<rect x="128.5" y="452.7" class="st89" width="409.4" height="11.1"/>
<rect x="463.1" y="452.7" class="st90" width="74.7" height="11.1"/>
<linearGradient id="SVGID_54_" gradientUnits="userSpaceOnUse" x1="442.2862" y1="286.4081" x2="491.5579" y2="265.9714" gradientTransform="matrix(1 0 0 -1 0 650)">
	<stop  offset="1.000000e-02" style="stop-color:#FDFE73"/>
	<stop  offset="1" style="stop-color:#EC6E85"/>
</linearGradient>
<path class="st132" d="M491.8,365.1c-1.6,2.2-3.3,4.4-5.2,6.3c-7.8-13-51,10-51,10c2.5-4.7,5.5-9.1,8.8-13.2
	C455.3,363.7,482.9,353.5,491.8,365.1z"/>
<linearGradient id="SVGID_55_" gradientUnits="userSpaceOnUse" x1="735.864" y1="221.3157" x2="674.8682" y2="305.0121" gradientTransform="matrix(1 0 0 -1 0 650)">
	<stop  offset="1.000000e-02" style="stop-color:#FDFE73"/>
	<stop  offset="1" style="stop-color:#EC6E85"/>
</linearGradient>
<path class="st133" d="M719.8,412.8c-22.8-13.2-26.6-4.5-38.1-22.6c-1-1.6-2.2-3.5-3.5-5.6c0.7-1.7,11.9,12.1,37.3,18.1
	c2.3-12.8,2.2-25.9-0.3-38.6c0.6,0.8,1.1,1.5,1.6,2.2C726.7,382.3,719.8,412.8,719.8,412.8z"/>
<path class="st134" d="M172.3,702h-48c-6.5,0-11.8-5.5-11.8-12.3v-23.6c0-0.9,0.7-1.6,1.6-1.6c0.9,0,1.6,0.7,1.6,1.6l0,0v23.6
	c0,5,3.9,9,8.6,9.1h48c4.8,0,8.6-4.1,8.6-9.1V426.6c0-6.8,5.3-12.3,11.8-12.3h21.1c0.9-0.1,1.6,0.6,1.7,1.5c0.1,0.9-0.6,1.7-1.4,1.8
	c-0.1,0-0.2,0-0.3,0h-21.1c-4.8,0-8.6,4.1-8.6,9.1v263.2C184.1,696.5,178.8,702,172.3,702z"/>
<polygon class="st87" points="448,463.8 452,494.6 436.5,494.6 431.5,463.8 "/>
</svg>
