<?xml version="1.0" encoding="utf-8"?>
<!-- Generator: Adobe Illustrator 23.0.0, SVG Export Plug-In . SVG Version: 6.00 Build 0)  -->
<svg version="1.1" id="Layer_1" xmlns="http://www.w3.org/2000/svg" xmlns:xlink="http://www.w3.org/1999/xlink" x="0px" y="0px"
	 viewBox="0 0 950.3 718.4" style="enable-background:new 0 0 950.3 718.4;" xml:space="preserve">
<style type="text/css">
	.st0{fill:#F1F1F1;}
	.st1{fill:#FFFFFF;}
	.st2{fill:#89D6AE;}
	.st3{fill:#81C5B3;}
	.st4{fill:url(#SVGID_1_);}
	.st5{fill:#8CCCB6;}
	.st6{fill:#EAECEF;}
	.st7{fill:url(#SVGID_2_);}
	.st8{fill:#59BAA0;}
	.st9{fill:#62607B;}
	.st10{fill:#37374A;}
	.st11{fill:#027373;}
	.st12{fill:#F4AF7D;}
	.st13{fill:url(#SVGID_3_);}
	.st14{fill:url(#SVGID_4_);}
	.st15{fill:url(#SVGID_5_);}
	.st16{fill:url(#SVGID_6_);}
	.st17{fill:url(#SVGID_7_);}
	.st18{fill:#5DBEA2;}
	.st19{fill:#39A08F;}
	.st20{fill:#231F20;}
	.st21{fill:#64C480;}
	.st22{fill:#69687E;}
	.st23{fill:#3D3C53;}
	.st24{fill:url(#SVGID_8_);}
	.st25{fill:#3B3A50;}
	.st26{fill:#39384D;}
	.st27{fill:#D7DBE0;}
	.st28{fill:#5D5C72;}
	.st29{fill:#99DFB3;}
	.st30{fill:#92CFB8;}
	.st31{fill:#9ED7BC;}
	.st32{fill:#92D1B8;}
	.st33{fill:#8CCAB4;}
	.st34{fill:#F3A97E;}
	.st35{fill:#69C86C;}
	.st36{fill:#18867F;}
	.st37{fill:#4DA19C;}
	.st38{fill:#16847E;}
	.st39{fill:#4FA29D;}
	.st40{fill:#50A29D;}
	.st41{fill:#67AEAA;}
	.st42{fill:url(#SVGID_9_);}
	.st43{fill:url(#SVGID_10_);}
	.st44{fill:url(#SVGID_11_);}
	.st45{fill:#15837D;}
	.st46{fill:#4EA19A;}
	.st47{fill:#50A29E;}
	.st48{fill:#5EBF6D;}
	.st49{fill:#F7C87A;}
	.st50{fill:#4CB06E;}
	.st51{fill:#18857E;}
	.st52{fill:url(#SVGID_12_);}
	.st53{fill:#5FC099;}
	.st54{fill:#86CFAC;}
	.st55{fill:url(#SVGID_13_);}
	.st56{fill:#67C774;}
	.st57{font-family:'Roboto-Bold';}
	.st58{font-size:25.8179px;}
	.st59{fill:#64C484;}
	.st60{fill:#61C190;}
	.st61{fill:url(#SVGID_14_);}
	.st62{fill:#63C389;}
	.st63{fill:#89D2A4;}
	.st64{fill:url(#SVGID_15_);}
	.st65{fill:#2A9488;}
	.st66{fill:#F6A59A;}
	.st67{fill:#F7B9B1;}
	.st68{fill:#DC776D;}
	.st69{fill:#F39F7E;}
	.st70{fill:url(#SVGID_16_);}
	.st71{fill:#F5B7B4;}
	.st72{fill:#17847E;}
	.st73{fill:#17857E;}
	.st74{fill:#13817C;}
	.st75{fill:#4FA19D;}
	.st76{fill:#50A19D;}
	.st77{fill:#2E8F8B;}
	.st78{fill:url(#SVGID_17_);}
	.st79{fill:#F19580;}
	.st80{fill:#F8C87A;}
	.st81{fill:#ED7285;}
	.st82{fill:#F2A897;}
	.st83{fill:#F08B82;}
	.st84{fill:#F39F9A;}
	.st85{fill:#F5BD7B;}
	.st86{fill:#65C57D;}
	.st87{fill:#76CCA9;}
	.st88{fill:#92D1B9;}
	.st89{fill:#97DEB2;}
</style>
<path class="st0" d="M946.3,329.3c-7.1,62.2-22.1,124.2-50.1,180.1c-2.8,5.7-5.8,11.3-8.9,16.8c-2,3.6-4.1,7.1-6.2,10.6
	c-37.9,62.7-95.9,115.3-166.3,138.2c-60.1,19.6-125.1,16.7-188.4,13.7l-88.5-4.3l-8.9-0.4l-145.2-7c-30-1.5-66.9,4.4-90.8-15.5
	c-25.4-21-51.7-40.7-75.1-63.9c-16.6-16.4-31.7-34.2-45.1-53.3c-3.1-4.5-6.1-9-8.9-13.6c-4.7-7.5-9-15.3-13-23.2
	C18.5,442.2,15.3,358.7,59.1,300c1.6-2.1,3.2-4.2,4.9-6.2c2.8-3.4,5.8-6.8,8.9-9.9c36.7-37.8,90.2-57.8,142.7-69.6
	c59.5-13.3,121.3-18.6,178-40.6c12.1-4.8,24-10.2,35.5-16.2c3-1.6,6-3.2,8.9-4.8c49.5-27.2,94.1-63.7,142-94.4
	c23.8-15.2,49.4-29.2,76-39.6c2.2-0.9,4.4-1.7,6.6-2.5c8.8-3.3,17.8-6.1,26.8-8.5c2.4-0.6,4.8-1.2,7.2-1.8c14.8-3.5,29.9-5.5,45-5.9
	c2.7-0.1,5.3-0.1,7.9,0c12.8,0.2,25.5,1.8,37.9,4.7c39.4,9.3,73.6,32.6,99.9,63.1c3.1,3.6,6.1,7.2,8.9,11
	c13,17.1,23.7,35.9,31.7,55.9C952.5,195.9,953.8,263.9,946.3,329.3z"/>
<path class="st1" d="M438,152.6v541.3h-8.9V157.4C432.1,155.9,435,154.3,438,152.6z"/>
<path class="st1" d="M72.9,283.8v260.6c-3.1-4.5-6.1-9-8.9-13.6V293.8C66.8,290.3,69.8,287,72.9,283.8z"/>
<path class="st1" d="M896.3,78.8v430.7c-2.8,5.7-5.8,11.3-8.9,16.8V67.8C890.4,71.4,893.4,75,896.3,78.8z"/>
<path class="st2" d="M738.9,631.3c-0.2,2-0.7,4.1-1.4,6c-0.2,0.7-0.5,1.4-0.8,2c-6.2,14.1-22.4,23.7-22.4,23.7l-65.5-1.4l-4.5-0.1
	l-28-0.6h-2.1l-50.8-1.1l-2.9-0.1l-60.9-1.3c-0.4-6.9,0.3-13.8,1.9-20.4c0.2-0.6,0.3-1.3,0.5-1.9c1.3-4.5,3.3-8.8,5.9-12.7
	c2.8-4.1,6.6-7.6,11-10c3.5-1.9,7.3-3.2,11.2-3.9c0.7-0.1,1.3-0.2,2-0.3c4.5-0.5,9.1-0.5,13.7,0c0.7,0.1,1.4,0.2,2.1,0.3
	c2.5,0.4,5.2,0.9,8,1.5c1.1-3.4,2.4-6.7,3.9-10c3-6.6,6.5-12.9,10.7-18.8c2.9-4.1,6.1-8,9.7-11.5c0.5-0.5,1-1,1.5-1.5
	c3.9-3.8,8.3-7.1,13-9.9c6.4-3.7,13.5-6.2,20.9-7.4c2.6-0.4,5.2-0.6,7.8-0.7c1.9-0.1,3.8,0,5.7,0.1c0.7,0,1.3,0.1,2,0.2
	c6,0.7,11.7,2.6,16.9,5.6c4.3,2.5,8.2,5.7,11.6,9.4c1.6,1.8,3.2,3.7,4.6,5.6c0.4,0.5,0.8,1.1,1.2,1.6c1.6,2.4,3.1,4.9,4.5,7.5
	c2.5,4.9,4.7,10,6.4,15.3c0.4,1.2,0.8,2.4,1.1,3.5c0.2,0.7,0.4,1.4,0.6,2.1c1.3,4.8,2.4,9.8,3,14.8c0,0,1.8-1,4.9-2.3
	c5.4-2.4,11.1-4.4,16.8-5.9c3.4-0.9,6.8-1.5,10.2-1.8c0.7-0.1,1.5-0.1,2.2-0.1c6.3-0.2,12.3,1,16.8,4.7c0.5,0.4,1,0.9,1.5,1.4
	c1.4,1.5,2.6,3.3,3.5,5.2c0.3,0.6,0.5,1.1,0.7,1.7C738.9,623.5,739.4,627.4,738.9,631.3z"/>
<g>
	<path class="st3" d="M563.3,659.8l-2.9-0.1c-3.9-3.7-7.5-7.8-10.8-12c-1.8-2.4-3.6-4.9-5.3-7.4c-14.3,2.7-29,1.9-42.9-2.3
		c0.2-0.6,0.3-1.3,0.5-1.9c13.4,4.1,27.5,4.9,41.2,2.4c-5.7-9-10.1-18.8-13.1-29c0.7-0.1,1.3-0.2,2-0.3c1.2,4,2.6,8,4.3,11.9
		c3.8-3.4,6.9-7.4,9.4-11.8c0.7,0.1,1.4,0.2,2.1,0.3c-2.7,5.1-6.3,9.7-10.7,13.5c0.9,2,1.8,4,2.8,5.8
		C545.9,640.4,553.8,650.9,563.3,659.8z"/>
	<path class="st3" d="M677.8,602.2c-17.8,13.5-36.5,25.6-56.2,36.1c-1.6,7.6-3.4,15.1-5.4,22.6h-2.1c0.6-2,1.1-4,1.6-6.1
		c2.7-10.7,5-21.6,6.9-32.5c-4.8-3.2-9.4-6.8-13.7-10.7c-12.5-11.4-22.4-25.4-29-41c0.5-0.5,1-1,1.5-1.5c0.8,2.1,1.8,4.1,2.7,6.1
		c8.8,18.1,22.1,33.5,38.7,44.8c0.9-5.5,1.8-11,2.5-16.5c2.2-17.2,3.4-34.4,3.5-51.7v-0.6c0.7,0,1.3,0.1,2,0.2c0,2.4,0,4.8-0.1,7.2
		c-0.3,12.1-1.1,24.1-2.4,36.1c4.1-2.4,8.2-4.9,12.2-7.4c7.9-4.9,15.7-10,23.4-15.2c0.4,0.5,0.8,1.1,1.2,1.6
		c-12.1,8.2-24.4,16-37,23.5c-0.5,4.5-1.1,8.9-1.7,13.4c-1.2,8.4-2.7,16.8-4.4,25.1c5.8-3.2,11.6-6.5,17.3-9.9
		c13-7.9,25.7-16.5,37.8-25.7C677.5,600.9,677.7,601.6,677.8,602.2z"/>
	<path class="st3" d="M737.5,637.3c-0.2,0.7-0.5,1.4-0.8,2c-13.1,0.5-26.2-0.7-39-3.4c-9.5,5.7-19.2,11-29.1,16.2
		c-6.5,3.3-13.1,6.6-19.8,9.7l-4.5-0.1c19-8.6,37.4-18.3,55.3-29.1c3.5-2.1,6.9-4.2,10.3-6.4c0,0,0,0,0-0.1c-0.3-6.5,0.7-12.9,3-19
		c0.7-0.1,1.5-0.1,2.2-0.1c-2.2,5.7-3.3,11.9-3.2,18c6.8-4.3,13.4-8.7,20-13.3c0.5,0.4,1,0.9,1.5,1.4c-3,2.1-6,4.1-9,6.2
		c-7.9,5.3-15.9,10.3-24,15.2c4.8,1,9.6,1.7,14.4,2.2C722.3,637.4,729.9,637.6,737.5,637.3z"/>
</g>
<linearGradient id="SVGID_1_" gradientUnits="userSpaceOnUse" x1="732.4351" y1="379.4" x2="732.4351" y2="-62.91" gradientTransform="matrix(1 0 0 -1 0 720)">
	<stop  offset="0" style="stop-color:#FFFFFF;stop-opacity:0"/>
	<stop  offset="1" style="stop-color:#19857E"/>
</linearGradient>
<path class="st4" d="M738.9,631.3c-2.9,1.3-6.2,1.4-9.2,0.3c-1.1-0.3-2.2-1-3-1.9c-0.8-0.9-1.1-2.1-0.8-3.3c0.6-1.2,1.6-2.2,2.8-2.7
	c2.7-1.4,5.4-2.7,8.2-3.8c0.1,0,0.3-0.1,0.4-0.2C738.9,623.5,739.4,627.4,738.9,631.3z"/>
<g>
	<path class="st5" d="M585.9,605.3c-0.6,3.5-2.4,7-5.5,8.7c-3.1,1.5-6.7,1.4-9.7-0.2c-3-1.6-5.5-3.9-7.4-6.7
		c-1.4-1.9-2.6-3.9-3.6-6.1c3-6.6,6.5-12.9,10.7-18.8c0.4,0.1,0.8,0.3,1.3,0.4c4.6,1.7,8.5,4.8,11.2,8.8
		C585.6,595.6,586.6,600.5,585.9,605.3z"/>
	<path class="st5" d="M613.3,574.5c-1.7,2.5-4.4,4.8-7.4,4.5s-5.2-3.3-6.6-6.1c-1.4-2.8-2.6-5.7-3.5-8.7c-0.5-1.6-0.8-3.2-1.2-4.7
		c6.4-3.7,13.5-6.2,20.9-7.4c0.5,1,0.8,2,1.1,3C618.5,561.7,617.2,568.8,613.3,574.5z"/>
	<path class="st5" d="M659.6,566.6c-0.9,1.6-2.1,3.2-3.5,4.5c-1.7,1.7-4,2.7-6.4,2.8c-2.5,0.1-4.7-1.3-5.8-3.5c-1-2.4-0.1-5.1,1-7.5
		c0.9-2,1.9-3.9,3.1-5.7C652.3,559.7,656.2,562.8,659.6,566.6z"/>
	<path class="st5" d="M676.2,596.6c-3.1,3-7,5.1-11.3,5.8c-3,0.5-6.8,0-8.2-2.7c-0.8-1.6-0.8-3.4-0.1-5.1c0.7-1.6,1.7-3,2.9-4.3
		c2.4-2.7,5.1-5.2,8-7.4c0.7-0.5,1.4-1.1,2.3-1.7C672.3,586.3,674.5,591.4,676.2,596.6z"/>
	<path class="st5" d="M702.6,608.8c0,0.5-0.1,1-0.1,1.4c-0.6,7.6-4.6,14.5-10.8,18.8c-1.5,1-3.1,1.7-4.9,2c-1.8,0.3-3.6-0.4-4.9-1.7
		c-1-1.3-1.4-3-1.1-4.7c0.3-1.6,0.9-3.2,1.8-4.6c1-1.9,2-3.7,3.2-5.5C691.2,612.2,696.8,610.2,702.6,608.8z"/>
	<path class="st5" d="M527.4,628.8c-1.5,1.8-4.3,1.9-6.6,1.4c-4.9-0.9-9.4-3.3-12.9-6.8c2.8-4.1,6.6-7.6,11-10
		c2.7,1.9,5.1,4.2,7.1,6.8c1,1.2,1.8,2.6,2.3,4.1C528.7,625.8,528.3,627.5,527.4,628.8z"/>
</g>
<path class="st1" d="M750.7,72.9l-72.9,108.9l-6-3.9l-21.6-14.1l59.5-90.8l-47.2-56.7c8.8-3.3,17.8-6.1,26.8-8.5
	c2.4-0.6,4.8-1.2,7.2-1.8L750.7,72.9z"/>
<path class="st6" d="M742.1,72.9l-70.2,105l-2.6,3.9l-27.6-18.1l59.5-90.8L656,18.7c2.2-0.9,4.4-1.7,6.6-2.5
	c8.8-3.3,17.8-6.1,26.8-8.5L742.1,72.9z"/>
<linearGradient id="SVGID_2_" gradientUnits="userSpaceOnUse" x1="365.69" y1="595.6621" x2="713.8" y2="592.5421" gradientTransform="matrix(1 0 0 -1 0 720)">
	<stop  offset="0" style="stop-color:#FFFFFF;stop-opacity:0"/>
	<stop  offset="1" style="stop-color:#EAECEF"/>
</linearGradient>
<polygon class="st7" points="742.1,72.9 669.2,181.8 641.6,163.8 701.1,72.9 "/>
<path class="st8" d="M765,100.8c-10.2,24.6-28.5,45.9-50.4,62.9c-1.2,1-3,1-4.2,0c-1.1-0.9-1.2-2.5-0.2-3.6c0.1-0.1,0.1-0.2,0.2-0.2
	c11.8-9.1,22.5-19.6,31.6-31.3c15.5-20.2,25.5-44,24.9-68.8c-0.5-21.8-8.8-43.7-25.4-59.7c2.7-0.1,5.3-0.1,7.9,0
	c7.3,8,13.1,17.4,17.1,27.5C775.9,51.2,774.7,77.4,765,100.8z"/>
<path class="st9" d="M383.4,137.1h436.6c2.3,0,4.2,1.9,4.2,4.2v317.1c0,2.3-1.9,4.2-4.2,4.2H383.4c-2.3,0-4.2-1.9-4.2-4.2V141.4
	C379.2,139,381.1,137.1,383.4,137.1z"/>
<rect x="386.2" y="144.1" class="st10" width="431.1" height="311.6"/>
<path class="st1" d="M636.2,321.3c-2.8,0-5-2.2-5-5v-21.2c-0.3-18-15.2-32.4-33.2-32.1c-17.6,0.3-31.8,14.5-32.1,32.1v21.2
	c0,2.8-2.2,5-5,5s-5-2.2-5-5v-21.2c0.4-23.6,19.8-42.4,43.3-42c23.1,0.4,41.7,19,42,42v21.2C641.2,319.1,639,321.3,636.2,321.3z"/>
<path class="st11" d="M558.9,313.1h91.5c2.8,0,5,2.3,5,5v34.7c0,23.2-18.8,42-42,42h-17.6c-23.2,0-42-18.8-42-42v-34.7
	C553.8,315.4,556.1,313.1,558.9,313.1C558.9,313.1,558.9,313.1,558.9,313.1z"/>
<path class="st12" d="M405.8,157.1h60.8c2.6,0,4.8,2.1,4.8,4.8l0,0c0,2.6-2.1,4.8-4.8,4.8h-60.8c-2.6,0-4.8-2.1-4.8-4.8l0,0
	C401.1,159.2,403.2,157.1,405.8,157.1z"/>
<path class="st12" d="M405.8,175.7h45.3c2.6,0,4.8,2.1,4.8,4.8l0,0c0,2.6-2.1,4.8-4.8,4.8h-45.3c-2.6,0-4.8-2.1-4.8-4.8l0,0
	C401.1,177.8,403.2,175.7,405.8,175.7z"/>
<path class="st12" d="M405.8,194.4h36.8c2.6,0,4.8,2.1,4.8,4.8l0,0c0,2.6-2.1,4.8-4.8,4.8h-36.8c-2.6,0-4.8-2.1-4.8-4.8l0,0
	C401.1,196.5,403.2,194.4,405.8,194.4z"/>
<path class="st1" d="M504.4,238.1c-10.3,0-18.6-8.3-18.6-18.6c0-10.3,8.3-18.6,18.6-18.6h180.6c10.3,0,18.6,8.3,18.6,18.6
	c0,10.3-8.3,18.6-18.6,18.6c0,0,0,0,0,0H504.4z"/>
<path class="st6" d="M504.4,203.9h180.6c8.6,0,15.6,7,15.6,15.6v0c0,8.6-7,15.6-15.6,15.6H504.4c-8.6,0-15.6-7-15.6-15.6v0
	C488.8,210.9,495.7,203.9,504.4,203.9z"/>
<linearGradient id="SVGID_3_" gradientUnits="userSpaceOnUse" x1="523.275" y1="627.9" x2="523.275" y2="582.63" gradientTransform="matrix(1 0 0 -1 0 720)">
	<stop  offset="0" style="stop-color:#027373"/>
	<stop  offset="1" style="stop-color:#5DBEA2"/>
</linearGradient>
<path class="st13" d="M523.3,208.5L523.3,208.5c1,0,1.9,0.9,1.9,1.9v18.1c0,1-0.8,1.9-1.9,1.9h0c-1,0-1.9-0.9-1.9-1.9v-18.1
	C521.4,209.4,522.2,208.5,523.3,208.5z"/>
<linearGradient id="SVGID_4_" gradientUnits="userSpaceOnUse" x1="558.955" y1="627.9" x2="558.955" y2="582.63" gradientTransform="matrix(1 0 0 -1 0 720)">
	<stop  offset="0" style="stop-color:#027373"/>
	<stop  offset="1" style="stop-color:#5DBEA2"/>
</linearGradient>
<path class="st14" d="M559,208.5L559,208.5c1,0,1.9,0.9,1.9,1.9v18.1c0,1-0.8,1.9-1.9,1.9h0c-1,0-1.9-0.9-1.9-1.9v-18.1
	C557.1,209.4,557.9,208.5,559,208.5z"/>
<linearGradient id="SVGID_5_" gradientUnits="userSpaceOnUse" x1="594.625" y1="627.9" x2="594.625" y2="582.63" gradientTransform="matrix(1 0 0 -1 0 720)">
	<stop  offset="0" style="stop-color:#027373"/>
	<stop  offset="1" style="stop-color:#5DBEA2"/>
</linearGradient>
<path class="st15" d="M594.6,208.5L594.6,208.5c1,0,1.9,0.9,1.9,1.9v18.1c0,1-0.8,1.9-1.9,1.9h0c-1,0-1.9-0.9-1.9-1.9v-18.1
	C592.7,209.4,593.6,208.5,594.6,208.5z"/>
<linearGradient id="SVGID_6_" gradientUnits="userSpaceOnUse" x1="630.295" y1="627.9" x2="630.295" y2="582.63" gradientTransform="matrix(1 0 0 -1 0 720)">
	<stop  offset="0" style="stop-color:#027373"/>
	<stop  offset="1" style="stop-color:#5DBEA2"/>
</linearGradient>
<path class="st16" d="M630.3,208.5L630.3,208.5c1,0,1.9,0.9,1.9,1.9v18.1c0,1-0.8,1.9-1.9,1.9h0c-1,0-1.9-0.9-1.9-1.9v-18.1
	C628.4,209.4,629.2,208.5,630.3,208.5z"/>
<linearGradient id="SVGID_7_" gradientUnits="userSpaceOnUse" x1="665.965" y1="627.9" x2="665.965" y2="582.63" gradientTransform="matrix(1 0 0 -1 0 720)">
	<stop  offset="0" style="stop-color:#027373"/>
	<stop  offset="1" style="stop-color:#5DBEA2"/>
</linearGradient>
<path class="st17" d="M666,208.5L666,208.5c1,0,1.9,0.9,1.9,1.9v18.1c0,1-0.8,1.9-1.9,1.9h0c-1,0-1.9-0.9-1.9-1.9v-18.1
	C664.1,209.4,664.9,208.5,666,208.5z"/>
<g>
	<g>
		<path class="st18" d="M523.3,208.5L523.3,208.5c1,0,1.9,0.9,1.9,1.9v18.1c0,1-0.8,1.9-1.9,1.9h0c-1,0-1.9-0.9-1.9-1.9v-18.1
			C521.4,209.4,522.2,208.5,523.3,208.5z"/>
		<path class="st18" d="M532.1,213.1L532.1,213.1c0.6,0.9,0.4,2-0.4,2.6L517,226.3c-0.9,0.6-2,0.4-2.6-0.4l0,0
			c-0.6-0.9-0.4-2,0.4-2.6l14.7-10.5C530.4,212.1,531.5,212.3,532.1,213.1z"/>
		<path class="st18" d="M531.9,226.2L531.9,226.2c-0.6,0.8-1.8,1-2.7,0.3L515,215.4c-0.8-0.6-1-1.8-0.3-2.7l0,0
			c0.6-0.8,1.8-1,2.7-0.3l14.2,11.1C532.4,224.2,532.5,225.4,531.9,226.2z"/>
	</g>
	<path class="st18" d="M559,208.5L559,208.5c1,0,1.9,0.9,1.9,1.9v18.1c0,1-0.8,1.9-1.9,1.9h0c-1,0-1.9-0.9-1.9-1.9v-18.1
		C557.1,209.4,557.9,208.5,559,208.5z"/>
	<path class="st18" d="M567.8,213.1L567.8,213.1c0.6,0.9,0.4,2-0.4,2.6l-14.7,10.5c-0.9,0.6-2,0.4-2.6-0.4v0c-0.6-0.9-0.4-2,0.4-2.6
		l14.7-10.5C566,212.1,567.2,212.3,567.8,213.1z"/>
	<path class="st18" d="M567.6,226.2L567.6,226.2c-0.6,0.8-1.8,1-2.7,0.3l-14.2-11.1c-0.8-0.6-1-1.8-0.3-2.7v0c0.6-0.8,1.8-1,2.7-0.3
		l14.2,11.1C568.1,224.2,568.2,225.4,567.6,226.2z"/>
	<path class="st18" d="M594.6,208.5L594.6,208.5c1,0,1.9,0.9,1.9,1.9v18.1c0,1-0.8,1.9-1.9,1.9h0c-1,0-1.9-0.9-1.9-1.9v-18.1
		C592.7,209.4,593.6,208.5,594.6,208.5z"/>
	<path class="st18" d="M603.5,213.1L603.5,213.1c0.6,0.9,0.4,2-0.4,2.6l-14.7,10.5c-0.9,0.6-2,0.4-2.6-0.4l0,0
		c-0.6-0.9-0.4-2,0.4-2.6l14.7-10.5C601.7,212.1,602.9,212.3,603.5,213.1z"/>
	<path class="st18" d="M603.2,226.2L603.2,226.2c-0.6,0.8-1.8,1-2.7,0.3l-14.2-11.1c-0.8-0.6-1-1.8-0.3-2.7v0c0.6-0.8,1.8-1,2.7-0.3
		l14.2,11.1C603.7,224.2,603.9,225.4,603.2,226.2z"/>
	<path class="st18" d="M630.3,208.5L630.3,208.5c1,0,1.9,0.9,1.9,1.9v18.1c0,1-0.8,1.9-1.9,1.9h0c-1,0-1.9-0.9-1.9-1.9v-18.1
		C628.4,209.4,629.2,208.5,630.3,208.5z"/>
	<path class="st18" d="M639.2,213.1L639.2,213.1c0.6,0.9,0.4,2-0.4,2.6L624,226.3c-0.9,0.6-2,0.4-2.6-0.4v0c-0.6-0.9-0.4-2,0.4-2.6
		l14.7-10.5C637.4,212.1,638.6,212.3,639.2,213.1z"/>
	<path class="st18" d="M638.9,226.2L638.9,226.2c-0.6,0.8-1.8,1-2.7,0.3L622,215.4c-0.8-0.6-1-1.8-0.3-2.7l0,0
		c0.6-0.8,1.8-1,2.7-0.3l14.2,11.1C639.4,224.2,639.5,225.4,638.9,226.2z"/>
	<path class="st18" d="M666,208.5L666,208.5c1,0,1.9,0.9,1.9,1.9v18.1c0,1-0.8,1.9-1.9,1.9h0c-1,0-1.9-0.9-1.9-1.9v-18.1
		C664.1,209.4,664.9,208.5,666,208.5z"/>
	<path class="st18" d="M674.8,213.1L674.8,213.1c0.6,0.9,0.4,2-0.4,2.6l-14.7,10.5c-0.9,0.6-2,0.4-2.6-0.4v0c-0.6-0.9-0.4-2,0.4-2.6
		l14.7-10.5C673,212.1,674.2,212.2,674.8,213.1z"/>
	<path class="st18" d="M674.6,226.2L674.6,226.2c-0.6,0.8-1.8,1-2.7,0.3l-14.2-11.1c-0.8-0.6-1-1.8-0.3-2.7l0,0
		c0.6-0.8,1.8-1,2.7-0.3l14.2,11.1C675.1,224.2,675.2,225.4,674.6,226.2z"/>
</g>
<path class="st19" d="M549.5,313.1H641c2.8,0,5,2.3,5,5v34.7c0,23.2-18.8,42-42,42h-17.6c-23.2,0-42-18.8-42-42v-34.7
	C544.5,315.4,546.7,313.1,549.5,313.1C549.5,313.1,549.5,313.1,549.5,313.1z"/>
<circle class="st20" cx="595" cy="336.3" r="8.9"/>
<polygon class="st20" points="591.6,342.5 586.1,374.3 603.9,374.3 597.2,342.5 "/>
<path class="st21" d="M725.6,398.9h60.8c2.6,0,4.8,2.1,4.8,4.8l0,0c0,2.6-2.1,4.8-4.8,4.8h-60.8c-2.6,0-4.8-2.1-4.8-4.8l0,0
	C720.9,401,723,398.9,725.6,398.9z"/>
<path class="st21" d="M743.3,416.2h43.8c2.3,0,4.1,1.8,4.1,4.1v1.3c0,2.3-1.8,4.1-4.1,4.1h-43.8c-2.3,0-4.1-1.8-4.1-4.1v-1.3
	C739.2,418.1,741.1,416.2,743.3,416.2z"/>
<rect x="700.5" y="264.8" class="st21" width="77.6" height="6.1"/>
<rect x="700.5" y="281.6" class="st21" width="32.2" height="6.1"/>
<rect x="700.5" y="298.4" class="st21" width="72.4" height="6.1"/>
<ellipse class="st22" cx="447.1" cy="684.4" rx="447.1" ry="34"/>
<path class="st0" d="M63.6,546.2h66.7l0,0v0.3c0,3.2-2.6,5.9-5.9,5.9h-55c-3.2,0-5.9-2.6-5.9-5.9L63.6,546.2L63.6,546.2L63.6,546.2z
	"/>
<rect x="93.7" y="552.5" class="st0" width="9.4" height="94.7"/>
<path class="st0" d="M93.3,552.3h10c1.5,0,2.6,1.2,2.6,2.6v34.2c0,1.5-1.2,2.6-2.6,2.6h-10c-1.5,0-2.6-1.2-2.6-2.6V555
	C90.7,553.5,91.9,552.3,93.3,552.3z"/>
<path class="st0" d="M139.6,666.3L139.6,666.3c-1.8,0-3.3-1.2-3.7-3c-1.4-7.1-7.7-12.3-15-12.3H74.2c-7.3,0-13.6,5.2-15,12.3
	c-0.4,1.8-1.9,3-3.7,3l0,0c-2.1,0-3.8-1.7-3.8-3.8c0-0.3,0-0.5,0.1-0.7c2.2-10.7,11.6-18.3,22.4-18.3h46.7
	c10.9,0,20.3,7.7,22.4,18.3c0.4,2.1-0.9,4.1-3,4.5C140.1,666.3,139.9,666.3,139.6,666.3z"/>
<path class="st0" d="M120.3,666.3L120.3,666.3c-1.9,0-3.6-1.4-3.8-3.3c-0.8-7.4-4-12-6.4-12H84.9c-2.3,0-5.6,4.6-6.4,12
	c-0.2,1.9-1.9,3.4-3.8,3.3l0,0c-2.1,0-3.7-1.7-3.8-3.7c0-0.1,0-0.2,0-0.3c1.1-11,6.7-18.8,13.9-18.8h25.3c7.2,0,12.8,7.8,13.9,18.8
	c0.2,2.1-1.3,3.9-3.4,4.1C120.6,666.3,120.5,666.3,120.3,666.3z"/>
<circle class="st0" cx="119.8" cy="661.4" r="6.2"/>
<circle class="st0" cx="139" cy="661.4" r="6.2"/>
<circle class="st0" cx="74.1" cy="661.4" r="6.2"/>
<circle class="st0" cx="56.2" cy="661.4" r="6.2"/>
<path class="st23" d="M150.8,539.1c0,3.4-2.4,6.4-5.8,7.1c-0.5,0.1-0.9,0.1-1.4,0.1h-11.3c-0.7,0-1.4,0-2.1-0.1H65.6l-6.7-33.9
	l-7.5-38l-12-52.7l1.4-7.8l2-11.6h67.5c5.9,0,11.1,4.9,12.9,11.6c0.3,1.2,0.5,2.4,0.6,3.6l0,0l0,0l3.7,56l2.6,38.8l0.8,12.3
	c0.3,4.1,3.7,7.3,7.8,7.3h5C147.6,531.8,150.8,535.1,150.8,539.1C150.8,539.1,150.8,539.1,150.8,539.1L150.8,539.1z"/>
<linearGradient id="SVGID_8_" gradientUnits="userSpaceOnUse" x1="83.7222" y1="291.3348" x2="121.7022" y2="114.9948" gradientTransform="matrix(1 0 0 -1 0 720)">
	<stop  offset="1.000000e-02" style="stop-color:#3D3C53"/>
	<stop  offset="1" style="stop-color:#2E2D40"/>
</linearGradient>
<path class="st24" d="M150.8,539.1c0,3.4-2.4,6.4-5.8,7.1c-0.5,0.1-0.9,0.1-1.4,0.1h-11.3c-0.7,0-1.4,0-2.1-0.1H65.6l-6.7-33.9H130
	l0.8,12.3c0.3,4.1,3.7,7.3,7.8,7.3h5C147.6,531.8,150.8,535.1,150.8,539.1C150.8,539.1,150.8,539.1,150.8,539.1L150.8,539.1z"/>
<path class="st25" d="M123.2,413.8H40.7l2-11.6h67.5C116.1,402.3,121.4,407.2,123.2,413.8z"/>
<path class="st26" d="M150.8,539.1c0,4-3.2,7.2-7.2,7.2H64.8c-6.4,0-12.2-4-14.5-10c-0.6-1.4-0.9-2.9-1-4.4l-4.8-72.4
	c-0.9-12-4.6-23.7-10.8-34c-1.4-2.5-2.3-5.2-2.4-8.1c-0.5-7.5,3.6-13.8,9.5-15c0.7-0.1,1.3-0.2,2-0.2c6.9,0,12.9,6.8,13.5,15.1l0,0
	l0,0l7.1,107.2c0.3,4.1,3.7,7.3,7.8,7.3h72.5c4,0,7.2,3.2,7.2,7.2C150.8,539,150.8,539,150.8,539.1L150.8,539.1z"/>
<path class="st0" d="M367,531.9v103.8c0,18.7-15.1,33.9-33.9,33.9c0,0,0,0,0,0H50.5c-18.7,0-33.9-15.2-33.9-33.9c0,0,0,0,0,0V531.9
	c0-18.7,15.1-33.9,33.9-33.9c0,0,0,0,0,0h282.6C351.8,498,367,513.1,367,531.9C367,531.8,367,531.9,367,531.9z"/>
<path class="st1" d="M367,531.9v103.8c0,18.7-15.1,33.9-33.9,33.9c0,0,0,0,0,0h-221c-18.7,0-33.9-15.2-33.9-33.9c0,0,0,0,0,0V531.9
	c0-18.7,15.1-33.9,33.9-33.9c0,0,0,0,0,0h221C351.8,498,367,513.1,367,531.9C367,531.9,367,531.9,367,531.9z"/>
<path class="st27" d="M360,531.9v103.8c0,14.8-12,26.9-26.9,26.9h-221c-14.8,0-26.8-12-26.9-26.9V531.9c0-14.8,12-26.9,26.9-26.9
	h221C348,505,360,517,360,531.9z"/>
<path class="st27" d="M305.7,531.9v103.8c0,14.8-12,26.9-26.9,26.9H112.1c-14.8,0-26.8-12-26.9-26.9V531.9c0-14.8,12-26.9,26.9-26.9
	h166.7C293.7,505,305.7,517,305.7,531.9z"/>
<rect x="16.6" y="491.5" class="st1" width="350.4" height="6.5"/>
<ellipse class="st28" cx="262.4" cy="693.9" rx="133" ry="12.3"/>
<path class="st29" d="M364.2,534.2c-7.1-2.9-14.8-4.2-22.5-3.8c-3.6,0.2-6,1.1-7.4,2.6c-1.8,1.8-2.1,4.7-1.4,8.5
	c0.8,4.3,2.9,9.9,5.7,16.8c5.8,14-9.9,28-27.7,31.5c-5.2,1.1-10.6,1.1-15.9,0c-19.9-4.3-22.8-0.2-30.8,10.3c-1.1,1.4-2.3,3-3.6,4.7
	c-11.2,13.8-20.7,12.5-38.3-12c-0.9-1.3-1.9-2.6-2.8-3.8c-15.8-22.1-24.6-34.1-42.8-8.3c-0.7,1-1.4,2-2.1,2.9
	c-18.3,23-33.9,4.8-33.9,4.8l3-21.8c-5.3-19.5-23.3-10.1-23.3-10.1l13.5,66.1c-24-18.4-49.9-57.3-49.9-57.3
	c3.4-150.5,54.6-251.5,83.4-296.7c11.4-17.9,19.3-27.1,19.3-27.1c2.7-0.4,5.3-0.7,7.8-0.9h0.4c23.7-2.5,42.2-1.5,56.7,2.6
	c5.4,1.4,10.5,3.5,15.4,6.2c26,14.2,34.1,42.5,38.8,78.1c1.7,13,3,27,4.5,41.7C318.9,450.3,364.2,534.2,364.2,534.2z"/>
<path class="st30" d="M364.2,534.2c-7.1-2.9-14.8-4.2-22.5-3.8c-3.6,0.2-6,1.1-7.4,2.6L237,251.7c24.5,23.6,47.5,48.8,68.8,75.4
	c1.7,13,3,27,4.5,41.7C318.9,450.3,364.2,534.2,364.2,534.2z"/>
<path class="st31" d="M120.4,556.4l13.5,66.1c-24-18.4-49.9-57.4-49.9-57.4C88.8,355,186.8,241.3,186.8,241.3
	c2.7-0.4,5.3-0.7,7.8-0.9c-17.8,19.3-51.6,48.1-71.1,141.6C102.9,480.8,120.4,556.4,120.4,556.4z"/>
<path class="st32" d="M194.9,240.3c-0.5,12.7-1.7,25.3-3.8,37.9c-10.1,64-9.6,217.2-16.6,305.3c-18.3,23-33.9,4.8-33.9,4.8l3-21.8
	c13.4-82.5,22.1-260.1,23.8-298.1c11.4-17.9,19.3-27.1,19.3-27.1c2.7-0.4,5.3-0.7,7.8-0.9L194.9,240.3z"/>
<path class="st33" d="M264.2,600.1c-1.1,1.4-2.3,3-3.6,4.7c-11.2,13.8-20.7,12.5-38.3-12c-0.9-1.3-1.9-2.6-2.8-3.8
	c7.6-80.6,26.6-283.3,32.1-346.1c5.4,1.4,10.5,3.5,15.4,6.2c0.1,4.3,0.2,8.9,0.3,13.8C268,331,265.2,539.4,264.2,600.1z"/>
<path class="st34" d="M417.9,302.7c3-2.1,5.6-4.7,7.5-7.8c3.6-5.5,3.5-6.4,9.5-7.9s9.4-2.9,10.7-2.1s0.6,4-3.7,4.9s-6.9,2.5-6.9,3.1
	s11.7,1.3,15.9,1.6s5.6,2.9,1.7,6.7s-7.6,5.3-10,8.6s-9.3,4.9-16.5,7S426.2,311.5,417.9,302.7z"/>
<path class="st35" d="M276.3,189.3c-0.5,0.2-1,0.3-1.6,0.3l-5.6-26.8l-5.2-25c0-0.4,0.2-0.7,0.6-0.7c0,0,0,0,0.1,0h0.1
	c0.4,0,0.7,0.2,0.8,0.6l5.2,24.8L276.3,189.3z"/>
<path class="st36" d="M358.4,340.5c-1.9,15.7-21.8,22.8-21.8,22.8s-23.8-23.7-27.8-40c-3.7-15-21.9-40.2-24.7-56.3
	c-0.7-3.9-0.3-8,1.3-11.7c4-9.4,14.4-14.3,21.1-9.3c0,0,13.5,12.4,24.9,40c0,0,7.9,10.1,9.7,26.6c0.3,2.7,2.2,4.9,4.8,5.6l0.2,0
	c5.5,1.5,7.5,5.1,10.1,11.8c0.9,2.1,1.6,4.4,2.1,6.7C358.5,337.9,358.6,339.2,358.4,340.5z"/>
<path class="st37" d="M358.4,340.5c-1.9,15.7-21.8,22.8-21.8,22.8s-23.8-23.7-27.8-40c-3.7-15-21.9-40.2-24.7-56.3
	c-0.7-3.9-0.3-8,1.3-11.7c7.5,12.3,26.5,42.4,28.6,56.1c2.7,17.1,10.3,26.6,19.7,37.7c8.5,9.9,16.8,3.3,24.6-12.3
	C358.5,338,358.6,339.2,358.4,340.5z"/>
<path class="st38" d="M320.8,315.5c-2.3,4.8-3.8,9.9-4.4,15.2c-0.1,0.8-0.1,1.5-0.2,2.3l-3.4,48h-83.3c0,0,1.8-17.9-6.2-40.4
	c-2.8-7.9-6.5-15.5-11-22.5c-5.9-9.1-12.1-19.1-17.3-28.9c-10.3-19.2-16.9-37.3-9.9-46c0.2-0.3,0.5-0.6,0.8-0.9
	c0.3-0.3,0.6-0.6,0.9-0.8c0.5-0.4,1-0.7,1.5-1l0.3-0.2c0.5-0.3,1-0.5,1.5-0.7c0.5-0.2,1.1-0.4,1.6-0.6c1.3-0.4,2.6-0.7,4-0.9
	l5.1-0.7l1.7-0.2l1.7-0.2l6-0.8c4.8-0.6,8.6-1,11.6-1.4l2.1-0.2l2-0.2c0.4-0.1,0.7-0.1,1.1-0.3c1-0.3,2-0.8,2.7-1.6
	c1.3-1.3,2-3,2-4.8c0-0.3,0-0.7-0.1-1l-0.1-0.4l-1-7.5l-1.3-9.7l-2-16.2c0,0,34.1,17.4,38.8,17.9c5.7,0.6,6.8,6.4,6.8,6.4l0.9,11.6
	l0.3,3.7c0.2,1.3,0.7,2.5,1.4,3.5c0.7,1,1.7,1.9,2.9,2.5l0,0c0.5,0.3,1,0.5,1.5,0.6l0.6,0.2l0.7,0.2c3,0.6,6.1,1,9.2,1.2
	c2.1,0.2,4.2,0.4,6.2,0.8c2,0.3,3.9,0.8,5.7,1.6c0.4,0.1,0.7,0.3,1.1,0.5c0.2,0.1,0.4,0.2,0.6,0.4c1,0.6,1.9,1.5,2.6,2.4
	c2.4,3.2,4.4,6.7,5.8,10.3l0,0l0.5,1.3l0.5,1.3l0.5,1.4c0.2,0.4,0.3,0.8,0.5,1.3c0.4,0.9,0.7,1.8,1,2.8c0.1,0.3,0.2,0.6,0.3,0.9
	c0.2,0.6,0.4,1.3,0.6,1.9l0.6,1.7c0.2,0.5,0.3,1,0.5,1.5s0.3,0.9,0.4,1.4c0.3,1,0.6,2,0.9,3l0.5,1.6c0.4,1.5,0.8,3,1.2,4.4
	c0.2,0.7,0.4,1.4,0.5,2.1c0.1,0.3,0.1,0.5,0.2,0.8c0.1,0.4,0.2,0.9,0.3,1.3c1,4,1.8,7.6,2.3,10.5l0.3,1.6c0.1,0.5,0.1,1,0.2,1.4
	c0.1,0.6,0.1,1.1,0.2,1.6C324.9,305.5,322.9,311.2,320.8,315.5z"/>
<g id="XMLID_1_">
	<g>
		<path class="st39" d="M324.4,300c0.5,5.4-1.5,11.1-3.6,15.4c-2.3,4.8-3.8,9.9-4.4,15.2c-8.8-7-21.5-14-37.1-14
			c-21.8,0-36.3,2.3-51.1,18.2c-4.6-10.6-9.8-19.4-13.5-27c-8.5-17.4,4.1-22.5,4.1-22.5l-8.7-12.8c3.1-1,6.8-1.5,11.1-1.6
			c35.3-0.2,83,6.1,83,6.1l16.9,6.4c1.3,5,2.4,10,3.1,15.1C324.3,299,324.4,299.6,324.4,300z"/>
		<path class="st40" d="M238.3,380.9h-8.7c0,0,1.8-18-6.2-40.5c1.6-2.1,3.2-3.9,4.9-5.7C233.6,347.3,238.1,362.4,238.3,380.9z"/>
		<path class="st41" d="M228.2,334.8c-1.6,1.7-3.2,3.6-4.9,5.7c-2.3-6.4-5.3-13.1-9.4-19.8c-0.1-0.1-0.2-0.3-0.2-0.4
			c-0.5-0.8-0.9-1.5-1.4-2.3c-2.2-3.4-4.4-7-6.7-10.6c-0.7-1.1-1.3-2.2-2-3.3c-2.3-3.8-4.5-7.5-6.6-11.3c-0.3-0.5-0.6-1.1-0.9-1.6
			c-0.4-0.7-0.8-1.4-1.1-2.1c1.5-6.8,5.5-13.7,15.1-16.7l8.7,12.8c0,0-12.6,5.1-4.1,22.5C218.4,315.4,223.6,324.2,228.2,334.8z"/>
		<path class="st39" d="M223.3,340.5C223.3,340.5,223.3,340.5,223.3,340.5c-2.5-6.9-5.6-13.5-9.4-19.8
			C218,327.4,221.1,334.1,223.3,340.5z"/>
		<path class="st39" d="M213.7,320.2c-0.5-0.8-0.9-1.5-1.4-2.3C212.8,318.7,213.3,319.5,213.7,320.2z"/>
		<linearGradient id="SVGID_9_" gradientUnits="userSpaceOnUse" x1="486.37" y1="264.68" x2="37.2871" y2="264.68">
			<stop  offset="0" style="stop-color:#FFFFFF;stop-opacity:0"/>
			<stop  offset="1" style="stop-color:#19857E"/>
		</linearGradient>
		<path class="st42" d="M188.2,240.3l21.9,32.2c-9.6,3-13.6,9.9-15.1,16.7c-10.3-19.2-16.9-37.3-9.9-46.1c0.5-0.6,1.1-1.2,1.7-1.7
			C187.2,240.9,187.7,240.6,188.2,240.3z"/>
		<linearGradient id="SVGID_10_" gradientUnits="userSpaceOnUse" x1="486.37" y1="305.705" x2="37.2871" y2="305.705">
			<stop  offset="0" style="stop-color:#FFFFFF;stop-opacity:0"/>
			<stop  offset="1" style="stop-color:#19857E"/>
		</linearGradient>
		<path class="st43" d="M203.6,304.1c0.7,1.1,1.3,2.2,2,3.3C204.9,306.3,204.3,305.2,203.6,304.1z"/>
		<linearGradient id="SVGID_11_" gradientUnits="userSpaceOnUse" x1="486.37" y1="291.95" x2="37.2871" y2="291.95">
			<stop  offset="0" style="stop-color:#FFFFFF;stop-opacity:0"/>
			<stop  offset="1" style="stop-color:#19857E"/>
		</linearGradient>
		<path class="st44" d="M196.1,291.1c0.3,0.5,0.6,1.1,0.9,1.6C196.7,292.2,196.4,291.7,196.1,291.1z"/>
	</g>
</g>
<path class="st45" d="M324.3,298.5c-1.3,4.6-3.6,8.8-7.6,11.4c-13.6,8.6-21.6-2.3-33.6-2.6s-31.1,7.6-44.8-1.6
	c-12.7-8.5-43.6-43.4-53.1-62.7c0.2-0.3,0.5-0.6,0.8-0.9c0.3-0.3,0.6-0.6,0.9-0.8c0.5-0.4,1-0.7,1.5-1l0.3-0.2
	c0.5-0.3,1-0.5,1.5-0.7c0.5-0.2,1.1-0.4,1.6-0.6c1.3-0.4,2.6-0.7,4-0.9l5.1-0.7l1.7-0.2l1.7-0.2l6-0.8c4.8-0.6,8.6-1,11.6-1.4
	l2.1-0.2l2-0.2c0.4,0,0.8-0.1,1.1-0.2c1-0.3,2-0.8,2.7-1.6c1.3-1.3,2-3,2-4.8c0-0.3,0-0.7-0.1-1l-0.1-0.4l-1-7.5l-1.3-9.7l-2-16.2
	c0,0,34.1,17.4,38.8,17.9c5.7,0.6,6.8,6.4,6.8,6.4l0.9,11.6l0.3,3.7c0.2,1.3,0.7,2.5,1.4,3.5c0.7,1,1.7,1.9,2.9,2.5l0,0
	c0.5,0.3,1,0.5,1.5,0.6l0.6,0.2l0.7,0.2c3,0.6,6.1,1,9.2,1.2c2.1,0.2,4.2,0.4,6.2,0.8c2,0.3,3.9,0.8,5.7,1.6
	c0.4,0.1,0.7,0.3,1.1,0.5c0.2,0.1,0.4,0.2,0.6,0.4c1,0.6,1.9,1.5,2.6,2.4c2.4,3.2,4.4,6.7,5.8,10.3l0,0l0.5,1.3l0.5,1.3l0.5,1.4
	c0.2,0.4,0.3,0.8,0.5,1.3c0.4,0.9,0.7,1.8,1,2.8c0.1,0.3,0.2,0.6,0.3,0.9c0.2,0.6,0.4,1.3,0.6,1.9l0.6,1.7c0.2,0.5,0.3,1,0.5,1.5
	s0.3,0.9,0.4,1.4c0.3,1,0.6,2,0.9,3l0.5,1.6c0.4,1.5,0.8,3,1.2,4.4c0.2,0.7,0.4,1.4,0.5,2.1c0.1,0.3,0.1,0.5,0.2,0.8
	c0.1,0.4,0.2,0.9,0.3,1.3c1,4,1.8,7.6,2.3,10.5l0.3,1.6C324.1,297.6,324.2,298,324.3,298.5z"/>
<path class="st46" d="M280.6,255.9c0,0,5.5,0.7,12.9-4.7c3.8-2.8,8.2-4.6,12.9-5.1c-0.7-0.9-1.6-1.7-2.6-2.4
	c-0.2-0.1-0.4-0.2-0.6-0.4l-1-0.5c-1.8-0.8-3.8-1.3-5.7-1.6L280.6,255.9z"/>
<path class="st47" d="M273.8,228.6c-1.2-1.8-2.5-3.6-3.6-3.7c-2.2-0.1-5.6,5.9-12,4.4s-12.6-7.3-18.3-9.1c-3.5-1.2-6.5,2.8-8.3,6
	l-1-7.5l-1.3-9.6l-2-16.2c0,0,34.1,17.4,38.8,17.9c5.7,0.6,6.8,6.4,6.8,6.4L273.8,228.6z"/>
<path class="st48" d="M281.5,255.8c11.2-3.8,17.1-10.9,20.6-12.9c-6.6-2.9-16.3-2-22.3-3.9c-0.5-0.2-1-0.4-1.5-0.6l0,0l0.3,15.3
	c0,1.2,1.1,2.2,2.3,2.2C281.2,255.9,281.3,255.8,281.5,255.8z"/>
<ellipse transform="matrix(0.19 -0.9818 0.9818 0.19 -16.6279 479.5854)" class="st49" cx="282.3" cy="249.9" rx="1.9" ry="2.3"/>
<path class="st50" d="M306.6,380.9h3.4c-1.3-19.4-0.3-46,0.3-61.9c0.2-5.4,0.4-9.7,0.4-12.3c-0.1-4.4,1.1-8.6,3.3-12.4
	c2.3-3.8,3.6-8.2,3.9-12.6c0.5-6.8-2.6-17.1-5.6-25.3l0,0c-2.7-6.2-5.6-11-8.4-12.7c-0.1,0.4-0.1,0.8,0.1,1.1
	c0.1,0.3,11.4,24.7,10.5,36.3c-0.2,4-1.4,7.9-3.5,11.4c-2.5,4.2-3.8,8.9-3.7,13.8c0,2.6-0.2,6.9-0.4,12.2
	C306.3,335.6,305.3,361.6,306.6,380.9z"/>
<path class="st51" d="M318.6,518.5l-6,1.9L279.2,531l-12.1-21.6l5.7-7.8l-5.9-5.2l0.7-46.2l-21.5,55l0.7,9.1l-7.2,3.9l-2.1,9.5
	l-17.8,12.5l-27.7,40.3l-21.9-12.1c0,0-3-14.7-0.1-19s-0.6-10.2,1.9-12.8s24.4-36.9,26.6-42.6s16.6-84.4,21.7-95.2
	c0.7-1.4,1.3-2.8,1.9-4c0.2-0.4,0.3-0.7,0.5-1c3-6.1,5.3-10.1,6.3-11.9c0,0,0-0.1,0.1-0.1c0.4-0.6,0.6-1,0.6-1h83.3l0.4,1v0.1
	c0.9,2,2.8,6.5,4.8,11.9l0.4,1c1.9,4.9,3.4,9.9,4.6,15.1C325.6,421.8,318.6,518.5,318.6,518.5z"/>
<path class="st40" d="M223.5,537.4L273.8,422l-6.2,28.3l-0.7,46.2l5.9,5.2l-5.7,7.8l12.1,21.6l33.4-10.6
	c-1.1-18.2,0.3-74.4,0.3-74.4l0,0c0,0,0.8-31.2-1-37.8s-10.2-27.3-10.2-27.3h-63.5l-14,32.6l-28,96.1l-10.3,35.8L223.5,537.4z"/>
<path class="st50" d="M310.4,543.5c0-0.2,0.2-15.2-1.1-53.6s0.8-108.3,0.8-109l-3.4,0.1c0.1,0.7-2.1,70.5-0.8,108.9
	s1.1,53.4,1.1,53.5L310.4,543.5z"/>
<linearGradient id="SVGID_12_" gradientUnits="userSpaceOnUse" x1="270.28" y1="265.58" x2="270.28" y2="393.8" gradientTransform="matrix(1 0 0 -1 0 720)">
	<stop  offset="0" style="stop-color:#FFFFFF;stop-opacity:0"/>
	<stop  offset="1" style="stop-color:#19857E"/>
</linearGradient>
<path class="st52" d="M318.5,394.9h-96.4c0.2-0.4,0.3-0.7,0.5-1c3-6.1,5.3-10.1,6.3-11.9h84.4c0.9,2,2.8,6.5,4.8,11.9L318.5,394.9z"
	/>
<path class="st53" d="M266.6,565.1c15.7,36.7,30.8,101.3,30.8,101.3l-5.2,16.4c-1.1,2.4,0.9,5.5,4,5.9l58.7,7.4
	c1.3,0.3,2.6-0.6,2.8-1.9c0.2-0.8-0.1-1.6-0.7-2.2c-0.1-0.1-0.2-0.3-0.3-0.4c-2.3-2.4-5-4.4-8-5.8c-10.6-5.3-33.6-15.7-33.6-15.7
	s-3.2-34.3-1.2-63.5c1.6-23.9,4.3-44.9,7.3-63.2c0.3-1.6,0.5-3.3,0.8-4.8c1.5-9.1,3.1-17.4,4.6-25.1L285.1,526l-8.2,2.5
	c0,0-6.9,13.3-9.8,24.4c-0.5,1.8-0.8,3.6-1.1,5.4C265.7,560.6,265.9,562.9,266.6,565.1z"/>
<path class="st54" d="M266.6,565.1c15.7,36.7,30.8,101.3,30.8,101.3l-5.2,16.4c-1.1,2.4,0.9,5.5,4,5.9l58.7,7.4
	c1.3,0.3,2.6-0.6,2.8-1.9c0.2-0.8-0.1-1.6-0.7-2.2c-0.1-0.1-0.2-0.3-0.3-0.4L296,684c0,0,3.8-10.9,10.4-15.7c0,0-7.3-12-15.6-44.9
	s-14.4-49.6-19-60.1c-3.8-8.5,8.6-29.4,13.3-37.3l-8.2,2.5c0,0-6.9,13.3-9.8,24.4C265.9,557.8,265.4,562.3,266.6,565.1z"/>
<linearGradient id="SVGID_13_" gradientUnits="userSpaceOnUse" x1="325.7545" y1="208.9948" x2="250.4945" y2="144.4548" gradientTransform="matrix(1 0 0 -1 0 720)">
	<stop  offset="1.000000e-02" style="stop-color:#FDFE73"/>
	<stop  offset="1" style="stop-color:#EC6E85"/>
</linearGradient>
<path class="st55" d="M266.1,558.3c10.1-5.8,21.7-11.2,33.8-16.6c9.3-4.2,16.6-4.4,22.2-3.1c1.5-9.1,3.1-17.4,4.6-25.1L285.1,526
	l-8.2,2.5c0,0-6.9,13.3-9.8,24.4C266.7,554.7,266.3,556.5,266.1,558.3z"/>
<path class="st50" d="M196,551.2c0.2-0.6,23.6-56.3,38.3-102.5s17.3-67.4,17.3-67.6l-3.4-0.5c0,0.2-2.5,21.1-17.2,67.1
	s-38,101.7-38.2,102.2L196,551.2z"/>
<g>
	<path class="st56" d="M260.3,304.7c-1.4,0-2.8-0.7-3.6-1.8L239,280.8c-1-1.3-1.3-3-0.7-4.5l7.4-20.6c0.7-1.8,2.4-3.1,4.4-3.1
		c0,0,0,0,0,0h24.6c0,0,0,0,0,0c1.4,0,2.8,0.6,3.7,1.8l17.6,22.1c1,1.3,1.3,3,0.7,4.5l-7.5,20.6c-0.7,1.8-2.4,3.1-4.4,3.1
		c0,0,0,0,0,0H260.3C260.3,304.7,260.3,304.7,260.3,304.7z M250.1,253.6c-1.5,0-2.9,1-3.4,2.4l-7.5,20.6c-0.4,1.2-0.2,2.5,0.6,3.5
		l17.6,22.2c0.7,0.9,1.8,1.4,2.9,1.4h24.6c0,0,0,0,0,0c1.5,0,2.9-1,3.4-2.4l7.5-20.6c0.4-1.2,0.2-2.5-0.6-3.5L277.6,255
		c-0.7-0.9-1.7-1.4-2.9-1.4c0,0,0,0,0,0H250.1C250.2,253.6,250.2,253.6,250.1,253.6z"/>
</g>
<text transform="matrix(1.0776 0 0.2095 0.9778 251.8197 286.0398)" class="st57 st58">PR</text>
<path class="st59" d="M256.3,279.7l1.3,6.3h-4.1l-3.8-17.9h7.7c1.4,0,2.8,0.2,4.1,0.7c1.2,0.5,2.2,1.2,3,2.1
	c0.8,0.9,1.3,1.9,1.6,3.1c0.4,1.5,0,3.1-1.1,4.2c-1.1,1-2.8,1.5-5.2,1.5L256.3,279.7z M255.7,276.7h3.6c0.8,0.1,1.7-0.2,2.3-0.7
	c0.5-0.5,0.7-1.3,0.4-2c-0.2-0.8-0.6-1.6-1.3-2.1c-0.7-0.6-1.6-0.9-2.5-0.8h-3.7L255.7,276.7z"/>
<path class="st59" d="M277.4,279.5h-3.2l1.4,6.6h-4.1l-3.8-17.9h7.3c2-0.1,4,0.4,5.7,1.4c1.4,0.9,2.4,2.3,2.7,4c0.3,1,0.2,2.1-0.2,3
	c-0.5,0.9-1.3,1.6-2.2,2l5.8,7.3v0.2h-4.4L277.4,279.5z M273.5,276.5h3.3c0.8,0.1,1.6-0.2,2.2-0.7c0.5-0.5,0.6-1.3,0.4-2
	c-0.1-0.8-0.6-1.5-1.2-2c-0.8-0.5-1.7-0.8-2.6-0.7h-3.3L273.5,276.5z"/>
<path class="st60" d="M226.2,546.9L226.2,546.9c-0.1,5.9-2.4,11-3,14.3c-0.6,2.5-1.4,5-2.3,7.4c-0.4,1.2-0.9,2.5-1.4,3.9
	c-1.6,4.3-3.6,9.4-5.8,15c-11,27.8-22.8,68-25.1,81.6c0,0,10.5,19.3,16,22.7c2,1.3,3.8,2.8,5.4,4.6c1.9,2.3,2.6,4.4,1.2,5.3
	c-2.4,1.5-13.6,3.5-18.6,2s-30.9-14.1-30.8-17.9s9.9-14.1,9.9-14.1s3.7-54.2-4-100.8c-0.4-2.3,0.1-4.5,0.2-6.4
	c0.1-2.2,0.3-4.2,0.4-5.9c0.1-1.2,0.3-2.2,0.4-3c0.8-3.3,2.2-6.5,4-9.4c11.2-18.8,40.7-42.8,40.7-42.8S226.3,529.6,226.2,546.9z"/>
<path class="st54" d="M211,701.8c-2.4,1.5-13.6,3.5-18.6,2s-30.9-14.1-30.8-17.9s9.9-14.1,9.9-14.1s3.7-54.2-4-100.8
	c-0.4-2.3,0.1-4.5,0.2-6.4c0.1-2.2,0.3-4.2,0.4-5.9c0.1-1.2,0.3-2.2,0.4-3c0.8-3.3,2.2-6.5,4-9.4c1.2,15.7,3.5,47.5,3.8,69.1
	c0.4,29.6,0,59.2,0,59.2s-9.4,8.4-8.7,11.2s21.8,12.8,25.1,14c2.4,0.9,7.3-0.8,17-3.1C211.7,698.8,212.4,700.9,211,701.8z"/>
<linearGradient id="SVGID_14_" gradientUnits="userSpaceOnUse" x1="238.9466" y1="214.3463" x2="168.4766" y2="129.0463" gradientTransform="matrix(1 0 0 -1 0 720)">
	<stop  offset="1.000000e-02" style="stop-color:#FDFE73"/>
	<stop  offset="1" style="stop-color:#EC6E85"/>
</linearGradient>
<path class="st61" d="M226.2,546.9L226.2,546.9c-0.1,5.9-2.4,11-3,14.3c-0.6,2.5-1.4,5-2.3,7.4c-4.3-32.5-11.6-50.3-11.6-50.3
	c-16.9,14.5-34,36.2-41.5,46.2c0.1-2.2,0.3-4.2,0.4-5.9c0.1-1.2,0.3-2.2,0.4-3c3.8-19,44.7-52.2,44.7-52.2S226.3,529.6,226.2,546.9z
	"/>
<path class="st62" d="M423.8,318.8c-14.6,10-63.6,43.1-72.5,46.4c-2.9,1.1-5.8,1.9-8.9,2.4c-4.2,0.8-8.6,1.2-12.9,1.2l7-5.6l0.3-0.2
	c22.1-15.5,16.1-39.6,16.1-39.6c0.1-2.1,2-4,5.3-5.6c12.4-6.3,43.5-9.6,59.6-15.1c5.3-1.8,7.9,3.3,9.1,7.6c0.1,0.3,0.2,0.7,0.2,1
	C427.6,314.2,426.3,317.1,423.8,318.8z"/>
<path class="st63" d="M423.8,318.8c-14.6,10-63.6,43.1-72.5,46.4c-2.9,1.1-5.8,1.9-8.9,2.4c-4.2,0.8-8.6,1.2-12.9,1.2l7-5.6l0.3-0.2
	c5.8-0.6,16.4-2.8,28.6-10.4c16.9-10.6,52.6-34.8,61.7-41.4C427.6,314.2,426.3,317.1,423.8,318.8z"/>
<linearGradient id="SVGID_15_" gradientUnits="userSpaceOnUse" x1="410.4297" y1="395.171" x2="300.0097" y2="362.261" gradientTransform="matrix(1 0 0 -1 0 720)">
	<stop  offset="1.000000e-02" style="stop-color:#FDFE73"/>
	<stop  offset="1" style="stop-color:#EC6E85"/>
</linearGradient>
<path class="st64" d="M359.2,344.5c-3.4,8.9-9.8,16.8-16.7,23.2c-4.2,0.8-8.6,1.2-12.9,1.2l7-5.6c22.4-15.5,16.4-39.8,16.4-39.8
	c0.1-2.1,2-4,5.3-5.6C359.9,322.3,363.2,334,359.2,344.5z"/>
<path class="st11" d="M414,311.3l132.6-88.8c0.3-0.2,0.8-0.2,1.1,0.2s0.2,0.8-0.2,1.1l-129.3,93.5c-1.7,1.1-4,0.6-5.1-1
	C412.1,314.6,412.4,312.5,414,311.3L414,311.3z"/>
<path class="st65" d="M283.3,180.7c0,1.3,0,2.7,0,4.4c-0.1,7.9-0.3,18.9-0.5,21.9c-0.4,4.9-11.7,14.7-15.7,16.1s-9.8,1.8-13.9,0
	s-18.5-10.6-20.8-14.1s-8.3-26.8-7.3-40.4s17.9-23.9,30.3-22.7c10.8,1,22.2,5.3,26.6,22.5c0.1,0.4,0.2,0.7,0.3,1.1
	C283,173.1,283.3,176.9,283.3,180.7z"/>
<path class="st35" d="M233.4,189.3c-0.5,0.2-1,0.3-1.6,0.3l-5.6-26.8l-5.2-25c-0.1-0.4,0.2-0.7,0.7-0.7h0.1c0.4,0,0.7,0.2,0.8,0.6
	l5.2,24.8L233.4,189.3z"/>
<path class="st66" d="M282,190.3c-0.1,6.8-0.6,15.7-1.7,17.3c-1.4,2.2-7.2,9-9.3,9.2s-1-2-7.2-2s-7.9,5.6-10.9,5.3
	s-10.9-5.7-11.2-7.8s-2.5-11.4-3.9-17.4c-0.1-0.3-0.1-0.5-0.2-0.8c-1-5.4,1.5-6.4,1.5-6.4c30.4,5.6,42.4-9.1,42.8-3.3
	C282,185.8,282.1,188,282,190.3z"/>
<path class="st67" d="M282,190.3c-1.9-0.5-4.1,3.4-7,4s-2.2-2.5-6.1-1.6s-4.7,3.8-11.1,3.6s-12.6-4.4-16.5-4
	c-1.4,0.2-2.7,0.8-3.8,1.8c-1-5.4,1.5-6.4,1.5-6.4c30.4,5.6,42.4-9.1,42.8-3.3C282,185.8,282.1,188,282,190.3z"/>
<path class="st68" d="M272.3,198.2c-0.9-3.7-2.2-7.4-3.8-10.9c-0.3-0.6-1.1-0.1-0.9,0.5c1.5,3.2,2.7,6.6,3.5,10.1
	c-1.7,0.2-3.4,0.3-5.1,0.1c-0.6,0-0.6,1,0,1c2,0.1,3.9,0,5.9-0.2C272.2,198.7,272.4,198.4,272.3,198.2z"/>
<path class="st1" d="M252.8,198.5c4.2,4.2,9.9,6.7,15.9,6.9c0,0-3.8,5.3-9.6,3.7S252.8,198.5,252.8,198.5z"/>
<path class="st69" d="M283.3,180.7c0,1.3,0,2.7,0,4.4c-2.2,2.3-4.7,4.4-7.5,6.1c-4,2.3-3.2-0.8-6.8-1c-2.6-0.1-3.5,1.8-6.4,2.9
	c-1.1,0.4-2.2,0.6-3.3,0.6c-0.1,0-0.3,0-0.5,0c-0.8,0-1.6,0-2.4-0.2c-1.8-0.3-3.6-0.6-5.3-1.1c-7.6-1.9-16.8-5.3-16.8-5.3l-4-18.7
	l30.6,4.9l3.9,0.6c0.5,0,1.1,0,1.6,0c1,0,2.1-0.1,3.1-0.4l0.5-0.1c0.9-0.2,1.9-0.5,2.9-0.8c3.5-1,6.9-2.4,9.2-3.4
	C283,173.1,283.3,176.9,283.3,180.7z"/>
<linearGradient id="SVGID_16_" gradientUnits="userSpaceOnUse" x1="158.988" y1="530.5068" x2="202.618" y2="535.9868" gradientTransform="matrix(0.9642 -0.2652 -0.2652 -0.9642 213.2993 735.3834)">
	<stop  offset="0" style="stop-color:#027373"/>
	<stop  offset="1" style="stop-color:#5DBEA2"/>
</linearGradient>
<path class="st70" d="M234.6,175.7c0.6-0.2,1.4,0.6,1.7,1.8c0.3,1.2,0.1,2.3-0.6,2.5c-0.6,0.2-1.4-0.6-1.7-1.8
	C233.7,177,233.9,175.9,234.6,175.7z"/>
<path class="st71" d="M266.4,174.1l-10,19.4c-1.8-0.3-3.6-0.6-5.3-1.1l9.8-19l3.9,0.6C265.3,174.1,265.8,174.1,266.4,174.1z"/>
<path class="st71" d="M272.9,172.8L262.6,193c-1.1,0.4-2.2,0.6-3.3,0.6l10.2-19.9l0.5-0.1C271,173.4,271.9,173.1,272.9,172.8z"/>
<ellipse transform="matrix(0.9861 -0.1659 0.1659 0.9861 -27.7288 40.1899)" class="st72" cx="226.7" cy="186.1" rx="8.4" ry="13.4"/>
<ellipse transform="matrix(0.9861 -0.1659 0.1659 0.9861 -27.7401 39.7182)" class="st73" cx="223.9" cy="185.9" rx="5.5" ry="7.9"/>
<path class="st74" d="M207.9,273.2c0.1,18.2-8.8,33.1-13.9,40c-2.2,3-3.8,6.4-4.8,9.9c-8.7,29.2-29.5,36.9-32.5,28.9
	c-0.7-1.9-1.3-3.8-1.8-5.7c-2.5-10.9-3.3-22.1-2.4-33.2c0.4-4.5,1.5-9,3.3-13.2c1.5-3.5,3.3-6.9,5.4-10.1c2.2-3.4,3.9-7.2,4.8-11.1
	c1.6-7.1,4.3-14,7.9-20.4c6.7-12,14.3-18,14.3-18c9.9-5.5,17.5,4.5,19.3,24.3C207.8,267.3,207.9,270.2,207.9,273.2z"/>
<path class="st46" d="M186.8,241.3c19.5,2.6,47.9,13.1,47.9,13.1c-5.4-6.2-22.4-13.1-33.8-17.2l-5.1,0.7c-1.4,0.2-2.7,0.5-4,0.9
	c-0.6,0.2-1.1,0.4-1.6,0.6c-0.5,0.2-1,0.5-1.5,0.7C187.9,240.4,187.3,240.9,186.8,241.3z"/>
<path class="st75" d="M207.9,273.2c0.1,18.2-8.8,33.1-13.9,40c-2.2,3-3.8,6.4-4.8,9.9c-8.7,29.2-29.5,36.9-32.5,28.9
	c-0.7-1.9-1.3-3.8-1.8-5.7c16.1-2.8,28-16.6,28.4-33c9.7-5.4,17.2-15.3,20.5-25.9c2.1-7.4,3.4-15.1,3.7-22.8
	C207.8,267.3,207.9,270.2,207.9,273.2z"/>
<path class="st76" d="M193,269.2c3,8.9,0.6,18.7-6.1,25.1c-3.3,3.1-7.4,5-11.5,6.6c5.1-3.4,9.3-8.8,12.2-14.1
	c1.5-2.7,2.8-5.6,3.7-8.6C191.8,276.2,193.7,271.3,193,269.2z"/>
<path class="st77" d="M173.9,258.3c-0.3,0.6-0.5,1.2-0.7,1.8c-2.1,6.1-3.3,12.4-3.6,18.9c-0.2,4.4-0.1,9-2.4,12.8s-6.8,6-10.8,8
	l-0.5,0.3c1.5-3.5,3.3-6.9,5.4-10.1c2.2-3.4,3.9-7.2,4.8-11.1C167.7,271.6,170.3,264.7,173.9,258.3z"/>
<path class="st62" d="M163.3,357.9c-1.3,2.3-2.2,3.6-2.2,3.6c-1.9-1.6-3.7-3.3-5.4-5.2C130,329.6,118.5,283,118.5,283
	c1.5,0.6,3.1,1,4.7,1c8.4,0,16.1-8,16.1-8c4.2,8.4,17.1,20.2,25,31.2c2.6,3.3,4.6,7,5.9,10.9C174.5,332.1,167.7,350.2,163.3,357.9z"
	/>
<path class="st63" d="M163.3,357.9c-1.3,2.3-2.2,3.6-2.2,3.6c-29.5-25.5-42.6-78.6-42.6-78.6c1.5,0.6,3.1,1,4.7,1
	c0.6,4.6,2.7,13.1,9.7,28.4C142.2,332.7,151.6,346.9,163.3,357.9z"/>
<linearGradient id="SVGID_17_" gradientUnits="userSpaceOnUse" x1="75.9405" y1="398.4734" x2="244.7405" y2="373.5034" gradientTransform="matrix(1 0 0 -1 0 720)">
	<stop  offset="1.000000e-02" style="stop-color:#FDFE73"/>
	<stop  offset="1" style="stop-color:#EC6E85"/>
</linearGradient>
<path class="st78" d="M163.3,357.9c-1.3,2.3-2.2,3.6-2.2,3.6c-1.9-1.6-3.7-3.3-5.4-5.2c13.2-16.4,10.6-39.6,8.7-49.3
	c2.6,3.3,4.6,7,5.9,10.9C174.5,332.1,167.7,350.2,163.3,357.9z"/>
<path class="st79" d="M139.3,275.9c-3.5,14.4-19.5,11.8-20.8,7.1c-1.2-4.4-4.7-7.3-10.8-11.4l-1.1-0.8c-6.7-4.5-7.2-7.5-8.6-10.9
	c-0.1-0.2-0.2-0.5-0.2-0.7c0-0.3,0-0.4,0-0.4l0,0c0-0.1,0-0.1,0-0.2c0-0.1,0-0.2,0-0.3c0-2.8,2.8-5.4,2.8-5.4c0.2-2.7,2-5,4.6-5.8
	c0.3-1.6,1.4-3,2.9-3.7c0.7-0.4,1.5-0.6,2.3-0.8l0,0c0,0-1.5-17.4-2.8-25.7s4.3-5.2,5.8,0.3s8,28.6,8,28.6c2.3,3.1,4.3,5.9,4.8,5.1
	c1-1.8,1.1-9,2.1-14.2c1-5.2,5.2-5.3,5.4,0s-0.8,14.1,0,17.8C134.3,258.1,139.3,275.9,139.3,275.9z"/>
<path class="st80" d="M121.6,255.2c-3.1,2.1-3.2,3.7-6.7,6.5s-5,9.8-7.2,10s-6.4,0.4-8.1-0.7l-0.2-0.1c-1.4-1.1-1.7-10.3-1.8-12.2
	c0-0.1,0-0.2,0-0.3c0-2.8,2.8-5.4,2.8-5.4c0.2-2.7,2-5,4.6-5.8c0.3-1.6,1.4-3,2.9-3.7c0.7-0.3,1.5-0.6,2.3-0.8l0,0
	c1,2.9,2.3,5.7,4.1,8.2c2.4,3.1,2.4,1.6,5.9,0c0.2-0.1,0.5-0.2,0.7-0.2C123.9,249.8,124.5,253.3,121.6,255.2z"/>
<path class="st81" d="M121.6,255.2c-3.1,2.1-3.2,3.7-6.7,6.5s-5,9.8-7.2,10s-6.4,0.4-8.1-0.7c3.1-2.7,5.9-5.9,8.1-9.4
	c4.4-6.9,5.6-5.9,10.7-9.2c0.9-0.6,1.8-1.2,2.5-1.8C123.9,249.8,124.5,253.3,121.6,255.2z"/>
<path class="st82" d="M114.5,257.9c-1.8,0.9-3.7-0.5-4.6-2c-1.1-1.8-1.4-4-2.3-5.9c-0.3-0.6-1.1-0.1-0.9,0.5c1,2.1,1.3,4.6,2.8,6.5
	c1.3,1.7,3.5,2.7,5.5,1.7C115.6,258.5,115,257.6,114.5,257.9z"/>
<path class="st82" d="M111,263.8c-0.9,0.7-2.1,0.9-3.1,0.4c-1.1-0.6-1.9-1.5-2.3-2.7c-1.1-2.5-1-5.4-2.6-7.7c-0.4-0.5-1.2,0-0.9,0.5
	c1.8,2.6,1.5,6.1,3.2,8.7c0.7,1.1,1.7,2,3,2.3c1.2,0.4,2.6,0.1,3.5-0.8C112.2,264,111.5,263.3,111,263.8z"/>
<path class="st82" d="M106.4,267.7c-0.8,0.4-1.7,0.2-2.2-0.5c-0.6-0.7-1-1.5-1.3-2.4c-0.9-1.9-1.5-3.9-1.9-6c-0.1-0.6-1.1-0.4-1,0.3
	c0.5,2.4,1.2,4.8,2.3,7c0.3,1,1,1.8,1.8,2.4c0.8,0.5,1.9,0.6,2.7,0.1C107.5,268.2,107,267.3,106.4,267.7z"/>
<path class="st83" d="M430.2,314.1c-0.7-0.3-1.1-1-1.2-1.8c0-0.8,0.4-1.5,1-1.9c0.7-0.3,1.5-0.5,2.3-0.4c-0.5-0.7-0.8-1.4-0.9-2.3
	c0-0.8,0.3-1.6,0.9-2.2c0.9-0.7,2.1-1.1,3.3-1.1c-0.6-1.1-0.4-2.5,0.5-3.3c0.5-0.5,1.2-0.8,1.9-0.9c0.7-0.1,1.4-0.1,2.1,0
	c-0.1-1,0.3-2,1.2-2.6c0.8-0.5,1.8-0.8,2.7-0.9c3.1-0.4,6.3-0.3,9.3,0.4c1,0.2,2.1,0.7,2.4,1.7c0.1,0.7-0.1,1.3-0.5,1.8
	c-0.5,0.5-1,0.9-1.6,1.2c0,2.3-1.9,4.2-4.2,4.3c-0.1,0.8-0.4,1.6-1,2.1l-2.3,2.8l-0.2,0.3c-0.3,0.4-0.7,0.8-1.1,1.2
	c-1,0.9-2.2,1.5-3.4,1.9C437.6,315.7,433.8,315.9,430.2,314.1z"/>
<g>
	<path class="st84" d="M452,300.7l-10.9-0.4c-0.6,0-0.6,1,0,1l10.9,0.4C452.6,301.8,452.6,300.8,452,300.7z"/>
	<path class="st84" d="M448.3,305.6c-3.7,0.2-7.5,0.1-11.1-0.4c-0.6-0.1-0.6,0.9,0,1c3.7,0.5,7.4,0.6,11.1,0.4
		C448.9,306.6,448.9,305.6,448.3,305.6z"/>
	<path class="st84" d="M442.6,310.3c-3.1,0.1-6.2,0-9.2-0.4c-0.6-0.1-0.6,0.9,0,1c3.1,0.4,6.1,0.5,9.2,0.4
		C443.2,311.2,443.2,310.2,442.6,310.3z"/>
</g>
<path class="st50" d="M188.6,240.1c0.1,0.2,0.2,0.3,0.3,0.4c0.2,0.2,17.9,17.5,27.4,38.2c0.5,1.2,1.3,2.2,2.2,3.2l14.7,14.5
	c1,1,1.7,2.3,1.9,3.7c0,0,0,0.1,0,0.1c0.1,0.4,9.9,41.4,13.5,80.7h3.4c-3.6-38.8-13.1-79.1-13.6-81.1c-0.4-2.2-1.4-4.2-3-5.7
	l-14.6-14.5c-0.6-0.6-1.1-1.3-1.4-2c-9-19.5-24.6-35.7-27.7-38.8c-0.6,0.2-1.1,0.4-1.6,0.6C189.5,239.6,189,239.8,188.6,240.1z"/>
<path class="st48" d="M190,239.4L190,239.4c11.7,1.1,34.4,10.6,44.6,15.1c0.9,0.5,2,0.1,2.5-0.8c0.3-0.6,0.3-1.3-0.1-1.9L227,234
	c-0.4,0.1-0.7,0.2-1.1,0.2c-5.4,0.6-14.8,1.7-30.3,3.7C193.7,238.2,191.8,238.6,190,239.4z"/>
<ellipse transform="matrix(0.19 -0.9818 0.9818 0.19 -57.2817 426.544)" class="st49" cx="229.8" cy="248" rx="1.9" ry="2.3"/>
<path class="st49" d="M314.5,386.5h-85.4c-1.3,0-2.4-1.1-2.4-2.4v-6.5c0-1.3,1.1-2.4,2.4-2.4h85.4c1.3,0,2.4,1.1,2.4,2.4v6.5
	C316.9,385.5,315.8,386.5,314.5,386.5z"/>
<path class="st85" d="M269.4,392.6h20.2c0.6,0,1.1-0.4,1.3-1l5.2-18c0.4-1.3,0-2.3-0.9-2.3h-31.5c-0.9,0-1.2,1.1-0.9,2.3l5.2,18
	C268.3,392.2,268.8,392.6,269.4,392.6z"/>
<path class="st86" d="M288.6,390.3l4.8-16.6v-0.1h-28v0.1l4.8,16.6H288.6z"/>
<path class="st85" d="M258.2,389.2L258.2,389.2c-1.1,0-1.9-0.9-1.9-1.9V375c0-1.1,0.9-1.9,1.9-1.9l0,0c1.1,0,1.9,0.9,1.9,1.9v12.3
	C260.1,388.4,259.3,389.2,258.2,389.2z"/>
<path class="st85" d="M299.9,389.2L299.9,389.2c-1.1,0-1.9-0.9-1.9-1.9V375c0-1.1,0.9-1.9,1.9-1.9l0,0c1.1,0,1.9,0.9,1.9,1.9v12.3
	C301.8,388.4,300.9,389.2,299.9,389.2z"/>
<path class="st87" d="M770.2,593.4l-38.5,2c0,0-39.7-41.1,1.8-51.5c0,0-5.2-19.3,1.8-34.7c2.1-4.7,5.4-8.8,9.5-11.8
	c2-1.4,4.2-2.6,6.4-3.6c0,0-12.3-24.6,19.9-26.8c9.8-0.7,13.9,2,14.9,6c0.9,3.6-0.7,8.4-3,12.8c-3.4,6.7-8.4,12.7-8.1,12.7
	c2.2,2.5,4.2,5.2,5.8,8.1c2,3.3,3.4,6.9,4.3,10.7c1.4,6,1.1,12.8-3.4,19.3c-1.4,2-3,3.7-4.8,5.3c-1.7,1.5-3.5,2.8-5.4,4
	C771.5,545.8,805.9,560.2,770.2,593.4z"/>
<g>
	<path class="st88" d="M783.2,485.8c-2.1,0.9-4.3,1.5-6.5,1.9c-2.3,0.4-5,0.4-6.5-1.3c-1.2-1.6-1.4-3.8-0.3-5.5c1-1.7,2.5-3.1,4.3-4
		c3.6-2.1,7.5-3.3,11.6-3.7l0.4,0C787,476.6,785.4,481.3,783.2,485.8z"/>
	<path class="st88" d="M750.2,520.5c-1.7,0.9-3.8,1.1-5.6,0.3c-2.1-0.8-3.6-2.7-4.9-4.6c-1.6-2.3-3.1-4.6-4.3-7.1
		c2.1-4.7,5.4-8.8,9.5-11.8c1.1,0.9,2.1,1.9,3,3c2.7,3.1,5.4,6.8,6.1,11C754.5,514.9,753.2,518.8,750.2,520.5z"/>
	<path class="st88" d="M785.2,517.2c-0.3,0.8-0.7,1.5-1.1,2.2c-2.6,4.3-7.2,7-12.2,7.3c-2.6,0.1-5.6-0.9-6.7-3.3
		c-0.7-1.7-0.5-3.7,0.5-5.2c1-1.5,2.3-2.9,3.7-3.9c2.5-2,5.1-3.8,7.8-5.4c0.9-0.5,2.2-1.5,3.5-2.3
		C782.8,509.8,784.3,513.4,785.2,517.2z"/>
</g>
<path class="st89" d="M797,547.5L797,547.5c-1.6,4.1-4.1,7.9-7.2,11.1c1.3,2.7,2.2,5.5,2.9,8.3c1,4.3,1.6,9.7-0.2,14.6
	c-2.5,7.1-9.7,13-26.9,13c-1.3-2.4-2.4-4.9-3.3-7.5c-1.6-4.3-2.3-8.8-2.2-13.3c0.1-6.4,3.8-12.2,9.4-15.1
	c-1.7-6.1-1.1-12.5,1.8-18.1c1.5-2.8,3.5-5.2,6-7.2c0.9-0.8,1.9-1.5,2.9-2.1c7.4-4.8,13.5-3.1,16.4,1.7
	C798.8,536.4,799.2,541.7,797,547.5z"/>
<path class="st89" d="M722.1,597.7c-3.4-1.6-6.4-4-8.7-7c-2.9-4-4.6-8.7-5.2-13.6c-0.4-3.2-0.5-6.4-0.1-9.6c0,0-10.4-8.4-14.1-17
	c-1.8-4.4-1.9-8.8,1.9-12.3c1.8-1.6,3.9-2.8,6.2-3.5c5.5-2,10-1.8,13.6-0.2c3.7,1.7,6.7,4.5,8.8,7.9c5,7.7,6.3,17.5,6.3,17.5
	c1.6,1.4,3,2.7,4.3,4.1c3.2,3.2,5.9,7,7.9,11.1C751.2,592.5,735.7,604,722.1,597.7z"/>
<g>
	<path class="st5" d="M797,547.5L797,547.5c-0.7,0.1-1.4,0.1-2.1,0c-2.1-0.3-3.9-1.8-4.6-3.8c-0.5-2,0.4-4.1,1.5-5.8
		c1.3-2,2.9-3.7,4.8-5.1C798.8,536.4,799.2,541.7,797,547.5z"/>
	<path class="st5" d="M782.3,539.7c-0.7,1.6-2.7,2-4.4,2c-2.2,0-4.5-0.5-6.5-1.4c1.5-2.8,3.5-5.2,6-7.2c0.8,0.4,1.5,0.8,2.2,1.2
		c0.9,0.5,1.7,1.3,2.3,2.2C782.6,537.5,782.7,538.7,782.3,539.7z"/>
	<path class="st5" d="M792.6,581.5c-1.5,0.8-3,1.6-4.6,2.2c-1.3,0.6-2.7,1-4.2,1.2c-2.5,0.5-5-1.2-5.5-3.7c-0.2-1.1,0-2.2,0.5-3.1
		c0.9-1.8,2.2-3.5,3.8-4.7c2.4-2,5-3.8,7.8-5.3c0.7-0.4,1.5-0.8,2.3-1.2C793.8,571.2,794.3,576.6,792.6,581.5z"/>
	<path class="st5" d="M769.6,585.5c-0.9,1.2-2.3,2-3.8,2.1c-1.2,0.1-2.3-0.1-3.4-0.6c-1.6-4.3-2.3-8.8-2.2-13.3
		c1.2,0.8,2.5,1.6,3.8,2.2c1.9,0.9,3.7,2.1,5,3.7C770.4,581.3,770.6,583.6,769.6,585.5z"/>
	<path class="st5" d="M707.8,550.4c-0.4,1.4-2.1,2.1-3.5,2.3c-3.5,0.5-7.2-0.3-10.2-2.2c-1.8-4.4-1.9-8.8,1.9-12.3
		c1.5,0.3,2.9,0.8,4.3,1.5c3.3,1.7,5.9,4.6,7.3,8.1C707.9,548.6,708,549.5,707.8,550.4z"/>
	<path class="st5" d="M724.6,542.4c-1.6,2.9-4.2,5.1-7.2,6.3c-1,0.4-2.2,0.6-3.3,0.5c-1.1-0.1-2.2-0.7-2.8-1.7
		c-0.8-1.4-0.3-3.2,0.3-4.8c1.2-2.9,2.6-5.7,4.3-8.3C719.4,536.2,722.5,539,724.6,542.4z"/>
	<path class="st5" d="M743.1,575.1l-0.3,0.5c-0.7,1.4-1.7,2.5-2.9,3.5c-1.2,0.9-2.8,1.2-4.3,0.7c-1.4-0.6-2.5-1.9-2.9-3.4
		c-0.3-1.5-0.3-3.1,0-4.6c0.4-2.7,1.3-5.3,2.5-7.8C738.4,567.2,741.1,571,743.1,575.1z"/>
	<path class="st5" d="M724.2,584.2c-0.5,1.9-1.8,3.5-3.5,4.5c-2.2,1.4-4.7,2.1-7.3,2.1c-2.9-4-4.6-8.7-5.2-13.6
		c4.2-1.6,9.9-2,13.5,0.9C723.6,579.5,724.5,581.9,724.2,584.2z"/>
</g>
<ellipse class="st28" cx="731.9" cy="679.3" rx="48.8" ry="6.9"/>
<path class="st6" d="M792.6,596.5c0,0.2,0,0.3,0,0.5l-10.4,78.8c-0.4,3-2.9,5.2-5.9,5.2h-50c-3,0-5.5-2.2-5.9-5.2L710,597
	c0-0.2,0-0.3,0-0.5c-0.1-3.3,2.5-6.1,5.8-6.2c0.1,0,0.1,0,0.2,0h70.8C790.1,590.4,792.7,593.1,792.6,596.5
	C792.6,596.4,792.6,596.5,792.6,596.5z"/>
<path class="st1" d="M792.6,596.5h-82.7c-0.1-3.3,2.5-6.1,5.8-6.2c0.1,0,0.1,0,0.2,0h70.8c3.3,0.1,6,2.8,5.9,6.1
	C792.6,596.4,792.6,596.4,792.6,596.5z"/>
</svg>
