<svg xmlns="http://www.w3.org/2000/svg" xmlns:xlink="http://www.w3.org/1999/xlink" viewBox="0 0 950.34 718.44"><defs><style>.cls-1{isolation:isolate;}.cls-2{fill:#f1f1f1;}.cls-3{fill:#fff;}.cls-4{fill:url(#linear-gradient);}.cls-10,.cls-103,.cls-104,.cls-105,.cls-106,.cls-108,.cls-11,.cls-113,.cls-114,.cls-115,.cls-12,.cls-129,.cls-13,.cls-130,.cls-131,.cls-133,.cls-134,.cls-135,.cls-136,.cls-138,.cls-139,.cls-14,.cls-140,.cls-141,.cls-15,.cls-17,.cls-5,.cls-56,.cls-57,.cls-58,.cls-59,.cls-63,.cls-65,.cls-66,.cls-68,.cls-69,.cls-74,.cls-76,.cls-78,.cls-85,.cls-88,.cls-9,.cls-94{mix-blend-mode:multiply;}.cls-6{fill:url(#linear-gradient-2);}.cls-7{fill:url(#linear-gradient-3);}.cls-8{fill:url(#linear-gradient-4);}.cls-9{fill:url(#linear-gradient-5);}.cls-10{fill:url(#linear-gradient-6);}.cls-11{fill:url(#linear-gradient-7);}.cls-12{fill:url(#linear-gradient-8);}.cls-13{fill:url(#linear-gradient-9);}.cls-14{fill:url(#linear-gradient-10);}.cls-15{fill:url(#linear-gradient-11);}.cls-16{fill:#eaecef;}.cls-17{fill:url(#linear-gradient-12);}.cls-18{fill:url(#linear-gradient-13);}.cls-19{fill:#62607b;}.cls-20{fill:#37374a;}.cls-21{fill:url(#linear-gradient-14);}.cls-22{fill:url(#linear-gradient-15);}.cls-23{fill:url(#linear-gradient-16);}.cls-24{fill:url(#linear-gradient-17);}.cls-25{fill:url(#linear-gradient-18);}.cls-26{fill:url(#linear-gradient-20);}.cls-27{fill:url(#linear-gradient-21);}.cls-28{fill:url(#linear-gradient-22);}.cls-29{fill:url(#linear-gradient-24);}.cls-30{fill:url(#linear-gradient-25);}.cls-31{fill:url(#linear-gradient-26);}.cls-32{fill:url(#linear-gradient-28);}.cls-33{fill:url(#linear-gradient-29);}.cls-34{fill:url(#linear-gradient-30);}.cls-35{fill:url(#linear-gradient-32);}.cls-36{fill:url(#linear-gradient-33);}.cls-37{fill:url(#linear-gradient-34);}.cls-38{fill:url(#linear-gradient-36);}.cls-39{fill:url(#linear-gradient-37);}.cls-40{fill:url(#linear-gradient-38);}.cls-41{fill:#231f20;}.cls-42{fill:url(#linear-gradient-39);}.cls-43{fill:url(#linear-gradient-40);}.cls-44{fill:url(#linear-gradient-41);}.cls-45{fill:url(#linear-gradient-42);}.cls-46{fill:url(#linear-gradient-43);}.cls-47{fill:url(#linear-gradient-44);}.cls-48{fill:url(#linear-gradient-45);}.cls-49{fill:url(#linear-gradient-46);}.cls-50{fill:url(#linear-gradient-47);}.cls-51{fill:url(#linear-gradient-48);}.cls-52{fill:#c2c7cc;}.cls-53{fill:#d7dbe0;}.cls-54{fill:url(#linear-gradient-49);}.cls-55{fill:url(#linear-gradient-50);}.cls-56{fill:url(#linear-gradient-51);}.cls-57{fill:url(#linear-gradient-52);}.cls-58{fill:url(#linear-gradient-53);}.cls-59{fill:url(#linear-gradient-54);}.cls-60{fill:url(#linear-gradient-55);}.cls-61{fill:url(#linear-gradient-56);}.cls-62{fill:url(#linear-gradient-57);}.cls-63{fill:url(#linear-gradient-58);}.cls-64{fill:url(#linear-gradient-59);}.cls-65{fill:url(#linear-gradient-60);}.cls-66{fill:url(#linear-gradient-61);}.cls-67{fill:url(#linear-gradient-62);}.cls-68{fill:url(#linear-gradient-63);}.cls-69{fill:url(#linear-gradient-64);}.cls-70{fill:url(#linear-gradient-65);}.cls-71{fill:url(#linear-gradient-66);}.cls-72{fill:url(#linear-gradient-67);}.cls-73{fill:url(#linear-gradient-68);}.cls-74{fill:url(#linear-gradient-69);}.cls-75{fill:url(#linear-gradient-70);}.cls-76{fill:url(#linear-gradient-71);}.cls-77{fill:url(#linear-gradient-72);}.cls-78{fill:url(#linear-gradient-73);}.cls-79{fill:url(#linear-gradient-74);}.cls-80{fill:url(#linear-gradient-75);}.cls-81{fill:none;stroke-miterlimit:10;stroke:url(#linear-gradient-76);}.cls-82{font-size:25.76px;font-family:Roboto-Bold, Roboto;font-weight:700;}.cls-83{fill:url(#linear-gradient-77);}.cls-84{fill:url(#linear-gradient-79);}.cls-85{fill:url(#linear-gradient-80);}.cls-86{fill:url(#linear-gradient-81);}.cls-87{fill:url(#linear-gradient-82);}.cls-88{fill:url(#linear-gradient-83);}.cls-89{fill:url(#linear-gradient-84);}.cls-90{fill:url(#linear-gradient-85);}.cls-91{fill:url(#linear-gradient-86);}.cls-92{fill:url(#linear-gradient-87);}.cls-93{fill:#f6a59a;}.cls-94{fill:url(#linear-gradient-88);}.cls-95{fill:#dd776c;}.cls-96{fill:url(#linear-gradient-89);}.cls-97{fill:url(#linear-gradient-90);}.cls-98{fill:url(#linear-gradient-91);}.cls-99{fill:url(#linear-gradient-92);}.cls-100{fill:url(#linear-gradient-93);}.cls-101{fill:url(#linear-gradient-94);}.cls-102{fill:url(#linear-gradient-95);}.cls-103{fill:url(#linear-gradient-96);}.cls-104{fill:url(#linear-gradient-97);}.cls-105{fill:url(#linear-gradient-98);}.cls-106{fill:url(#linear-gradient-99);}.cls-107{fill:url(#linear-gradient-100);}.cls-108{fill:url(#linear-gradient-101);}.cls-109{fill:url(#linear-gradient-102);}.cls-110{fill:url(#linear-gradient-103);}.cls-111{fill:url(#linear-gradient-104);}.cls-112{fill:url(#linear-gradient-105);}.cls-113{fill:url(#linear-gradient-106);}.cls-114{fill:url(#linear-gradient-107);}.cls-115{fill:url(#linear-gradient-108);}.cls-116{fill:url(#linear-gradient-109);}.cls-117{fill:url(#linear-gradient-110);}.cls-118{fill:url(#linear-gradient-111);}.cls-119{fill:url(#linear-gradient-112);}.cls-120{fill:url(#linear-gradient-113);}.cls-121{fill:url(#linear-gradient-114);}.cls-122{fill:url(#linear-gradient-115);}.cls-123{fill:url(#linear-gradient-116);}.cls-124{fill:url(#linear-gradient-117);}.cls-125{fill:url(#linear-gradient-118);}.cls-126{fill:url(#linear-gradient-119);}.cls-127{fill:url(#linear-gradient-120);}.cls-128{fill:url(#linear-gradient-121);}.cls-129{fill:url(#linear-gradient-122);}.cls-130{fill:url(#linear-gradient-123);}.cls-131{fill:url(#linear-gradient-124);}.cls-132{fill:url(#linear-gradient-125);}.cls-133{fill:url(#linear-gradient-126);}.cls-134{fill:url(#linear-gradient-127);}.cls-135{fill:url(#linear-gradient-128);}.cls-136{fill:url(#linear-gradient-129);}.cls-137{fill:url(#linear-gradient-130);}.cls-138{fill:url(#linear-gradient-131);}.cls-139{fill:url(#linear-gradient-132);}.cls-140{fill:url(#linear-gradient-133);}.cls-141{fill:url(#linear-gradient-134);}.cls-142{fill:url(#linear-gradient-135);}</style><linearGradient id="linear-gradient" x1="619.24" y1="860.59" x2="619.24" y2="273.6" gradientUnits="userSpaceOnUse"><stop offset="0" stop-color="#5dbea2"/><stop offset="1" stop-color="#bff4bd"/></linearGradient><linearGradient id="linear-gradient-2" x1="532.37" y1="419.13" x2="532.37" y2="755.9" gradientUnits="userSpaceOnUse"><stop offset="0" stop-color="#fff" stop-opacity="0"/><stop offset="1" stop-color="#19857e"/></linearGradient><linearGradient id="linear-gradient-3" x1="628.98" y1="419.13" x2="628.98" y2="755.9" xlink:href="#linear-gradient-2"/><linearGradient id="linear-gradient-4" x1="690.86" y1="419.13" x2="690.86" y2="755.9" xlink:href="#linear-gradient-2"/><linearGradient id="linear-gradient-5" x1="572.95" y1="340.6" x2="572.95" y2="782.91" xlink:href="#linear-gradient-2"/><linearGradient id="linear-gradient-6" x1="606.1" y1="340.6" x2="606.1" y2="782.91" xlink:href="#linear-gradient-2"/><linearGradient id="linear-gradient-7" x1="651.51" y1="340.6" x2="651.51" y2="782.91" xlink:href="#linear-gradient-2"/><linearGradient id="linear-gradient-8" x1="666.12" y1="340.6" x2="666.12" y2="782.91" xlink:href="#linear-gradient-2"/><linearGradient id="linear-gradient-9" x1="691.67" y1="340.6" x2="691.67" y2="782.91" xlink:href="#linear-gradient-2"/><linearGradient id="linear-gradient-10" x1="732.45" y1="340.6" x2="732.45" y2="782.91" xlink:href="#linear-gradient-2"/><linearGradient id="linear-gradient-11" x1="518.13" y1="340.6" x2="518.13" y2="782.91" xlink:href="#linear-gradient-2"/><linearGradient id="linear-gradient-12" x1="365.69" y1="124.34" x2="713.8" y2="127.46" gradientUnits="userSpaceOnUse"><stop offset="0" stop-color="#fff" stop-opacity="0"/><stop offset="1" stop-color="#eaecef"/></linearGradient><linearGradient id="linear-gradient-13" x1="709.49" y1="82.27" x2="772.93" y2="82.27" gradientUnits="userSpaceOnUse"><stop offset="0" stop-color="#027373"/><stop offset="1" stop-color="#5dbea2"/></linearGradient><linearGradient id="linear-gradient-14" x1="675.01" y1="360.52" x2="803.91" y2="376.36" xlink:href="#linear-gradient-13"/><linearGradient id="linear-gradient-15" x1="729.55" y1="161.8" x2="192.27" y2="161.8" gradientUnits="userSpaceOnUse"><stop offset="0.01" stop-color="#fdfe73"/><stop offset="1" stop-color="#ec6e85"/></linearGradient><linearGradient id="linear-gradient-16" x1="729.55" y1="180.46" x2="192.27" y2="180.46" xlink:href="#linear-gradient-15"/><linearGradient id="linear-gradient-17" x1="729.55" y1="199.13" x2="192.27" y2="199.13" xlink:href="#linear-gradient-15"/><linearGradient id="linear-gradient-18" x1="523.28" y1="92.1" x2="523.28" y2="137.37" xlink:href="#linear-gradient-13"/><linearGradient id="linear-gradient-20" x1="523.28" y1="92.1" x2="523.28" y2="137.37" gradientTransform="translate(39.99 516.84) rotate(-54.36)" xlink:href="#linear-gradient-13"/><linearGradient id="linear-gradient-21" x1="523.28" y1="92.1" x2="523.28" y2="137.37" gradientTransform="translate(673.04 766.8) rotate(-128.06)" xlink:href="#linear-gradient-13"/><linearGradient id="linear-gradient-22" x1="558.95" y1="92.1" x2="558.95" y2="137.37" xlink:href="#linear-gradient-13"/><linearGradient id="linear-gradient-24" x1="558.95" y1="92.1" x2="558.95" y2="137.37" gradientTransform="translate(54.88 545.84) rotate(-54.36)" xlink:href="#linear-gradient-13"/><linearGradient id="linear-gradient-25" x1="558.95" y1="92.1" x2="558.95" y2="137.37" gradientTransform="translate(730.71 794.89) rotate(-128.06)" xlink:href="#linear-gradient-13"/><linearGradient id="linear-gradient-26" x1="594.63" y1="92.1" x2="594.63" y2="137.37" xlink:href="#linear-gradient-13"/><linearGradient id="linear-gradient-28" x1="594.63" y1="92.1" x2="594.63" y2="137.37" gradientTransform="translate(69.77 574.83) rotate(-54.36)" xlink:href="#linear-gradient-13"/><linearGradient id="linear-gradient-29" x1="594.63" y1="92.1" x2="594.63" y2="137.37" gradientTransform="translate(788.37 822.98) rotate(-128.06)" xlink:href="#linear-gradient-13"/><linearGradient id="linear-gradient-30" x1="630.3" y1="92.1" x2="630.3" y2="137.37" xlink:href="#linear-gradient-13"/><linearGradient id="linear-gradient-32" x1="630.3" y1="92.1" x2="630.3" y2="137.37" gradientTransform="translate(84.65 603.82) rotate(-54.36)" xlink:href="#linear-gradient-13"/><linearGradient id="linear-gradient-33" x1="630.3" y1="92.1" x2="630.3" y2="137.37" gradientTransform="translate(846.03 851.07) rotate(-128.06)" xlink:href="#linear-gradient-13"/><linearGradient id="linear-gradient-34" x1="665.97" y1="92.1" x2="665.97" y2="137.37" xlink:href="#linear-gradient-13"/><linearGradient id="linear-gradient-36" x1="665.97" y1="92.1" x2="665.97" y2="137.37" gradientTransform="translate(99.54 632.81) rotate(-54.36)" xlink:href="#linear-gradient-13"/><linearGradient id="linear-gradient-37" x1="665.97" y1="92.1" x2="665.97" y2="137.37" gradientTransform="translate(903.7 879.16) rotate(-128.06)" xlink:href="#linear-gradient-13"/><linearGradient id="linear-gradient-38" x1="595.27" y1="572.04" x2="595.27" y2="216.59" xlink:href="#linear-gradient-13"/><linearGradient id="linear-gradient-39" x1="720.87" y1="403.63" x2="791.18" y2="403.63" gradientUnits="userSpaceOnUse"><stop offset="0.01" stop-color="#5dbea2"/><stop offset="1" stop-color="#69c86c"/></linearGradient><linearGradient id="linear-gradient-40" x1="739.23" y1="420.98" x2="791.18" y2="420.98" xlink:href="#linear-gradient-39"/><linearGradient id="linear-gradient-41" x1="587.2" y1="267.55" x2="843.37" y2="268.04" xlink:href="#linear-gradient-39"/><linearGradient id="linear-gradient-42" x1="587.17" y1="284.39" x2="843.34" y2="284.88" xlink:href="#linear-gradient-39"/><linearGradient id="linear-gradient-43" x1="587.14" y1="301.14" x2="843.31" y2="301.63" xlink:href="#linear-gradient-39"/><linearGradient id="linear-gradient-44" x1="447.07" y1="412.43" x2="447.07" y2="700.85" gradientUnits="userSpaceOnUse"><stop offset="0.01" stop-color="#3d3c53"/><stop offset="1" stop-color="#6a697f"/></linearGradient><linearGradient id="linear-gradient-45" x1="75.08" y1="469.65" x2="337.78" y2="557.22" gradientUnits="userSpaceOnUse"><stop offset="0.01" stop-color="#3d3c53"/><stop offset="1" stop-color="#2e2d40"/></linearGradient><linearGradient id="linear-gradient-46" x1="83.7" y1="428.67" x2="121.68" y2="605.01" xlink:href="#linear-gradient-45"/><linearGradient id="linear-gradient-47" x1="68.16" y1="363.07" x2="148.93" y2="660.56" xlink:href="#linear-gradient-45"/><linearGradient id="linear-gradient-48" x1="-27.08" y1="474.17" x2="248.42" y2="474.57" xlink:href="#linear-gradient-45"/><linearGradient id="linear-gradient-49" x1="272.09" y1="338.54" x2="258.38" y2="840.76" xlink:href="#linear-gradient-44"/><linearGradient id="linear-gradient-50" x1="245.12" y1="-15.58" x2="218.2" y2="706.92" xlink:href="#linear-gradient"/><linearGradient id="linear-gradient-51" x1="2.1" y1="504.8" x2="583.45" y2="287.02" gradientUnits="userSpaceOnUse"><stop offset="0" stop-color="#fff" stop-opacity="0"/><stop offset="1" stop-color="#027373"/></linearGradient><linearGradient id="linear-gradient-52" x1="-78.35" y1="411.31" x2="376.89" y2="449.09" xlink:href="#linear-gradient-51"/><linearGradient id="linear-gradient-53" x1="-9.1" y1="408.56" x2="410.81" y2="429.49" xlink:href="#linear-gradient-51"/><linearGradient id="linear-gradient-54" x1="263.47" y1="77.04" x2="226.07" y2="971.34" xlink:href="#linear-gradient-51"/><linearGradient id="linear-gradient-55" x1="470.26" y1="313.04" x2="400.98" y2="289.56" xlink:href="#linear-gradient-15"/><linearGradient id="linear-gradient-56" x1="263.93" y1="163.39" x2="276.31" y2="163.39" gradientUnits="userSpaceOnUse"><stop offset="0.01" stop-color="#69c86c"/><stop offset="1" stop-color="#69c86c"/></linearGradient><linearGradient id="linear-gradient-57" x1="-347.98" y1="303.61" x2="2420.67" y2="303.61" xlink:href="#linear-gradient-13"/><linearGradient id="linear-gradient-58" x1="446.68" y1="196.52" x2="228.32" y2="380.56" xlink:href="#linear-gradient-2"/><linearGradient id="linear-gradient-59" x1="-347.98" y1="286.83" x2="2420.67" y2="286.83" xlink:href="#linear-gradient-13"/><linearGradient id="linear-gradient-60" x1="259.76" y1="444.48" x2="259.76" y2="220.62" xlink:href="#linear-gradient-2"/><linearGradient id="linear-gradient-61" x1="486.37" y1="310.6" x2="37.31" y2="310.6" xlink:href="#linear-gradient-2"/><linearGradient id="linear-gradient-62" x1="-347.98" y1="252.93" x2="2420.67" y2="252.93" xlink:href="#linear-gradient-13"/><linearGradient id="linear-gradient-63" x1="293.54" y1="189.29" x2="293.54" y2="321.02" xlink:href="#linear-gradient-2"/><linearGradient id="linear-gradient-64" x1="241.39" y1="282.18" x2="255.92" y2="168.43" xlink:href="#linear-gradient-2"/><linearGradient id="linear-gradient-65" x1="290.27" y1="178.53" x2="290.27" y2="248.9" gradientUnits="userSpaceOnUse"><stop offset="0" stop-color="#027373"/><stop offset="1" stop-color="#69c86c"/></linearGradient><linearGradient id="linear-gradient-66" x1="282.33" y1="213.12" x2="282.33" y2="290.48" gradientTransform="translate(474.02 -74.78) rotate(79.05)" xlink:href="#linear-gradient-15"/><linearGradient id="linear-gradient-67" x1="-66.83" y1="275.75" x2="375.7" y2="319.25" xlink:href="#linear-gradient-65"/><linearGradient id="linear-gradient-68" x1="-347.98" y1="480.78" x2="2420.67" y2="480.78" xlink:href="#linear-gradient-13"/><linearGradient id="linear-gradient-69" x1="249.45" y1="633.4" x2="249.45" y2="279.33" xlink:href="#linear-gradient-2"/><linearGradient id="linear-gradient-70" x1="-81.38" y1="423.78" x2="361.15" y2="467.28" xlink:href="#linear-gradient-65"/><linearGradient id="linear-gradient-71" x1="270.28" y1="454.42" x2="270.28" y2="326.2" xlink:href="#linear-gradient-2"/><linearGradient id="linear-gradient-72" x1="364.72" y1="530.25" x2="163.1" y2="875.72" xlink:href="#linear-gradient-39"/><linearGradient id="linear-gradient-73" x1="520.31" y1="531.55" x2="132.55" y2="685.03" gradientUnits="userSpaceOnUse"><stop offset="0" stop-color="#fff" stop-opacity="0"/><stop offset="1" stop-color="#5ebf99"/></linearGradient><linearGradient id="linear-gradient-74" x1="325.75" y1="511" x2="250.49" y2="575.54" xlink:href="#linear-gradient-15"/><linearGradient id="linear-gradient-75" x1="-82.58" y1="435.99" x2="359.95" y2="479.49" xlink:href="#linear-gradient-65"/><linearGradient id="linear-gradient-76" x1="238.07" y1="278.64" x2="296.98" y2="278.64" xlink:href="#linear-gradient-39"/><linearGradient id="linear-gradient-77" x1="249.81" y1="277.08" x2="286.81" y2="277.08" xlink:href="#linear-gradient-39"/><linearGradient id="linear-gradient-79" x1="317.44" y1="531.12" x2="-19.25" y2="759.59" xlink:href="#linear-gradient-39"/><linearGradient id="linear-gradient-80" x1="369.33" y1="594.1" x2="48.42" y2="648.75" xlink:href="#linear-gradient-73"/><linearGradient id="linear-gradient-81" x1="238.93" y1="505.64" x2="168.46" y2="590.94" xlink:href="#linear-gradient-15"/><linearGradient id="linear-gradient-82" x1="357.4" y1="291.73" x2="389.13" y2="363.89" xlink:href="#linear-gradient-39"/><linearGradient id="linear-gradient-83" x1="356.32" y1="300.22" x2="404.35" y2="386.89" gradientUnits="userSpaceOnUse"><stop offset="0" stop-color="#fff" stop-opacity="0"/><stop offset="1" stop-color="#60c18e"/></linearGradient><linearGradient id="linear-gradient-84" x1="410.43" y1="324.83" x2="300.01" y2="357.74" xlink:href="#linear-gradient-15"/><linearGradient id="linear-gradient-85" x1="380.79" y1="177.33" x2="751.71" y2="520.97" xlink:href="#linear-gradient-13"/><linearGradient id="linear-gradient-86" x1="340.21" y1="328.43" x2="123.92" y2="-39.26" xlink:href="#linear-gradient-13"/><linearGradient id="linear-gradient-87" x1="237.99" y1="221.07" x2="219.06" y2="119.92" xlink:href="#linear-gradient-56"/><linearGradient id="linear-gradient-88" x1="259.71" y1="252.66" x2="259.71" y2="162.93" gradientUnits="userSpaceOnUse"><stop offset="0" stop-color="#fff" stop-opacity="0"/><stop offset="1" stop-color="#f6a59a"/></linearGradient><linearGradient id="linear-gradient-89" x1="286.7" y1="152.23" x2="243.43" y2="187.9" xlink:href="#linear-gradient-15"/><linearGradient id="linear-gradient-90" x1="227.08" y1="165.19" x2="270.71" y2="159.71" gradientTransform="translate(-1.88 13.92)" xlink:href="#linear-gradient-13"/><linearGradient id="linear-gradient-91" x1="271.94" y1="154.62" x2="232.43" y2="240.39" gradientUnits="userSpaceOnUse"><stop offset="0" stop-color="#fff" stop-opacity="0"/><stop offset="1" stop-color="#fff"/></linearGradient><linearGradient id="linear-gradient-92" x1="277.99" y1="157.41" x2="238.48" y2="243.17" xlink:href="#linear-gradient-91"/><linearGradient id="linear-gradient-93" x1="203.15" y1="189.64" x2="323.73" y2="171.4" gradientTransform="translate(34.02 -35.04) rotate(9.55)" xlink:href="#linear-gradient-13"/><linearGradient id="linear-gradient-94" x1="178.48" y1="191.61" x2="377.43" y2="166.59" gradientTransform="translate(33.95 -34.57) rotate(9.55)" xlink:href="#linear-gradient-13"/><linearGradient id="linear-gradient-95" x1="-347.98" y1="296.89" x2="2420.67" y2="296.89" xlink:href="#linear-gradient-13"/><linearGradient id="linear-gradient-96" x1="210.67" y1="189.29" x2="210.67" y2="321.02" xlink:href="#linear-gradient-2"/><linearGradient id="linear-gradient-97" x1="68.65" y1="233.89" x2="293.18" y2="382.2" xlink:href="#linear-gradient-2"/><linearGradient id="linear-gradient-98" x1="170.53" y1="276.55" x2="203.71" y2="297.34" xlink:href="#linear-gradient-2"/><linearGradient id="linear-gradient-99" x1="187.38" y1="290.07" x2="50.49" y2="223.38" xlink:href="#linear-gradient-2"/><linearGradient id="linear-gradient-100" x1="195.45" y1="270.92" x2="98.22" y2="360.67" xlink:href="#linear-gradient-39"/><linearGradient id="linear-gradient-101" x1="186.16" y1="297.26" x2="95.88" y2="346" xlink:href="#linear-gradient-83"/><linearGradient id="linear-gradient-102" x1="75.94" y1="321.53" x2="244.74" y2="346.5" xlink:href="#linear-gradient-15"/><linearGradient id="linear-gradient-103" x1="64.16" y1="183.66" x2="148.38" y2="289.42" xlink:href="#linear-gradient-15"/><linearGradient id="linear-gradient-104" x1="81.63" y1="223.59" x2="145.7" y2="304.19" xlink:href="#linear-gradient-15"/><linearGradient id="linear-gradient-105" x1="94.06" y1="249.62" x2="115.72" y2="263.75" xlink:href="#linear-gradient-15"/><linearGradient id="linear-gradient-106" x1="79.38" y1="279.37" x2="120.45" y2="246.76" gradientUnits="userSpaceOnUse"><stop offset="0" stop-color="#fff" stop-opacity="0"/><stop offset="1" stop-color="#ec7a82"/></linearGradient><linearGradient id="linear-gradient-107" x1="80.14" y1="280.34" x2="121.21" y2="247.72" xlink:href="#linear-gradient-106"/><linearGradient id="linear-gradient-108" x1="81.01" y1="281.43" x2="122.08" y2="248.82" xlink:href="#linear-gradient-106"/><linearGradient id="linear-gradient-109" x1="419.17" y1="283.89" x2="447.93" y2="311.07" xlink:href="#linear-gradient-15"/><linearGradient id="linear-gradient-110" x1="396.61" y1="282.88" x2="453.35" y2="303.5" gradientUnits="userSpaceOnUse"><stop offset="0" stop-color="#fff" stop-opacity="0"/><stop offset="1" stop-color="#ee8481"/></linearGradient><linearGradient id="linear-gradient-111" x1="394.58" y1="288.46" x2="451.32" y2="309.08" xlink:href="#linear-gradient-110"/><linearGradient id="linear-gradient-112" x1="392.55" y1="294.04" x2="449.29" y2="314.66" xlink:href="#linear-gradient-110"/><linearGradient id="linear-gradient-113" x1="-67.4" y1="281.58" x2="375.13" y2="325.08" xlink:href="#linear-gradient-65"/><linearGradient id="linear-gradient-114" x1="213.65" y1="178.53" x2="213.65" y2="248.9" xlink:href="#linear-gradient-65"/><linearGradient id="linear-gradient-115" x1="229.87" y1="213.12" x2="229.87" y2="290.48" gradientTransform="translate(429.67 -24.8) rotate(79.05)" xlink:href="#linear-gradient-15"/><linearGradient id="linear-gradient-116" x1="270.86" y1="332.79" x2="273.39" y2="458.17" gradientTransform="translate(543.66 761.86) rotate(180)" xlink:href="#linear-gradient-15"/><linearGradient id="linear-gradient-117" x1="279.43" y1="360.86" x2="279.43" y2="417.45" xlink:href="#linear-gradient-15"/><linearGradient id="linear-gradient-118" x1="279.43" y1="352.68" x2="279.43" y2="400.36" xlink:href="#linear-gradient-39"/><linearGradient id="linear-gradient-119" x1="258.24" y1="347.44" x2="258.24" y2="464.09" gradientTransform="translate(516.47 762.3) rotate(180)" xlink:href="#linear-gradient-15"/><linearGradient id="linear-gradient-120" x1="299.89" y1="347.44" x2="299.89" y2="464.09" gradientTransform="translate(599.79 762.3) rotate(180)" xlink:href="#linear-gradient-15"/><linearGradient id="linear-gradient-121" x1="746.91" y1="634.47" x2="759.25" y2="390.99" xlink:href="#linear-gradient"/><linearGradient id="linear-gradient-122" x1="777.74" y1="159.67" x2="777.74" y2="952.34" xlink:href="#linear-gradient-2"/><linearGradient id="linear-gradient-123" x1="744.66" y1="159.67" x2="744.66" y2="952.34" xlink:href="#linear-gradient-2"/><linearGradient id="linear-gradient-124" x1="775.03" y1="159.67" x2="775.03" y2="952.34" xlink:href="#linear-gradient-2"/><linearGradient id="linear-gradient-125" x1="779.27" y1="782.58" x2="779.27" y2="402.64" xlink:href="#linear-gradient"/><linearGradient id="linear-gradient-126" x1="794.35" y1="159.67" x2="794.35" y2="952.34" xlink:href="#linear-gradient-2"/><linearGradient id="linear-gradient-127" x1="776.94" y1="159.67" x2="776.94" y2="952.34" xlink:href="#linear-gradient-2"/><linearGradient id="linear-gradient-128" x1="786.06" y1="159.67" x2="786.06" y2="952.34" xlink:href="#linear-gradient-2"/><linearGradient id="linear-gradient-129" x1="765.13" y1="159.67" x2="765.13" y2="952.34" xlink:href="#linear-gradient-2"/><linearGradient id="linear-gradient-130" x1="719.08" y1="782.58" x2="719.08" y2="402.64" xlink:href="#linear-gradient"/><linearGradient id="linear-gradient-131" x1="700.36" y1="159.67" x2="700.36" y2="952.34" xlink:href="#linear-gradient-2"/><linearGradient id="linear-gradient-132" x1="717.69" y1="159.67" x2="717.69" y2="952.34" xlink:href="#linear-gradient-2"/><linearGradient id="linear-gradient-133" x1="737.79" y1="159.67" x2="737.79" y2="952.34" xlink:href="#linear-gradient-2"/><linearGradient id="linear-gradient-134" x1="716.26" y1="159.67" x2="716.26" y2="952.34" xlink:href="#linear-gradient-2"/><linearGradient id="linear-gradient-135" x1="582.71" y1="412.62" x2="776.78" y2="759.49" xlink:href="#linear-gradient-44"/></defs><g class="cls-1"><g id="Layer_2" data-name="Layer 2"><g id="Layer_1-2" data-name="Layer 1"><path class="cls-2" d="M946.34,329.34c-7.08,62.17-22.08,124.2-50.08,180.15Q892,518,887.34,526.3q-3,5.36-6.19,10.64c-37.89,62.72-95.93,115.32-166.29,138.19-60.14,19.56-125.09,16.72-188.35,13.66L438,684.52l-8.92-.43-145.22-7c-30-1.45-66.85,4.39-90.78-15.45-25.35-21-51.67-40.66-75.06-63.92a384.06,384.06,0,0,1-45.09-53.27q-4.64-6.68-8.91-13.59-7-11.31-13-23.24C18.55,442.21,15.33,358.67,59.11,300q2.37-3.18,4.89-6.22,4.26-5.17,8.91-9.94c36.69-37.78,90.22-57.82,142.66-69.57,59.48-13.33,121.27-18.57,178-40.65a359.86,359.86,0,0,0,35.5-16.19q4.49-2.34,8.92-4.78c49.53-27.24,94.15-63.72,142-94.36,23.76-15.22,49.39-29.17,76-39.6q3.28-1.29,6.57-2.49c8.84-3.25,17.78-6.09,26.79-8.46,2.39-.62,4.8-1.22,7.2-1.77A222.24,222.24,0,0,1,741.6.06q4-.1,7.93,0a179,179,0,0,1,37.88,4.65c39.38,9.25,73.61,32.56,99.93,63.1q4.63,5.37,8.92,11a241,241,0,0,1,31.68,55.92C952.51,195.92,953.8,263.93,946.34,329.34Z"/><path class="cls-3" d="M438,152.64V693.9h-8.92V157.42Q433.55,155.08,438,152.64Z"/><path class="cls-3" d="M72.91,283.83V544.45q-4.64-6.68-8.91-13.59V293.77Q68.26,288.6,72.91,283.83Z"/><path class="cls-3" d="M896.26,78.8V509.49Q892,518,887.34,526.3V67.78Q892,73.15,896.26,78.8Z"/><path class="cls-4" d="M738.93,631.27a26.54,26.54,0,0,1-1.42,6c-.24.68-.51,1.36-.81,2C730.49,653.42,714.27,663,714.27,663l-65.51-1.4-4.54-.1-28-.6-2.07,0-50.85-1.09-2.93-.07-60.88-1.3A68.2,68.2,0,0,1,501.43,638c.17-.63.34-1.27.53-1.91a44,44,0,0,1,5.92-12.71,32.16,32.16,0,0,1,11-10,35.58,35.58,0,0,1,11.22-3.86c.65-.12,1.32-.22,2-.31a56.76,56.76,0,0,1,13.66,0c.7.07,1.4.16,2.12.27q3.79.53,8,1.52a90.27,90.27,0,0,1,3.9-10,113.24,113.24,0,0,1,10.71-18.78,90.55,90.55,0,0,1,9.65-11.52c.5-.5,1-1,1.53-1.48a69.66,69.66,0,0,1,13.05-9.87A59.82,59.82,0,0,1,615.6,552a62.11,62.11,0,0,1,7.76-.72,51.28,51.28,0,0,1,5.72.13c.68,0,1.34.11,2,.2a43.81,43.81,0,0,1,16.9,5.58,48.55,48.55,0,0,1,11.6,9.41,60.12,60.12,0,0,1,4.59,5.64c.4.54.78,1.09,1.15,1.64a73.27,73.27,0,0,1,4.47,7.52,99.88,99.88,0,0,1,6.38,15.28c.4,1.21.76,2.39,1.1,3.53.21.7.4,1.39.58,2.07a106.11,106.11,0,0,1,3,14.77s1.84-1,4.87-2.33a105.29,105.29,0,0,1,16.84-5.93A62.49,62.49,0,0,1,712.78,607c.74-.06,1.46-.1,2.19-.12,6.3-.22,12.3,1,16.78,4.71a15.07,15.07,0,0,1,1.49,1.4,19,19,0,0,1,3.47,5.16c.26.56.5,1.12.71,1.68A23.63,23.63,0,0,1,738.93,631.27Z"/><g class="cls-5"><path class="cls-6" d="M563.32,659.81l-2.93-.07a113.38,113.38,0,0,1-10.75-12q-2.77-3.59-5.27-7.4A89.21,89.21,0,0,1,501.43,638c.17-.63.34-1.27.53-1.91a86.92,86.92,0,0,0,41.25,2.43,116.83,116.83,0,0,1-13.14-29c.65-.12,1.32-.22,2-.31a113.72,113.72,0,0,0,4.27,11.89,45,45,0,0,0,9.39-11.84c.7.07,1.4.16,2.12.27A46.73,46.73,0,0,1,537.17,623q1.32,3,2.81,5.85A114.36,114.36,0,0,0,563.32,659.81Z"/><path class="cls-7" d="M677.85,602.24a421.36,421.36,0,0,1-56.21,36.11q-2.4,11.35-5.4,22.59l-2.07,0q.83-3,1.6-6.07,4.08-16.1,6.94-32.49a114.2,114.2,0,0,1-13.65-10.65,117,117,0,0,1-28.95-41c.5-.5,1-1,1.53-1.48q1.27,3.11,2.74,6.12a114.94,114.94,0,0,0,38.69,44.8q1.39-8.2,2.47-16.46A432.34,432.34,0,0,0,629.08,552v-.61c.68,0,1.34.11,2,.2q0,3.6-.11,7.2-.44,18.08-2.39,36.06,6.13-3.65,12.2-7.42,11.84-7.36,23.39-15.21c.4.54.78,1.09,1.15,1.64q-18.14,12.3-37,23.48-.76,6.7-1.73,13.39-1.83,12.6-4.39,25.07,8.76-4.74,17.32-9.89a417,417,0,0,0,37.76-25.72C677.48,600.87,677.67,601.56,677.85,602.24Z"/><path class="cls-8" d="M737.51,637.29c-.24.68-.51,1.36-.81,2a158.13,158.13,0,0,1-39-3.44Q683.4,644.35,668.58,652q-9.81,5-19.82,9.68l-4.54-.1a554.64,554.64,0,0,0,55.31-29.07c3.47-2.08,6.9-4.2,10.32-6.36,0,0,0-.05,0-.08a48.61,48.61,0,0,1,2.95-19c.74-.06,1.46-.1,2.19-.12a46.92,46.92,0,0,0-3.17,18q10.13-6.43,20-13.29a15.07,15.07,0,0,1,1.49,1.4q-4.46,3.12-9,6.15-11.81,7.92-24,15.2c4.76,1,9.56,1.73,14.39,2.23A156,156,0,0,0,737.51,637.29Z"/></g><path class="cls-9" d="M585.92,605.33c-.57,3.51-2.36,7-5.49,8.71a10.76,10.76,0,0,1-9.71-.2,20.69,20.69,0,0,1-7.38-6.73,37.93,37.93,0,0,1-3.59-6.08,113.24,113.24,0,0,1,10.71-18.78c.43.13.85.27,1.27.43a23,23,0,0,1,11.16,8.83A19.86,19.86,0,0,1,585.92,605.33Z"/><path class="cls-10" d="M613.34,574.48c-1.73,2.5-4.41,4.82-7.43,4.48s-5.2-3.33-6.61-6.14a55.7,55.7,0,0,1-3.46-8.7c-.47-1.57-.83-3.15-1.15-4.74A59.82,59.82,0,0,1,615.6,552a16,16,0,0,1,1.11,3A23.74,23.74,0,0,1,613.34,574.48Z"/><path class="cls-11" d="M659.58,566.56a20.41,20.41,0,0,1-3.45,4.49,9.84,9.84,0,0,1-6.43,2.84,6.26,6.26,0,0,1-5.81-3.51c-1-2.39-.11-5.14,1-7.51a49.37,49.37,0,0,1,3.11-5.72A48.55,48.55,0,0,1,659.58,566.56Z"/><path class="cls-12" d="M676.17,596.64a21.13,21.13,0,0,1-11.25,5.79c-3,.52-6.75,0-8.24-2.66a6,6,0,0,1-.08-5.06,14.82,14.82,0,0,1,2.93-4.28,58.68,58.68,0,0,1,8-7.37c.67-.51,1.43-1.1,2.27-1.7A99.88,99.88,0,0,1,676.17,596.64Z"/><path class="cls-13" d="M702.61,608.75c0,.55-.06,1-.09,1.44A25.26,25.26,0,0,1,691.68,629a11.33,11.33,0,0,1-4.91,2,5.57,5.57,0,0,1-4.87-1.68,5.77,5.77,0,0,1-1.08-4.65,15.23,15.23,0,0,1,1.77-4.58c1-1.86,2-3.69,3.18-5.47A105.29,105.29,0,0,1,702.61,608.75Z"/><path class="cls-14" d="M738.93,631.27a12.87,12.87,0,0,1-9.24.35,6.67,6.67,0,0,1-3-1.86,3.51,3.51,0,0,1-.78-3.28,5.39,5.39,0,0,1,2.85-2.7A70.62,70.62,0,0,1,737,620c.13,0,.27-.1.41-.17A23.63,23.63,0,0,1,738.93,631.27Z"/><path class="cls-15" d="M527.37,628.76c-1.52,1.79-4.25,1.86-6.56,1.44a24.65,24.65,0,0,1-12.93-6.82,32.16,32.16,0,0,1,11-10,33,33,0,0,1,7.09,6.77,11.61,11.61,0,0,1,2.26,4.13A5.13,5.13,0,0,1,527.37,628.76Z"/><path class="cls-3" d="M750.74,72.93,677.87,181.84l-6-3.93-21.6-14.15,59.5-90.83L662.54,16.19c8.84-3.25,17.78-6.09,26.79-8.46,2.39-.62,4.8-1.22,7.2-1.77Z"/><path class="cls-16" d="M742.1,72.93l-70.24,105-2.63,3.93-27.61-18.08,59.5-90.83L656,18.68q3.28-1.29,6.57-2.49c8.84-3.25,17.78-6.09,26.79-8.46Z"/><polygon class="cls-17" points="742.1 72.93 669.23 181.84 641.62 163.76 701.12 72.93 742.1 72.93"/><path class="cls-18" d="M765,100.84c-10.16,24.59-28.48,45.92-50.4,62.94a3.31,3.31,0,0,1-4.23,0,2.55,2.55,0,0,1,0-3.82A175.23,175.23,0,0,0,742,128.61c15.51-20.19,25.48-44,24.93-68.82-.5-21.8-8.82-43.7-25.37-59.73q4-.1,7.93,0a88,88,0,0,1,17.06,27.49C775.86,51.2,774.65,77.44,765,100.84Z"/><rect class="cls-19" x="379.22" y="137.14" width="445.06" height="325.55" rx="4.21"/><rect class="cls-20" x="386.22" y="144.14" width="431.06" height="311.56"/><path class="cls-3" d="M636.2,321.33a5,5,0,0,1-5-5v-21.2a32.68,32.68,0,0,0-65.35,0v21.2a5,5,0,1,1-10,0v-21.2a42.68,42.68,0,0,1,85.35,0v21.2A5,5,0,0,1,636.2,321.33Z"/><path class="cls-21" d="M558.91,313.14h91.46a5.05,5.05,0,0,1,5.05,5.05v34.7a42,42,0,0,1-42,42H595.84a42,42,0,0,1-42-42v-34.7A5.05,5.05,0,0,1,558.91,313.14Z"/><rect class="cls-22" x="401.09" y="157.05" width="70.3" height="9.5" rx="4.75"/><rect class="cls-23" x="401.09" y="175.71" width="54.75" height="9.5" rx="4.75"/><rect class="cls-24" x="401.09" y="194.38" width="46.3" height="9.5" rx="4.75"/><path class="cls-3" d="M504.35,238.08a18.6,18.6,0,0,1,0-37.2H684.9a18.6,18.6,0,1,1,0,37.2Z"/><rect class="cls-16" x="488.75" y="203.88" width="211.75" height="31.2" rx="15.6"/><rect class="cls-25" x="521.38" y="208.54" width="3.79" height="21.87" rx="1.9"/><rect class="cls-25" x="521.38" y="208.54" width="3.79" height="21.87" rx="1.9"/><rect class="cls-26" x="521.38" y="208.54" width="3.79" height="21.87" rx="1.9" transform="translate(396.72 -333.67) rotate(54.36)"/><rect class="cls-27" x="521.38" y="208.54" width="3.79" height="21.87" rx="1.9" transform="translate(1018.67 -57.25) rotate(128.06)"/><rect class="cls-28" x="557.06" y="208.54" width="3.79" height="21.87" rx="1.9"/><rect class="cls-28" x="557.06" y="208.54" width="3.79" height="21.87" rx="1.9"/><rect class="cls-29" x="557.06" y="208.54" width="3.79" height="21.87" rx="1.9" transform="translate(411.61 -362.66) rotate(54.36)"/><rect class="cls-30" x="557.06" y="208.54" width="3.79" height="21.87" rx="1.9" transform="translate(1076.34 -85.34) rotate(128.06)"/><rect class="cls-31" x="592.73" y="208.54" width="3.79" height="21.87" rx="1.9"/><rect class="cls-31" x="592.73" y="208.54" width="3.79" height="21.87" rx="1.9"/><rect class="cls-32" x="592.73" y="208.54" width="3.79" height="21.87" rx="1.9" transform="translate(426.5 -391.65) rotate(54.36)"/><rect class="cls-33" x="592.73" y="208.54" width="3.79" height="21.87" rx="1.9" transform="translate(1134 -113.43) rotate(128.06)"/><rect class="cls-34" x="628.4" y="208.54" width="3.79" height="21.87" rx="1.9"/><rect class="cls-34" x="628.4" y="208.54" width="3.79" height="21.87" rx="1.9"/><rect class="cls-35" x="628.4" y="208.54" width="3.79" height="21.87" rx="1.9" transform="translate(441.38 -420.64) rotate(54.36)"/><rect class="cls-36" x="628.4" y="208.54" width="3.79" height="21.87" rx="1.9" transform="translate(1191.66 -141.51) rotate(128.06)"/><rect class="cls-37" x="664.07" y="208.54" width="3.79" height="21.87" rx="1.9"/><rect class="cls-37" x="664.07" y="208.54" width="3.79" height="21.87" rx="1.9"/><rect class="cls-38" x="664.07" y="208.54" width="3.79" height="21.87" rx="1.9" transform="translate(456.27 -449.64) rotate(54.36)"/><rect class="cls-39" x="664.07" y="208.54" width="3.79" height="21.87" rx="1.9" transform="translate(1249.33 -169.6) rotate(128.06)"/><path class="cls-40" d="M549.54,313.14H641a5.05,5.05,0,0,1,5.05,5.05v34.7a42,42,0,0,1-42,42H586.46a42,42,0,0,1-42-42v-34.7A5.05,5.05,0,0,1,549.54,313.14Z"/><circle class="cls-41" cx="595.05" cy="336.33" r="8.91"/><polygon class="cls-41" points="591.64 342.48 586.14 374.32 603.92 374.32 597.24 342.48 591.64 342.48"/><rect class="cls-42" x="720.87" y="398.88" width="70.3" height="9.5" rx="4.75"/><rect class="cls-43" x="739.23" y="416.23" width="51.95" height="9.5" rx="4.08"/><rect class="cls-44" x="700.5" y="264.79" width="77.58" height="6.1"/><rect class="cls-45" x="700.5" y="281.58" width="32.15" height="6.1"/><rect class="cls-46" x="700.5" y="298.38" width="72.42" height="6.1"/><ellipse class="cls-47" cx="447.07" cy="684.42" rx="447.07" ry="34.02"/><path class="cls-2" d="M63.56,546.16h66.7a0,0,0,0,1,0,0v.33a5.86,5.86,0,0,1-5.86,5.86h-55a5.86,5.86,0,0,1-5.86-5.86v-.33a0,0,0,0,1,0,0Z"/><rect class="cls-2" x="93.67" y="552.54" width="9.37" height="94.67"/><rect class="cls-2" x="90.71" y="552.35" width="15.29" height="39.44" rx="2.64"/><path class="cls-2" d="M139.61,666.31h0a3.77,3.77,0,0,1-3.7-3,15.36,15.36,0,0,0-15-12.31H74.19a15.35,15.35,0,0,0-15,12.31,3.77,3.77,0,0,1-3.7,3h0a3.79,3.79,0,0,1-3.71-4.54,22.94,22.94,0,0,1,22.44-18.35h46.69a22.94,22.94,0,0,1,22.44,18.35A3.79,3.79,0,0,1,139.61,666.31Z"/><path class="cls-2" d="M120.33,666.31h0a3.78,3.78,0,0,1-3.78-3.34c-.78-7.42-4-12-6.39-12H84.9c-2.34,0-5.6,4.57-6.38,12a3.78,3.78,0,0,1-3.78,3.34h0A3.74,3.74,0,0,1,71,662.24c1.12-11,6.73-18.82,13.91-18.82h25.26c7.19,0,12.8,7.85,13.92,18.82A3.74,3.74,0,0,1,120.33,666.31Z"/><circle class="cls-2" cx="119.82" cy="661.42" r="6.22"/><circle class="cls-2" cx="139" cy="661.43" r="6.22"/><circle class="cls-2" cx="74.09" cy="661.42" r="6.22"/><circle class="cls-2" cx="56.19" cy="661.42" r="6.22"/><path class="cls-48" d="M150.77,539.06a7.24,7.24,0,0,1-5.81,7.1,7.35,7.35,0,0,1-1.42.14h-11.3a15.91,15.91,0,0,1-2.08-.14H65.55l-6.67-33.92-7.47-38-12-52.68,1.37-7.76,2-11.57h67.49c5.88,0,11.13,4.93,12.89,11.57a18.87,18.87,0,0,1,.58,3.57h0v0l3.7,56.05L130,512.24l.82,12.34a7.78,7.78,0,0,0,7.76,7.26h5a7.22,7.22,0,0,1,7.23,7.22Z"/><path class="cls-49" d="M150.77,539.06a7.24,7.24,0,0,1-5.81,7.1,7.35,7.35,0,0,1-1.42.14h-11.3a15.91,15.91,0,0,1-2.08-.14H65.55l-6.67-33.92H130l.82,12.34a7.78,7.78,0,0,0,7.76,7.26h5a7.22,7.22,0,0,1,7.23,7.22Z"/><path class="cls-50" d="M123.15,413.84H40.74l2-11.57h67.49C116.14,402.27,121.39,407.2,123.15,413.84Z"/><path class="cls-51" d="M150.77,539.06a7.24,7.24,0,0,1-7.23,7.24H64.76a15.45,15.45,0,0,1-14.46-10,15.16,15.16,0,0,1-1-4.43l-4.78-72.42a77.45,77.45,0,0,0-10.82-34,18.3,18.3,0,0,1-2.44-8.07c-.5-7.54,3.63-13.79,9.5-15a9.89,9.89,0,0,1,2-.19c6.89,0,12.93,6.78,13.48,15.14h0v0l7.07,107.15a7.78,7.78,0,0,0,7.76,7.26h72.46a7.22,7.22,0,0,1,7.23,7.22Z"/><path class="cls-2" d="M367,531.87V635.69a33.86,33.86,0,0,1-33.87,33.87H50.48a33.86,33.86,0,0,1-33.86-33.87V531.87A33.86,33.86,0,0,1,50.48,498H333.11A33.86,33.86,0,0,1,367,531.87Z"/><path class="cls-3" d="M367,531.87V635.69a33.86,33.86,0,0,1-33.87,33.87h-221a33.86,33.86,0,0,1-33.86-33.87V531.87A33.86,33.86,0,0,1,112.13,498h221A33.86,33.86,0,0,1,367,531.87Z"/><path class="cls-52" d="M360,531.87V635.69a26.9,26.9,0,0,1-26.87,26.87h-221a26.89,26.89,0,0,1-26.86-26.87V531.87A26.89,26.89,0,0,1,112.13,505h221A26.9,26.9,0,0,1,360,531.87Z"/><path class="cls-53" d="M305.69,531.87V635.69a26.9,26.9,0,0,1-26.87,26.87H112.13a26.89,26.89,0,0,1-26.86-26.87V531.87A26.89,26.89,0,0,1,112.13,505H278.82A26.9,26.9,0,0,1,305.69,531.87Z"/><rect class="cls-3" x="16.62" y="491.5" width="350.36" height="6.5"/><ellipse class="cls-54" cx="262.39" cy="693.9" rx="133.03" ry="12.29"/><path class="cls-55" d="M364.17,534.23a51.75,51.75,0,0,0-22.54-3.76c-3.56.21-6,1.07-7.39,2.59-1.75,1.84-2.07,4.67-1.36,8.5.78,4.3,2.88,9.87,5.74,16.76,5.81,14-9.89,28-27.74,31.5a39.86,39.86,0,0,1-15.88,0c-19.86-4.29-22.76-.16-30.81,10.32-1.1,1.43-2.3,3-3.65,4.66-11.22,13.85-20.72,12.45-38.31-12-.95-1.31-1.87-2.6-2.76-3.85-15.8-22.06-24.63-34.13-42.76-8.33-.72,1-1.43,2-2.14,2.86-18.25,23-33.92,4.81-33.92,4.81l3-21.79c-5.26-19.53-23.3-10.14-23.3-10.14l13.53,66.12C109.85,604.1,84,565.13,84,565.13c3.44-150.49,54.65-251.52,83.43-296.74,11.41-17.92,19.29-27.07,19.29-27.07,2.66-.36,5.26-.67,7.8-.95l.37,0c23.74-2.52,42.21-1.47,56.69,2.57a70.92,70.92,0,0,1,15.4,6.17c26,14.24,34.06,42.51,38.8,78.09,1.73,13,3,27,4.55,41.69C318.91,450.29,364.17,534.23,364.17,534.23Z"/><path class="cls-56" d="M364.17,534.23a51.75,51.75,0,0,0-22.54-3.76c-3.56.21-6,1.07-7.39,2.59L237,251.74a800.43,800.43,0,0,1,68.82,75.42c1.73,13,3,27,4.55,41.69C318.91,450.29,364.17,534.23,364.17,534.23Z"/><path class="cls-57" d="M120.36,556.39l13.53,66.12C109.85,604.1,84,565.13,84,565.13,88.83,355,186.75,241.32,186.75,241.32c2.66-.36,5.26-.67,7.8-.95C176.8,259.65,143,288.42,123.49,382,102.91,480.78,120.36,556.39,120.36,556.39Z"/><path class="cls-58" d="M194.92,240.33a316.1,316.1,0,0,1-3.75,37.89c-10.15,64-9.55,217.24-16.6,305.29-18.25,23-33.92,4.81-33.92,4.81l3-21.79C157,484,165.71,306.43,167.46,268.39c11.41-17.92,19.29-27.07,19.29-27.07,2.66-.36,5.26-.67,7.8-.95Z"/><path class="cls-59" d="M264.19,600.14c-1.1,1.43-2.3,3-3.65,4.66-11.22,13.85-20.72,12.45-38.31-12-.95-1.31-1.87-2.6-2.76-3.85,7.59-80.61,26.62-283.27,32.14-346.08a70.92,70.92,0,0,1,15.4,6.17q.19,6.45.28,13.76C268,331,265.24,539.38,264.19,600.14Z"/><path class="cls-60" d="M417.88,302.66a26.69,26.69,0,0,0,7.51-7.84c3.65-5.52,3.55-6.41,9.47-7.89s9.36-2.86,10.74-2.07.6,3.95-3.74,4.93-6.9,2.47-6.9,3.06,11.73,1.28,15.87,1.58,5.62,2.85,1.67,6.7-7.59,5.32-10.05,8.58-9.28,4.93-16.52,7S426.23,311.49,417.88,302.66Z"/><path class="cls-61" d="M276.31,189.34a8.34,8.34,0,0,1-1.58.31l-5.58-26.78-5.21-25a.68.68,0,0,1,.68-.74h.15a.79.79,0,0,1,.78.55l5.16,24.78Z"/><path class="cls-62" d="M358.44,340.49c-1.9,15.67-21.81,22.76-21.81,22.76s-23.77-23.72-27.81-39.95c-3.72-15-21.9-40.19-24.74-56.34a20.47,20.47,0,0,1,1.29-11.71c4-9.35,14.4-14.28,21.07-9.33,0,0,13.46,12.4,24.94,40,0,0,7.87,10.12,9.71,26.65a6.59,6.59,0,0,0,4.76,5.61l.19.05c5.46,1.52,7.5,5.07,10.14,11.8a33.67,33.67,0,0,1,2.12,6.67A13.21,13.21,0,0,1,358.44,340.49Z"/><path class="cls-63" d="M358.44,340.49c-1.9,15.67-21.81,22.76-21.81,22.76s-23.77-23.72-27.81-39.95c-3.72-15-21.9-40.19-24.74-56.34a20.47,20.47,0,0,1,1.29-11.71c7.5,12.32,26.45,42.37,28.6,56.05,2.68,17.06,10.28,26.62,19.74,37.71,8.47,9.93,16.8,3.32,24.59-12.29A13.21,13.21,0,0,1,358.44,340.49Z"/><path class="cls-64" d="M320.82,315.47a47,47,0,0,0-4.38,15.17c-.09.76-.15,1.52-.21,2.29l-3.37,48H229.57s1.79-17.93-6.22-40.44a109.71,109.71,0,0,0-11-22.55c-5.86-9.14-12.06-19.13-17.3-28.85-10.34-19.17-16.95-37.32-9.95-46a11.3,11.3,0,0,1,.79-.9,11.85,11.85,0,0,1,.9-.82,13.59,13.59,0,0,1,1.49-1l.32-.19a11.18,11.18,0,0,1,1.47-.73,14.7,14.7,0,0,1,1.62-.6,23.11,23.11,0,0,1,4-.87l5.12-.66,1.73-.22,1.68-.21,6-.76c4.75-.59,8.57-1,11.61-1.4l2.07-.24,2-.22A5.9,5.9,0,0,0,227,234a6.43,6.43,0,0,0,2.74-1.56,6.57,6.57,0,0,0,2-4.79,7,7,0,0,0-.07-1l-.06-.45-1-7.54L229.29,209l-2-16.24s34.05,17.38,38.85,17.92c5.68.65,6.81,6.35,6.81,6.35l.91,11.62.29,3.74a8.06,8.06,0,0,0,1.44,3.51,8.56,8.56,0,0,0,2.85,2.53h0a7.78,7.78,0,0,0,1.48.64l.57.16.67.17a67.91,67.91,0,0,0,9.16,1.19c2.07.19,4.17.4,6.18.76a24.63,24.63,0,0,1,5.7,1.6c.37.15.72.31,1.06.46a6.61,6.61,0,0,1,.63.35,10.66,10.66,0,0,1,2.59,2.39,45.3,45.3,0,0,1,5.84,10.35,0,0,0,0,0,0,0l.55,1.29.54,1.32.54,1.36c.16.41.32.84.48,1.27.35.91.69,1.83,1,2.77.11.29.21.59.32.9.22.63.44,1.27.65,1.9L317,269c.16.49.32,1,.47,1.48s.29.93.44,1.39c.3,1,.6,2,.89,3l.46,1.6c.43,1.49.83,3,1.22,4.42.19.71.37,1.4.54,2.09.07.27.13.53.21.79.1.43.21.86.31,1.29,1,4,1.75,7.58,2.27,10.47l.26,1.56c.08.5.15,1,.21,1.39.08.59.15,1.12.19,1.6C324.94,305.49,322.89,311.22,320.82,315.47Z"/><path class="cls-65" d="M195,289.09c5.24,9.72,11.44,19.71,17.3,28.85a109.27,109.27,0,0,1,11,22.55c16.58-21,31.8-23.88,56-23.88,15.55,0,28.28,7,37.1,14a46.54,46.54,0,0,1,4.38-15.17c2.07-4.25,4.11-10,3.62-15.39-.05-.48-.11-1-.2-1.6a151.32,151.32,0,0,0-3.14-15.08L304.19,277s-47.67-6.36-83-6.14C203.29,271,196.93,280.11,195,289.09Z"/><path class="cls-66" d="M212.3,317.94c20.38,31.76,17.27,63,17.27,63h8.72c-.37-34.38-15.51-56.63-23.56-73.18-8.48-17.43,4.1-22.49,4.1-22.49l-30.6-45a15,15,0,0,0-1.48,1,11,11,0,0,0-1.7,1.72C174.5,256.19,194.89,290.79,212.3,317.94Z"/><path class="cls-67" d="M324.25,298.48c-1.28,4.65-3.61,8.83-7.62,11.36C303,318.44,295,307.53,283,307.27s-31.07,7.6-44.78-1.57c-12.7-8.49-43.61-43.36-53.15-62.66a11.3,11.3,0,0,1,.79-.9,11.85,11.85,0,0,1,.9-.82,13.59,13.59,0,0,1,1.49-1l.32-.19a11.18,11.18,0,0,1,1.47-.73,14.7,14.7,0,0,1,1.62-.6,23.11,23.11,0,0,1,4-.87l5.12-.66,1.73-.22,1.68-.21,6-.76c4.75-.59,8.57-1,11.61-1.4l2.07-.24,2-.22A5.9,5.9,0,0,0,227,234a6.43,6.43,0,0,0,2.74-1.56,6.57,6.57,0,0,0,2-4.79,7,7,0,0,0-.07-1l-.06-.45-1-7.54L229.29,209l-2-16.24s34.05,17.38,38.85,17.92c5.68.65,6.81,6.35,6.81,6.35l.91,11.62.29,3.74a8.06,8.06,0,0,0,1.44,3.51,8.56,8.56,0,0,0,2.85,2.53h0a7.78,7.78,0,0,0,1.48.64l.57.16.67.17a67.91,67.91,0,0,0,9.16,1.19c2.07.19,4.17.4,6.18.76a24.63,24.63,0,0,1,5.7,1.6c.37.15.72.31,1.06.46a6.61,6.61,0,0,1,.63.35,10.66,10.66,0,0,1,2.59,2.39,45.3,45.3,0,0,1,5.84,10.35,0,0,0,0,0,0,0l.55,1.29.54,1.32.54,1.36c.16.41.32.84.48,1.27.35.91.69,1.83,1,2.77.11.29.21.59.32.9.22.63.44,1.27.65,1.9L317,269c.16.49.32,1,.47,1.48s.29.93.44,1.39c.3,1,.6,2,.89,3l.46,1.6c.43,1.49.83,3,1.22,4.42.18.7.37,1.4.54,2.09.07.27.13.53.21.79.1.43.21.86.31,1.29,1,4,1.75,7.58,2.27,10.47l.26,1.56C324.12,297.59,324.19,298.05,324.25,298.48Z"/><path class="cls-68" d="M280.64,255.88s5.47.73,12.87-4.68a27,27,0,0,1,12.93-5.09,10.84,10.84,0,0,0-2.59-2.39,5.86,5.86,0,0,0-.64-.35l-1-.46a25.38,25.38,0,0,0-5.71-1.61Z"/><path class="cls-69" d="M273.81,228.61c-1.18-1.79-2.46-3.65-3.6-3.73-2.23-.15-5.58,5.85-11.95,4.4s-12.62-7.26-18.32-9.15c-3.51-1.16-6.52,2.8-8.31,6l-1-7.54L229.29,209l-2-16.24s34.05,17.38,38.85,17.92c5.68.65,6.81,6.35,6.81,6.35Z"/><path class="cls-70" d="M281.51,255.79c11.23-3.83,17.11-10.94,20.65-12.88-6.65-2.9-16.28-2-22.29-3.89a7.66,7.66,0,0,1-1.47-.63h0l.25,15.31A2.26,2.26,0,0,0,281.51,255.79Z"/><ellipse class="cls-71" cx="282.33" cy="249.9" rx="1.87" ry="2.34" transform="translate(-16.66 479.59) rotate(-79.05)"/><path class="cls-72" d="M306.64,380.93H310c-1.3-19.38-.32-46.05.27-61.85.2-5.42.36-9.7.39-12.33A23.24,23.24,0,0,1,314,294.39a28.24,28.24,0,0,0,3.88-12.62c.51-6.76-2.6-17.09-5.62-25.29a0,0,0,0,1,0,0c-2.68-6.17-5.58-11-8.42-12.74a1.67,1.67,0,0,0,.12,1.13c.11.25,11.4,24.75,10.54,36.33A25.34,25.34,0,0,1,311,292.59a26.17,26.17,0,0,0-3.71,13.78c0,2.58-.17,6.85-.38,12.24C306.26,335.58,305.29,361.63,306.64,380.93Z"/><path class="cls-73" d="M318.58,518.5l-6,1.89L279.22,531l-12.1-21.59,5.67-7.77-5.94-5.18.74-46.19-21.51,55,.69,9.07-7.17,3.88-2.08,9.5-17.8,12.52-27.67,40.35-21.86-12.11s-3-14.7-.13-19-.58-10.2,1.85-12.79,24.41-36.93,26.6-42.63,16.64-84.38,21.66-95.18c.66-1.44,1.31-2.79,1.92-4.05q.25-.54.51-1.05c3-6.13,5.27-10.1,6.32-11.86a.53.53,0,0,1,.06-.1c.37-.63.58-.95.58-.95h83.29l.42.95,0,.1c.85,2,2.79,6.53,4.78,11.86l.38,1.05a120.32,120.32,0,0,1,4.58,15.06C325.57,421.8,318.58,518.5,318.58,518.5Z"/><path class="cls-74" d="M223.46,537.36,273.81,422l-6.22,28.31-.74,46.19,5.93,5.18-5.66,7.77L279.22,531l33.4-10.63c-1.1-18.16.25-74.4.25-74.4h0s.84-31.18-1-37.79-10.21-27.29-10.21-27.29H238.13l-14,32.61-28,96.07-10.28,35.78Z"/><path class="cls-75" d="M310.35,543.46c0-.15.19-15.19-1.11-53.65s.84-108.27.75-109l-3.36.14c.09.7-2.07,70.48-.77,108.87S307,543.21,307,543.36Z"/><path class="cls-76" d="M318.47,394.87H222.09q.25-.54.51-1.05c3-6.13,5.27-10.1,6.32-11.86h84.39c.85,2,2.79,6.53,4.78,11.86Z"/><path class="cls-77" d="M266.64,565.09c15.68,36.69,30.84,101.26,30.84,101.26l-5.18,16.42c-1.15,2.42.94,5.54,4,5.92l58.68,7.38a2.39,2.39,0,0,0,2.12-4.07q-.15-.19-.33-.39a26,26,0,0,0-8-5.79c-10.56-5.31-33.58-15.67-33.58-15.67S312,635.9,314,606.61c1.58-23.86,4.31-44.91,7.29-63.19.27-1.64.54-3.25.81-4.84,1.53-9.08,3.12-17.44,4.63-25.07L285.14,526l-8.22,2.46s-6.9,13.25-9.75,24.44a41.24,41.24,0,0,0-1.06,5.44A13.91,13.91,0,0,0,266.64,565.09Z"/><path class="cls-78" d="M266.64,565.09c15.68,36.69,30.84,101.26,30.84,101.26l-5.18,16.42c-1.15,2.41.94,5.54,4,5.92l58.67,7.37a2.39,2.39,0,0,0,2.13-4.06c-.1-.13-.22-.26-.34-.39L296,684s3.75-10.9,10.38-15.74c0,0-7.29-12-15.62-44.86s-14.36-49.61-19-60.06c-3.78-8.51,8.62-29.43,13.33-37.34l-8.21,2.46s-6.89,13.25-9.75,24.44C265.92,557.78,265.44,562.27,266.64,565.09Z"/><path class="cls-79" d="M266.11,558.32c10.13-5.84,21.67-11.16,33.79-16.62,9.25-4.16,16.6-4.41,22.18-3.12,1.53-9.08,3.12-17.44,4.63-25.07L285.14,526l-8.22,2.46s-6.9,13.25-9.75,24.44A41.24,41.24,0,0,0,266.11,558.32Z"/><path class="cls-80" d="M196,551.24c.24-.56,23.62-56.29,38.34-102.48s17.26-67.37,17.28-67.58l-3.37-.54c0,.2-2.53,21.11-17.17,67.05s-38,101.69-38.24,102.24Z"/><path class="cls-81" d="M250.18,253.09h24.57a4.15,4.15,0,0,1,3.26,1.58l17.56,22.15a4.15,4.15,0,0,1,.66,4l-7.46,20.61a4.15,4.15,0,0,1-3.91,2.75H260.3A4.15,4.15,0,0,1,257,302.6l-17.57-22.15a4.15,4.15,0,0,1-.65-4l7.45-20.61A4.16,4.16,0,0,1,250.18,253.09Z"/><text class="cls-82" transform="matrix(1.08, 0, 0.21, 0.98, 251.82, 286.04)">PR</text><path class="cls-83" d="M256.31,279.73l1.33,6.31h-4.06l-3.77-17.92h7.68a10.63,10.63,0,0,1,4.06.74,7.82,7.82,0,0,1,3,2.1,6.83,6.83,0,0,1,1.56,3.09,4.11,4.11,0,0,1-1.11,4.16q-1.67,1.52-5.17,1.52Zm-.63-3h3.63a3.22,3.22,0,0,0,2.31-.69,2,2,0,0,0,.43-2,3.55,3.55,0,0,0-1.3-2.13,4.09,4.09,0,0,0-2.53-.84H254.5Z"/><path class="cls-83" d="M277.37,279.48h-3.23l1.38,6.56h-4.06l-3.77-17.92H275a10.35,10.35,0,0,1,5.68,1.41,6.12,6.12,0,0,1,2.74,4,4.62,4.62,0,0,1-.23,3,4.39,4.39,0,0,1-2.24,2l5.81,7.32,0,.17h-4.36Zm-3.86-3h3.27a3,3,0,0,0,2.22-.71,2,2,0,0,0,.43-1.95,3.24,3.24,0,0,0-1.21-2,4.1,4.1,0,0,0-2.58-.73h-3.27Z"/><path class="cls-84" d="M226.17,546.94v0c-.06,5.89-2.35,11-3,14.25a70.22,70.22,0,0,1-2.31,7.41c-.44,1.21-.92,2.53-1.44,3.93-1.6,4.28-3.6,9.4-5.82,15-11,27.8-22.75,68-25.12,81.64,0,0,10.52,19.28,16,22.74a23.89,23.89,0,0,1,5.38,4.58c1.92,2.28,2.58,4.38,1.17,5.25-2.36,1.46-13.65,3.46-18.57,2s-30.94-14.1-30.75-17.92,9.86-14.13,9.86-14.13,3.72-54.22-4-100.77c-.38-2.29.12-4.48.21-6.44.11-2.23.25-4.21.44-5.89.13-1.16.28-2.19.45-3a30.92,30.92,0,0,1,4-9.44c11.21-18.84,40.65-42.8,40.65-42.8S226.32,529.56,226.17,546.94Z"/><path class="cls-85" d="M211,701.79c-2.36,1.46-13.65,3.46-18.57,2s-30.94-14.1-30.75-17.92,9.86-14.13,9.86-14.13,3.72-54.22-4-100.77c-.38-2.29.12-4.48.21-6.44.11-2.23.25-4.21.44-5.89.13-1.16.28-2.19.45-3a30.92,30.92,0,0,1,4-9.44c1.22,15.68,3.52,47.53,3.81,69.1.4,29.58,0,59.17,0,59.17s-9.41,8.4-8.7,11.2,21.82,12.79,25.06,14c2.38.88,7.29-.83,17-3.07C211.73,698.82,212.39,700.92,211,701.79Z"/><path class="cls-86" d="M226.17,546.94v0c-.06,5.89-2.35,11-3,14.25a70.22,70.22,0,0,1-2.31,7.41c-4.31-32.47-11.58-50.26-11.58-50.26-16.91,14.48-34,36.21-41.47,46.17.11-2.23.25-4.21.44-5.89.13-1.16.28-2.19.45-3,3.75-19,44.65-52.24,44.65-52.24S226.32,529.56,226.17,546.94Z"/><path class="cls-87" d="M423.84,318.81c-14.64,10-63.64,43.07-72.5,46.41a53.89,53.89,0,0,1-8.85,2.44,67.74,67.74,0,0,1-12.87,1.19l7-5.6.25-.18C359,347.55,353,323.42,353,323.42c.06-2.14,2-4,5.28-5.63,12.38-6.27,43.47-9.64,59.57-15.13,5.33-1.82,7.92,3.26,9.1,7.62a7,7,0,0,1,.2,1A7.79,7.79,0,0,1,423.84,318.81Z"/><path class="cls-88" d="M423.84,318.81c-14.64,10-63.64,43.07-72.5,46.41a53.89,53.89,0,0,1-8.85,2.44,67.74,67.74,0,0,1-12.87,1.19l7-5.6.25-.18c5.84-.58,16.43-2.75,28.6-10.42,16.86-10.62,52.59-34.76,61.7-41.38A7.79,7.79,0,0,1,423.84,318.81Z"/><path class="cls-89" d="M359.21,344.5c-3.38,8.87-9.83,16.75-16.72,23.16a67.74,67.74,0,0,1-12.87,1.19l7-5.6C359,347.73,353,323.42,353,323.42c.06-2.14,2-4,5.28-5.63C359.88,322.28,363.2,334,359.21,344.5Z"/><path class="cls-90" d="M414,311.27l132.61-88.76a.76.76,0,0,1,.88,1.25L418.21,317.28a3.66,3.66,0,0,1-4.28-5.93Z"/><path class="cls-91" d="M283.26,180.67c0,1.26,0,2.74-.05,4.35-.11,7.89-.29,18.87-.51,21.94-.36,4.95-11.72,14.73-15.67,16.13s-9.8,1.75-13.87,0S234.62,212.5,232.35,209s-8.25-26.77-7.3-40.4,17.94-23.86,30.26-22.7c10.78,1,22.2,5.34,26.57,22.47.09.36.18.72.26,1.08A48.08,48.08,0,0,1,283.26,180.67Z"/><path class="cls-92" d="M233.42,189.34a8.23,8.23,0,0,1-1.57.31l-5.58-26.78-5.21-25c-.08-.35.23-.69.67-.74h.15a.78.78,0,0,1,.78.55l5.16,24.78Z"/><path class="cls-93" d="M282,190.33c-.06,6.81-.64,15.67-1.69,17.31-1.42,2.21-7.19,9-9.32,9.16s-1-2-7.19-2-7.9,5.61-10.9,5.29-10.89-5.68-11.21-7.82-2.53-11.37-3.95-17.45c-.06-.27-.12-.54-.17-.79-1-5.39,1.51-6.4,1.51-6.4,30.41,5.61,42.41-9.08,42.81-3.31C282,185.84,282.07,188,282,190.33Z"/><path class="cls-94" d="M282,190.33c-1.88-.49-4.15,3.37-7,4s-2.22-2.49-6.08-1.63-4.69,3.77-11.07,3.57-12.64-4.43-16.47-4a7.32,7.32,0,0,0-3.79,1.8c-1-5.39,1.51-6.4,1.51-6.4,30.41,5.61,42.41-9.08,42.81-3.31C282,185.84,282.07,188,282,190.33Z"/><path class="cls-95" d="M272.28,198.17a59.9,59.9,0,0,0-3.81-10.87c-.27-.59-1.13-.08-.86.5a59.13,59.13,0,0,1,3.55,10.08,28.85,28.85,0,0,1-5.09.15c-.64,0-.64,1,0,1a29.47,29.47,0,0,0,5.86-.24A.51.51,0,0,0,272.28,198.17Z"/><path class="cls-3" d="M252.75,198.46a23.48,23.48,0,0,0,15.91,6.85s-3.75,5.27-9.56,3.69S252.75,198.46,252.75,198.46Z"/><path class="cls-96" d="M283.26,180.67c0,1.26,0,2.74-.05,4.35a41.68,41.68,0,0,1-7.45,6.12c-4,2.26-3.24-.83-6.78-1-2.65-.15-3.53,1.81-6.42,2.9a11,11,0,0,1-3.27.65c-.15,0-.3,0-.46,0a15.71,15.71,0,0,1-2.41-.16,52.78,52.78,0,0,1-5.31-1.08c-7.59-1.91-16.82-5.31-16.82-5.31l-4-18.66,30.59,4.93,3.91.63a14.37,14.37,0,0,0,1.61,0,14.91,14.91,0,0,0,3.11-.36l.53-.11c.94-.23,1.91-.5,2.87-.8,3.45-1,6.87-2.37,9.24-3.35A48.08,48.08,0,0,1,283.26,180.67Z"/><ellipse class="cls-97" cx="235.16" cy="177.87" rx="1.19" ry="2.23" transform="translate(-38.75 68.73) rotate(-15.38)"/><path class="cls-98" d="M266.39,174.07l-10,19.45a52.78,52.78,0,0,1-5.31-1.08l9.76-19,3.91.63A14.37,14.37,0,0,0,266.39,174.07Z"/><path class="cls-99" d="M272.9,172.8,262.56,193a11,11,0,0,1-3.27.65l10.21-19.94.53-.11C271,173.37,271.94,173.1,272.9,172.8Z"/><ellipse class="cls-100" cx="226.7" cy="186.07" rx="8.36" ry="13.45" transform="translate(-27.73 40.19) rotate(-9.55)"/><ellipse class="cls-101" cx="223.87" cy="185.9" rx="5.54" ry="7.93" transform="translate(-27.74 39.72) rotate(-9.55)"/><path class="cls-102" d="M207.91,273.22c.08,18.22-8.83,33.08-13.86,40a32.49,32.49,0,0,0-4.81,9.9c-8.69,29.16-29.52,36.9-32.52,28.94a54.18,54.18,0,0,1-1.77-5.74,106,106,0,0,1-2.38-33.19,44.19,44.19,0,0,1,3.3-13.18,60.14,60.14,0,0,1,5.43-10.15,33.92,33.92,0,0,0,4.76-11.11,77.66,77.66,0,0,1,7.86-20.43c6.71-12,14.31-18,14.31-18,9.9-5.54,17.53,4.54,19.29,24.34C207.76,267.3,207.9,270.18,207.91,273.22Z"/><path class="cls-103" d="M186.75,241.32c19.54,2.63,47.85,13.09,47.85,13.09-5.36-6.18-22.42-13.08-33.83-17.18l-5.12.66a23,23,0,0,0-4,.86,16.09,16.09,0,0,0-1.62.6,12,12,0,0,0-1.48.74A12.39,12.39,0,0,0,186.75,241.32Z"/><path class="cls-104" d="M207.91,273.22c.08,18.22-8.83,33.08-13.86,40a32.49,32.49,0,0,0-4.81,9.9c-8.69,29.16-29.52,36.9-32.52,28.94a54.18,54.18,0,0,1-1.77-5.74,34.35,34.35,0,0,0,28.38-33c9.68-5.44,17.2-15.28,20.46-25.9a100.73,100.73,0,0,0,3.73-22.81C207.76,267.3,207.9,270.18,207.91,273.22Z"/><path class="cls-105" d="M193,269.2a24.08,24.08,0,0,1-6.14,25.15c-3.31,3.07-7.36,5-11.53,6.6,5.09-3.36,9.26-8.83,12.18-14.1a45.67,45.67,0,0,0,3.69-8.63C191.8,276.17,193.72,271.31,193,269.2Z"/><path class="cls-106" d="M173.92,258.27c-.26.6-.49,1.2-.7,1.81a69.66,69.66,0,0,0-3.61,18.85c-.23,4.38-.1,9-2.37,12.79s-6.75,5.95-10.83,8l-.54.27a60.14,60.14,0,0,1,5.43-10.15,33.92,33.92,0,0,0,4.76-11.11A77.66,77.66,0,0,1,173.92,258.27Z"/><path class="cls-107" d="M163.31,357.94c-1.31,2.29-2.19,3.64-2.19,3.64q-2.82-2.43-5.44-5.18C130,329.57,118.49,283,118.49,283a11.83,11.83,0,0,0,4.68.95c8.37,0,16.13-8,16.13-8,4.21,8.42,17.07,20.23,25,31.23a38.54,38.54,0,0,1,5.94,10.92C174.47,332.07,167.71,350.18,163.31,357.94Z"/><path class="cls-108" d="M163.31,357.94c-1.31,2.29-2.19,3.64-2.19,3.64C131.62,336.12,118.49,283,118.49,283a11.83,11.83,0,0,0,4.68.95c.64,4.63,2.71,13.12,9.71,28.38C142.2,332.66,151.65,346.88,163.31,357.94Z"/><path class="cls-109" d="M163.31,357.94c-1.31,2.29-2.19,3.64-2.19,3.64q-2.82-2.43-5.44-5.18c13.23-16.42,10.55-39.62,8.66-49.25a38.54,38.54,0,0,1,5.94,10.92C174.47,332.07,167.71,350.18,163.31,357.94Z"/><path class="cls-110" d="M139.3,275.92c-3.51,14.38-19.51,11.78-20.81,7.07-1.23-4.44-4.72-7.32-10.75-11.35l-1.13-.75c-6.72-4.45-7.17-7.55-8.63-10.92a4,4,0,0,1-.24-.74c0-.26,0-.4,0-.4h0a1.62,1.62,0,0,1,0-.22c0-.11,0-.19,0-.25,0-2.83,2.78-5.44,2.78-5.44a6.65,6.65,0,0,1,4.59-5.82,4.84,4.84,0,0,1,2.91-3.68,9.3,9.3,0,0,1,2.31-.8h0s-1.48-17.45-2.8-25.68,4.35-5.21,5.75.3,8,28.61,8,28.61c2.29,3.11,4.29,5.89,4.75,5.07,1-1.8,1.12-9,2.13-14.24s5.16-5.26,5.38,0-.78,14.12,0,17.75S139.3,275.92,139.3,275.92Z"/><path class="cls-111" d="M121.57,255.17c-3.14,2.07-3.23,3.69-6.65,6.47s-5,9.77-7.18,10-6.45.4-8.11-.73l-.15-.11c-1.36-1.13-1.74-10.33-1.8-12.2,0-.11,0-.19,0-.25,0-2.83,2.78-5.44,2.78-5.44a6.65,6.65,0,0,1,4.59-5.82,4.84,4.84,0,0,1,2.91-3.68c.72-.29,1.49-.55,2.31-.8h0a32.7,32.7,0,0,0,4.08,8.18c2.42,3.14,2.43,1.55,5.92,0a3.88,3.88,0,0,1,.7-.24C123.91,249.76,124.49,253.26,121.57,255.17Z"/><path class="cls-112" d="M121.57,255.17c-3.14,2.07-3.23,3.69-6.65,6.47s-5,9.77-7.18,10-6.45.4-8.11-.73a44.18,44.18,0,0,0,8.12-9.38c4.41-6.94,5.61-5.87,10.73-9.21.92-.6,1.77-1.21,2.53-1.78C123.91,249.76,124.49,253.26,121.57,255.17Z"/><path class="cls-113" d="M114.47,257.9c-1.8.9-3.69-.5-4.6-2-1.11-1.81-1.45-4-2.34-5.86-.27-.59-1.13-.08-.86.5,1,2.14,1.32,4.6,2.78,6.51,1.27,1.67,3.52,2.71,5.53,1.7C115.55,258.47,115,257.61,114.47,257.9Z"/><path class="cls-114" d="M111,263.78a2.82,2.82,0,0,1-3.14.35,5.25,5.25,0,0,1-2.31-2.67c-1.11-2.51-1-5.41-2.64-7.72-.36-.53-1.23,0-.86.5,1.8,2.61,1.46,6.06,3.17,8.72a5.22,5.22,0,0,0,3,2.34,3.72,3.72,0,0,0,3.53-.81C112.18,264.05,111.47,263.34,111,263.78Z"/><path class="cls-115" d="M106.41,267.66a1.82,1.82,0,0,1-2.21-.49,7.26,7.26,0,0,1-1.3-2.42,27.84,27.84,0,0,1-1.88-6c-.1-.64-1.07-.37-1,.26a29.74,29.74,0,0,0,2.29,7,5,5,0,0,0,1.84,2.44,2.65,2.65,0,0,0,2.74.09C107.46,268.18,107,267.32,106.41,267.66Z"/><path class="cls-116" d="M430.23,314.13a2.11,2.11,0,0,1-1.17-1.81,2.15,2.15,0,0,1,1-1.89,4.31,4.31,0,0,1,2.34-.35,4.25,4.25,0,0,1-.89-2.27,3,3,0,0,1,.85-2.17,5.34,5.34,0,0,1,3.28-1.11,2.74,2.74,0,0,1,.49-3.32,3.41,3.41,0,0,1,1.87-.86,10.32,10.32,0,0,1,2.08-.05,2.78,2.78,0,0,1,1.19-2.63,6.22,6.22,0,0,1,2.74-.9,25.15,25.15,0,0,1,9.31.43c1,.24,2.13.68,2.4,1.67a2.05,2.05,0,0,1-.54,1.83,6.16,6.16,0,0,1-1.6,1.17,4.31,4.31,0,0,1-4.16,4.28,3.19,3.19,0,0,1-1,2.12l-2.3,2.78-.22.26a12.75,12.75,0,0,1-1.1,1.22,9.31,9.31,0,0,1-3.42,1.91C437.62,315.73,433.8,315.9,430.23,314.13Z"/><g class="cls-5"><path class="cls-117" d="M452,300.74l-10.91-.43c-.65,0-.64,1,0,1l10.91.43C452.63,301.77,452.63,300.77,452,300.74Z"/><path class="cls-118" d="M448.25,305.64a61.11,61.11,0,0,1-11.15-.36c-.64-.08-.63.92,0,1a61.11,61.11,0,0,0,11.15.36C448.89,306.6,448.89,305.6,448.25,305.64Z"/><path class="cls-119" d="M442.58,310.26a55.72,55.72,0,0,1-9.22-.4c-.64-.08-.63.92,0,1a55.72,55.72,0,0,0,9.22.4C443.22,311.24,443.23,310.24,442.58,310.26Z"/></g><path class="cls-120" d="M188.55,240.09a1.57,1.57,0,0,0,.34.45c.17.17,17.89,17.51,27.43,38.16a11,11,0,0,0,2.21,3.16l14.69,14.55a6.65,6.65,0,0,1,1.9,3.69,1.55,1.55,0,0,1,0,.15c.1.44,9.9,41.37,13.51,80.68H252c-3.57-38.83-13.11-79.13-13.57-81.07a10.52,10.52,0,0,0-3-5.71L220.8,279.6a7,7,0,0,1-1.41-2c-9-19.55-24.65-35.71-27.74-38.81a16.09,16.09,0,0,0-1.62.6A12,12,0,0,0,188.55,240.09Z"/><path class="cls-121" d="M190,239.35h0c11.71,1.14,34.35,10.59,44.55,15.06a1.85,1.85,0,0,0,2.39-2.67L227,234a6,6,0,0,1-1.13.23c-5.45.6-14.83,1.7-30.25,3.71A21.21,21.21,0,0,0,190,239.35Z"/><ellipse class="cls-122" cx="229.87" cy="248.01" rx="1.87" ry="2.34" transform="translate(-57.31 426.56) rotate(-79.05)"/><rect class="cls-123" x="226.76" y="375.34" width="90.13" height="11.17" rx="2.36" transform="translate(543.66 761.86) rotate(-180)"/><path class="cls-124" d="M269.35,392.63h20.17a1.44,1.44,0,0,0,1.28-1l5.24-18c.36-1.26,0-2.32-.87-2.32H263.7c-.85,0-1.23,1.06-.87,2.32l5.24,18A1.44,1.44,0,0,0,269.35,392.63Z"/><path class="cls-125" d="M288.57,390.33l4.83-16.6,0-.14h-28l0,.14,4.83,16.6Z"/><rect class="cls-126" x="256.33" y="373.09" width="3.81" height="16.13" rx="1.91" transform="translate(516.47 762.3) rotate(-180)"/><rect class="cls-127" x="297.99" y="373.09" width="3.81" height="16.13" rx="1.91" transform="translate(599.79 762.3) rotate(-180)"/><path class="cls-128" d="M770.21,593.36l-38.54,2s-39.73-41.11,1.84-51.45c0,0-5.24-19.3,1.78-34.7a29.09,29.09,0,0,1,9.55-11.78,31.36,31.36,0,0,1,6.43-3.58S739,469.27,771.17,467c9.8-.7,13.93,1.95,14.94,6,.91,3.63-.7,8.38-3,12.8-3.44,6.73-8.38,12.68-8.08,12.68a47.88,47.88,0,0,1,5.8,8.09,39.14,39.14,0,0,1,4.35,10.66c1.41,6,1.1,12.83-3.4,19.26a29.15,29.15,0,0,1-4.81,5.3,41.44,41.44,0,0,1-5.44,4S805.86,560.16,770.21,593.36Z"/><path class="cls-129" d="M783.15,485.75a23.6,23.6,0,0,1-6.5,1.85c-2.28.36-5,.41-6.51-1.32a4.94,4.94,0,0,1-.33-5.54,10.81,10.81,0,0,1,4.29-4A29.19,29.19,0,0,1,785.72,473l.39-.05C787,476.58,785.41,481.33,783.15,485.75Z"/><path class="cls-130" d="M750.18,520.51a6.69,6.69,0,0,1-5.63.35c-2.11-.84-3.63-2.7-4.92-4.57a61.57,61.57,0,0,1-4.34-7.09,29.09,29.09,0,0,1,9.55-11.78,28.64,28.64,0,0,1,3,3c2.66,3.15,5.41,6.8,6.09,11C754.47,514.88,753.23,518.82,750.18,520.51Z"/><path class="cls-131" d="M785.22,517.18a17.82,17.82,0,0,1-1.12,2.19,15.49,15.49,0,0,1-12.2,7.28c-2.63.08-5.58-.87-6.65-3.26a5.83,5.83,0,0,1,.54-5.23,15.14,15.14,0,0,1,3.73-3.93,74.56,74.56,0,0,1,7.8-5.44c.88-.54,2.19-1.51,3.55-2.27A39.14,39.14,0,0,1,785.22,517.18Z"/><path class="cls-132" d="M797,547.48h0a32.37,32.37,0,0,1-7.23,11.06,42.15,42.15,0,0,1,2.92,8.34c1,4.34,1.56,9.74-.16,14.62-2.49,7.07-9.7,13-26.94,13A48.4,48.4,0,0,1,762.3,587a35.68,35.68,0,0,1-2.21-13.35,17.5,17.5,0,0,1,9.42-15.12,24.77,24.77,0,0,1,1.84-18.14,24,24,0,0,1,6-7.2,32.16,32.16,0,0,1,2.89-2.1c7.43-4.75,13.52-3.13,16.41,1.68C798.83,536.36,799.21,541.7,797,547.48Z"/><path class="cls-133" d="M797,547.48h0a7.1,7.1,0,0,1-2.11,0,5.51,5.51,0,0,1-4.56-3.83c-.5-2,.38-4.08,1.52-5.81a20.11,20.11,0,0,1,4.79-5.08C798.83,536.36,799.21,541.7,797,547.48Z"/><path class="cls-134" d="M782.31,539.73c-.71,1.58-2.72,2-4.44,2a16.42,16.42,0,0,1-6.52-1.36,24,24,0,0,1,6-7.2,17.34,17.34,0,0,1,2.23,1.24,7.36,7.36,0,0,1,2.35,2.19A3.41,3.41,0,0,1,782.31,539.73Z"/><path class="cls-135" d="M792.57,581.51a40,40,0,0,1-4.58,2.18,14,14,0,0,1-4.15,1.22,4.68,4.68,0,0,1-5-6.83,12.46,12.46,0,0,1,3.8-4.68,43.75,43.75,0,0,1,7.75-5.27c.68-.37,1.47-.84,2.31-1.24C793.76,571.23,794.29,576.63,792.57,581.51Z"/><path class="cls-136" d="M769.58,585.52a4.94,4.94,0,0,1-3.84,2.07,8.48,8.48,0,0,1-3.44-.57,35.68,35.68,0,0,1-2.21-13.35,28.5,28.5,0,0,0,3.83,2.22,14.4,14.4,0,0,1,5.05,3.72A5.34,5.34,0,0,1,769.58,585.52Z"/><path class="cls-137" d="M722.12,597.72a22.36,22.36,0,0,1-8.68-7,29.08,29.08,0,0,1-5.19-13.58,38.12,38.12,0,0,1-.12-9.58s-10.43-8.37-14.07-17c-1.83-4.36-1.94-8.81,1.88-12.3a18.47,18.47,0,0,1,6.19-3.52c5.5-2,10-1.79,13.64-.22a20.06,20.06,0,0,1,8.8,7.94c5,7.71,6.35,17.47,6.35,17.47q2.36,2.05,4.26,4.07a41.53,41.53,0,0,1,7.91,11.09C751.22,592.53,735.68,604,722.12,597.72Z"/><path class="cls-138" d="M707.8,550.37c-.42,1.43-2.06,2.09-3.54,2.33a15.2,15.2,0,0,1-10.2-2.17c-1.83-4.36-1.94-8.81,1.88-12.3a17.24,17.24,0,0,1,4.26,1.49,15.63,15.63,0,0,1,7.3,8.13A4,4,0,0,1,707.8,550.37Z"/><path class="cls-139" d="M724.57,542.43a13.79,13.79,0,0,1-7.24,6.29,7.11,7.11,0,0,1-3.31.53,3.68,3.68,0,0,1-2.78-1.69c-.82-1.42-.31-3.22.28-4.76a57,57,0,0,1,4.25-8.31A20.06,20.06,0,0,1,724.57,542.43Z"/><path class="cls-140" d="M743.09,575.06l-.29.55a9.76,9.76,0,0,1-2.88,3.45,4.87,4.87,0,0,1-4.31.71,4.93,4.93,0,0,1-2.86-3.41,10.92,10.92,0,0,1,0-4.59,28.81,28.81,0,0,1,2.46-7.8A41.53,41.53,0,0,1,743.09,575.06Z"/><path class="cls-141" d="M724.16,584.17a7.63,7.63,0,0,1-3.45,4.45,13.34,13.34,0,0,1-7.27,2.11,29.08,29.08,0,0,1-5.19-13.58c4.17-1.56,9.93-1.95,13.5.93A6.37,6.37,0,0,1,724.16,584.17Z"/><ellipse class="cls-142" cx="731.91" cy="679.28" rx="48.81" ry="6.93"/><path class="cls-16" d="M792.63,596.47c0,.17,0,.34,0,.52l-10.44,78.76a6,6,0,0,1-5.91,5.18H726.31a6,6,0,0,1-5.91-5.18L710,597c0-.18,0-.35,0-.52a6,6,0,0,1,6-6.22h70.81A6,6,0,0,1,792.63,596.47Z"/><path class="cls-3" d="M792.63,596.47H709.92a6,6,0,0,1,6-6.22h70.81A6,6,0,0,1,792.63,596.47Z"/></g></g></g></svg>